<svg version="1.1" viewBox="0.0 0.0 946.0288713910761 616.7139107611548" fill="none" stroke="none" stroke-linecap="square" stroke-miterlimit="10" xmlns:xlink="http://www.w3.org/1999/xlink" xmlns="http://www.w3.org/2000/svg"><clipPath id="p.0"><path d="m0 0l946.0289 0l0 616.7139l-946.0289 0l0 -616.7139z" clip-rule="nonzero"/></clipPath><g clip-path="url(#p.0)"><path fill="#000000" fill-opacity="0.0" d="m0 0l946.0289 0l0 616.7139l-946.0289 0z" fill-rule="evenodd"/><path fill="#ffffff" d="m314.54593 329.16534l167.65353 0l0 261.95276l-167.65353 0z" fill-rule="evenodd"/><path stroke="#000000" stroke-width="1.0" stroke-linejoin="round" stroke-linecap="butt" d="m314.54593 329.16534l167.65353 0l0 261.95276l-167.65353 0z" fill-rule="evenodd"/><path fill="#ffffff" d="m533.1391 329.16534l167.65356 0l0 261.95276l-167.65356 0z" fill-rule="evenodd"/><path stroke="#000000" stroke-width="1.0" stroke-linejoin="round" stroke-linecap="butt" d="m533.1391 329.16534l167.65356 0l0 261.95276l-167.65356 0z" fill-rule="evenodd"/><path fill="#ffffff" d="m749.67194 329.16534l167.6535 0l0 261.95276l-167.6535 0z" fill-rule="evenodd"/><path stroke="#000000" stroke-width="1.0" stroke-linejoin="round" stroke-linecap="butt" d="m749.67194 329.16534l167.6535 0l0 261.95276l-167.6535 0z" fill-rule="evenodd"/><path fill="#d9d9d9" d="m314.54593 67.2126l167.65353 0l0 261.95276l-167.65353 0z" fill-rule="evenodd"/><path stroke="#000000" stroke-width="1.0" stroke-linejoin="round" stroke-linecap="butt" d="m314.54593 67.2126l167.65353 0l0 261.95276l-167.65353 0z" fill-rule="evenodd"/><path fill="#d9d9d9" d="m533.1391 67.2126l167.65356 0l0 261.95276l-167.65356 0z" fill-rule="evenodd"/><path stroke="#000000" stroke-width="1.0" stroke-linejoin="round" stroke-linecap="butt" d="m533.1391 67.2126l167.65356 0l0 261.95276l-167.65356 0z" fill-rule="evenodd"/><path fill="#d9d9d9" d="m749.67194 67.2126l167.6535 0l0 261.95276l-167.6535 0z" fill-rule="evenodd"/><path stroke="#000000" stroke-width="1.0" stroke-linejoin="round" stroke-linecap="butt" d="m749.67194 67.2126l167.6535 0l0 261.95276l-167.6535 0z" fill-rule="evenodd"/><path fill="#f6b26b" d="m314.54855 8.832021l167.65353 0l0 45.984253l-167.65353 0z" fill-rule="evenodd"/><path fill="#000000" d="m354.7816 23.051645l3.765625 0l3.953125 11.437498l3.953125 -11.437498l3.765625 0l0 17.031248l-3.15625 0l0.5 -12.781248l-3.953125 12.781248l-2.21875 0l-3.953125 -12.781248l0.5 12.781248l-3.15625 0l0 -17.031248zm17.15625 11.281248q0 -2.640623 1.734375 -4.390623q1.5625 -1.546875 3.828125 -1.546875q2.265625 0 3.828125 1.546875q1.734375 1.75 1.734375 4.390623q0 2.640625 -1.734375 4.390625q-1.5625 1.546875 -3.828125 1.546875q-2.265625 0 -3.828125 -1.546875q-1.734375 -1.75 -1.734375 -4.390625zm5.5625 -3.249998q-0.921875 0 -1.515625 0.609375q-0.984375 0.9687481 -0.984375 2.640623q0 1.671875 0.890625 2.546875q0.6875 0.703125 1.609375 0.703125q0.921875 0 1.609375 -0.703125q0.890625 -0.875 0.890625 -2.546875q0 -1.671875 -0.984375 -2.640623q-0.59375 -0.609375 -1.515625 -0.609375zm7.0 -2.5l2.875 0l0 7.531248q0 0.921875 0.421875 1.328125q0.3125 0.328125 0.953125 0.328125q1.015625 0 1.796875 -0.796875q1.265625 -1.25 1.265625 -2.546875l0 -5.843748l2.875 0l0 11.499998l-2.875 0l0 -0.84375q-0.75 1.03125 -3.15625 1.03125q-2.171875 0 -3.171875 -0.984375q-0.984375 -1.0 -0.984375 -2.515625l0 -8.187498zm14.875 11.499998l-2.875 0l0 -11.499998l2.875 0l0 0.96875q0.953125 -1.15625 3.0625 -1.15625q2.078125 0 3.359375 1.265625q0.890625 0.90625 0.890625 2.140625l0 8.281248l-2.875 0l0 -7.71875q0 -0.6406231 -0.421875 -1.0468731q-0.40625 -0.421875 -1.234375 -0.421875q-0.734375 0 -1.515625 0.796875q-1.265625 1.2499981 -1.265625 2.640623l0 5.75zm9.96875 -15.156248l2.875 0l0 3.65625l3.1875 0l0 2.5l-3.1875 0l0 5.593748q0 0.359375 0.328125 0.671875q0.21875 0.234375 0.859375 0.234375q1.171875 0 2.84375 -1.0625l0 2.984375q-1.40625 0.765625 -2.75 0.765625q-2.078125 0 -3.078125 -0.984375q-1.078125 -1.09375 -1.078125 -2.421875l0 -5.781248l-2.25 0l0 -2.5l2.25 0l0 -3.65625zm7.78125 -1.78125l2.875 0l0 3.4375l-2.875 0l0 -3.4375zm0 5.4375l2.875 0l0 11.499998l-2.875 0l0 -11.499998zm7.75 11.499998l-2.875 0l0 -11.499998l2.875 0l0 0.96875q0.953125 -1.15625 3.0625 -1.15625q2.078125 0 3.359375 1.265625q0.890625 0.90625 0.890625 2.140625l0 8.281248l-2.875 0l0 -7.71875q0 -0.6406231 -0.421875 -1.0468731q-0.40625 -0.421875 -1.234375 -0.421875q-0.734375 0 -1.515625 0.796875q-1.265625 1.2499981 -1.265625 2.640623l0 5.75zm9.3125 -7.53125q0 -1.7968731 1.171875 -2.984373q1.1875 -1.171875 2.984375 -1.171875q1.6875 0 2.59375 0.765625q0.765625 -0.765625 2.28125 -0.765625l1.34375 0l0 3.03125q-1.65625 -0.6875 -2.171875 -0.5625q0.296875 0.390625 0.296875 1.6874981q0 1.890625 -1.171875 3.078125q-1.09375 1.078125 -3.078125 1.078125q-1.046875 0 -1.890625 -0.390625q-0.046875 0.03125 -0.046875 0.171875q0 0.078125 0.046875 0.109375q0.328125 0.34375 1.828125 0.421875q1.5 0.09375 3.21875 0.1875q1.125 0.234375 1.703125 0.796875q0.890625 0.90625 0.890625 2.140625q0 1.328125 -0.890625 2.234375q-1.1875 1.171875 -4.859375 1.171875q-3.109375 0 -4.296875 -1.171875q-0.796875 -0.8125 -0.796875 -1.953125q0 -0.859375 0.609375 -1.484375q0.4375 -0.421875 1.09375 -0.421875q-0.203125 0.234375 -0.625 -0.171875q-0.609375 -0.625 -0.609375 -1.578125q0 -1.21875 1.09375 -1.875q-0.71875 -0.734375 -0.71875 -2.34375zm4.15625 -1.5624981q-0.453125 0 -0.765625 0.328125q-0.515625 0.5 -0.515625 1.2343731q0 0.734375 0.421875 1.140625q0.40625 0.421875 0.953125 0.421875q0.640625 0 0.953125 -0.328125q0.421875 -0.40625 0.421875 -1.234375q0 -0.7343731 -0.515625 -1.2343731q-0.3125 -0.328125 -0.953125 -0.328125zm1.953125 8.812498q-2.28125 -0.09375 -3.421875 -0.265625q-0.421875 0.109375 -0.609375 0.3125q-0.234375 0.21875 -0.234375 0.484375q0 0.265625 0.234375 0.484375q0.40625 0.421875 2.078125 0.421875q2.328125 0 2.828125 -0.515625q0.234375 -0.21875 0.234375 -0.390625q0 -0.171875 -0.140625 -0.296875q-0.21875 -0.234375 -0.96875 -0.234375z" fill-rule="nonzero"/><path fill="#f6b26b" d="m532.1102 8.832021l167.65356 0l0 45.984253l-167.65356 0z" fill-rule="evenodd"/><path fill="#000000" d="m574.03076 23.051645l3.15625 0l0 11.749998q0 1.109375 0.703125 1.796875q0.875 0.890625 2.640625 0.890625q1.765625 0 2.640625 -0.890625q0.703125 -0.6875 0.703125 -1.796875l0 -11.749998l3.15625 0l0 11.843748q0 2.265625 -1.453125 3.734375q-1.65625 1.640625 -5.046875 1.640625q-3.390625 0 -5.046875 -1.640625q-1.453125 -1.46875 -1.453125 -3.734375l0 -11.843748zm17.78125 20.499998l-2.875 0l0 -14.968748l2.875 0l-0.078125 0.5q0.46875 -0.6875 2.484375 -0.6875q2.171875 0 3.546875 1.359375q1.640625 1.65625 1.640625 4.578123q0 3.015625 -1.640625 4.671875q-1.375 1.359375 -3.546875 1.359375q-2.25 0 -2.40625 -0.25l0 3.4375zm2.40625 -12.468748q-0.921875 0 -1.609375 0.703125q-0.796875 0.7812481 -0.796875 1.8906231l0 1.3125q0 1.109375 0.890625 1.984375q0.6875 0.703125 1.515625 0.703125q0.734375 0 1.234375 -0.515625q0.890625 -0.875 0.890625 -2.828125q0 -1.859375 -0.796875 -2.640623q-0.59375 -0.609375 -1.328125 -0.609375zm14.21875 -8.03125l2.875 0l0 17.031248l-2.875 0l0.09375 -0.5q-0.359375 0.6875 -2.40625 0.6875q-2.171875 0 -3.453125 -1.265625q-1.828125 -1.84375 -1.828125 -4.671875q0 -3.015623 1.640625 -4.671873q1.375 -1.359375 3.265625 -1.359375q2.328125 0 2.6875 0.515625l0 -5.765625zm-2.40625 7.9375q-0.734375 0 -1.328125 0.609375q-0.796875 0.7812481 -0.796875 2.734373q0 1.859375 0.890625 2.734375q0.5 0.515625 1.234375 0.515625q0.921875 0 1.515625 -0.609375q0.890625 -0.875 0.890625 -2.640625q0 -1.765625 -0.984375 -2.734373q-0.59375 -0.609375 -1.421875 -0.609375zm6.6875 1.6874981q0.453125 -2.062498 1.484375 -3.109373q1.1875 -1.171875 3.359375 -1.171875q2.546875 0 3.734375 1.171875q1.078125 1.09375 1.078125 2.515623l0 5.90625q0 0.78125 1.75 2.09375l-3.953125 0q-0.671875 -0.671875 -0.515625 -0.875q-0.859375 1.0625 -3.21875 1.0625q-1.984375 0 -3.078125 -1.078125q-0.984375 -1.0 -0.984375 -2.328125q0 -1.515625 0.984375 -2.515625q1.0625 -1.046875 2.90625 -1.359375q1.078125 -0.171875 1.90625 -0.453125q1.171875 -0.265625 1.328125 -0.359375q0 -0.2656231 -0.421875 -0.6718731q-0.40625 -0.421875 -1.234375 -0.421875q-1.109375 0 -1.515625 0.421875q-0.296875 0.28125 -0.546875 1.1718731l-3.0625 0zm6.859375 2.15625q-0.015625 0.078125 -0.5 0.171875q-1.59375 0.375 -2.4375 0.5625q-0.609375 0.15625 -0.875 0.4375q-0.328125 0.3125 -0.328125 0.671875q0 0.453125 0.328125 0.765625q0.125 0.140625 0.859375 0.140625q1.390625 0 2.265625 -0.890625q0.578125 -0.5625 0.609375 -0.65625l0.078125 -1.203125zm5.640625 -9.906248l2.875 0l0 3.65625l3.1875 0l0 2.5l-3.1875 0l0 5.593748q0 0.359375 0.328125 0.671875q0.21875 0.234375 0.859375 0.234375q1.171875 0 2.84375 -1.0625l0 2.984375q-1.40625 0.765625 -2.75 0.765625q-2.078125 0 -3.078125 -0.984375q-1.078125 -1.09375 -1.078125 -2.421875l0 -5.781248l-2.25 0l0 -2.5l2.25 0l0 -3.65625zm7.78125 -1.78125l2.875 0l0 3.4375l-2.875 0l0 -3.4375zm0 5.4375l2.875 0l0 11.499998l-2.875 0l0 -11.499998zm7.75 11.499998l-2.875 0l0 -11.499998l2.875 0l0 0.96875q0.953125 -1.15625 3.0625 -1.15625q2.078125 0 3.359375 1.265625q0.890625 0.90625 0.890625 2.140625l0 8.281248l-2.875 0l0 -7.71875q0 -0.6406231 -0.421875 -1.0468731q-0.40625 -0.421875 -1.234375 -0.421875q-0.734375 0 -1.515625 0.796875q-1.265625 1.2499981 -1.265625 2.640623l0 5.75zm9.3125 -7.53125q0 -1.7968731 1.171875 -2.984373q1.1875 -1.171875 2.984375 -1.171875q1.6875 0 2.59375 0.765625q0.765625 -0.765625 2.28125 -0.765625l1.34375 0l0 3.03125q-1.65625 -0.6875 -2.171875 -0.5625q0.296875 0.390625 0.296875 1.6874981q0 1.890625 -1.171875 3.078125q-1.09375 1.078125 -3.078125 1.078125q-1.046875 0 -1.890625 -0.390625q-0.046875 0.03125 -0.046875 0.171875q0 0.078125 0.046875 0.109375q0.328125 0.34375 1.828125 0.421875q1.5 0.09375 3.21875 0.1875q1.125 0.234375 1.703125 0.796875q0.890625 0.90625 0.890625 2.140625q0 1.328125 -0.890625 2.234375q-1.1875 1.171875 -4.859375 1.171875q-3.109375 0 -4.296875 -1.171875q-0.796875 -0.8125 -0.796875 -1.953125q0 -0.859375 0.609375 -1.484375q0.4375 -0.421875 1.09375 -0.421875q-0.203125 0.234375 -0.625 -0.171875q-0.609375 -0.625 -0.609375 -1.578125q0 -1.21875 1.09375 -1.875q-0.71875 -0.734375 -0.71875 -2.34375zm4.15625 -1.5624981q-0.453125 0 -0.765625 0.328125q-0.515625 0.5 -0.515625 1.2343731q0 0.734375 0.421875 1.140625q0.40625 0.421875 0.953125 0.421875q0.640625 0 0.953125 -0.328125q0.421875 -0.40625 0.421875 -1.234375q0 -0.7343731 -0.515625 -1.2343731q-0.3125 -0.328125 -0.953125 -0.328125zm1.953125 8.812498q-2.28125 -0.09375 -3.421875 -0.265625q-0.421875 0.109375 -0.609375 0.3125q-0.234375 0.21875 -0.234375 0.484375q0 0.265625 0.234375 0.484375q0.40625 0.421875 2.078125 0.421875q2.328125 0 2.828125 -0.515625q0.234375 -0.21875 0.234375 -0.390625q0 -0.171875 -0.140625 -0.296875q-0.21875 -0.234375 -0.96875 -0.234375z" fill-rule="nonzero"/><path fill="#f6b26b" d="m749.67194 8.832021l167.6535 0l0 45.984253l-167.6535 0z" fill-rule="evenodd"/><path fill="#000000" d="m776.3112 23.051645l3.15625 0l0 11.749998q0 1.109375 0.703125 1.796875q0.875 0.890625 2.640625 0.890625q1.765625 0 2.640625 -0.890625q0.703125 -0.6875 0.703125 -1.796875l0 -11.749998l3.15625 0l0 11.843748q0 2.265625 -1.453125 3.734375q-1.65625 1.640625 -5.046875 1.640625q-3.390625 0 -5.046875 -1.640625q-1.453125 -1.46875 -1.453125 -3.734375l0 -11.843748zm17.96875 17.031248l-2.875 0l0 -11.499998l2.875 0l0 0.96875q0.953125 -1.15625 3.0625 -1.15625q2.078125 0 3.359375 1.265625q0.890625 0.90625 0.890625 2.140625l0 8.281248l-2.875 0l0 -7.71875q0 -0.6406231 -0.421875 -1.0468731q-0.40625 -0.421875 -1.234375 -0.421875q-0.734375 0 -1.515625 0.796875q-1.265625 1.2499981 -1.265625 2.640623l0 5.75zm12.0 0l-2.875 0l0 -11.499998l2.875 0l0 0.484375q0.453125 -0.671875 2.3125 -0.671875q1.984375 0 3.078125 1.078125q0.515625 0.53125 0.421875 0.671875q0.90625 -1.75 3.34375 -1.75q1.703125 0 2.703125 0.984375q1.078125 1.09375 1.078125 2.421875l0 8.281248l-2.875 0l0 -7.90625q0 -0.3593731 -0.234375 -0.5781231q-0.40625 -0.421875 -0.953125 -0.421875q-1.109375 0 -1.796875 0.703125q-0.609375 0.5937481 -0.609375 1.0468731l0 7.15625l-2.875 0l0 -7.8125q0 -0.3593731 -0.421875 -0.7656231q-0.3125 -0.328125 -1.046875 -0.328125q-0.828125 0 -1.421875 0.609375q-0.703125 0.6874981 -0.703125 1.2343731l0 7.0625zm14.375 -5.75q0 -2.640623 1.734375 -4.390623q1.5625 -1.546875 3.828125 -1.546875q2.265625 0 3.828125 1.546875q1.734375 1.75 1.734375 4.390623q0 2.640625 -1.734375 4.390625q-1.5625 1.546875 -3.828125 1.546875q-2.265625 0 -3.828125 -1.546875q-1.734375 -1.75 -1.734375 -4.390625zm5.5625 -3.249998q-0.921875 0 -1.515625 0.609375q-0.984375 0.9687481 -0.984375 2.640623q0 1.671875 0.890625 2.546875q0.6875 0.703125 1.609375 0.703125q0.921875 0 1.609375 -0.703125q0.890625 -0.875 0.890625 -2.546875q0 -1.671875 -0.984375 -2.640623q-0.59375 -0.609375 -1.515625 -0.609375zm7.0 -2.5l2.875 0l0 7.531248q0 0.921875 0.421875 1.328125q0.3125 0.328125 0.953125 0.328125q1.015625 0 1.796875 -0.796875q1.265625 -1.25 1.265625 -2.546875l0 -5.843748l2.875 0l0 11.499998l-2.875 0l0 -0.84375q-0.75 1.03125 -3.15625 1.03125q-2.171875 0 -3.171875 -0.984375q-0.984375 -1.0 -0.984375 -2.515625l0 -8.187498zm14.875 11.499998l-2.875 0l0 -11.499998l2.875 0l0 0.96875q0.953125 -1.15625 3.0625 -1.15625q2.078125 0 3.359375 1.265625q0.890625 0.90625 0.890625 2.140625l0 8.281248l-2.875 0l0 -7.71875q0 -0.6406231 -0.421875 -1.0468731q-0.40625 -0.421875 -1.234375 -0.421875q-0.734375 0 -1.515625 0.796875q-1.265625 1.2499981 -1.265625 2.640623l0 5.75zm9.96875 -15.156248l2.875 0l0 3.65625l3.1875 0l0 2.5l-3.1875 0l0 5.593748q0 0.359375 0.328125 0.671875q0.21875 0.234375 0.859375 0.234375q1.171875 0 2.84375 -1.0625l0 2.984375q-1.40625 0.765625 -2.75 0.765625q-2.078125 0 -3.078125 -0.984375q-1.078125 -1.09375 -1.078125 -2.421875l0 -5.781248l-2.25 0l0 -2.5l2.25 0l0 -3.65625zm7.78125 -1.78125l2.875 0l0 3.4375l-2.875 0l0 -3.4375zm0 5.4375l2.875 0l0 11.499998l-2.875 0l0 -11.499998zm7.75 11.499998l-2.875 0l0 -11.499998l2.875 0l0 0.96875q0.953125 -1.15625 3.0625 -1.15625q2.078125 0 3.359375 1.265625q0.890625 0.90625 0.890625 2.140625l0 8.281248l-2.875 0l0 -7.71875q0 -0.6406231 -0.421875 -1.0468731q-0.40625 -0.421875 -1.234375 -0.421875q-0.734375 0 -1.515625 0.796875q-1.265625 1.2499981 -1.265625 2.640623l0 5.75zm9.3125 -7.53125q0 -1.7968731 1.171875 -2.984373q1.1875 -1.171875 2.984375 -1.171875q1.6875 0 2.59375 0.765625q0.765625 -0.765625 2.28125 -0.765625l1.34375 0l0 3.03125q-1.65625 -0.6875 -2.171875 -0.5625q0.296875 0.390625 0.296875 1.6874981q0 1.890625 -1.171875 3.078125q-1.09375 1.078125 -3.078125 1.078125q-1.046875 0 -1.890625 -0.390625q-0.046875 0.03125 -0.046875 0.171875q0 0.078125 0.046875 0.109375q0.328125 0.34375 1.828125 0.421875q1.5 0.09375 3.21875 0.1875q1.125 0.234375 1.703125 0.796875q0.890625 0.90625 0.890625 2.140625q0 1.328125 -0.890625 2.234375q-1.1875 1.171875 -4.859375 1.171875q-3.109375 0 -4.296875 -1.171875q-0.796875 -0.8125 -0.796875 -1.953125q0 -0.859375 0.609375 -1.484375q0.4375 -0.421875 1.09375 -0.421875q-0.203125 0.234375 -0.625 -0.171875q-0.609375 -0.625 -0.609375 -1.578125q0 -1.21875 1.09375 -1.875q-0.71875 -0.734375 -0.71875 -2.34375zm4.15625 -1.5624981q-0.453125 0 -0.765625 0.328125q-0.515625 0.5 -0.515625 1.2343731q0 0.734375 0.421875 1.140625q0.40625 0.421875 0.953125 0.421875q0.640625 0 0.953125 -0.328125q0.421875 -0.40625 0.421875 -1.234375q0 -0.7343731 -0.515625 -1.2343731q-0.3125 -0.328125 -0.953125 -0.328125zm1.953125 8.812498q-2.28125 -0.09375 -3.421875 -0.265625q-0.421875 0.109375 -0.609375 0.3125q-0.234375 0.21875 -0.234375 0.484375q0 0.265625 0.234375 0.484375q0.40625 0.421875 2.078125 0.421875q2.328125 0 2.828125 -0.515625q0.234375 -0.21875 0.234375 -0.390625q0 -0.171875 -0.140625 -0.296875q-0.21875 -0.234375 -0.96875 -0.234375z" fill-rule="nonzero"/><path fill="#b6d7a8" d="m44.711285 175.20473l255.99998 0l0 45.984253l-255.99998 0z" fill-rule="evenodd"/><path fill="#000000" d="m97.43004 193.83847l0 -2.90625l2.15625 -2.90625l1.125 0l-1.875 2.90625l1.5 0l0 2.90625l-2.90625 0zm-4.59375 0l0 -2.90625l2.15625 -2.90625l1.125 0l-1.875 2.90625l1.5 0l0 2.90625l-2.90625 0z" fill-rule="nonzero"/><path fill="#000000" d="m104.74254 189.83847l8.375 0q2.078125 0 3.453125 1.359375q1.359375 1.375 1.359375 3.734375q0 2.359375 -1.359375 3.734375q-0.78125 0.765625 -1.484375 0.875l3.71875 7.328125l-3.46875 0l-3.375 -6.9375l-4.0625 0l0 6.9375l-3.15625 0l0 -17.03125zm3.15625 2.78125l0 4.53125l5.03125 0q0.734375 0 1.234375 -0.515625q0.515625 -0.5 0.515625 -1.703125q0 -1.109375 -0.609375 -1.703125q-0.59375 -0.609375 -1.421875 -0.609375l-4.75 0zm11.0 8.59375q0 -2.734375 1.734375 -4.484375q1.46875 -1.453125 3.734375 -1.453125q2.171875 0 3.734375 1.546875q1.453125 1.46875 1.453125 4.890625l-7.59375 0q0 1.265625 0.796875 2.046875q0.6875 0.703125 1.796875 0.703125q1.109375 0 1.515625 -0.421875q0.515625 -0.5 0.515625 -1.640625l3.1875 0q-0.546875 2.4375 -1.484375 3.390625q-1.375 1.359375 -3.734375 1.359375q-2.453125 0 -4.015625 -1.546875q-1.640625 -1.65625 -1.640625 -4.390625zm5.375 -3.34375q-0.921875 0 -1.515625 0.609375q-0.5625 0.546875 -0.59375 0.734375l4.234375 0q0 -0.234375 -0.609375 -0.828125q-0.5 -0.515625 -1.515625 -0.515625zm9.78125 9.09375l-2.875 0l0 -11.5l2.875 0l0 0.96875q0.953125 -1.15625 3.0625 -1.15625q2.078125 0 3.359375 1.265625q0.890625 0.90625 0.890625 2.140625l0 8.28125l-2.875 0l0 -7.71875q0 -0.640625 -0.421875 -1.046875q-0.40625 -0.421875 -1.234375 -0.421875q-0.734375 0 -1.515625 0.796875q-1.265625 1.25 -1.265625 2.640625l0 5.75zm16.53125 -17.03125l2.875 0l0 17.03125l-2.875 0l0.09375 -0.5q-0.359375 0.6875 -2.40625 0.6875q-2.171875 0 -3.453125 -1.265625q-1.828125 -1.84375 -1.828125 -4.671875q0 -3.015625 1.640625 -4.671875q1.375 -1.359375 3.265625 -1.359375q2.328125 0 2.6875 0.515625l0 -5.765625zm-2.40625 7.9375q-0.734375 0 -1.328125 0.609375q-0.796875 0.78125 -0.796875 2.734375q0 1.859375 0.890625 2.734375q0.5 0.515625 1.234375 0.515625q0.921875 0 1.515625 -0.609375q0.890625 -0.875 0.890625 -2.640625q0 -1.765625 -0.984375 -2.734375q-0.59375 -0.609375 -1.421875 -0.609375zm6.625 3.34375q0 -2.734375 1.734375 -4.484375q1.46875 -1.453125 3.734375 -1.453125q2.171875 0 3.734375 1.546875q1.453125 1.46875 1.453125 4.890625l-7.59375 0q0 1.265625 0.796875 2.046875q0.6875 0.703125 1.796875 0.703125q1.109375 0 1.515625 -0.421875q0.515625 -0.5 0.515625 -1.640625l3.1875 0q-0.546875 2.4375 -1.484375 3.390625q-1.375 1.359375 -3.734375 1.359375q-2.453125 0 -4.015625 -1.546875q-1.640625 -1.65625 -1.640625 -4.390625zm5.375 -3.34375q-0.921875 0 -1.515625 0.609375q-0.5625 0.546875 -0.59375 0.734375l4.234375 0q0 -0.234375 -0.609375 -0.828125q-0.5 -0.515625 -1.515625 -0.515625zm9.859375 -0.953125q1.65625 -1.640625 4.890625 -1.640625l0 3.203125q-0.9375 -0.234375 -1.53125 -0.234375q-1.203125 0 -2.265625 1.078125q-0.953125 0.9375 -1.265625 1.875l0 5.765625l-2.875 0l0 -11.5l2.875 0l-0.25 2.234375q-0.171875 -0.171875 0.421875 -0.78125zm12.796875 -6.984375l8.0 0q2.265625 0 3.734375 1.453125q1.453125 1.46875 1.453125 4.015625q0 2.546875 -1.359375 3.921875q-1.375 1.359375 -3.828125 1.359375l-4.84375 0l0 6.28125l-3.15625 0l0 -17.03125zm3.15625 2.78125l0 5.1875l4.375 0q1.109375 0 1.703125 -0.609375q0.703125 -0.6875 0.703125 -1.890625q0 -1.390625 -0.609375 -1.984375q-0.6875 -0.703125 -1.796875 -0.703125l-4.375 0zm11.5625 -2.78125l2.875 0l0 6.4375q0.84375 -1.09375 2.96875 -1.09375q2.171875 0 3.265625 1.078125q1.078125 1.09375 1.078125 2.609375l0 8.0l-2.875 0l0 -7.53125q0 -0.828125 -0.515625 -1.328125q-0.3125 -0.328125 -0.953125 -0.328125q-0.828125 0 -1.515625 0.703125q-0.953125 0.9375 -1.453125 2.625l0 5.859375l-2.875 0l0 -17.03125zm11.78125 9.625q0.453125 -2.0625 1.484375 -3.109375q1.1875 -1.171875 3.359375 -1.171875q2.546875 0 3.734375 1.171875q1.078125 1.09375 1.078125 2.515625l0 5.90625q0 0.78125 1.75 2.09375l-3.953125 0q-0.671875 -0.671875 -0.515625 -0.875q-0.859375 1.0625 -3.21875 1.0625q-1.984375 0 -3.078125 -1.078125q-0.984375 -1.0 -0.984375 -2.328125q0 -1.515625 0.984375 -2.515625q1.0625 -1.046875 2.90625 -1.359375q1.078125 -0.171875 1.90625 -0.453125q1.171875 -0.265625 1.328125 -0.359375q0 -0.265625 -0.421875 -0.671875q-0.40625 -0.421875 -1.234375 -0.421875q-1.109375 0 -1.515625 0.421875q-0.296875 0.28125 -0.546875 1.171875l-3.0625 0zm6.859375 2.15625q-0.015625 0.078125 -0.5 0.171875q-1.59375 0.375 -2.4375 0.5625q-0.609375 0.15625 -0.875 0.4375q-0.328125 0.3125 -0.328125 0.671875q0 0.453125 0.328125 0.765625q0.125 0.140625 0.859375 0.140625q1.390625 0 2.265625 -0.890625q0.578125 -0.5625 0.609375 -0.65625l0.078125 -1.203125zm4.796875 -2.75q0 -1.421875 0.984375 -2.421875q1.28125 -1.265625 3.546875 -1.265625q2.453125 0 3.640625 1.171875q1.078125 1.09375 1.078125 2.921875l-2.8125 0q-0.125 -0.921875 -0.296875 -1.078125q-0.40625 -0.421875 -1.703125 -0.421875q-0.734375 0 -1.140625 0.421875q-0.328125 0.3125 -0.328125 0.671875q0 0.171875 0.140625 0.296875q0.265625 0.28125 2.09375 0.71875q1.25 0.28125 2.125 0.578125q0.859375 0.3125 1.3125 0.765625q0.890625 0.90625 0.890625 2.140625q0 1.328125 -1.078125 2.421875q-1.28125 1.265625 -3.828125 1.265625q-2.546875 0 -3.828125 -1.265625q-1.078125 -1.09375 -1.078125 -3.203125l2.828125 0q0.125 1.109375 0.375 1.359375q0.5 0.515625 1.609375 0.515625q1.390625 0 1.796875 -0.421875q0.234375 -0.21875 0.234375 -0.578125q0 -0.171875 -0.328125 -0.484375q-0.265625 -0.28125 -0.96875 -0.4375q-1.71875 -0.375 -2.5625 -0.65625q-1.15625 -0.3125 -1.71875 -0.875q-0.984375 -1.0 -0.984375 -2.140625zm10.78125 2.25q0 -2.734375 1.734375 -4.484375q1.46875 -1.453125 3.734375 -1.453125q2.171875 0 3.734375 1.546875q1.453125 1.46875 1.453125 4.890625l-7.59375 0q0 1.265625 0.796875 2.046875q0.6875 0.703125 1.796875 0.703125q1.109375 0 1.515625 -0.421875q0.515625 -0.5 0.515625 -1.640625l3.1875 0q-0.546875 2.4375 -1.484375 3.390625q-1.375 1.359375 -3.734375 1.359375q-2.453125 0 -4.015625 -1.546875q-1.640625 -1.65625 -1.640625 -4.390625zm5.375 -3.34375q-0.921875 0 -1.515625 0.609375q-0.5625 0.546875 -0.59375 0.734375l4.234375 0q0 -0.234375 -0.609375 -0.828125q-0.5 -0.515625 -1.515625 -0.515625z" fill-rule="nonzero"/><path fill="#000000" d="m250.33629 193.93222l-1.125 0l1.875 -3.0l-1.5 0l0 -2.90625l2.90625 0l0 2.90625l-2.15625 3.0zm-4.59375 0l-1.125 0l1.875 -3.0l-1.5 0l0 -2.90625l2.90625 0l0 2.90625l-2.15625 3.0z" fill-rule="nonzero"/><path fill="#000000" fill-opacity="0.0" d="m482.19946 460.14172l25.469666 0l0 -261.95276l25.459473 0" fill-rule="evenodd"/><path stroke="#000000" stroke-width="3.0" stroke-linejoin="round" stroke-linecap="butt" d="m482.19946 460.14172l25.469666 0l0 -261.95276l15.178223 0" fill-rule="evenodd"/><path fill="#000000" stroke="#000000" stroke-width="3.0" stroke-linecap="butt" d="m522.84735 198.18898l-3.3737793 3.3737488l9.269348 -3.3737488l-9.269348 -3.3737488z" fill-rule="evenodd"/><path fill="#000000" fill-opacity="0.0" d="m700.79266 460.14172l24.439453 0l0 0.06298828l24.442444 0" fill-rule="evenodd"/><path stroke="#000000" stroke-width="3.0" stroke-linejoin="round" stroke-linecap="butt" d="m700.79266 460.14172l24.439453 0l0 0.06298828l14.161194 0" fill-rule="evenodd"/><path fill="#000000" stroke="#000000" stroke-width="3.0" stroke-linecap="butt" d="m739.3933 460.2047l-3.3737793 3.3737488l9.269287 -3.3737488l-9.269287 -3.3737488z" fill-rule="evenodd"/><path fill="#000000" fill-opacity="0.0" d="m399.76904 300.17322l-1.3858337 131.81104" fill-rule="evenodd"/><path stroke="#000000" stroke-width="3.0" stroke-linejoin="round" stroke-linecap="butt" d="m399.76904 300.17322l-1.2777405 121.530365" fill-rule="evenodd"/><path fill="#000000" stroke="#000000" stroke-width="3.0" stroke-linecap="butt" d="m398.4913 421.70355l-3.3381042 -3.409027l3.276123 9.30426l3.4710083 -9.233307z" fill-rule="evenodd"/><path fill="#000000" fill-opacity="0.0" d="m615.9344 300.18088l0 131.77951" fill-rule="evenodd"/><path stroke="#000000" stroke-width="3.0" stroke-linejoin="round" stroke-linecap="butt" d="m615.9344 300.18085l0 121.49829" fill-rule="evenodd"/><path fill="#000000" stroke="#000000" stroke-width="3.0" stroke-linecap="butt" d="m615.9344 421.67914l-3.3737793 -3.3737793l3.3737793 9.269318l3.3737183 -9.269318z" fill-rule="evenodd"/><path fill="#b6d7a8" d="m44.99475 437.1496l256.0 0l0 45.984253l-256.0 0z" fill-rule="evenodd"/><path fill="#000000" d="m94.901 455.78336l0 -2.90625l2.15625 -2.90625l1.125 0l-1.875 2.90625l1.5 0l0 2.90625l-2.90625 0zm-4.59375 0l0 -2.90625l2.15625 -2.90625l1.125 0l-1.875 2.90625l1.5 0l0 2.90625l-2.90625 0z" fill-rule="nonzero"/><path fill="#000000" d="m101.55725 460.4396q0 -4.328125 2.484375 -6.828125q1.9375 -1.921875 4.953125 -1.921875q3.015625 0 4.765625 1.734375q1.828125 1.828125 1.9375 5.171875l-3.21875 0q-0.21875 -2.25 -1.125 -3.140625q-0.96875 -0.984375 -2.359375 -0.984375q-1.484375 0 -2.640625 1.171875q-1.546875 1.53125 -1.546875 4.796875q0 3.265625 1.546875 4.796875q1.0625 1.078125 2.640625 1.078125q1.671875 0 2.546875 -0.890625q1.171875 -1.15625 1.171875 -3.890625l3.265625 0q-0.109375 3.90625 -2.03125 5.828125q-1.75 1.734375 -4.953125 1.734375q-3.015625 0 -4.953125 -1.921875q-2.484375 -2.5 -2.484375 -6.734375zm15.65625 2.71875q0 -2.640625 1.734375 -4.390625q1.5625 -1.546875 3.828125 -1.546875q2.265625 0 3.828125 1.546875q1.734375 1.75 1.734375 4.390625q0 2.640625 -1.734375 4.390625q-1.5625 1.546875 -3.828125 1.546875q-2.265625 0 -3.828125 -1.546875q-1.734375 -1.75 -1.734375 -4.390625zm5.5625 -3.25q-0.921875 0 -1.515625 0.609375q-0.984375 0.96875 -0.984375 2.640625q0 1.671875 0.890625 2.546875q0.6875 0.703125 1.609375 0.703125q0.921875 0 1.609375 -0.703125q0.890625 -0.875 0.890625 -2.546875q0 -1.671875 -0.984375 -2.640625q-0.59375 -0.609375 -1.515625 -0.609375zm9.875 9.0l-2.875 0l0 -11.5l2.875 0l0 0.484375q0.453125 -0.671875 2.3125 -0.671875q1.984375 0 3.078125 1.078125q0.515625 0.53125 0.421875 0.671875q0.90625 -1.75 3.34375 -1.75q1.703125 0 2.703125 0.984375q1.078125 1.09375 1.078125 2.421875l0 8.28125l-2.875 0l0 -7.90625q0 -0.359375 -0.234375 -0.578125q-0.40625 -0.421875 -0.953125 -0.421875q-1.109375 0 -1.796875 0.703125q-0.609375 0.59375 -0.609375 1.046875l0 7.15625l-2.875 0l0 -7.8125q0 -0.359375 -0.421875 -0.765625q-0.3125 -0.328125 -1.046875 -0.328125q-0.828125 0 -1.421875 0.609375q-0.703125 0.6875 -0.703125 1.234375l0 7.0625zm17.625 0l-2.875 0l0 -11.5l2.875 0l0 0.484375q0.453125 -0.671875 2.3125 -0.671875q1.984375 0 3.078125 1.078125q0.515625 0.53125 0.421875 0.671875q0.90625 -1.75 3.34375 -1.75q1.703125 0 2.703125 0.984375q1.078125 1.09375 1.078125 2.421875l0 8.28125l-2.875 0l0 -7.90625q0 -0.359375 -0.234375 -0.578125q-0.40625 -0.421875 -0.953125 -0.421875q-1.109375 0 -1.796875 0.703125q-0.609375 0.59375 -0.609375 1.046875l0 7.15625l-2.875 0l0 -7.8125q0 -0.359375 -0.421875 -0.765625q-0.3125 -0.328125 -1.046875 -0.328125q-0.828125 0 -1.421875 0.609375q-0.703125 0.6875 -0.703125 1.234375l0 7.0625zm14.9375 -16.9375l2.875 0l0 3.4375l-2.875 0l0 -3.4375zm0 5.4375l2.875 0l0 11.5l-2.875 0l0 -11.5zm5.71875 -3.65625l2.875 0l0 3.65625l3.1875 0l0 2.5l-3.1875 0l0 5.59375q0 0.359375 0.328125 0.671875q0.21875 0.234375 0.859375 0.234375q1.171875 0 2.84375 -1.0625l0 2.984375q-1.40625 0.765625 -2.75 0.765625q-2.078125 0 -3.078125 -0.984375q-1.078125 -1.09375 -1.078125 -2.421875l0 -5.78125l-2.25 0l0 -2.5l2.25 0l0 -3.65625zm15.0 -1.875l8.0 0q2.265625 0 3.734375 1.453125q1.453125 1.46875 1.453125 4.015625q0 2.546875 -1.359375 3.921875q-1.375 1.359375 -3.828125 1.359375l-4.84375 0l0 6.28125l-3.15625 0l0 -17.03125zm3.15625 2.78125l0 5.1875l4.375 0q1.109375 0 1.703125 -0.609375q0.703125 -0.6875 0.703125 -1.890625q0 -1.390625 -0.609375 -1.984375q-0.6875 -0.703125 -1.796875 -0.703125l-4.375 0zm11.5625 -2.78125l2.875 0l0 6.4375q0.84375 -1.09375 2.96875 -1.09375q2.171875 0 3.265625 1.078125q1.078125 1.09375 1.078125 2.609375l0 8.0l-2.875 0l0 -7.53125q0 -0.828125 -0.515625 -1.328125q-0.3125 -0.328125 -0.953125 -0.328125q-0.828125 0 -1.515625 0.703125q-0.953125 0.9375 -1.453125 2.625l0 5.859375l-2.875 0l0 -17.03125zm11.78125 9.625q0.453125 -2.0625 1.484375 -3.109375q1.1875 -1.171875 3.359375 -1.171875q2.546875 0 3.734375 1.171875q1.078125 1.09375 1.078125 2.515625l0 5.90625q0 0.78125 1.75 2.09375l-3.953125 0q-0.671875 -0.671875 -0.515625 -0.875q-0.859375 1.0625 -3.21875 1.0625q-1.984375 0 -3.078125 -1.078125q-0.984375 -1.0 -0.984375 -2.328125q0 -1.515625 0.984375 -2.515625q1.0625 -1.046875 2.90625 -1.359375q1.078125 -0.171875 1.90625 -0.453125q1.171875 -0.265625 1.328125 -0.359375q0 -0.265625 -0.421875 -0.671875q-0.40625 -0.421875 -1.234375 -0.421875q-1.109375 0 -1.515625 0.421875q-0.296875 0.28125 -0.546875 1.171875l-3.0625 0zm6.859375 2.15625q-0.015625 0.078125 -0.5 0.171875q-1.59375 0.375 -2.4375 0.5625q-0.609375 0.15625 -0.875 0.4375q-0.328125 0.3125 -0.328125 0.671875q0 0.453125 0.328125 0.765625q0.125 0.140625 0.859375 0.140625q1.390625 0 2.265625 -0.890625q0.578125 -0.5625 0.609375 -0.65625l0.078125 -1.203125zm4.796875 -2.75q0 -1.421875 0.984375 -2.421875q1.28125 -1.265625 3.546875 -1.265625q2.453125 0 3.640625 1.171875q1.078125 1.09375 1.078125 2.921875l-2.8125 0q-0.125 -0.921875 -0.296875 -1.078125q-0.40625 -0.421875 -1.703125 -0.421875q-0.734375 0 -1.140625 0.421875q-0.328125 0.3125 -0.328125 0.671875q0 0.171875 0.140625 0.296875q0.265625 0.28125 2.09375 0.71875q1.25 0.28125 2.125 0.578125q0.859375 0.3125 1.3125 0.765625q0.890625 0.90625 0.890625 2.140625q0 1.328125 -1.078125 2.421875q-1.28125 1.265625 -3.828125 1.265625q-2.546875 0 -3.828125 -1.265625q-1.078125 -1.09375 -1.078125 -3.203125l2.828125 0q0.125 1.109375 0.375 1.359375q0.5 0.515625 1.609375 0.515625q1.390625 0 1.796875 -0.421875q0.234375 -0.21875 0.234375 -0.578125q0 -0.171875 -0.328125 -0.484375q-0.265625 -0.28125 -0.96875 -0.4375q-1.71875 -0.375 -2.5625 -0.65625q-1.15625 -0.3125 -1.71875 -0.875q-0.984375 -1.0 -0.984375 -2.140625zm10.78125 2.25q0 -2.734375 1.734375 -4.484375q1.46875 -1.453125 3.734375 -1.453125q2.171875 0 3.734375 1.546875q1.453125 1.46875 1.453125 4.890625l-7.59375 0q0 1.265625 0.796875 2.046875q0.6875 0.703125 1.796875 0.703125q1.109375 0 1.515625 -0.421875q0.515625 -0.5 0.515625 -1.640625l3.1875 0q-0.546875 2.4375 -1.484375 3.390625q-1.375 1.359375 -3.734375 1.359375q-2.453125 0 -4.015625 -1.546875q-1.640625 -1.65625 -1.640625 -4.390625zm5.375 -3.34375q-0.921875 0 -1.515625 0.609375q-0.5625 0.546875 -0.59375 0.734375l4.234375 0q0 -0.234375 -0.609375 -0.828125q-0.5 -0.515625 -1.515625 -0.515625z" fill-rule="nonzero"/><path fill="#000000" d="m253.43225 455.8771l-1.125 0l1.875 -3.0l-1.5 0l0 -2.90625l2.90625 0l0 2.90625l-2.15625 3.0zm-4.59375 0l-1.125 0l1.875 -3.0l-1.5 0l0 -2.90625l2.90625 0l0 2.90625l-2.15625 3.0z" fill-rule="nonzero"/><path fill="#fff2cc" d="m329.40683 441.7036l0 0c0 -5.3750916 4.357361 -9.732483 9.732483 -9.732483l118.4563 0c2.5812073 0 5.0567017 1.0253906 6.881897 2.850586c1.8251953 1.8251953 2.850586 4.3006897 2.850586 6.881897l0 38.92874c0 5.3750916 -4.3573914 9.732483 -9.732483 9.732483l-118.4563 0c-5.375122 0 -9.732483 -4.3573914 -9.732483 -9.732483z" fill-rule="evenodd"/><path stroke="#000000" stroke-width="1.0" stroke-linejoin="round" stroke-linecap="butt" d="m329.40683 441.7036l0 0c0 -5.3750916 4.357361 -9.732483 9.732483 -9.732483l118.4563 0c2.5812073 0 5.0567017 1.0253906 6.881897 2.850586c1.8251953 1.8251953 2.850586 4.3006897 2.850586 6.881897l0 38.92874c0 5.3750916 -4.3573914 9.732483 -9.732483 9.732483l-118.4563 0c-5.375122 0 -9.732483 -4.3573914 -9.732483 -9.732483z" fill-rule="evenodd"/><path fill="#9fc5e8" d="m329.40683 528.00275l0 0c0 -5.375061 4.357361 -9.732483 9.732483 -9.732483l118.4563 0c2.5812073 0 5.0567017 1.0253906 6.881897 2.850586c1.8251953 1.8251953 2.850586 4.30072 2.850586 6.881897l0 38.928772c0 5.375122 -4.3573914 9.732483 -9.732483 9.732483l-118.4563 0c-5.375122 0 -9.732483 -4.357361 -9.732483 -9.732483z" fill-rule="evenodd"/><path stroke="#0000ff" stroke-width="8.0" stroke-linejoin="round" stroke-linecap="butt" d="m329.40683 528.00275l0 0c0 -5.375061 4.357361 -9.732483 9.732483 -9.732483l118.4563 0c2.5812073 0 5.0567017 1.0253906 6.881897 2.850586c1.8251953 1.8251953 2.850586 4.30072 2.850586 6.881897l0 38.928772c0 5.375122 -4.3573914 9.732483 -9.732483 9.732483l-118.4563 0c-5.375122 0 -9.732483 -4.357361 -9.732483 -9.732483z" fill-rule="evenodd"/><path fill="#0000ff" d="m351.91434 544.2259l2.875 0l0 7.53125q0 0.921875 0.421875 1.328125q0.3125 0.328125 0.953125 0.328125q1.015625 0 1.796875 -0.796875q1.265625 -1.25 1.265625 -2.546875l0 -5.84375l2.875 0l0 11.5l-2.875 0l0 -0.84375q-0.75 1.03125 -3.15625 1.03125q-2.171875 0 -3.171875 -0.984375q-0.984375 -1.0 -0.984375 -2.515625l0 -8.1875zm12.0 3.5q0 -1.421875 0.984375 -2.421875q1.28125 -1.265625 3.546875 -1.265625q2.453125 0 3.640625 1.171875q1.078125 1.09375 1.078125 2.921875l-2.8125 0q-0.125 -0.921875 -0.296875 -1.078125q-0.40625 -0.421875 -1.703125 -0.421875q-0.734375 0 -1.140625 0.421875q-0.328125 0.3125 -0.328125 0.671875q0 0.171875 0.140625 0.296875q0.265625 0.28125 2.09375 0.71875q1.25 0.28125 2.125 0.578125q0.859375 0.3125 1.3125 0.765625q0.890625 0.90625 0.890625 2.140625q0 1.328125 -1.078125 2.421875q-1.28125 1.265625 -3.828125 1.265625q-2.546875 0 -3.828125 -1.265625q-1.078125 -1.09375 -1.078125 -3.203125l2.828125 0q0.125 1.109375 0.375 1.359375q0.5 0.515625 1.609375 0.515625q1.390625 0 1.796875 -0.421875q0.234375 -0.21875 0.234375 -0.578125q0 -0.171875 -0.328125 -0.484375q-0.265625 -0.28125 -0.96875 -0.4375q-1.71875 -0.375 -2.5625 -0.65625q-1.15625 -0.3125 -1.71875 -0.875q-0.984375 -1.0 -0.984375 -2.140625zm10.78125 2.25q0 -2.734375 1.734375 -4.484375q1.46875 -1.453125 3.734375 -1.453125q2.171875 0 3.734375 1.546875q1.453125 1.46875 1.453125 4.890625l-7.59375 0q0 1.265625 0.796875 2.046875q0.6875 0.703125 1.796875 0.703125q1.109375 0 1.515625 -0.421875q0.515625 -0.5 0.515625 -1.640625l3.1875 0q-0.546875 2.4375 -1.484375 3.390625q-1.375 1.359375 -3.734375 1.359375q-2.453125 0 -4.015625 -1.546875q-1.640625 -1.65625 -1.640625 -4.390625zm5.375 -3.34375q-0.921875 0 -1.515625 0.609375q-0.5625 0.546875 -0.59375 0.734375l4.234375 0q0 -0.234375 -0.609375 -0.828125q-0.5 -0.515625 -1.515625 -0.515625zm7.09375 -7.9375l11.3125 0l0 2.78125l-8.15625 0l0 3.96875l7.59375 0l0 2.78125l-7.59375 0l0 4.71875l8.625 0l0 2.78125l-11.78125 0l0 -17.03125zm17.125 5.53125l3.1875 0l0 2.5l-3.1875 0l0 9.0l-2.875 0l0 -9.0l-2.25 0l0 -2.5l2.25 0l0 -2.125q0 -1.515625 0.984375 -2.515625q1.09375 -1.078125 2.890625 -1.078125q1.3125 0 3.03125 0.609375l0 3.046875q-1.9375 -0.96875 -2.65625 -0.96875q-0.828125 0 -1.140625 0.328125q-0.234375 0.21875 -0.234375 0.578125l0 2.125zm7.3125 0l3.1875 0l0 2.5l-3.1875 0l0 9.0l-2.875 0l0 -9.0l-2.25 0l0 -2.5l2.25 0l0 -2.125q0 -1.515625 0.984375 -2.515625q1.09375 -1.078125 2.890625 -1.078125q1.3125 0 3.03125 0.609375l0 3.046875q-1.9375 -0.96875 -2.65625 -0.96875q-0.828125 0 -1.140625 0.328125q-0.234375 0.21875 -0.234375 0.578125l0 2.125zm3.3125 5.75q0 -2.734375 1.734375 -4.484375q1.46875 -1.453125 3.734375 -1.453125q2.171875 0 3.734375 1.546875q1.453125 1.46875 1.453125 4.890625l-7.59375 0q0 1.265625 0.796875 2.046875q0.6875 0.703125 1.796875 0.703125q1.109375 0 1.515625 -0.421875q0.515625 -0.5 0.515625 -1.640625l3.1875 0q-0.546875 2.4375 -1.484375 3.390625q-1.375 1.359375 -3.734375 1.359375q-2.453125 0 -4.015625 -1.546875q-1.640625 -1.65625 -1.640625 -4.390625zm5.375 -3.34375q-0.921875 0 -1.515625 0.609375q-0.5625 0.546875 -0.59375 0.734375l4.234375 0q0 -0.234375 -0.609375 -0.828125q-0.5 -0.515625 -1.515625 -0.515625zm6.625 3.4375q0 -2.734375 1.640625 -4.390625q1.5625 -1.546875 3.828125 -1.546875q2.453125 0 3.734375 1.265625q1.140625 1.15625 1.421875 3.390625l-3.0625 0q-0.125 -1.015625 -0.671875 -1.546875q-0.40625 -0.421875 -1.328125 -0.421875q-0.921875 0 -1.515625 0.609375q-0.984375 0.96875 -0.984375 2.734375q0 1.671875 0.890625 2.546875q0.59375 0.609375 1.515625 0.609375q1.109375 0 1.703125 -0.609375q0.609375 -0.59375 0.609375 -2.109375l3.09375 0q-0.140625 2.6875 -1.484375 4.046875q-1.375 1.359375 -3.921875 1.359375q-2.171875 0 -3.640625 -1.453125q-1.828125 -1.84375 -1.828125 -4.484375zm13.125 -9.5l2.875 0l0 3.65625l3.1875 0l0 2.5l-3.1875 0l0 5.59375q0 0.359375 0.328125 0.671875q0.21875 0.234375 0.859375 0.234375q1.171875 0 2.84375 -1.0625l0 2.984375q-1.40625 0.765625 -2.75 0.765625q-2.078125 0 -3.078125 -0.984375q-1.078125 -1.09375 -1.078125 -2.421875l0 -5.78125l-2.25 0l0 -2.5l2.25 0l0 -3.65625z" fill-rule="nonzero"/><path fill="#fff2cc" d="m546.9764 441.7036l0 0c0 -5.3750916 4.357361 -9.732483 9.732483 -9.732483l118.4563 0c2.5812378 0 5.0567017 1.0253906 6.881897 2.850586c1.8251953 1.8251953 2.850586 4.3006897 2.850586 6.881897l0 38.92874c0 5.3750916 -4.357361 9.732483 -9.732483 9.732483l-118.4563 0c-5.375122 0 -9.732483 -4.3573914 -9.732483 -9.732483z" fill-rule="evenodd"/><path stroke="#000000" stroke-width="1.0" stroke-linejoin="round" stroke-linecap="butt" d="m546.9764 441.7036l0 0c0 -5.3750916 4.357361 -9.732483 9.732483 -9.732483l118.4563 0c2.5812378 0 5.0567017 1.0253906 6.881897 2.850586c1.8251953 1.8251953 2.850586 4.3006897 2.850586 6.881897l0 38.92874c0 5.3750916 -4.357361 9.732483 -9.732483 9.732483l-118.4563 0c-5.375122 0 -9.732483 -4.3573914 -9.732483 -9.732483z" fill-rule="evenodd"/><path fill="#9fc5e8" d="m546.9764 528.00287l0 0c0 -5.375061 4.357361 -9.732483 9.732483 -9.732483l118.4563 0c2.5812378 0 5.0567017 1.0253906 6.881897 2.850586c1.8251953 1.8251953 2.850586 4.30072 2.850586 6.881897l0 38.928772c0 5.375061 -4.357361 9.732483 -9.732483 9.732483l-118.4563 0c-5.375122 0 -9.732483 -4.357422 -9.732483 -9.732483z" fill-rule="evenodd"/><path stroke="#000000" stroke-width="1.0" stroke-linejoin="round" stroke-linecap="butt" d="m546.9764 528.00287l0 0c0 -5.375061 4.357361 -9.732483 9.732483 -9.732483l118.4563 0c2.5812378 0 5.0567017 1.0253906 6.881897 2.850586c1.8251953 1.8251953 2.850586 4.30072 2.850586 6.881897l0 38.928772c0 5.375061 -4.357361 9.732483 -9.732483 9.732483l-118.4563 0c-5.375122 0 -9.732483 -4.357422 -9.732483 -9.732483z" fill-rule="evenodd"/><path fill="#0000ff" d="m569.4839 544.226l2.875 0l0 7.53125q0 0.921875 0.421875 1.328125q0.3125 0.328125 0.953125 0.328125q1.015625 0 1.796875 -0.796875q1.265625 -1.25 1.265625 -2.546875l0 -5.84375l2.875 0l0 11.5l-2.875 0l0 -0.84375q-0.75 1.03125 -3.15625 1.03125q-2.171875 0 -3.171875 -0.984375q-0.984375 -1.0 -0.984375 -2.515625l0 -8.1875zm12.0 3.5q0 -1.421875 0.984375 -2.421875q1.28125 -1.265625 3.546875 -1.265625q2.453125 0 3.640625 1.171875q1.078125 1.09375 1.078125 2.921875l-2.8125 0q-0.125 -0.921875 -0.296875 -1.078125q-0.40625 -0.421875 -1.703125 -0.421875q-0.734375 0 -1.140625 0.421875q-0.328125 0.3125 -0.328125 0.671875q0 0.171875 0.140625 0.296875q0.265625 0.28125 2.09375 0.71875q1.25 0.28125 2.125 0.578125q0.859375 0.3125 1.3125 0.765625q0.890625 0.90625 0.890625 2.140625q0 1.328125 -1.078125 2.421875q-1.28125 1.265625 -3.828125 1.265625q-2.546875 0 -3.828125 -1.265625q-1.078125 -1.09375 -1.078125 -3.203125l2.828125 0q0.125 1.109375 0.375 1.359375q0.5 0.515625 1.609375 0.515625q1.390625 0 1.796875 -0.421875q0.234375 -0.21875 0.234375 -0.578125q0 -0.171875 -0.328125 -0.484375q-0.265625 -0.28125 -0.96875 -0.4375q-1.71875 -0.375 -2.5625 -0.65625q-1.15625 -0.3125 -1.71875 -0.875q-0.984375 -1.0 -0.984375 -2.140625zm10.78125 2.25q0 -2.734375 1.734375 -4.484375q1.46875 -1.453125 3.734375 -1.453125q2.171875 0 3.734375 1.546875q1.453125 1.46875 1.453125 4.890625l-7.59375 0q0 1.265625 0.796875 2.046875q0.6875 0.703125 1.796875 0.703125q1.109375 0 1.515625 -0.421875q0.515625 -0.5 0.515625 -1.640625l3.1875 0q-0.546875 2.4375 -1.484375 3.390625q-1.375 1.359375 -3.734375 1.359375q-2.453125 0 -4.015625 -1.546875q-1.640625 -1.65625 -1.640625 -4.390625zm5.375 -3.34375q-0.921875 0 -1.515625 0.609375q-0.5625 0.546875 -0.59375 0.734375l4.234375 0q0 -0.234375 -0.609375 -0.828125q-0.5 -0.515625 -1.515625 -0.515625zm7.09375 -7.9375l11.3125 0l0 2.78125l-8.15625 0l0 3.96875l7.59375 0l0 2.78125l-7.59375 0l0 4.71875l8.625 0l0 2.78125l-11.78125 0l0 -17.03125zm17.125 5.53125l3.1875 0l0 2.5l-3.1875 0l0 9.0l-2.875 0l0 -9.0l-2.25 0l0 -2.5l2.25 0l0 -2.125q0 -1.515625 0.984375 -2.515625q1.09375 -1.078125 2.890625 -1.078125q1.3125 0 3.03125 0.609375l0 3.046875q-1.9375 -0.96875 -2.65625 -0.96875q-0.828125 0 -1.140625 0.328125q-0.234375 0.21875 -0.234375 0.578125l0 2.125zm7.3125 0l3.1875 0l0 2.5l-3.1875 0l0 9.0l-2.875 0l0 -9.0l-2.25 0l0 -2.5l2.25 0l0 -2.125q0 -1.515625 0.984375 -2.515625q1.09375 -1.078125 2.890625 -1.078125q1.3125 0 3.03125 0.609375l0 3.046875q-1.9375 -0.96875 -2.65625 -0.96875q-0.828125 0 -1.140625 0.328125q-0.234375 0.21875 -0.234375 0.578125l0 2.125zm3.3125 5.75q0 -2.734375 1.734375 -4.484375q1.46875 -1.453125 3.734375 -1.453125q2.171875 0 3.734375 1.546875q1.453125 1.46875 1.453125 4.890625l-7.59375 0q0 1.265625 0.796875 2.046875q0.6875 0.703125 1.796875 0.703125q1.109375 0 1.515625 -0.421875q0.515625 -0.5 0.515625 -1.640625l3.1875 0q-0.546875 2.4375 -1.484375 3.390625q-1.375 1.359375 -3.734375 1.359375q-2.453125 0 -4.015625 -1.546875q-1.640625 -1.65625 -1.640625 -4.390625zm5.375 -3.34375q-0.921875 0 -1.515625 0.609375q-0.5625 0.546875 -0.59375 0.734375l4.234375 0q0 -0.234375 -0.609375 -0.828125q-0.5 -0.515625 -1.515625 -0.515625zm6.625 3.4375q0 -2.734375 1.640625 -4.390625q1.5625 -1.546875 3.828125 -1.546875q2.453125 0 3.734375 1.265625q1.140625 1.15625 1.421875 3.390625l-3.0625 0q-0.125 -1.015625 -0.671875 -1.546875q-0.40625 -0.421875 -1.328125 -0.421875q-0.921875 0 -1.515625 0.609375q-0.984375 0.96875 -0.984375 2.734375q0 1.671875 0.890625 2.546875q0.59375 0.609375 1.515625 0.609375q1.109375 0 1.703125 -0.609375q0.609375 -0.59375 0.609375 -2.109375l3.09375 0q-0.140625 2.6875 -1.484375 4.046875q-1.375 1.359375 -3.921875 1.359375q-2.171875 0 -3.640625 -1.453125q-1.828125 -1.84375 -1.828125 -4.484375zm13.125 -9.5l2.875 0l0 3.65625l3.1875 0l0 2.5l-3.1875 0l0 5.59375q0 0.359375 0.328125 0.671875q0.21875 0.234375 0.859375 0.234375q1.171875 0 2.84375 -1.0625l0 2.984375q-1.40625 0.765625 -2.75 0.765625q-2.078125 0 -3.078125 -0.984375q-1.078125 -1.09375 -1.078125 -2.421875l0 -5.78125l-2.25 0l0 -2.5l2.25 0l0 -3.65625z" fill-rule="nonzero"/><path fill="#000000" fill-opacity="0.0" d="m398.36746 490.36484l0 27.905487" fill-rule="evenodd"/><path stroke="#000000" stroke-width="3.0" stroke-linejoin="round" stroke-linecap="butt" d="m398.36746 490.36484l0 17.624268" fill-rule="evenodd"/><path fill="#000000" stroke="#000000" stroke-width="3.0" stroke-linecap="butt" d="m398.36746 507.98907l-3.3737488 -3.3737488l3.3737488 9.269318l3.3737488 -9.269318z" fill-rule="evenodd"/><path fill="#000000" fill-opacity="0.0" d="m615.937 490.36484l0 27.905487" fill-rule="evenodd"/><path stroke="#000000" stroke-width="3.0" stroke-linejoin="round" stroke-linecap="butt" d="m615.937 490.36484l0 17.624268" fill-rule="evenodd"/><path fill="#000000" stroke="#000000" stroke-width="3.0" stroke-linecap="butt" d="m615.937 507.98907l-3.3737793 -3.3737488l3.3737793 9.269318l3.3737183 -9.269318z" fill-rule="evenodd"/><path fill="#9fc5e8" d="m766.6037 528.00287l0 0c0 -5.375122 4.357361 -9.732483 9.732483 -9.732483l118.4563 0c2.5811768 0 5.0567017 1.0253906 6.881897 2.850586c1.8251953 1.8251953 2.850586 4.300659 2.850586 6.881897l0 38.928772c0 5.375061 -4.357422 9.732483 -9.732483 9.732483l-118.4563 0c-5.375122 0 -9.732483 -4.357422 -9.732483 -9.732483z" fill-rule="evenodd"/><path stroke="#0000ff" stroke-width="8.0" stroke-linejoin="round" stroke-linecap="butt" d="m766.6037 528.00287l0 0c0 -5.375122 4.357361 -9.732483 9.732483 -9.732483l118.4563 0c2.5811768 0 5.0567017 1.0253906 6.881897 2.850586c1.8251953 1.8251953 2.850586 4.300659 2.850586 6.881897l0 38.928772c0 5.375061 -4.357422 9.732483 -9.732483 9.732483l-118.4563 0c-5.375122 0 -9.732483 -4.357422 -9.732483 -9.732483z" fill-rule="evenodd"/><path fill="#0000ff" d="m789.1112 544.226l2.875 0l0 7.53125q0 0.921875 0.421875 1.328125q0.3125 0.328125 0.953125 0.328125q1.015625 0 1.796875 -0.796875q1.265625 -1.25 1.265625 -2.546875l0 -5.84375l2.875 0l0 11.5l-2.875 0l0 -0.84375q-0.75 1.03125 -3.15625 1.03125q-2.171875 0 -3.171875 -0.984375q-0.984375 -1.0 -0.984375 -2.515625l0 -8.1875zm12.0 3.5q0 -1.421875 0.984375 -2.421875q1.28125 -1.265625 3.546875 -1.265625q2.453125 0 3.640625 1.171875q1.078125 1.09375 1.078125 2.921875l-2.8125 0q-0.125 -0.921875 -0.296875 -1.078125q-0.40625 -0.421875 -1.703125 -0.421875q-0.734375 0 -1.140625 0.421875q-0.328125 0.3125 -0.328125 0.671875q0 0.171875 0.140625 0.296875q0.265625 0.28125 2.09375 0.71875q1.25 0.28125 2.125 0.578125q0.859375 0.3125 1.3125 0.765625q0.890625 0.90625 0.890625 2.140625q0 1.328125 -1.078125 2.421875q-1.28125 1.265625 -3.828125 1.265625q-2.546875 0 -3.828125 -1.265625q-1.078125 -1.09375 -1.078125 -3.203125l2.828125 0q0.125 1.109375 0.375 1.359375q0.5 0.515625 1.609375 0.515625q1.390625 0 1.796875 -0.421875q0.234375 -0.21875 0.234375 -0.578125q0 -0.171875 -0.328125 -0.484375q-0.265625 -0.28125 -0.96875 -0.4375q-1.71875 -0.375 -2.5625 -0.65625q-1.15625 -0.3125 -1.71875 -0.875q-0.984375 -1.0 -0.984375 -2.140625zm10.78125 2.25q0 -2.734375 1.734375 -4.484375q1.46875 -1.453125 3.734375 -1.453125q2.171875 0 3.734375 1.546875q1.453125 1.46875 1.453125 4.890625l-7.59375 0q0 1.265625 0.796875 2.046875q0.6875 0.703125 1.796875 0.703125q1.109375 0 1.515625 -0.421875q0.515625 -0.5 0.515625 -1.640625l3.1875 0q-0.546875 2.4375 -1.484375 3.390625q-1.375 1.359375 -3.734375 1.359375q-2.453125 0 -4.015625 -1.546875q-1.640625 -1.65625 -1.640625 -4.390625zm5.375 -3.34375q-0.921875 0 -1.515625 0.609375q-0.5625 0.546875 -0.59375 0.734375l4.234375 0q0 -0.234375 -0.609375 -0.828125q-0.5 -0.515625 -1.515625 -0.515625zm7.09375 -7.9375l11.3125 0l0 2.78125l-8.15625 0l0 3.96875l7.59375 0l0 2.78125l-7.59375 0l0 4.71875l8.625 0l0 2.78125l-11.78125 0l0 -17.03125zm17.125 5.53125l3.1875 0l0 2.5l-3.1875 0l0 9.0l-2.875 0l0 -9.0l-2.25 0l0 -2.5l2.25 0l0 -2.125q0 -1.515625 0.984375 -2.515625q1.09375 -1.078125 2.890625 -1.078125q1.3125 0 3.03125 0.609375l0 3.046875q-1.9375 -0.96875 -2.65625 -0.96875q-0.828125 0 -1.140625 0.328125q-0.234375 0.21875 -0.234375 0.578125l0 2.125zm7.3125 0l3.1875 0l0 2.5l-3.1875 0l0 9.0l-2.875 0l0 -9.0l-2.25 0l0 -2.5l2.25 0l0 -2.125q0 -1.515625 0.984375 -2.515625q1.09375 -1.078125 2.890625 -1.078125q1.3125 0 3.03125 0.609375l0 3.046875q-1.9375 -0.96875 -2.65625 -0.96875q-0.828125 0 -1.140625 0.328125q-0.234375 0.21875 -0.234375 0.578125l0 2.125zm3.3125 5.75q0 -2.734375 1.734375 -4.484375q1.46875 -1.453125 3.734375 -1.453125q2.171875 0 3.734375 1.546875q1.453125 1.46875 1.453125 4.890625l-7.59375 0q0 1.265625 0.796875 2.046875q0.6875 0.703125 1.796875 0.703125q1.109375 0 1.515625 -0.421875q0.515625 -0.5 0.515625 -1.640625l3.1875 0q-0.546875 2.4375 -1.484375 3.390625q-1.375 1.359375 -3.734375 1.359375q-2.453125 0 -4.015625 -1.546875q-1.640625 -1.65625 -1.640625 -4.390625zm5.375 -3.34375q-0.921875 0 -1.515625 0.609375q-0.5625 0.546875 -0.59375 0.734375l4.234375 0q0 -0.234375 -0.609375 -0.828125q-0.5 -0.515625 -1.515625 -0.515625zm6.625 3.4375q0 -2.734375 1.640625 -4.390625q1.5625 -1.546875 3.828125 -1.546875q2.453125 0 3.734375 1.265625q1.140625 1.15625 1.421875 3.390625l-3.0625 0q-0.125 -1.015625 -0.671875 -1.546875q-0.40625 -0.421875 -1.328125 -0.421875q-0.921875 0 -1.515625 0.609375q-0.984375 0.96875 -0.984375 2.734375q0 1.671875 0.890625 2.546875q0.59375 0.609375 1.515625 0.609375q1.109375 0 1.703125 -0.609375q0.609375 -0.59375 0.609375 -2.109375l3.09375 0q-0.140625 2.6875 -1.484375 4.046875q-1.375 1.359375 -3.921875 1.359375q-2.171875 0 -3.640625 -1.453125q-1.828125 -1.84375 -1.828125 -4.484375zm13.125 -9.5l2.875 0l0 3.65625l3.1875 0l0 2.5l-3.1875 0l0 5.59375q0 0.359375 0.328125 0.671875q0.21875 0.234375 0.859375 0.234375q1.171875 0 2.84375 -1.0625l0 2.984375q-1.40625 0.765625 -2.75 0.765625q-2.078125 0 -3.078125 -0.984375q-1.078125 -1.09375 -1.078125 -2.421875l0 -5.78125l-2.25 0l0 -2.5l2.25 0l0 -3.65625z" fill-rule="nonzero"/><path fill="#f3f3f3" d="m330.8084 100.79018l0 0c0 -4.2328186 3.431366 -7.664192 7.6641846 -7.664192l122.592865 0c2.0326843 0 3.9820862 0.8074722 5.419403 2.2447891c1.4373169 1.4373169 2.2447815 3.386734 2.2447815 5.419403l0 30.655869c0 4.2328186 -3.431366 7.6641846 -7.6641846 7.6641846l-122.592865 0l0 0c-4.2328186 0 -7.6641846 -3.431366 -7.6641846 -7.6641846z" fill-rule="evenodd"/><path stroke="#000000" stroke-width="1.0" stroke-linejoin="round" stroke-linecap="butt" d="m330.8084 100.79018l0 0c0 -4.2328186 3.431366 -7.664192 7.6641846 -7.664192l122.592865 0c2.0326843 0 3.9820862 0.8074722 5.419403 2.2447891c1.4373169 1.4373169 2.2447815 3.386734 2.2447815 5.419403l0 30.655869c0 4.2328186 -3.431366 7.6641846 -7.6641846 7.6641846l-122.592865 0l0 0c-4.2328186 0 -7.6641846 -3.431366 -7.6641846 -7.6641846z" fill-rule="evenodd"/><path fill="#000000" d="m345.3188 114.50686l2.53125 0l0 1.1875l-2.53125 0l0 7.125l-1.484375 0l0 -7.125l-1.78125 0l0 -1.1875l1.78125 0l0 -2.078125q0 -1.046875 0.671875 -1.71875q0.734375 -0.734375 2.0 -0.734375q0.96875 0 2.0 0.375l0 1.484375q-1.03125 -0.53125 -1.703125 -0.53125q-0.8125 0 -1.1875 0.375q-0.296875 0.296875 -0.296875 0.75l0 2.078125zm3.6328125 0l1.484375 0l0 5.5625q0 0.890625 0.453125 1.328125q0.375 0.375 1.03125 0.375q0.96875 0 1.71875 -0.734375q1.109375 -1.125 1.109375 -2.3125l0 -4.21875l1.484375 0l0 8.3125l-1.484375 0l0 -1.484375q-1.1875 1.625 -2.890625 1.625q-1.5625 0 -2.234375 -0.671875q-0.671875 -0.65625 -0.671875 -1.703125l0 -6.078125zm10.984375 8.3125l-1.484375 0l0 -8.3125l1.484375 0l0 1.484375q1.34375 -1.640625 2.828125 -1.640625q1.484375 0 2.375 0.890625q0.59375 0.59375 0.59375 1.40625l0 6.171875l-1.484375 0l0 -5.71875q0 -0.671875 -0.453125 -1.109375q-0.4375 -0.453125 -1.25 -0.453125q-0.75 0 -1.484375 0.75q-1.125 1.109375 -1.125 2.375l0 4.15625zm7.796875 -4.09375q0 -2.0 1.1875 -3.1875q1.109375 -1.109375 2.75 -1.109375q1.78125 0 2.671875 0.890625q0.8125 0.8125 0.96875 2.0l-1.640625 0q-0.078125 -0.59375 -0.59375 -1.109375q-0.4375 -0.453125 -1.328125 -0.453125q-0.890625 0 -1.484375 0.59375q-0.890625 0.890625 -0.890625 2.453125q0 1.484375 0.8125 2.296875q0.59375 0.59375 1.484375 0.59375q1.03125 0 1.625 -0.59375q0.59375 -0.59375 0.59375 -1.546875l1.640625 0q-0.078125 1.546875 -1.046875 2.515625q-0.953125 0.96875 -2.8125 0.96875q-1.5625 0 -2.59375 -1.046875q-1.34375 -1.328125 -1.34375 -3.265625zm10.390625 -7.125l1.484375 0l0 2.90625l2.53125 0l0 1.1875l-2.53125 0l0 4.8125q0 0.453125 0.375 0.828125q0.296875 0.296875 0.96875 0.296875q1.03125 0 1.84375 -0.53125l0 1.421875q-0.8125 0.4375 -1.78125 0.4375q-1.484375 0 -2.140625 -0.671875q-0.75 -0.734375 -0.75 -1.625l0 -4.96875l-1.78125 0l0 -1.1875l1.78125 0l0 -2.90625zm6.1640625 -1.40625l1.484375 0l0 1.9375l-1.484375 0l0 -1.9375zm0 4.3125l1.484375 0l0 8.3125l-1.484375 0l0 -8.3125zm3.5546875 4.15625q0 -1.9375 1.265625 -3.203125q1.109375 -1.109375 2.75 -1.109375q1.625 0 2.75 1.109375q1.25 1.265625 1.25 3.203125q0 1.921875 -1.25 3.1875q-1.125 1.109375 -2.75 1.109375q-1.640625 0 -2.75 -1.109375q-1.265625 -1.265625 -1.265625 -3.1875zm4.015625 -2.96875q-0.890625 0 -1.484375 0.59375q-0.890625 0.890625 -0.890625 2.375q0 1.484375 0.8125 2.296875q0.671875 0.671875 1.5625 0.671875q0.890625 0 1.5625 -0.671875q0.8125 -0.8125 0.8125 -2.296875q0 -1.484375 -0.890625 -2.375q-0.59375 -0.59375 -1.484375 -0.59375zm7.4140625 7.125l-1.484375 0l0 -8.3125l1.484375 0l0 1.484375q1.34375 -1.640625 2.828125 -1.640625q1.484375 0 2.375 0.890625q0.59375 0.59375 0.59375 1.40625l0 6.171875l-1.484375 0l0 -5.71875q0 -0.671875 -0.453125 -1.109375q-0.4375 -0.453125 -1.25 -0.453125q-0.75 0 -1.484375 0.75q-1.125 1.109375 -1.125 2.375l0 4.15625zm11.28125 1.703125q-3.703125 -3.484375 -3.703125 -8.09375q0 -4.59375 3.703125 -8.09375l0.828125 0.828125q-3.421875 3.1875 -3.421875 7.265625q0 4.078125 3.421875 7.28125l-0.828125 0.8125zm5.3515625 -8.09375q0 -4.078125 -3.421875 -7.265625l0.828125 -0.828125q3.703125 3.5 3.703125 8.09375q0 4.609375 -3.703125 8.09375l-0.828125 -0.8125q3.421875 -3.203125 3.421875 -7.28125zm9.34375 -7.796875q0.453125 -0.4375 1.046875 -0.4375l1.484375 0l0 0.890625l-0.890625 0q-0.296875 0 -0.453125 0.140625q-0.140625 0.15625 -0.140625 0.53125l0 5.34375q0 0.8125 -0.59375 1.40625q0.59375 0.59375 0.59375 1.5625l0 5.125q0 0.296875 0.140625 0.4375q0.234375 0.21875 0.453125 0.21875l0.890625 0l0 0.890625l-1.484375 0q-0.59375 0 -1.046875 -0.4375q-0.4375 -0.453125 -0.4375 -1.109375l0 -5.5q0 -0.21875 -0.21875 -0.453125q-0.234375 -0.21875 -0.75 -0.21875l0 -1.03125q0.515625 0 0.75 -0.234375q0.21875 -0.21875 0.21875 -0.4375l0 -5.5625q0 -0.671875 0.4375 -1.125zm2.96875 16.109375l0 -0.890625l0.890625 0q0.234375 0 0.453125 -0.21875q0.140625 -0.140625 0.140625 -0.4375l0 -5.125q0 -0.96875 0.59375 -1.5625q-0.59375 -0.59375 -0.59375 -1.40625l0 -5.34375q0 -0.375 -0.140625 -0.53125q-0.15625 -0.140625 -0.453125 -0.140625l-0.890625 0l0 -0.890625l1.484375 0q0.59375 0 1.046875 0.4375q0.4375 0.453125 0.4375 1.125l0 5.5625q0 0.21875 0.234375 0.4375q0.21875 0.234375 0.734375 0.234375l0 1.03125q-0.515625 0 -0.734375 0.21875q-0.234375 0.234375 -0.234375 0.453125l0 5.5q0 0.65625 -0.4375 1.109375q-0.453125 0.4375 -1.046875 0.4375l-1.484375 0z" fill-rule="nonzero"/><path fill="#f3f3f3" d="m330.8084 261.85318l0 0c0 -4.2328186 3.431366 -7.6642 7.6641846 -7.6642l122.592865 0c2.0326843 0 3.9820862 0.8074646 5.419403 2.2447968c1.4373169 1.4373169 2.2447815 3.3867188 2.2447815 5.419403l0 30.655853c0 4.2328186 -3.431366 7.6641846 -7.6641846 7.6641846l-122.592865 0l0 0c-4.2328186 0 -7.6641846 -3.431366 -7.6641846 -7.6641846z" fill-rule="evenodd"/><path stroke="#000000" stroke-width="1.0" stroke-linejoin="round" stroke-linecap="butt" d="m330.8084 261.85318l0 0c0 -4.2328186 3.431366 -7.6642 7.6641846 -7.6642l122.592865 0c2.0326843 0 3.9820862 0.8074646 5.419403 2.2447968c1.4373169 1.4373169 2.2447815 3.3867188 2.2447815 5.419403l0 30.655853c0 4.2328186 -3.431366 7.6641846 -7.6641846 7.6641846l-122.592865 0l0 0c-4.2328186 0 -7.6641846 -3.431366 -7.6641846 -7.6641846z" fill-rule="evenodd"/><path fill="#000000" d="m370.23386 276.6011q1.1875 -1.1875 3.1875 -1.1875l0 1.640625q-0.296875 -0.078125 -0.8125 -0.078125q-1.109375 0 -2.078125 0.96875q-0.8125 0.8125 -1.109375 1.703125l0 4.234375l-1.484375 0l0 -8.3125l1.484375 0l0 2.078125q0.359375 -0.59375 0.8125 -1.046875zm4.1523438 3.125q0 -2.015625 1.265625 -3.265625q1.03125 -1.046875 2.671875 -1.046875q1.5625 0 2.671875 1.109375q1.03125 1.046875 1.03125 3.203125l-6.0 0q0 1.546875 0.734375 2.296875q0.671875 0.671875 1.703125 0.671875q1.046875 0 1.484375 -0.453125q0.53125 -0.515625 0.53125 -1.1875l1.625 0q-0.296875 1.34375 -0.96875 2.0q-0.953125 0.96875 -2.671875 0.96875q-1.78125 0 -2.890625 -1.109375q-1.1875 -1.1875 -1.1875 -3.1875zm3.859375 -3.046875q-0.890625 0 -1.484375 0.59375q-0.515625 0.515625 -0.671875 1.265625l4.234375 0q0 -0.75 -0.59375 -1.34375q-0.515625 -0.515625 -1.484375 -0.515625zm6.53125 -4.015625l1.484375 0l0 2.90625l2.53125 0l0 1.1875l-2.53125 0l0 4.8125q0 0.453125 0.375 0.828125q0.296875 0.296875 0.96875 0.296875q1.03125 0 1.84375 -0.53125l0 1.421875q-0.8125 0.4375 -1.78125 0.4375q-1.484375 0 -2.140625 -0.671875q-0.75 -0.734375 -0.75 -1.625l0 -4.96875l-1.78125 0l0 -1.1875l1.78125 0l0 -2.90625zm6.0078125 2.90625l1.484375 0l0 5.5625q0 0.890625 0.453125 1.328125q0.375 0.375 1.03125 0.375q0.96875 0 1.71875 -0.734375q1.109375 -1.125 1.109375 -2.3125l0 -4.21875l1.4844055 0l0 8.3125l-1.4844055 0l0 -1.484375q-1.1875 1.625 -2.890625 1.625q-1.5625 0 -2.234375 -0.671875q-0.671875 -0.65625 -0.671875 -1.703125l0 -6.078125zm11.7344055 1.03125q1.1875 -1.1875 3.1875 -1.1875l0 1.640625q-0.296875 -0.078125 -0.8125 -0.078125q-1.109375 0 -2.078125 0.96875q-0.8125 0.8125 -1.109375 1.703125l0 4.234375l-1.484375 0l0 -8.3125l1.484375 0l0 2.078125q0.359375 -0.59375 0.8125 -1.046875zm5.8554688 7.28125l-1.484375 0l0 -8.3125l1.484375 0l0 1.484375q1.34375 -1.640625 2.828125 -1.640625q1.484375 0 2.375 0.890625q0.59375 0.59375 0.59375 1.40625l0 6.171875l-1.484375 0l0 -5.71875q0 -0.671875 -0.453125 -1.109375q-0.4375 -0.453125 -1.25 -0.453125q-0.75 0 -1.484375 0.75q-1.125 1.109375 -1.125 2.375l0 4.15625zm17.070312 1.703125q-3.703125 -3.484375 -3.703125 -8.09375q0 -4.59375 3.703125 -8.09375l0.828125 0.828125q-3.421875 3.1875 -3.421875 7.265625q0 4.078125 3.421875 7.28125l-0.828125 0.8125zm5.3515625 -8.09375q0 -4.078125 -3.421875 -7.265625l0.828125 -0.828125q3.703125 3.5 3.703125 8.09375q0 4.609375 -3.703125 8.09375l-0.828125 -0.8125q3.421875 -3.203125 3.421875 -7.28125z" fill-rule="nonzero"/><path fill="#000000" fill-opacity="0.0" d="m359.43307 142.03806l0 112.31496" fill-rule="evenodd"/><path stroke="#000000" stroke-width="3.0" stroke-linejoin="round" stroke-linecap="butt" d="m359.43307 142.03806l0 102.03371" fill-rule="evenodd"/><path fill="#000000" stroke="#000000" stroke-width="3.0" stroke-linecap="butt" d="m359.43307 244.07176l-3.3737488 -3.3737488l3.3737488 9.269302l3.3737488 -9.269302z" fill-rule="evenodd"/><path fill="#000000" fill-opacity="0.0" d="m423.43307 142.03806l0 112.31496" fill-rule="evenodd"/><path stroke="#000000" stroke-width="3.0" stroke-linejoin="round" stroke-linecap="butt" d="m423.43307 142.03806l0 102.03371" fill-rule="evenodd"/><path fill="#000000" stroke="#000000" stroke-width="3.0" stroke-linecap="butt" d="m423.43307 244.07176l-3.3737488 -3.3737488l3.3737488 9.269302l3.3737488 -9.269302z" fill-rule="evenodd"/><path fill="#9fc5e8" d="m381.74802 167.9507l0 0c0 -6.433304 5.2152405 -11.648529 11.648529 -11.648529l60.891937 0c3.089386 0 6.0522156 1.2272491 8.236755 3.4117737c2.1845093 2.1845245 3.4117737 5.1473694 3.4117737 8.236755l0 46.592712c0 6.433304 -5.2152405 11.648529 -11.648529 11.648529l-60.891937 0c-6.4332886 0 -11.648529 -5.215225 -11.648529 -11.648529z" fill-rule="evenodd"/><path stroke="#000000" stroke-width="1.0" stroke-linejoin="round" stroke-linecap="butt" d="m381.74802 167.9507l0 0c0 -6.433304 5.2152405 -11.648529 11.648529 -11.648529l60.891937 0c3.089386 0 6.0522156 1.2272491 8.236755 3.4117737c2.1845093 2.1845245 3.4117737 5.1473694 3.4117737 8.236755l0 46.592712c0 6.433304 -5.2152405 11.648529 -11.648529 11.648529l-60.891937 0c-6.4332886 0 -11.648529 -5.215225 -11.648529 -11.648529z" fill-rule="evenodd"/><path fill="#000000" d="m400.6941 174.24518l1.703125 0l0 5.34375l6.078125 0l0 -5.34375l1.71875 0l0 12.703125l-1.71875 0l0 -5.9375l-6.078125 0l0 5.9375l-1.703125 0l0 -12.703125zm11.640625 8.546875q0 -1.9375 1.265625 -3.203125q1.109375 -1.109375 2.75 -1.109375q1.625 0 2.75 1.109375q1.25 1.265625 1.25 3.203125q0 1.921875 -1.25 3.1875q-1.125 1.109375 -2.75 1.109375q-1.640625 0 -2.75 -1.109375q-1.265625 -1.265625 -1.265625 -3.1875zm4.015625 -2.96875q-0.890625 0 -1.484375 0.59375q-0.890625 0.890625 -0.890625 2.375q0 1.484375 0.8125 2.296875q0.671875 0.671875 1.5625 0.671875q0.890625 0 1.5625 -0.671875q0.8125 -0.8125 0.8125 -2.296875q0 -1.484375 -0.890625 -2.375q-0.59375 -0.59375 -1.484375 -0.59375zm5.6328125 2.96875q0 -1.9375 1.265625 -3.203125q1.109375 -1.109375 2.75 -1.109375q1.625 0 2.75 1.109375q1.25 1.265625 1.25 3.203125q0 1.921875 -1.25 3.1875q-1.125 1.109375 -2.75 1.109375q-1.640625 0 -2.75 -1.109375q-1.265625 -1.265625 -1.265625 -3.1875zm4.015625 -2.96875q-0.890625 0 -1.484375 0.59375q-0.890625 0.890625 -0.890625 2.375q0 1.484375 0.8125 2.296875q0.671875 0.671875 1.5625 0.671875q0.890625 0 1.5625 -0.671875q0.8125 -0.8125 0.8125 -2.296875q0 -1.484375 -0.890625 -2.375q-0.59375 -0.59375 -1.484375 -0.59375zm5.7890625 -5.578125l1.484375 0l0 8.015625l3.640625 -3.625l1.84375 0l-2.8125 2.8125l3.40625 5.5l-1.546875 0l-2.828125 -4.53125l-1.703125 1.703125l0 2.828125l-1.484375 0l0 -12.703125zm8.8984375 6.765625q0 -0.96875 0.671875 -1.640625q0.890625 -0.890625 2.53125 -0.890625q1.78125 0 2.59375 0.8125q0.734375 0.75 0.734375 1.640625l-1.484375 0q-0.0625 -0.515625 -0.296875 -0.75q-0.4375 -0.4375 -1.625 -0.4375q-0.75 0 -1.1875 0.4375q-0.375 0.375 -0.375 0.828125q0 0.296875 0.21875 0.515625q0.296875 0.296875 1.859375 0.671875q0.96875 0.21875 1.640625 0.4375q0.59375 0.21875 0.890625 0.515625q0.59375 0.59375 0.59375 1.421875q0 0.890625 -0.75 1.625q-0.890625 0.890625 -2.75 0.890625q-1.84375 0 -2.734375 -0.890625q-0.75 -0.734375 -0.75 -1.859375l1.484375 0q0.078125 0.671875 0.375 0.96875q0.515625 0.515625 1.5625 0.515625q1.25 0 1.703125 -0.4375q0.296875 -0.296875 0.296875 -0.75q0 -0.296875 -0.375 -0.65625q-0.296875 -0.296875 -0.96875 -0.453125q-1.328125 -0.296875 -2.0 -0.515625q-0.8125 -0.21875 -1.1875 -0.59375q-0.671875 -0.671875 -0.671875 -1.40625z" fill-rule="nonzero"/><path fill="#000000" d="m409.8484 208.9483l5.046875 -12.84375l1.484375 0l5.046875 12.84375l-1.78125 0l-1.546875 -3.859375l-4.90625 0l-1.5625 3.859375l-1.78125 0zm5.796875 -10.390625l-1.9375 5.109375l3.859375 0l-1.921875 -5.109375zm7.1953125 -2.3125l5.9375 0q1.640625 0 2.671875 1.046875q1.046875 1.03125 1.046875 2.890625q0 1.859375 -0.96875 2.828125q-0.96875 0.953125 -2.75 0.953125l-4.234375 0l0 4.984375l-1.703125 0l0 -12.703125zm1.703125 1.421875l0 4.890625l3.859375 0q1.046875 0 1.640625 -0.59375q0.671875 -0.671875 0.671875 -1.78125q0 -1.265625 -0.59375 -1.859375q-0.671875 -0.65625 -1.71875 -0.65625l-3.859375 0zm9.5078125 -1.421875l3.34375 0l0 1.640625l-0.828125 0l0 9.421875l0.828125 0l0 1.640625l-3.34375 0l0 -1.640625l0.8125 0l0 -9.421875l-0.8125 0l0 -1.640625z" fill-rule="nonzero"/><path fill="#9fc5e8" d="m546.97375 116.11308l0 0c0 -12.695557 10.291809 -22.987335 22.987305 -22.987335l91.946594 0l0 0c6.0966187 0 11.9435425 2.421875 16.254517 6.732834c4.310974 4.3109665 6.732849 10.157883 6.732849 16.254501l0 161.08046c0 12.695557 -10.291809 22.987335 -22.987366 22.987335l-91.946594 0c-12.695496 0 -22.987305 -10.291779 -22.987305 -22.987335z" fill-rule="evenodd"/><path stroke="#000000" stroke-width="1.0" stroke-linejoin="round" stroke-linecap="butt" d="m546.97375 116.11308l0 0c0 -12.695557 10.291809 -22.987335 22.987305 -22.987335l91.946594 0l0 0c6.0966187 0 11.9435425 2.421875 16.254517 6.732834c4.310974 4.3109665 6.732849 10.157883 6.732849 16.254501l0 161.08046c0 12.695557 -10.291809 22.987335 -22.987366 22.987335l-91.946594 0c-12.695496 0 -22.987305 -10.291779 -22.987305 -22.987335z" fill-rule="evenodd"/><path fill="#000000" d="m592.78595 179.65143l1.703125 0l0 5.34375l6.078125 0l0 -5.34375l1.71875 0l0 12.703125l-1.71875 0l0 -5.9375l-6.078125 0l0 5.9375l-1.703125 0l0 -12.703125zm11.640625 8.546875q0 -1.9375 1.265625 -3.203125q1.109375 -1.109375 2.75 -1.109375q1.625 0 2.75 1.109375q1.25 1.265625 1.25 3.203125q0 1.921875 -1.25 3.1875q-1.125 1.109375 -2.75 1.109375q-1.640625 0 -2.75 -1.109375q-1.265625 -1.265625 -1.265625 -3.1875zm4.015625 -2.96875q-0.890625 0 -1.484375 0.59375q-0.890625 0.890625 -0.890625 2.375q0 1.484375 0.8125 2.296875q0.671875 0.671875 1.5625 0.671875q0.890625 0 1.5625 -0.671875q0.8125 -0.8125 0.8125 -2.296875q0 -1.484375 -0.890625 -2.375q-0.59375 -0.59375 -1.484375 -0.59375zm5.6328125 2.96875q0 -1.9375 1.265625 -3.203125q1.109375 -1.109375 2.75 -1.109375q1.625 0 2.75 1.109375q1.25 1.265625 1.25 3.203125q0 1.921875 -1.25 3.1875q-1.125 1.109375 -2.75 1.109375q-1.640625 0 -2.75 -1.109375q-1.265625 -1.265625 -1.265625 -3.1875zm4.015625 -2.96875q-0.890625 0 -1.484375 0.59375q-0.890625 0.890625 -0.890625 2.375q0 1.484375 0.8125 2.296875q0.671875 0.671875 1.5625 0.671875q0.890625 0 1.5625 -0.671875q0.8125 -0.8125 0.8125 -2.296875q0 -1.484375 -0.890625 -2.375q-0.59375 -0.59375 -1.484375 -0.59375zm5.7890625 -5.578125l1.484375 0l0 8.015625l3.640625 -3.625l1.84375 0l-2.8125 2.8125l3.40625 5.5l-1.546875 0l-2.828125 -4.53125l-1.703125 1.703125l0 2.828125l-1.484375 0l0 -12.703125zm8.8984375 6.765625q0 -0.96875 0.671875 -1.640625q0.890625 -0.890625 2.53125 -0.890625q1.78125 0 2.59375 0.8125q0.734375 0.75 0.734375 1.640625l-1.484375 0q-0.0625 -0.515625 -0.296875 -0.75q-0.4375 -0.4375 -1.625 -0.4375q-0.75 0 -1.1875 0.4375q-0.375 0.375 -0.375 0.828125q0 0.296875 0.21875 0.515625q0.296875 0.296875 1.859375 0.671875q0.96875 0.21875 1.640625 0.4375q0.59375 0.21875 0.890625 0.515625q0.59375 0.59375 0.59375 1.421875q0 0.890625 -0.75 1.625q-0.890625 0.890625 -2.75 0.890625q-1.84375 0 -2.734375 -0.890625q-0.75 -0.734375 -0.75 -1.859375l1.484375 0q0.078125 0.671875 0.375 0.96875q0.515625 0.515625 1.5625 0.515625q1.25 0 1.703125 -0.4375q0.296875 -0.296875 0.296875 -0.75q0 -0.296875 -0.375 -0.65625q-0.296875 -0.296875 -0.96875 -0.453125q-1.328125 -0.296875 -2.0 -0.515625q-0.8125 -0.21875 -1.1875 -0.59375q-0.671875 -0.671875 -0.671875 -1.40625z" fill-rule="nonzero"/><path fill="#000000" d="m601.94025 214.35455l5.046875 -12.84375l1.484375 0l5.046875 12.84375l-1.78125 0l-1.546875 -3.859375l-4.90625 0l-1.5625 3.859375l-1.78125 0zm5.796875 -10.390625l-1.9375 5.109375l3.859375 0l-1.921875 -5.109375zm7.1953125 -2.3125l5.9375 0q1.640625 0 2.671875 1.046875q1.046875 1.03125 1.046875 2.890625q0 1.859375 -0.96875 2.828125q-0.96875 0.953125 -2.75 0.953125l-4.234375 0l0 4.984375l-1.703125 0l0 -12.703125zm1.703125 1.421875l0 4.890625l3.859375 0q1.046875 0 1.640625 -0.59375q0.671875 -0.671875 0.671875 -1.78125q0 -1.265625 -0.59375 -1.859375q-0.671875 -0.65625 -1.71875 -0.65625l-3.859375 0zm9.5078125 -1.421875l3.34375 0l0 1.640625l-0.828125 0l0 9.421875l0.828125 0l0 1.640625l-3.34375 0l0 -1.640625l0.8125 0l0 -9.421875l-0.8125 0l0 -1.640625z" fill-rule="nonzero"/><path fill="#000000" fill-opacity="0.0" d="m314.54855 442.98444l0 0c0 -5.3750916 4.3573914 -9.732452 9.732483 -9.732452l148.1886 0c2.5812073 0 5.0567017 1.0253601 6.881897 2.8505554c1.8251953 1.8251953 2.8505554 4.3006897 2.8505554 6.881897l0 38.92874c0 5.375122 -4.357361 9.732483 -9.732452 9.732483l-148.1886 0c-5.3750916 0 -9.732483 -4.357361 -9.732483 -9.732483z" fill-rule="evenodd"/><path fill="#000000" d="m342.56674 445.38443l6.234375 0q1.484375 0 2.453125 0.953125q0.953125 0.96875 0.953125 2.671875q0 1.71875 -0.953125 2.671875q-0.53125 0.53125 -1.484375 0.671875l2.890625 5.71875l-1.859375 0l-2.671875 -5.5l-3.859375 0l0 5.5l-1.703125 0l0 -12.6875zm1.703125 1.40625l0 4.375l4.375 0q0.75 0 1.265625 -0.515625q0.515625 -0.515625 0.515625 -1.640625q0 -1.03125 -0.59375 -1.625q-0.59375 -0.59375 -1.40625 -0.59375l-4.15625 0zm9.5 7.203125q0 -2.015625 1.265625 -3.265625q1.03125 -1.046875 2.671875 -1.046875q1.5625 0 2.671875 1.109375q1.03125 1.046875 1.03125 3.203125l-6.0 0q0 1.546875 0.734375 2.296875q0.671875 0.671875 1.703125 0.671875q1.046875 0 1.484375 -0.453125q0.53125 -0.515625 0.53125 -1.1875l1.625 0q-0.296875 1.34375 -0.96875 2.0q-0.953125 0.96875 -2.671875 0.96875q-1.78125 0 -2.890625 -1.109375q-1.1875 -1.1875 -1.1875 -3.1875zm3.859375 -3.046875q-0.890625 0 -1.484375 0.59375q-0.515625 0.515625 -0.671875 1.265625l4.234375 0q0 -0.75 -0.59375 -1.34375q-0.515625 -0.515625 -1.484375 -0.515625zm5.796875 1.328125q0.21875 -1.03125 0.953125 -1.78125q0.828125 -0.8125 2.375 -0.8125q1.859375 0 2.671875 0.8125q0.75 0.75 0.75 1.71875l0 4.671875q0 0.8125 0.59375 1.265625l-1.78125 0q-0.296875 -0.296875 -0.296875 -0.96875q-1.109375 1.109375 -2.828125 1.109375q-1.40625 0 -2.140625 -0.734375q-0.671875 -0.671875 -0.671875 -1.5625q0 -1.046875 0.671875 -1.703125q0.734375 -0.75 2.078125 -0.96875q0.890625 -0.15625 1.546875 -0.375q0.96875 -0.21875 1.34375 -0.4375q0 -0.59375 -0.453125 -1.046875q-0.4375 -0.4375 -1.25 -0.4375q-1.046875 0 -1.484375 0.4375q-0.296875 0.296875 -0.453125 0.8125l-1.625 0zm5.265625 1.640625q-0.453125 0.140625 -0.8125 0.21875q-1.265625 0.296875 -1.9375 0.453125q-0.59375 0.140625 -0.890625 0.4375q-0.375 0.375 -0.375 0.8125q0 0.53125 0.375 0.890625q0.21875 0.234375 0.96875 0.234375q1.265625 0 2.078125 -0.828125q0.515625 -0.515625 0.59375 -0.734375l0 -1.484375zm3.6328125 0.140625q0 -2.0 1.1875 -3.1875q1.109375 -1.109375 2.75 -1.109375q1.78125 0 2.671875 0.890625q0.8125 0.8125 0.96875 2.0l-1.640625 0q-0.078125 -0.59375 -0.59375 -1.109375q-0.4375 -0.453125 -1.328125 -0.453125q-0.890625 0 -1.484375 0.59375q-0.890625 0.890625 -0.890625 2.453125q0 1.484375 0.8125 2.296875q0.59375 0.59375 1.484375 0.59375q1.03125 0 1.625 -0.59375q0.59375 -0.59375 0.59375 -1.546875l1.640625 0q-0.078125 1.546875 -1.046875 2.515625q-0.953125 0.96875 -2.8125 0.96875q-1.5625 0 -2.59375 -1.046875q-1.34375 -1.328125 -1.34375 -3.265625zm10.390625 -7.125l1.484375 0l0 2.90625l2.53125 0l0 1.1875l-2.53125 0l0 4.8125q0 0.453125 0.375 0.828125q0.296875 0.296875 0.96875 0.296875q1.03125 0 1.84375 -0.53125l0 1.421875q-0.8125 0.4375 -1.78125 0.4375q-1.484375 0 -2.140625 -0.671875q-0.75 -0.734375 -0.75 -1.625l0 -4.96875l-1.78125 0l0 -1.1875l1.78125 0l0 -2.90625zm11.796875 2.90625l1.484375 0l0 5.5625q0 0.890625 0.453125 1.328125q0.375 0.375 1.03125 0.375q0.96875 0 1.71875 -0.734375q1.109375 -1.125 1.109375 -2.3125l0 -4.21875l1.484375 0l0 8.3125l-1.484375 0l0 -1.484375q-1.1875 1.625 -2.890625 1.625q-1.5625 0 -2.234375 -0.671875q-0.671875 -0.65625 -0.671875 -1.703125l0 -6.078125zm10.84375 11.0625l-1.484375 0l0 -11.0625l1.484375 0l0 0.953125q0.890625 -1.109375 2.296875 -1.109375q1.5625 0 2.53125 0.96875q1.1875 1.1875 1.1875 3.34375q0 2.21875 -1.1875 3.40625q-0.96875 0.96875 -2.53125 0.96875q-1.5625 0 -2.296875 -1.1875l0 3.71875zm2.296875 -9.875q-0.890625 0 -1.5625 0.65625q-0.734375 0.75 -0.734375 1.78125l0 1.046875q0 1.03125 0.8125 1.859375q0.671875 0.65625 1.484375 0.65625q0.75 0 1.265625 -0.515625q0.8125 -0.8125 0.8125 -2.515625q0 -1.640625 -0.734375 -2.375q-0.59375 -0.59375 -1.34375 -0.59375zm11.660156 -5.578125l1.484375 0l0 12.703125l-1.484375 0l0 -1.046875q-0.828125 1.1875 -2.234375 1.1875q-1.5625 0 -2.453125 -0.890625q-1.328125 -1.328125 -1.328125 -3.40625q0 -2.234375 1.1875 -3.421875q0.96875 -0.96875 2.296875 -0.96875q1.640625 0 2.53125 1.265625l0 -5.421875zm-2.3125 5.5q-0.734375 0 -1.328125 0.59375q-0.75 0.734375 -0.75 2.453125q0 1.625 0.828125 2.4375q0.515625 0.53125 1.25 0.53125q0.890625 0 1.484375 -0.59375q0.828125 -0.828125 0.828125 -2.375q0 -1.5625 -0.890625 -2.453125q-0.59375 -0.59375 -1.421875 -0.59375zm5.8007812 1.328125q0.21875 -1.03125 0.953125 -1.78125q0.828125 -0.8125 2.375 -0.8125q1.859375 0 2.671875 0.8125q0.75 0.75 0.75 1.71875l0 4.671875q0 0.8125 0.59375 1.265625l-1.78125 0q-0.296875 -0.296875 -0.296875 -0.96875q-1.109375 1.109375 -2.828125 1.109375q-1.40625 0 -2.140625 -0.734375q-0.671875 -0.671875 -0.671875 -1.5625q0 -1.046875 0.671875 -1.703125q0.734375 -0.75 2.078125 -0.96875q0.890625 -0.15625 1.546875 -0.375q0.96875 -0.21875 1.34375 -0.4375q0 -0.59375 -0.453125 -1.046875q-0.4375 -0.4375 -1.25 -0.4375q-1.046875 0 -1.484375 0.4375q-0.296875 0.296875 -0.453125 0.8125l-1.625 0zm5.265625 1.640625q-0.453125 0.140625 -0.8125 0.21875q-1.265625 0.296875 -1.9375 0.453125q-0.59375 0.140625 -0.890625 0.4375q-0.375 0.375 -0.375 0.8125q0 0.53125 0.375 0.890625q0.21875 0.234375 0.96875 0.234375q1.265625 0 2.078125 -0.828125q0.515625 -0.515625 0.59375 -0.734375l0 -1.484375zm4.5234375 -6.984375l1.484375 0l0 2.90625l2.53125 0l0 1.1875l-2.53125 0l0 4.8125q0 0.453125 0.375 0.828125q0.296875 0.296875 0.96875 0.296875q1.03125 0 1.84375 -0.53125l0 1.421875q-0.8125 0.4375 -1.78125 0.4375q-1.484375 0 -2.140625 -0.671875q-0.75 -0.734375 -0.75 -1.625l0 -4.96875l-1.78125 0l0 -1.1875l1.78125 0l0 -2.90625zm5.7890625 7.0625q0 -2.015625 1.265625 -3.265625q1.03125 -1.046875 2.671875 -1.046875q1.5625 0 2.671875 1.109375q1.03125 1.046875 1.03125 3.203125l-6.0 0q0 1.546875 0.734375 2.296875q0.671875 0.671875 1.703125 0.671875q1.046875 0 1.484375 -0.453125q0.53125 -0.515625 0.53125 -1.1875l1.625 0q-0.296875 1.34375 -0.96875 2.0q-0.953125 0.96875 -2.671875 0.96875q-1.78125 0 -2.890625 -1.109375q-1.1875 -1.1875 -1.1875 -3.1875zm3.859375 -3.046875q-0.890625 0 -1.484375 0.59375q-0.515625 0.515625 -0.671875 1.265625l4.234375 0q0 -0.75 -0.59375 -1.34375q-0.515625 -0.515625 -1.484375 -0.515625zm5.859375 1.265625q0 -0.96875 0.671875 -1.640625q0.890625 -0.890625 2.53125 -0.890625q1.78125 0 2.59375 0.8125q0.734375 0.75 0.734375 1.640625l-1.484375 0q-0.0625 -0.515625 -0.296875 -0.75q-0.4375 -0.4375 -1.625 -0.4375q-0.75 0 -1.1875 0.4375q-0.375 0.375 -0.375 0.828125q0 0.296875 0.21875 0.515625q0.296875 0.296875 1.859375 0.671875q0.96875 0.21875 1.640625 0.4375q0.59375 0.21875 0.890625 0.515625q0.59375 0.59375 0.59375 1.421875q0 0.890625 -0.75 1.625q-0.890625 0.890625 -2.75 0.890625q-1.84375 0 -2.734375 -0.890625q-0.75 -0.734375 -0.75 -1.859375l1.484375 0q0.078125 0.671875 0.375 0.96875q0.515625 0.515625 1.5625 0.515625q1.25 0 1.703125 -0.4375q0.296875 -0.296875 0.296875 -0.75q0 -0.296875 -0.375 -0.65625q-0.296875 -0.296875 -0.96875 -0.453125q-1.328125 -0.296875 -2.0 -0.515625q-0.8125 -0.21875 -1.1875 -0.59375q-0.671875 -0.671875 -0.671875 -1.40625z" fill-rule="nonzero"/><path fill="#000000" d="m344.60776 467.44693l4.453125 0q2.21875 0 3.78125 1.5625q1.640625 1.640625 1.640625 4.90625q0 3.109375 -1.71875 4.8125q-1.40625 1.421875 -3.703125 1.421875l-4.453125 0l0 -12.703125zm1.703125 1.421875l0 9.859375l2.671875 0q1.40625 0 2.296875 -0.890625q1.421875 -1.40625 1.421875 -3.921875q0 -2.671875 -1.34375 -4.015625q-1.03125 -1.03125 -2.375 -1.03125l-2.671875 0zm10.4609375 4.890625q0 -3.109375 1.78125 -4.890625q1.5625 -1.5625 3.796875 -1.5625q2.21875 0 3.78125 1.5625q1.78125 1.78125 1.78125 4.890625q0 3.125 -1.78125 4.90625q-1.5625 1.546875 -3.78125 1.546875q-2.234375 0 -3.796875 -1.546875q-1.78125 -1.78125 -1.78125 -4.90625zm5.578125 -5.046875q-1.421875 0 -2.53125 1.109375q-1.265625 1.265625 -1.265625 3.9375q0 2.671875 1.265625 3.9375q1.109375 1.109375 2.53125 1.109375q1.40625 0 2.515625 -1.109375q1.265625 -1.265625 1.265625 -3.9375q0 -2.671875 -1.265625 -3.9375q-1.109375 -1.109375 -2.515625 -1.109375zm8.089844 -1.265625l2.296875 0l3.40625 9.875l3.421875 -9.875l2.296875 0l0 12.703125l-1.703125 0l0 -9.734375l-3.421875 9.734375l-1.1875 0l-3.40625 -9.734375l0 9.734375l-1.703125 0l0 -12.703125zm19.59375 6.828125q0.21875 -1.03125 0.953125 -1.78125q0.828125 -0.8125 2.375 -0.8125q1.859375 0 2.671875 0.8125q0.75 0.75 0.75 1.71875l0 4.671875q0 0.8125 0.59375 1.265625l-1.78125 0q-0.296875 -0.296875 -0.296875 -0.96875q-1.109375 1.109375 -2.828125 1.109375q-1.40625 0 -2.140625 -0.734375q-0.671875 -0.671875 -0.671875 -1.5625q0 -1.046875 0.671875 -1.703125q0.734375 -0.75 2.078125 -0.96875q0.890625 -0.15625 1.546875 -0.375q0.96875 -0.21875 1.34375 -0.4375q0 -0.59375 -0.453125 -1.046875q-0.4375 -0.4375 -1.25 -0.4375q-1.046875 0 -1.484375 0.4375q-0.296875 0.296875 -0.453125 0.8125l-1.625 0zm5.265625 1.640625q-0.453125 0.140625 -0.8125 0.21875q-1.265625 0.296875 -1.9375 0.453125q-0.59375 0.140625 -0.890625 0.4375q-0.375 0.375 -0.375 0.8125q0 0.53125 0.375 0.890625q0.21875 0.234375 0.96875 0.234375q1.265625 0 2.078125 -0.828125q0.515625 -0.515625 0.59375 -0.734375l0 -1.484375zm5.3359375 4.234375l-1.484375 0l0 -8.3125l1.484375 0l0 1.484375q1.34375 -1.640625 2.828125 -1.640625q1.484375 0 2.375 0.890625q0.59375 0.59375 0.59375 1.40625l0 6.171875l-1.484375 0l0 -5.71875q0 -0.671875 -0.453125 -1.109375q-0.4375 -0.453125 -1.25 -0.453125q-0.75 0 -1.484375 0.75q-1.125 1.109375 -1.125 2.375l0 4.15625zm13.890625 -12.703125l1.484375 0l0 12.703125l-1.484375 0l0 -1.046875q-0.828125 1.1875 -2.234375 1.1875q-1.5625 0 -2.453125 -0.890625q-1.328125 -1.328125 -1.328125 -3.40625q0 -2.234375 1.1875 -3.421875q0.96875 -0.96875 2.296875 -0.96875q1.640625 0 2.53125 1.265625l0 -5.421875zm-2.3125 5.5q-0.734375 0 -1.328125 0.59375q-0.75 0.734375 -0.75 2.453125q0 1.625 0.828125 2.4375q0.515625 0.53125 1.25 0.53125q0.890625 0 1.484375 -0.59375q0.828125 -0.828125 0.828125 -2.375q0 -1.5625 -0.890625 -2.453125q-0.59375 -0.59375 -1.421875 -0.59375zm13.886719 -0.078125q1.1875 -1.1875 3.1875 -1.1875l0 1.640625q-0.296875 -0.078125 -0.8125 -0.078125q-1.109375 0 -2.078125 0.96875q-0.8125 0.8125 -1.109375 1.703125l0 4.234375l-1.484375 0l0 -8.3125l1.484375 0l0 2.078125q0.359375 -0.59375 0.8125 -1.046875zm4.1523438 3.125q0 -2.015625 1.265625 -3.265625q1.03125 -1.046875 2.671875 -1.046875q1.5625 0 2.671875 1.109375q1.03125 1.046875 1.03125 3.203125l-6.0 0q0 1.546875 0.734375 2.296875q0.671875 0.671875 1.703125 0.671875q1.046875 0 1.484375 -0.453125q0.53125 -0.515625 0.53125 -1.1875l1.625 0q-0.296875 1.34375 -0.96875 2.0q-0.953125 0.96875 -2.671875 0.96875q-1.78125 0 -2.890625 -1.109375q-1.1875 -1.1875 -1.1875 -3.1875zm3.859375 -3.046875q-0.890625 0 -1.484375 0.59375q-0.515625 0.515625 -0.671875 1.265625l4.234375 0q0 -0.75 -0.59375 -1.34375q-0.515625 -0.515625 -1.484375 -0.515625zm8.015625 -1.109375l2.53125 0l0 1.1875l-2.53125 0l0 7.125l-1.484375 0l0 -7.125l-1.78125 0l0 -1.1875l1.78125 0l0 -2.078125q0 -1.046875 0.671875 -1.71875q0.734375 -0.734375 2.0 -0.734375q0.96875 0 2.0 0.375l0 1.484375q-1.03125 -0.53125 -1.703125 -0.53125q-0.8125 0 -1.1875 0.375q-0.296875 0.296875 -0.296875 0.75l0 2.078125zm3.6328125 2.375q0 -0.96875 0.671875 -1.640625q0.890625 -0.890625 2.53125 -0.890625q1.78125 0 2.59375 0.8125q0.734375 0.75 0.734375 1.640625l-1.484375 0q-0.0625 -0.515625 -0.296875 -0.75q-0.4375 -0.4375 -1.625 -0.4375q-0.75 0 -1.1875 0.4375q-0.375 0.375 -0.375 0.828125q0 0.296875 0.21875 0.515625q0.296875 0.296875 1.859375 0.671875q0.96875 0.21875 1.640625 0.4375q0.59375 0.21875 0.890625 0.515625q0.59375 0.59375 0.59375 1.421875q0 0.890625 -0.75 1.625q-0.890625 0.890625 -2.75 0.890625q-1.84375 0 -2.734375 -0.890625q-0.75 -0.734375 -0.75 -1.859375l1.484375 0q0.078125 0.671875 0.375 0.96875q0.515625 0.515625 1.5625 0.515625q1.25 0 1.703125 -0.4375q0.296875 -0.296875 0.296875 -0.75q0 -0.296875 -0.375 -0.65625q-0.296875 -0.296875 -0.96875 -0.453125q-1.328125 -0.296875 -2.0 -0.515625q-0.8125 -0.21875 -1.1875 -0.59375q-0.671875 -0.671875 -0.671875 -1.40625z" fill-rule="nonzero"/><path fill="#000000" fill-opacity="0.0" d="m532.1102 441.7036l0 0c0 -5.3750916 4.357361 -9.732483 9.732483 -9.732483l148.1886 0c2.5811768 0 5.0567017 1.0253906 6.881897 2.850586c1.8251953 1.8251953 2.850586 4.3006897 2.850586 6.881897l0 38.92874c0 5.3750916 -4.357422 9.732483 -9.732483 9.732483l-148.1886 0c-5.375122 0 -9.732483 -4.3573914 -9.732483 -9.732483z" fill-rule="evenodd"/><path fill="#000000" d="m560.1284 444.1036l6.234375 0q1.484375 0 2.453125 0.953125q0.953125 0.96875 0.953125 2.671875q0 1.71875 -0.953125 2.671875q-0.53125 0.53125 -1.484375 0.671875l2.890625 5.71875l-1.859375 0l-2.671875 -5.5l-3.859375 0l0 5.5l-1.703125 0l0 -12.6875zm1.703125 1.40625l0 4.375l4.375 0q0.75 0 1.265625 -0.515625q0.515625 -0.515625 0.515625 -1.640625q0 -1.03125 -0.59375 -1.625q-0.59375 -0.59375 -1.40625 -0.59375l-4.15625 0zm9.5 7.203125q0 -2.015625 1.265625 -3.265625q1.03125 -1.046875 2.671875 -1.046875q1.5625 0 2.671875 1.109375q1.03125 1.046875 1.03125 3.203125l-6.0 0q0 1.546875 0.734375 2.296875q0.671875 0.671875 1.703125 0.671875q1.046875 0 1.484375 -0.453125q0.53125 -0.515625 0.53125 -1.1875l1.625 0q-0.296875 1.34375 -0.96875 2.0q-0.953125 0.96875 -2.671875 0.96875q-1.78125 0 -2.890625 -1.109375q-1.1875 -1.1875 -1.1875 -3.1875zm3.859375 -3.046875q-0.890625 0 -1.484375 0.59375q-0.515625 0.515625 -0.671875 1.265625l4.234375 0q0 -0.75 -0.59375 -1.34375q-0.515625 -0.515625 -1.484375 -0.515625zm5.796875 1.328125q0.21875 -1.03125 0.953125 -1.78125q0.828125 -0.8125 2.375 -0.8125q1.859375 0 2.671875 0.8125q0.75 0.75 0.75 1.71875l0 4.671875q0 0.8125 0.59375 1.265625l-1.78125 0q-0.296875 -0.296875 -0.296875 -0.96875q-1.109375 1.109375 -2.828125 1.109375q-1.40625 0 -2.140625 -0.734375q-0.671875 -0.671875 -0.671875 -1.5625q0 -1.046875 0.671875 -1.703125q0.734375 -0.75 2.078125 -0.96875q0.890625 -0.15625 1.546875 -0.375q0.96875 -0.21875 1.34375 -0.4375q0 -0.59375 -0.453125 -1.046875q-0.4375 -0.4375 -1.25 -0.4375q-1.046875 0 -1.484375 0.4375q-0.296875 0.296875 -0.453125 0.8125l-1.625 0zm5.265625 1.640625q-0.453125 0.140625 -0.8125 0.21875q-1.265625 0.296875 -1.9375 0.453125q-0.59375 0.140625 -0.890625 0.4375q-0.375 0.375 -0.375 0.8125q0 0.53125 0.375 0.890625q0.21875 0.234375 0.96875 0.234375q1.265625 0 2.078125 -0.828125q0.515625 -0.515625 0.59375 -0.734375l0 -1.484375zm3.6328125 0.140625q0 -2.0 1.1875 -3.1875q1.109375 -1.109375 2.75 -1.109375q1.78125 0 2.671875 0.890625q0.8125 0.8125 0.96875 2.0l-1.640625 0q-0.078125 -0.59375 -0.59375 -1.109375q-0.4375 -0.453125 -1.328125 -0.453125q-0.890625 0 -1.484375 0.59375q-0.890625 0.890625 -0.890625 2.453125q0 1.484375 0.8125 2.296875q0.59375 0.59375 1.484375 0.59375q1.03125 0 1.625 -0.59375q0.59375 -0.59375 0.59375 -1.546875l1.640625 0q-0.078125 1.546875 -1.046875 2.515625q-0.953125 0.96875 -2.8125 0.96875q-1.5625 0 -2.59375 -1.046875q-1.34375 -1.328125 -1.34375 -3.265625zm10.390625 -7.125l1.484375 0l0 2.90625l2.53125 0l0 1.1875l-2.53125 0l0 4.8125q0 0.453125 0.375 0.828125q0.296875 0.296875 0.96875 0.296875q1.03125 0 1.84375 -0.53125l0 1.421875q-0.8125 0.4375 -1.78125 0.4375q-1.484375 0 -2.140625 -0.671875q-0.75 -0.734375 -0.75 -1.625l0 -4.96875l-1.78125 0l0 -1.1875l1.78125 0l0 -2.90625zm11.796875 2.90625l1.484375 0l0 5.5625q0 0.890625 0.453125 1.328125q0.375 0.375 1.03125 0.375q0.96875 0 1.71875 -0.734375q1.109375 -1.125 1.109375 -2.3125l0 -4.21875l1.484375 0l0 8.3125l-1.484375 0l0 -1.484375q-1.1875 1.625 -2.890625 1.625q-1.5625 0 -2.234375 -0.671875q-0.671875 -0.65625 -0.671875 -1.703125l0 -6.078125zm10.84375 11.0625l-1.484375 0l0 -11.0625l1.484375 0l0 0.953125q0.890625 -1.109375 2.296875 -1.109375q1.5625 0 2.53125 0.96875q1.1875 1.1875 1.1875 3.34375q0 2.21875 -1.1875 3.40625q-0.96875 0.96875 -2.53125 0.96875q-1.5625 0 -2.296875 -1.1875l0 3.71875zm2.296875 -9.875q-0.890625 0 -1.5625 0.65625q-0.734375 0.75 -0.734375 1.78125l0 1.046875q0 1.03125 0.8125 1.859375q0.671875 0.65625 1.484375 0.65625q0.75 0 1.265625 -0.515625q0.8125 -0.8125 0.8125 -2.515625q0 -1.640625 -0.734375 -2.375q-0.59375 -0.59375 -1.34375 -0.59375zm11.660156 -5.578125l1.484375 0l0 12.703125l-1.484375 0l0 -1.046875q-0.828125 1.1875 -2.234375 1.1875q-1.5625 0 -2.453125 -0.890625q-1.328125 -1.328125 -1.328125 -3.40625q0 -2.234375 1.1875 -3.421875q0.96875 -0.96875 2.296875 -0.96875q1.640625 0 2.53125 1.265625l0 -5.421875zm-2.3125 5.5q-0.734375 0 -1.328125 0.59375q-0.75 0.734375 -0.75 2.453125q0 1.625 0.828125 2.4375q0.515625 0.53125 1.25 0.53125q0.890625 0 1.484375 -0.59375q0.828125 -0.828125 0.828125 -2.375q0 -1.5625 -0.890625 -2.453125q-0.59375 -0.59375 -1.421875 -0.59375zm5.8007812 1.328125q0.21875 -1.03125 0.953125 -1.78125q0.828125 -0.8125 2.375 -0.8125q1.859375 0 2.671875 0.8125q0.75 0.75 0.75 1.71875l0 4.671875q0 0.8125 0.59375 1.265625l-1.78125 0q-0.296875 -0.296875 -0.296875 -0.96875q-1.109375 1.109375 -2.828125 1.109375q-1.40625 0 -2.140625 -0.734375q-0.671875 -0.671875 -0.671875 -1.5625q0 -1.046875 0.671875 -1.703125q0.734375 -0.75 2.078125 -0.96875q0.890625 -0.15625 1.546875 -0.375q0.96875 -0.21875 1.34375 -0.4375q0 -0.59375 -0.453125 -1.046875q-0.4375 -0.4375 -1.25 -0.4375q-1.046875 0 -1.484375 0.4375q-0.296875 0.296875 -0.453125 0.8125l-1.625 0zm5.265625 1.640625q-0.453125 0.140625 -0.8125 0.21875q-1.265625 0.296875 -1.9375 0.453125q-0.59375 0.140625 -0.890625 0.4375q-0.375 0.375 -0.375 0.8125q0 0.53125 0.375 0.890625q0.21875 0.234375 0.96875 0.234375q1.265625 0 2.078125 -0.828125q0.515625 -0.515625 0.59375 -0.734375l0 -1.484375zm4.5234375 -6.984375l1.484375 0l0 2.90625l2.53125 0l0 1.1875l-2.53125 0l0 4.8125q0 0.453125 0.375 0.828125q0.296875 0.296875 0.96875 0.296875q1.03125 0 1.84375 -0.53125l0 1.421875q-0.8125 0.4375 -1.78125 0.4375q-1.484375 0 -2.140625 -0.671875q-0.75 -0.734375 -0.75 -1.625l0 -4.96875l-1.78125 0l0 -1.1875l1.78125 0l0 -2.90625zm5.7890625 7.0625q0 -2.015625 1.265625 -3.265625q1.03125 -1.046875 2.671875 -1.046875q1.5625 0 2.671875 1.109375q1.03125 1.046875 1.03125 3.203125l-6.0 0q0 1.546875 0.734375 2.296875q0.671875 0.671875 1.703125 0.671875q1.046875 0 1.484375 -0.453125q0.53125 -0.515625 0.53125 -1.1875l1.625 0q-0.296875 1.34375 -0.96875 2.0q-0.953125 0.96875 -2.671875 0.96875q-1.78125 0 -2.890625 -1.109375q-1.1875 -1.1875 -1.1875 -3.1875zm3.859375 -3.046875q-0.890625 0 -1.484375 0.59375q-0.515625 0.515625 -0.671875 1.265625l4.234375 0q0 -0.75 -0.59375 -1.34375q-0.515625 -0.515625 -1.484375 -0.515625zm5.859375 1.265625q0 -0.96875 0.671875 -1.640625q0.890625 -0.890625 2.53125 -0.890625q1.78125 0 2.59375 0.8125q0.734375 0.75 0.734375 1.640625l-1.484375 0q-0.0625 -0.515625 -0.296875 -0.75q-0.4375 -0.4375 -1.625 -0.4375q-0.75 0 -1.1875 0.4375q-0.375 0.375 -0.375 0.828125q0 0.296875 0.21875 0.515625q0.296875 0.296875 1.859375 0.671875q0.96875 0.21875 1.640625 0.4375q0.59375 0.21875 0.890625 0.515625q0.59375 0.59375 0.59375 1.421875q0 0.890625 -0.75 1.625q-0.890625 0.890625 -2.75 0.890625q-1.84375 0 -2.734375 -0.890625q-0.75 -0.734375 -0.75 -1.859375l1.484375 0q0.078125 0.671875 0.375 0.96875q0.515625 0.515625 1.5625 0.515625q1.25 0 1.703125 -0.4375q0.296875 -0.296875 0.296875 -0.75q0 -0.296875 -0.375 -0.65625q-0.296875 -0.296875 -0.96875 -0.453125q-1.328125 -0.296875 -2.0 -0.515625q-0.8125 -0.21875 -1.1875 -0.59375q-0.671875 -0.671875 -0.671875 -1.40625z" fill-rule="nonzero"/><path fill="#000000" d="m562.16943 466.1661l4.453125 0q2.21875 0 3.78125 1.5625q1.640625 1.640625 1.640625 4.90625q0 3.109375 -1.71875 4.8125q-1.40625 1.421875 -3.703125 1.421875l-4.453125 0l0 -12.703125zm1.703125 1.421875l0 9.859375l2.671875 0q1.40625 0 2.296875 -0.890625q1.421875 -1.40625 1.421875 -3.921875q0 -2.671875 -1.34375 -4.015625q-1.03125 -1.03125 -2.375 -1.03125l-2.671875 0zm10.4609375 4.890625q0 -3.109375 1.78125 -4.890625q1.5625 -1.5625 3.796875 -1.5625q2.21875 0 3.78125 1.5625q1.78125 1.78125 1.78125 4.890625q0 3.125 -1.78125 4.90625q-1.5625 1.546875 -3.78125 1.546875q-2.234375 0 -3.796875 -1.546875q-1.78125 -1.78125 -1.78125 -4.90625zm5.578125 -5.046875q-1.421875 0 -2.53125 1.109375q-1.265625 1.265625 -1.265625 3.9375q0 2.671875 1.265625 3.9375q1.109375 1.109375 2.53125 1.109375q1.40625 0 2.515625 -1.109375q1.265625 -1.265625 1.265625 -3.9375q0 -2.671875 -1.265625 -3.9375q-1.109375 -1.109375 -2.515625 -1.109375zm8.089844 -1.265625l2.296875 0l3.40625 9.875l3.421875 -9.875l2.296875 0l0 12.703125l-1.703125 0l0 -9.734375l-3.421875 9.734375l-1.1875 0l-3.40625 -9.734375l0 9.734375l-1.703125 0l0 -12.703125zm19.59375 6.828125q0.21875 -1.03125 0.953125 -1.78125q0.828125 -0.8125 2.375 -0.8125q1.859375 0 2.671875 0.8125q0.75 0.75 0.75 1.71875l0 4.671875q0 0.8125 0.59375 1.265625l-1.78125 0q-0.296875 -0.296875 -0.296875 -0.96875q-1.109375 1.109375 -2.828125 1.109375q-1.40625 0 -2.140625 -0.734375q-0.671875 -0.671875 -0.671875 -1.5625q0 -1.046875 0.671875 -1.703125q0.734375 -0.75 2.078125 -0.96875q0.890625 -0.15625 1.546875 -0.375q0.96875 -0.21875 1.34375 -0.4375q0 -0.59375 -0.453125 -1.046875q-0.4375 -0.4375 -1.25 -0.4375q-1.046875 0 -1.484375 0.4375q-0.296875 0.296875 -0.453125 0.8125l-1.625 0zm5.265625 1.640625q-0.453125 0.140625 -0.8125 0.21875q-1.265625 0.296875 -1.9375 0.453125q-0.59375 0.140625 -0.890625 0.4375q-0.375 0.375 -0.375 0.8125q0 0.53125 0.375 0.890625q0.21875 0.234375 0.96875 0.234375q1.265625 0 2.078125 -0.828125q0.515625 -0.515625 0.59375 -0.734375l0 -1.484375zm5.3359375 4.234375l-1.484375 0l0 -8.3125l1.484375 0l0 1.484375q1.34375 -1.640625 2.828125 -1.640625q1.484375 0 2.375 0.890625q0.59375 0.59375 0.59375 1.40625l0 6.171875l-1.484375 0l0 -5.71875q0 -0.671875 -0.453125 -1.109375q-0.4375 -0.453125 -1.25 -0.453125q-0.75 0 -1.484375 0.75q-1.125 1.109375 -1.125 2.375l0 4.15625zm13.890625 -12.703125l1.484375 0l0 12.703125l-1.484375 0l0 -1.046875q-0.828125 1.1875 -2.234375 1.1875q-1.5625 0 -2.453125 -0.890625q-1.328125 -1.328125 -1.328125 -3.40625q0 -2.234375 1.1875 -3.421875q0.96875 -0.96875 2.296875 -0.96875q1.640625 0 2.53125 1.265625l0 -5.421875zm-2.3125 5.5q-0.734375 0 -1.328125 0.59375q-0.75 0.734375 -0.75 2.453125q0 1.625 0.828125 2.4375q0.515625 0.53125 1.25 0.53125q0.890625 0 1.484375 -0.59375q0.828125 -0.828125 0.828125 -2.375q0 -1.5625 -0.890625 -2.453125q-0.59375 -0.59375 -1.421875 -0.59375zm13.886719 -0.078125q1.1875 -1.1875 3.1875 -1.1875l0 1.640625q-0.296875 -0.078125 -0.8125 -0.078125q-1.109375 0 -2.078125 0.96875q-0.8125 0.8125 -1.109375 1.703125l0 4.234375l-1.484375 0l0 -8.3125l1.484375 0l0 2.078125q0.359375 -0.59375 0.8125 -1.046875zm4.1523438 3.125q0 -2.015625 1.265625 -3.265625q1.03125 -1.046875 2.671875 -1.046875q1.5625 0 2.671875 1.109375q1.03125 1.046875 1.03125 3.203125l-6.0 0q0 1.546875 0.734375 2.296875q0.671875 0.671875 1.703125 0.671875q1.046875 0 1.484375 -0.453125q0.53125 -0.515625 0.53125 -1.1875l1.625 0q-0.296875 1.34375 -0.96875 2.0q-0.953125 0.96875 -2.671875 0.96875q-1.78125 0 -2.890625 -1.109375q-1.1875 -1.1875 -1.1875 -3.1875zm3.859375 -3.046875q-0.890625 0 -1.484375 0.59375q-0.515625 0.515625 -0.671875 1.265625l4.234375 0q0 -0.75 -0.59375 -1.34375q-0.515625 -0.515625 -1.484375 -0.515625zm8.015625 -1.109375l2.53125 0l0 1.1875l-2.53125 0l0 7.125l-1.484375 0l0 -7.125l-1.78125 0l0 -1.1875l1.78125 0l0 -2.078125q0 -1.046875 0.671875 -1.71875q0.734375 -0.734375 2.0 -0.734375q0.96875 0 2.0 0.375l0 1.484375q-1.03125 -0.53125 -1.703125 -0.53125q-0.8125 0 -1.1875 0.375q-0.296875 0.296875 -0.296875 0.75l0 2.078125zm3.6328125 2.375q0 -0.96875 0.671875 -1.640625q0.890625 -0.890625 2.53125 -0.890625q1.78125 0 2.59375 0.8125q0.734375 0.75 0.734375 1.640625l-1.484375 0q-0.0625 -0.515625 -0.296875 -0.75q-0.4375 -0.4375 -1.625 -0.4375q-0.75 0 -1.1875 0.4375q-0.375 0.375 -0.375 0.828125q0 0.296875 0.21875 0.515625q0.296875 0.296875 1.859375 0.671875q0.96875 0.21875 1.640625 0.4375q0.59375 0.21875 0.890625 0.515625q0.59375 0.59375 0.59375 1.421875q0 0.890625 -0.75 1.625q-0.890625 0.890625 -2.75 0.890625q-1.84375 0 -2.734375 -0.890625q-0.75 -0.734375 -0.75 -1.859375l1.484375 0q0.078125 0.671875 0.375 0.96875q0.515625 0.515625 1.5625 0.515625q1.25 0 1.703125 -0.4375q0.296875 -0.296875 0.296875 -0.75q0 -0.296875 -0.375 -0.65625q-0.296875 -0.296875 -0.96875 -0.453125q-1.328125 -0.296875 -2.0 -0.515625q-0.8125 -0.21875 -1.1875 -0.59375q-0.671875 -0.671875 -0.671875 -1.40625z" fill-rule="nonzero"/><path fill="#9fc5e8" d="m330.43045 352.3479l0 0c0 -5.3750916 4.357361 -9.732452 9.732483 -9.732452l118.4563 0c2.5812073 0 5.0567017 1.0253601 6.881897 2.8505554c1.8251953 1.8251953 2.850586 4.3006897 2.850586 6.881897l0 38.92874c0 5.375122 -4.3573914 9.732483 -9.732483 9.732483l-118.4563 0c-5.375122 0 -9.732483 -4.357361 -9.732483 -9.732483z" fill-rule="evenodd"/><path stroke="#000000" stroke-width="1.0" stroke-linejoin="round" stroke-linecap="butt" d="m330.43045 352.3479l0 0c0 -5.3750916 4.357361 -9.732452 9.732483 -9.732452l118.4563 0c2.5812073 0 5.0567017 1.0253601 6.881897 2.8505554c1.8251953 1.8251953 2.850586 4.3006897 2.850586 6.881897l0 38.92874c0 5.375122 -4.3573914 9.732483 -9.732483 9.732483l-118.4563 0c-5.375122 0 -9.732483 -4.357361 -9.732483 -9.732483z" fill-rule="evenodd"/><path fill="#000000" d="m376.24265 354.8104l1.703125 0l0 5.34375l6.078125 0l0 -5.34375l1.71875 0l0 12.703125l-1.71875 0l0 -5.9375l-6.078125 0l0 5.9375l-1.703125 0l0 -12.703125zm11.640625 8.546875q0 -1.9375 1.265625 -3.203125q1.109375 -1.109375 2.75 -1.109375q1.625 0 2.75 1.109375q1.25 1.265625 1.25 3.203125q0 1.921875 -1.25 3.1875q-1.125 1.109375 -2.75 1.109375q-1.640625 0 -2.75 -1.109375q-1.265625 -1.265625 -1.265625 -3.1875zm4.015625 -2.96875q-0.890625 0 -1.484375 0.59375q-0.890625 0.890625 -0.890625 2.375q0 1.484375 0.8125 2.296875q0.671875 0.671875 1.5625 0.671875q0.890625 0 1.5625 -0.671875q0.8125 -0.8125 0.8125 -2.296875q0 -1.484375 -0.890625 -2.375q-0.59375 -0.59375 -1.484375 -0.59375zm5.6328125 2.96875q0 -1.9375 1.265625 -3.203125q1.109375 -1.109375 2.75 -1.109375q1.625 0 2.75 1.109375q1.25 1.265625 1.25 3.203125q0 1.921875 -1.25 3.1875q-1.125 1.109375 -2.75 1.109375q-1.640625 0 -2.75 -1.109375q-1.265625 -1.265625 -1.265625 -3.1875zm4.015625 -2.96875q-0.890625 0 -1.484375 0.59375q-0.890625 0.890625 -0.890625 2.375q0 1.484375 0.8125 2.296875q0.671875 0.671875 1.5625 0.671875q0.890625 0 1.5625 -0.671875q0.8125 -0.8125 0.8125 -2.296875q0 -1.484375 -0.890625 -2.375q-0.59375 -0.59375 -1.484375 -0.59375zm5.7890625 -5.578125l1.484375 0l0 8.015625l3.640625 -3.625l1.84375 0l-2.8125 2.8125l3.40625 5.5l-1.546875 0l-2.828125 -4.53125l-1.703125 1.703125l0 2.828125l-1.484375 0l0 -12.703125zm8.8984375 6.765625q0 -0.96875 0.671875 -1.640625q0.890625 -0.890625 2.53125 -0.890625q1.78125 0 2.59375 0.8125q0.734375 0.75 0.734375 1.640625l-1.484375 0q-0.0625 -0.515625 -0.296875 -0.75q-0.4375 -0.4375 -1.625 -0.4375q-0.75 0 -1.1875 0.4375q-0.375 0.375 -0.375 0.828125q0 0.296875 0.21875 0.515625q0.296875 0.296875 1.859375 0.671875q0.96875 0.21875 1.640625 0.4375q0.59375 0.21875 0.890625 0.515625q0.59375 0.59375 0.59375 1.421875q0 0.890625 -0.75 1.625q-0.890625 0.890625 -2.75 0.890625q-1.84375 0 -2.734375 -0.890625q-0.75 -0.734375 -0.75 -1.859375l1.484375 0q0.078125 0.671875 0.375 0.96875q0.515625 0.515625 1.5625 0.515625q1.25 0 1.703125 -0.4375q0.296875 -0.296875 0.296875 -0.75q0 -0.296875 -0.375 -0.65625q-0.296875 -0.296875 -0.96875 -0.453125q-1.328125 -0.296875 -2.0 -0.515625q-0.8125 -0.21875 -1.1875 -0.59375q-0.671875 -0.671875 -0.671875 -1.40625z" fill-rule="nonzero"/><path fill="#000000" d="m385.39694 389.51352l5.046875 -12.84375l1.484375 0l5.046875 12.84375l-1.78125 0l-1.546875 -3.859375l-4.90625 0l-1.5625 3.859375l-1.78125 0zm5.796875 -10.390625l-1.9375 5.109375l3.859375 0l-1.921875 -5.109375zm7.1953125 -2.3125l5.9375 0q1.640625 0 2.671875 1.046875q1.046875 1.03125 1.046875 2.890625q0 1.859375 -0.96875 2.828125q-0.96875 0.953125 -2.75 0.953125l-4.234375 0l0 4.984375l-1.703125 0l0 -12.703125zm1.703125 1.421875l0 4.890625l3.859375 0q1.046875 0 1.640625 -0.59375q0.671875 -0.671875 0.671875 -1.78125q0 -1.265625 -0.59375 -1.859375q-0.671875 -0.65625 -1.71875 -0.65625l-3.859375 0zm9.5078125 -1.421875l3.34375 0l0 1.640625l-0.828125 0l0 9.421875l0.828125 0l0 1.640625l-3.34375 0l0 -1.640625l0.8125 0l0 -9.421875l-0.8125 0l0 -1.640625z" fill-rule="nonzero"/><path fill="#9fc5e8" d="m546.97504 355.40564l0 0c0 -5.3750916 4.357422 -9.732452 9.732483 -9.732452l118.4563 0c2.5812378 0 5.0567627 1.0253601 6.881958 2.8505554c1.8251953 1.8251953 2.850525 4.3006897 2.850525 6.881897l0 38.928772c0 5.3750916 -4.357361 9.732452 -9.732483 9.732452l-118.4563 0c-5.375061 0 -9.732483 -4.357361 -9.732483 -9.732452z" fill-rule="evenodd"/><path stroke="#000000" stroke-width="1.0" stroke-linejoin="round" stroke-linecap="butt" d="m546.97504 355.40564l0 0c0 -5.3750916 4.357422 -9.732452 9.732483 -9.732452l118.4563 0c2.5812378 0 5.0567627 1.0253601 6.881958 2.8505554c1.8251953 1.8251953 2.850525 4.3006897 2.850525 6.881897l0 38.928772c0 5.3750916 -4.357361 9.732452 -9.732483 9.732452l-118.4563 0c-5.375061 0 -9.732483 -4.357361 -9.732483 -9.732452z" fill-rule="evenodd"/><path fill="#000000" d="m592.78723 357.86816l1.703125 0l0 5.34375l6.078125 0l0 -5.34375l1.71875 0l0 12.703125l-1.71875 0l0 -5.9375l-6.078125 0l0 5.9375l-1.703125 0l0 -12.703125zm11.640625 8.546875q0 -1.9375 1.265625 -3.203125q1.109375 -1.109375 2.75 -1.109375q1.625 0 2.75 1.109375q1.25 1.265625 1.25 3.203125q0 1.921875 -1.25 3.1875q-1.125 1.109375 -2.75 1.109375q-1.640625 0 -2.75 -1.109375q-1.265625 -1.265625 -1.265625 -3.1875zm4.015625 -2.96875q-0.890625 0 -1.484375 0.59375q-0.890625 0.890625 -0.890625 2.375q0 1.484375 0.8125 2.296875q0.671875 0.671875 1.5625 0.671875q0.890625 0 1.5625 -0.671875q0.8125 -0.8125 0.8125 -2.296875q0 -1.484375 -0.890625 -2.375q-0.59375 -0.59375 -1.484375 -0.59375zm5.6328125 2.96875q0 -1.9375 1.265625 -3.203125q1.109375 -1.109375 2.75 -1.109375q1.625 0 2.75 1.109375q1.25 1.265625 1.25 3.203125q0 1.921875 -1.25 3.1875q-1.125 1.109375 -2.75 1.109375q-1.640625 0 -2.75 -1.109375q-1.265625 -1.265625 -1.265625 -3.1875zm4.015625 -2.96875q-0.890625 0 -1.484375 0.59375q-0.890625 0.890625 -0.890625 2.375q0 1.484375 0.8125 2.296875q0.671875 0.671875 1.5625 0.671875q0.890625 0 1.5625 -0.671875q0.8125 -0.8125 0.8125 -2.296875q0 -1.484375 -0.890625 -2.375q-0.59375 -0.59375 -1.484375 -0.59375zm5.7890625 -5.578125l1.484375 0l0 8.015625l3.640625 -3.625l1.84375 0l-2.8125 2.8125l3.40625 5.5l-1.546875 0l-2.828125 -4.53125l-1.703125 1.703125l0 2.828125l-1.484375 0l0 -12.703125zm8.8984375 6.765625q0 -0.96875 0.671875 -1.640625q0.890625 -0.890625 2.53125 -0.890625q1.78125 0 2.59375 0.8125q0.734375 0.75 0.734375 1.640625l-1.484375 0q-0.0625 -0.515625 -0.296875 -0.75q-0.4375 -0.4375 -1.625 -0.4375q-0.75 0 -1.1875 0.4375q-0.375 0.375 -0.375 0.828125q0 0.296875 0.21875 0.515625q0.296875 0.296875 1.859375 0.671875q0.96875 0.21875 1.640625 0.4375q0.59375 0.21875 0.890625 0.515625q0.59375 0.59375 0.59375 1.421875q0 0.890625 -0.75 1.625q-0.890625 0.890625 -2.75 0.890625q-1.84375 0 -2.734375 -0.890625q-0.75 -0.734375 -0.75 -1.859375l1.484375 0q0.078125 0.671875 0.375 0.96875q0.515625 0.515625 1.5625 0.515625q1.25 0 1.703125 -0.4375q0.296875 -0.296875 0.296875 -0.75q0 -0.296875 -0.375 -0.65625q-0.296875 -0.296875 -0.96875 -0.453125q-1.328125 -0.296875 -2.0 -0.515625q-0.8125 -0.21875 -1.1875 -0.59375q-0.671875 -0.671875 -0.671875 -1.40625z" fill-rule="nonzero"/><path fill="#000000" d="m601.9415 392.5713l5.046875 -12.84375l1.484375 0l5.046875 12.84375l-1.78125 0l-1.546875 -3.859375l-4.90625 0l-1.5625 3.859375l-1.78125 0zm5.796875 -10.390625l-1.9375 5.109375l3.859375 0l-1.921875 -5.109375zm7.1953125 -2.3125l5.9375 0q1.640625 0 2.671875 1.046875q1.046875 1.03125 1.046875 2.890625q0 1.859375 -0.96875 2.828125q-0.96875 0.953125 -2.75 0.953125l-4.234375 0l0 4.984375l-1.703125 0l0 -12.703125zm1.703125 1.421875l0 4.890625l3.859375 0q1.046875 0 1.640625 -0.59375q0.671875 -0.671875 0.671875 -1.78125q0 -1.265625 -0.59375 -1.859375q-0.671875 -0.65625 -1.71875 -0.65625l-3.859375 0zm9.5078125 -1.421875l3.34375 0l0 1.640625l-0.828125 0l0 9.421875l0.828125 0l0 1.640625l-3.34375 0l0 -1.640625l0.8125 0l0 -9.421875l-0.8125 0l0 -1.640625z" fill-rule="nonzero"/></g></svg>