<svg xmlns="http://www.w3.org/2000/svg" viewBox="0 0 320 114"><defs><style>.cls-1{isolation:isolate;}.cls-2{fill:#fff;}.cls-3{fill:none;opacity:0.5;mix-blend-mode:multiply;}</style></defs><title>アセット 8</title><g class="cls-1"><g id="レイヤー_2" data-name="レイヤー 2"><g id="specctr"><path class="cls-2" d="M298.45,45h-3.6v9.28H293.3V45h-3.64V43.42h8.79Zm13.6,9.28h-1.56V45h-.05l-3.7,9.28h-1L302.13,45h-.05v9.28h-1.55V43.42h2.6l3.12,7.81,3.21-7.81h2.59Z"/><path class="cls-2" d="M23.2,89.07l-7,15.4H8L37.3,40.4l29.35,64.07H58.41l-7-15.4ZM37.3,57.19,26.37,82.05H48.22Z"/><path class="cls-2" d="M171.44,43h33v7H179.1V67.9h23.25v7H179.1V97.46h25.35v7h-33Z"/><path class="cls-2" d="M109.13,52.69A25.41,25.41,0,0,0,95.45,48.6c-13.77,0-24.29,11.5-24.29,25.11,0,13.45,10.44,24.94,24.13,24.94a24,24,0,0,0,13.87-4.4l4.18,6.12A32.07,32.07,0,1,1,96.19,41.6a31.46,31.46,0,0,1,17.15,5Z"/><path class="cls-2" d="M159.05,52.69a25.4,25.4,0,0,0-13.67-4.09c-13.78,0-24.3,11.5-24.3,25.11,0,13.45,10.44,24.94,24.13,24.94a24.07,24.07,0,0,0,13.88-4.4l4.17,6.12A32.07,32.07,0,1,1,146.1,41.6a31.47,31.47,0,0,1,17.16,5Z"/><path class="cls-2" d="M231.29,68.11l-4.4-1.7c-3.83-1.47-8.56-4-8.56-8.81,0-5.38,5.37-9.4,10.27-9.4,4.64,0,7.58,1.95,9.86,5.78l6.11-3.67A17.53,17.53,0,0,0,228.76,41c-9.29,0-18.09,6.63-18.09,16.57,0,8.56,6.35,12.56,13.36,15.57L228.28,75c5.29,2.2,10.59,5.05,10.59,11.66,0,6.44-4.73,12-11.33,12a11.59,11.59,0,0,1-11.61-8.86l-7.17,2.66a18.9,18.9,0,0,0,18.13,13.38c11,0,19.64-8,19.64-19.15C246.53,76.35,240,71.54,231.29,68.11Z"/><path class="cls-2" d="M275,68.11l-4.4-1.7c-3.83-1.47-8.57-4-8.57-8.81,0-5.38,5.39-9.4,10.28-9.4,4.65,0,7.58,1.95,9.87,5.78l6.11-3.67A17.54,17.54,0,0,0,272.48,41c-9.3,0-18.1,6.63-18.1,16.57,0,8.56,6.36,12.56,13.36,15.57L272,75c5.29,2.2,10.59,5.05,10.59,11.66,0,6.44-4.73,12-11.33,12a11.58,11.58,0,0,1-11.58-8.76l-7.16,2.67a18.87,18.87,0,0,0,18.09,13.27c11,0,19.64-8,19.64-19.15C290.24,76.35,283.72,71.54,275,68.11Z"/><path class="cls-2" d="M161.84,73.75A16.16,16.16,0,1,1,145.69,57.6,16.15,16.15,0,0,1,161.84,73.75Z"/><path class="cls-2" d="M175.45,28.42A10.41,10.41,0,1,1,165,18,10.41,10.41,0,0,1,175.45,28.42Z"/><path class="cls-2" d="M189.73,16.94a6.66,6.66,0,1,1-6.66-6.66A6.66,6.66,0,0,1,189.73,16.94Z"/><path class="cls-2" d="M203.18,13.18a4.95,4.95,0,1,1-5-4.95A4.95,4.95,0,0,1,203.18,13.18Z"/><rect id="_長方形_" data-name="&lt;長方形&gt;" class="cls-3" width="320" height="114"/></g></g></g></svg>