<svg version="1.1" viewBox="0.0 0.0 706.5984251968504 615.3412073490814" fill="none" stroke="none" stroke-linecap="square" stroke-miterlimit="10" xmlns:xlink="http://www.w3.org/1999/xlink" xmlns="http://www.w3.org/2000/svg"><clipPath id="p.0"><path d="m0 0l706.59845 0l0 615.3412l-706.59845 0l0 -615.3412z" clip-rule="nonzero"/></clipPath><g clip-path="url(#p.0)"><path fill="#000000" fill-opacity="0.0" d="m0 0l706.59845 0l0 615.3412l-706.59845 0z" fill-rule="evenodd"/><path fill="#cfe2f3" d="m230.56955 96.68241l199.08661 0l0 73.35433l-199.08661 0z" fill-rule="evenodd"/><path stroke="#000000" stroke-width="1.0" stroke-linejoin="round" stroke-linecap="butt" d="m230.56955 96.68241l199.08661 0l0 73.35433l-199.08661 0z" fill-rule="evenodd"/><path fill="#000000" d="m290.55035 122.1577q2.46875 -0.375 5.578125 -1.125l1.375 2.90625q0.734375 2.53125 -1.734375 1.046875q-2.640625 0.453125 -5.21875 0.875l0 9.90625l1.9375 0l0 -9.5l3.078125 0q2.703125 0.34375 0.734375 1.75l0 11.0625l-5.75 0l0 4.34375q0 0.09375 0.09375 0.09375l2.875 0q0.65625 0 0.921875 -2.984375l3.546875 1.1875q-0.640625 5.109375 -3.71875 5.109375l-4.375 0q-2.78125 0 -2.78125 -3.03125l0 -4.71875l-1.4375 0l0 2.75l-3.8125 0l0 -14.4375l3.078125 0q2.703125 0.34375 0.734375 1.75l0 6.625l1.4375 0l0 -9.3125q-2.25 0.375 -6.234375 0.8125l-0.78125 -3.6875q3.84375 -0.3125 7.015625 -0.84375l0 -4.71875l2.65625 0q3.75 0 0.78125 1.78125l0 2.359375zm-22.71875 21.9375q1.546875 -4.1875 1.84375 -8.234375l3.546875 0.84375q1.5625 1.5625 -0.09375 1.796875q-0.21875 3.0625 -1.890625 7.484375l-3.40625 -1.890625zm6.859375 -17.4375l3.53125 -4.859375l2.453125 1.484375q1.671875 1.671875 -0.34375 1.671875l-5.234375 6.578125l2.421875 -0.1875l-1.0 -2.109375l2.734375 -1.265625q1.859375 2.796875 2.9375 6.296875l-2.890625 1.4375l-0.578125 -1.4375l-1.546875 0.21875l0 13.59375l-3.8125 0l0 -13.15625l-3.140625 0.453125q-0.234375 1.6875 -1.8125 0.109375l-0.671875 -3.71875l2.96875 0l1.71875 -2.09375q-1.359375 -1.640625 -4.453125 -3.859375l2.140625 -2.921875l1.234375 0.859375l4.09375 -6.21875l2.484375 1.5q1.671875 1.671875 -0.328125 1.671875l-3.71875 5.15625l0.8125 0.796875zm6.25 9.53125q1.109375 2.859375 1.109375 6.890625l-3.5 0.78125q-0.3125 -4.203125 -1.109375 -7.09375l3.5 -0.578125zm41.046875 -10.359375l-1.3125 0q0 5.453125 -6.28125 9.59375l-2.65625 -3.21875q4.890625 -2.453125 5.09375 -6.375l-3.59375 0l0 -3.6875l3.75 0l0 -4.25l3.078125 0q2.703125 0.34375 0.734375 1.75l0 2.5l5.0 0l0 7.65625q-0.15625 0 -0.15625 -0.15625l0.5 0q0.0625 0 0.09375 -0.3125l0.34375 -2.734375l3.6875 0.96875l-0.609375 3.59375q-0.328125 2.171875 -2.640625 2.171875l-2.375 0q-2.65625 0 -2.65625 -2.65625l0 -4.84375zm-12.8125 22.0l-3.8125 0l0 -7.0625q-0.3125 0.703125 -3.734375 3.1875l-2.265625 -3.015625q4.328125 -3.515625 5.671875 -8.359375l-4.671875 0l0 -3.6875l5.0 0l0 -11.125l3.078125 0q2.703125 0.34375 0.734375 1.75l0 9.375l4.5 0l0 3.6875l-4.5 0l0 1.09375q1.96875 1.203125 4.796875 3.453125l-1.890625 3.59375q-2.578125 -2.265625 -2.90625 -2.46875l0 9.578125zm4.640625 -25.328125q-0.53125 2.71875 -1.890625 6.765625l-3.359375 -1.1875q1.0625 -3.0625 1.921875 -8.203125l3.484375 0.828125q1.5625 1.5625 -0.15625 1.796875zm8.0 9.015625q2.703125 0.34375 0.734375 1.75l0 3.0l6.625 0l0 3.6875l-6.625 0l0 8.0l-3.8125 0l0 -8.0l-5.5 0l0 -3.6875l5.5 0l0 -4.75l3.078125 0zm-17.90625 -11.0q1.375 3.34375 2.109375 7.515625l-3.640625 0.953125q-0.75 -3.890625 -2.109375 -7.515625l3.640625 -0.953125zm40.953125 15.1875l-6.5 0l0 -3.3125l2.828125 0.03125q0.015625 0.109375 -1.4375 -1.5625l3.59375 -1.203125q1.234375 1.40625 1.84375 2.734375l3.0 0l1.046875 -2.890625l2.8125 0.828125q1.84375 1.21875 0.078125 1.984375l-0.046875 0.078125l3.21875 0l0 3.3125l-7.0 0l0 1.3125l7.875 0l0 3.3125l-8.09375 0l0.0625 -0.390625q2.859375 0.75 7.328125 3.125l-2.390625 3.5q-4.125 -2.5625 -5.890625 -3.40625q-1.34375 2.5625 -7.90625 4.5625l-1.6875 -3.75q6.703125 -1.578125 6.9375 -3.640625l-6.921875 0l0 -3.3125l7.25 0l0 -1.3125zm15.5625 9.34375q0 2.65625 -2.65625 2.65625l-2.71875 0l-0.390625 -3.6875l2.109375 0q0 0.15625 -0.15625 0.15625l0 -13.59375l-3.71875 0l-5.03125 0l0 -11.9375l12.5625 0l0 26.40625zm-18.4375 -17.78125l0 -0.9375l-5.0625 0l0 0.9375l5.0625 0zm-5.0625 -5.3125l0 1.0625l5.0625 0l0 -1.0625l-5.0625 0zm0 26.0l-3.8125 0l0 -29.3125l12.6875 0l0 11.9375l-8.875 0l0 17.375zm19.6875 -20.6875l0 -0.9375l-4.9375 0l0 0.9375l4.9375 0zm0 -4.25l0 -1.0625l-4.9375 0l0 1.0625l4.9375 0zm29.40625 13.109375q1.109375 -2.125 1.4375 -8.171875l-2.875 0q0.328125 6.046875 1.4375 8.171875zm5.265625 -8.171875q-0.234375 7.28125 -2.84375 11.78125q1.625 2.046875 5.75 4.171875l-2.328125 3.9375q-4.6875 -3.0625 -5.90625 -4.859375q-2.421875 2.734375 -9.125 5.390625l-1.84375 -3.671875q7.0 -2.828125 8.75 -5.109375q-1.984375 -3.875 -1.921875 -6.125q0.15625 0.15625 -1.046875 1.75l-3.140625 -2.40625q4.0 -5.875 4.8125 -14.578125l3.46875 0.828125q2.125 1.421875 -0.0625 1.90625q-0.3125 1.84375 -0.71875 3.296875l8.296875 0l0 3.6875l-2.140625 0zm-11.796875 -6.0625q-0.640625 1.609375 -2.046875 3.375l-3.09375 -1.734375q1.328125 -2.15625 2.453125 -4.890625l2.984375 1.484375q1.5 1.515625 -0.296875 1.765625zm-7.5 16.625q1.015625 0.28125 1.984375 0.734375q0.578125 -0.65625 0.9375 -1.921875l-2.34375 0q-0.328125 0.765625 -0.578125 1.1875zm-2.5 4.40625l-3.15625 -1.78125q1.625 -2.421875 2.34375 -3.8125l-4.3125 0l0 -3.3125l5.734375 0q0.5625 -1.203125 1.125 -2.890625l3.140625 0.828125q1.546875 1.5625 -0.28125 1.8125l-0.125 0.25l6.71875 0l0 3.3125l-2.015625 0q-0.53125 2.125 -1.390625 3.328125q0.421875 0.1875 2.265625 1.28125l-1.78125 3.15625q-1.921875 -1.21875 -2.59375 -1.515625q-3.078125 3.09375 -9.3125 3.9375l-1.375 -3.53125q5.53125 -0.5625 7.21875 -2.015625q-0.421875 -0.1875 -1.28125 -0.5l-0.921875 1.453125zm1.625 -25.03125l2.703125 0q2.703125 0.34375 0.734375 1.75l0 4.375l6.375 0l0 3.3125l-4.484375 0q0.375 0.453125 3.765625 2.21875l-2.109375 3.265625q-2.765625 -1.640625 -3.546875 -2.578125l0 1.84375l-3.4375 0l0 -1.15625q-0.90625 1.125 -5.0 3.46875l-2.484375 -3.0625q4.484375 -2.3125 5.953125 -4.0l-4.96875 0l0 -3.3125l6.5 0l0 -6.125zm-3.109375 7.390625q-1.15625 -2.484375 -3.03125 -4.359375l3.140625 -1.953125q1.953125 1.953125 2.984375 4.1875l-3.09375 2.125z" fill-rule="nonzero"/><path fill="#000000" fill-opacity="0.0" d="m97.34121 133.35957l133.22833 0" fill-rule="evenodd"/><path stroke="#000000" stroke-width="4.0" stroke-linejoin="round" stroke-linecap="butt" d="m97.34121 133.35957l119.52 0" fill-rule="evenodd"/><path fill="#000000" stroke="#000000" stroke-width="4.0" stroke-linecap="butt" d="m216.8612 133.35957l-4.498337 4.498337l12.35907 -4.498337l-12.35907 -4.4983215z" fill-rule="evenodd"/><path fill="#000000" fill-opacity="0.0" d="m429.38583 133.35957l133.22836 0" fill-rule="evenodd"/><path stroke="#000000" stroke-width="4.0" stroke-linejoin="round" stroke-linecap="butt" d="m429.38583 133.35957l119.51999 0" fill-rule="evenodd"/><path fill="#000000" stroke="#000000" stroke-width="4.0" stroke-linecap="butt" d="m548.9058 133.35957l-4.498352 4.498337l12.35907 -4.498337l-12.35907 -4.4983215z" fill-rule="evenodd"/><path fill="#000000" fill-opacity="0.0" d="m67.874016 23.335958l133.22833 0l0 89.82677l-133.22833 0z" fill-rule="evenodd"/><path fill="#000000" d="m120.36319 52.305958q-0.75 9.375 -2.5 11.625q-0.875 1.1250038 -2.875 1.1250038l-5.0 0l-0.375 -2.3750038l4.625 0q1.375 0 1.875 -0.875q1.0 -1.625 1.5 -7.125l-8.375 0l-0.25 1.25l-2.625 -0.375q1.375 -6.0 1.75 -10.125l9.375 0l0 -4.0l-11.5 0l0 -2.375l14.0 0l0 9.375l-2.5 0l0 -0.625l-7.0 0q-0.125 0.75 -0.75 4.5l10.625 0zm9.375 12.500004l-2.5 0l0 -26.125004l2.375 0q1.0 0.125 0.125 0.75l0 25.375004zm28.0 -8.625004q1.75 -3.375 2.125 -10.25l-4.25 0q0.375 6.875 2.125 10.25zm4.625 -10.25q-0.25 7.75 -3.0 12.5q2.0 2.5 5.625 4.375l-1.625 2.7500038q-4.0 -2.6250038 -5.625 -5.000004q-2.875 3.25 -8.875 5.625004l-1.25 -2.5000038q6.5 -2.625 8.625 -5.375q-2.125 -4.125 -2.375 -8.25q-0.75 1.875 -1.5 2.875l-2.125 -1.625q3.75 -5.5 4.5 -13.625l2.625 0.625q0.75 0.5 -0.375 0.75q-0.375 2.25 -1.0 4.5l8.5 0l0 2.375l-2.125 0zm-11.625 -6.0q-0.75 1.875 -1.75 3.125l-2.0 -1.125q1.0 -1.625 1.875 -3.75l2.25 1.125q0.5 0.5 -0.375 0.625zm-8.0 17.625q1.75 0.5 3.125 1.125q1.0 -1.125 1.625 -3.375l-3.625 0q-0.5 1.125 -1.125 2.25zm-1.75 3.125l-2.0 -1.125q1.25 -1.875 2.5 -4.25l-4.75 0l0 -2.0l5.5 0q0.75 -1.625 1.125 -2.75l2.375 0.625q0.5 0.5 -0.375 0.625l-0.75 1.5l7.125 0l0 2.0l-1.875 0q-0.625 2.5 -1.875 4.25q1.125 0.5 2.375 1.25l-1.125 2.0q-1.375 -0.875 -2.5 -1.375q-3.25 3.2500038 -8.75 4.000004l-0.875 -2.2500038q4.875 -0.5 7.5 -2.75q-1.375 -0.625 -2.75 -1.125l-0.875 1.375zm2.5 -23.5l2.0 0q1.0 0.125 0.125 0.75l0 5.375l6.375 0l0 2.0l-5.25 0q1.375 1.625 4.25 3.125l-1.375 2.125q-2.125 -1.25 -4.0 -3.5l0 3.0l-2.125 0l0 -2.375q-2.0 2.5 -5.5 4.5l-1.625 -2.0q3.875 -2.0 6.375 -4.875l-5.75 0l0 -2.0l6.5 0l0 -6.125zm-3.5 5.75q-0.875 -1.875 -2.25 -3.25l2.0 -1.25q1.5 1.5 2.25 3.125l-2.0 1.375z" fill-rule="nonzero"/><path fill="#000000" d="m95.17569 103.55596q-6.25 -5.875 -6.25 -13.625q0 -7.75 6.25 -13.625l1.375 1.375q-5.75 5.375 -5.75 12.25q0 6.875 5.75 12.25l-1.375 1.375zm6.5 1.75l-2.5 0l0 -18.625l2.5 0l0 1.625q1.5 -1.875 3.875 -1.875q2.625 0 4.25 1.625q2.0 2.0 2.0 5.625q0 3.75 -2.0 5.75q-1.625 1.625 -4.25 1.625q-2.625 0 -3.875 -2.0l0 6.25zm3.875 -16.625q-1.5 0 -2.625 1.125q-1.25 1.25 -1.25 3.0l0 1.75q0 1.75 1.375 3.125q1.125 1.125 2.5 1.125q1.25 0 2.125 -0.875q1.375 -1.375 1.375 -4.25q0 -2.75 -1.25 -4.0q-1.0 -1.0 -2.25 -1.0zm13.5 -0.25q2.0 -2.0 5.375 -2.0l0 2.75q-0.5 -0.125 -1.375 -0.125q-1.875 0 -3.5 1.625q-1.375 1.375 -1.875 2.875l0 7.125l-2.5 0l0 -14.0l2.5 0l0 3.5q0.625 -1.0 1.375 -1.75zm6.875 5.25q0 -3.25 2.125 -5.375q1.875 -1.875 4.625 -1.875q2.75 0 4.625 1.875q2.125 2.125 2.125 5.375q0 3.25 -2.125 5.375q-1.875 1.875 -4.625 1.875q-2.75 0 -4.625 -1.875q-2.125 -2.125 -2.125 -5.375zm6.75 -5.0q-1.5 0 -2.5 1.0q-1.5 1.5 -1.5 4.0q0 2.5 1.375 3.875q1.125 1.125 2.625 1.125q1.5 0 2.625 -1.125q1.375 -1.375 1.375 -3.875q0 -2.5 -1.5 -4.0q-1.0 -1.0 -2.5 -1.0zm12.25 16.625l-2.5 0l0 -18.625l2.5 0l0 1.625q1.5 -1.875 3.875 -1.875q2.625 0 4.25 1.625q2.0 2.0 2.0 5.625q0 3.75 -2.0 5.75q-1.625 1.625 -4.25 1.625q-2.625 0 -3.875 -2.0l0 6.25zm3.875 -16.625q-1.5 0 -2.625 1.125q-1.25 1.25 -1.25 3.0l0 1.75q0 1.75 1.375 3.125q1.125 1.125 2.5 1.125q1.25 0 2.125 -0.875q1.375 -1.375 1.375 -4.25q0 -2.75 -1.25 -4.0q-1.0 -1.0 -2.25 -1.0zm9.75 2.0q0 -1.625 1.125 -2.75q1.5 -1.5 4.25 -1.5q3.0 0 4.375 1.375q1.25 1.25 1.25 2.75l-2.5 0q-0.125 -0.875 -0.5 -1.25q-0.75 -0.75 -2.75 -0.75q-1.25 0 -2.0 0.75q-0.625 0.625 -0.625 1.375q0 0.5 0.375 0.875q0.5 0.5 3.125 1.125q1.625 0.375 2.75 0.75q1.0 0.375 1.5 0.875q1.0 1.0 1.0 2.375q0 1.5 -1.25 2.75q-1.5 1.5 -4.625 1.5q-3.125 0 -4.625 -1.5q-1.25 -1.25 -1.25 -3.125l2.5 0q0.125 1.125 0.625 1.625q0.875 0.875 2.625 0.875q2.125 0 2.875 -0.75q0.5 -0.5 0.5 -1.25q0 -0.5 -0.625 -1.125q-0.5 -0.5 -1.625 -0.75q-2.25 -0.5 -3.375 -0.875q-1.375 -0.375 -2.0 -1.0q-1.125 -1.125 -1.125 -2.375zm19.5 -0.75q0 -6.875 -5.75 -12.25l1.375 -1.375q6.25 5.875 6.25 13.625q0 7.75 -6.25 13.625l-1.375 -1.375q5.75 -5.375 5.75 -12.25z" fill-rule="nonzero"/><path fill="#000000" fill-opacity="0.0" d="m436.52493 23.335958l199.08664 0l0 89.82677l-199.08664 0z" fill-rule="evenodd"/><path fill="#000000" d="m521.38074 65.55596q-8.375 -2.0000038 -11.25 -8.125004q-1.5 6.375 -10.25 8.500004l-0.75 -2.3750038q7.875 -1.75 8.875 -7.125l-8.25 0q-0.375 5.375 -3.75 8.875004l-1.75 -2.0000038q3.0 -2.875 3.0 -7.875l0 -12.25l22.125 0l0 8.0l-2.5 0l0 -0.75l-17.125 0l0 3.625l8.5 0l0 -2.875l2.375 0q1.0 0.125 0.125 0.75l0 2.125l10.625 0l0 2.375l-9.375 0q1.75 4.625 10.375 6.5l-1.0 2.6250038zm-0.5 -26.875004l0 2.375l-25.125 0l0 -2.375l25.125 0zm-4.0 6.875l-17.125 0l0 2.5l17.125 0l0 -2.5zm24.5 5.875q0 -8.5 -0.5 -13.125l2.5 0q1.375 0.125 0.25 1.0q0.375 4.0 0.375 12.25q0 9.375 -8.875 14.125004l-2.125 -2.1250038q8.375 -4.0 8.375 -12.125zm-8.5 4.125q-1.125 0.875 -2.5 0.875q-0.875 0 -1.625 -0.75q-0.875 -0.875 -0.875 -7.5q0 -5.0 0.5 -9.125l2.75 0q1.0 0.375 0 0.875q-0.625 3.0 -0.625 8.25q0 5.375 0.5 5.375q0.375 0 1.0 -0.5q0.875 -0.75 2.875 -3.375l1.875 1.875q-2.125 2.625 -3.875 4.0zm24.0 -17.25q-0.5 3.25 -1.75 7.125q1.125 0.125 0.375 0.875l0 19.375004l-2.5 0l0 -15.500004q-0.875 1.375 -1.625 2.25l-2.0 -1.5q4.25 -5.125 5.0 -13.875l2.875 0.625q0.5 0.5 -0.375 0.625zm12.25 4.625l0 2.375l6.125 0l0 14.75l-11.625 0l0 -14.75l3.0 0l0 -2.375l-9.0 0l0 -2.375l9.0 0l0 -3.5l2.375 0q1.0 0.125 0.125 0.75l0 2.75l8.125 0l0 2.375l-8.125 0zm-3.375 4.375l0 2.25l7.375 0l0 -2.25l-7.375 0zm0 4.25l0 2.125l7.375 0l0 -2.125l-7.375 0zm0 4.125l0 2.375l7.375 0l0 -2.375l-7.375 0zm-7.25 10.000004l0 -20.000004l2.375 0q1.0 0.125 0.125 0.75l0 15.75l17.25 0l0 2.3750038l-17.25 0l0 1.125l-2.5 0z" fill-rule="nonzero"/><path fill="#000000" d="m462.44324 103.55596q-6.25 -5.875 -6.25 -13.625q0 -7.75 6.25 -13.625l1.375 1.375q-5.75 5.375 -5.75 12.25q0 6.875 5.75 12.25l-1.375 1.375zm5.0 -24.375l10.5 0q2.5 0 4.125 1.625q1.625 1.625 1.625 4.5q0 2.875 -1.625 4.5q-0.875 0.875 -2.5 1.125l4.875 9.625l-3.125 0l-4.5 -9.25l-6.5 0l0 9.25l-2.875 0l0 -21.375zm2.875 2.375l0 7.375l7.375 0q1.25 0 2.125 -0.875q0.875 -0.875 0.875 -2.75q0 -1.75 -1.0 -2.75q-1.0 -1.0 -2.375 -1.0l-7.0 0zm16.0 12.125q0 -3.375 2.125 -5.5q1.75 -1.75 4.5 -1.75q2.625 0 4.5 1.875q1.75 1.75 1.75 5.375l-10.125 0q0 2.625 1.25 3.875q1.125 1.125 2.875 1.125q1.75 0 2.5 -0.75q0.875 -0.875 0.875 -2.0l2.75 0q-0.5 2.25 -1.625 3.375q-1.625 1.625 -4.5 1.625q-3.0 0 -4.875 -1.875q-2.0 -2.0 -2.0 -5.375zm6.5 -5.125q-1.5 0 -2.5 1.0q-0.875 0.875 -1.125 2.125l7.125 0q0 -1.25 -1.0 -2.25q-0.875 -0.875 -2.5 -0.875zm9.75 2.25q0.375 -1.75 1.625 -3.0q1.375 -1.375 4.0 -1.375q3.125 0 4.5 1.375q1.25 1.25 1.25 2.875l0 7.875q0 1.375 1.0 2.125l-3.0 0q-0.5 -0.5 -0.5 -1.625q-1.875 1.875 -4.75 1.875q-2.375 0 -3.625 -1.25q-1.125 -1.125 -1.125 -2.625q0 -1.75 1.125 -2.875q1.25 -1.25 3.5 -1.625q1.5 -0.25 2.625 -0.625q1.625 -0.375 2.25 -0.75q0 -1.0 -0.75 -1.75q-0.75 -0.75 -2.125 -0.75q-1.75 0 -2.5 0.75q-0.5 0.5 -0.75 1.375l-2.75 0zm8.875 2.75q-0.75 0.25 -1.375 0.375q-2.125 0.5 -3.25 0.75q-1.0 0.25 -1.5 0.75q-0.625 0.625 -0.625 1.375q0 0.875 0.625 1.5q0.375 0.375 1.625 0.375q2.125 0 3.5 -1.375q0.875 -0.875 1.0 -1.25l0 -2.5zm6.125 0.25q0 -3.375 2.0 -5.375q1.875 -1.875 4.625 -1.875q3.0 0 4.5 1.5q1.375 1.375 1.625 3.375l-2.75 0q-0.125 -1.0 -1.0 -1.875q-0.75 -0.75 -2.25 -0.75q-1.5 0 -2.5 1.0q-1.5 1.5 -1.5 4.125q0 2.5 1.375 3.875q1.0 1.0 2.5 1.0q1.75 0 2.75 -1.0q1.0 -1.0 1.0 -2.625l2.75 0q-0.125 2.625 -1.75 4.25q-1.625 1.625 -4.75 1.625q-2.625 0 -4.375 -1.75q-2.25 -2.25 -2.25 -5.5zm17.5 -12.0l2.5 0l0 4.875l4.25 0l0 2.0l-4.25 0l0 8.125q0 0.75 0.625 1.375q0.5 0.5 1.625 0.5q1.75 0 3.125 -0.875l0 2.375q-1.375 0.75 -3.0 0.75q-2.5 0 -3.625 -1.125q-1.25 -1.25 -1.25 -2.75l0 -8.375l-3.0 0l0 -2.0l3.0 0l0 -4.875zm26.5 18.125q-4.25 3.125 -14.625 4.0l-0.5 -2.375q8.625 -0.5 12.5 -2.5q-2.875 -0.75 -5.625 -1.25l-0.75 0.875l-2.25 -1.25l3.375 -3.75l-8.625 0l0 -2.0l10.25 0l2.0 -2.75l-6.625 0l0 0.875l-2.125 0l0 -8.375l6.5 0l0 -2.75l-9.25 0l0 -2.0l26.875 0l0 2.0l-9.25 0l0 2.75l6.5 0l0 8.25l-2.125 0l0 -0.75l-9.375 0l1.25 0.625q0.625 0.375 -0.375 0.625l-1.25 1.5l15.5 0l0 2.0l-6.375 0q-1.5 2.5 -3.625 4.5q4.0 1.125 8.625 3.25l-1.625 2.25q-3.75 -2.0 -9.0 -3.75zm-4.75 -6.25l-2.125 2.375q2.875 0.375 6.375 1.25q2.0 -1.5 3.125 -3.625l-7.375 0zm0.375 -15.0l0 2.75l4.125 0l0 -2.75l-4.125 0zm-6.5 8.25l4.375 0l0 -3.5l-4.375 0l0 3.5zm6.5 -3.5l0 3.5l4.125 0l0 -3.5l-4.125 0zm6.25 0l0 3.5l4.375 0l0 -3.5l-4.375 0zm26.375 8.875q2.375 -1.75 4.375 -4.0l2.25 1.375q0.5 0.625 -0.5 0.5q-1.875 1.625 -4.75 3.625l7.875 -0.375l-1.875 -1.625l1.75 -1.375q3.25 2.25 5.625 5.125l-2.0 1.625l-1.875 -2.0l-8.375 0.625l0 7.875l-2.5 0l0 -7.75l-10.375 0.375q-0.125 0.875 -0.625 0.375l-0.75 -2.75l9.875 0q-2.375 -2.25 -4.875 -3.375l1.375 -1.625l2.0 1.0q1.125 -0.875 2.25 -2.25l-11.75 0l0 -2.0l12.875 0l0 -1.875l-8.875 0l0 -2.0l8.875 0l0 -2.0l-10.5 0l0 -2.0l10.5 0l0 -2.625l2.375 0q1.0 0.125 0.125 0.75l0 1.875l10.75 0l0 2.0l-10.75 0l0 2.0l9.0 0l0 2.0l-9.0 0l0 1.875l13.0 0l0 2.0l-13.875 0q-1.625 1.875 -3.25 3.375l1.625 1.25zm7.75 4.5q3.125 2.75 6.75 3.625l-1.0 2.375q-4.5 -1.125 -7.375 -4.375l1.625 -1.625zm-10.5 2.25q0.25 0.625 -0.75 0.5q-3.5 2.75 -7.375 3.625l-1.125 -2.25q4.375 -1.125 7.375 -3.75l1.875 1.875zm26.875 -9.125q0 -6.875 -5.75 -12.25l1.375 -1.375q6.25 5.875 6.25 13.625q0 7.75 -6.25 13.625l-1.375 -1.375q5.75 -5.375 5.75 -12.25z" fill-rule="nonzero"/><path fill="#d9d2e9" d="m237.43832 307.59317l199.08661 0l0 73.35434l-199.08661 0z" fill-rule="evenodd"/><path stroke="#000000" stroke-width="1.0" stroke-linejoin="round" stroke-linecap="butt" d="m237.43832 307.59317l199.08661 0l0 73.35434l-199.08661 0z" fill-rule="evenodd"/><path fill="#000000" d="m301.24725 350.42783q-4.53125 -5.078125 -9.703125 -8.15625l2.53125 -3.265625q5.46875 2.796875 10.328125 8.078125l-3.15625 3.34375zm-25.265625 -19.125l27.5625 0l0 4.0625l-11.046875 0q-0.25 0.84375 -0.953125 2.140625l0 20.734375l-4.1875 0l0 -14.765625q-3.1875 4.015625 -10.359375 7.1875l-2.4375 -4.015625q9.71875 -4.078125 13.265625 -11.28125l-11.84375 0l0 -4.0625zm53.4375 1.765625q2.46875 -0.375 5.578125 -1.125l1.375 2.90625q0.734375 2.53125 -1.734375 1.046875q-2.640625 0.453125 -5.21875 0.875l0 9.90625l1.9375 0l0 -9.5l3.078125 0q2.703125 0.34375 0.734375 1.75l0 11.0625l-5.75 0l0 4.34375q0 0.09375 0.09375 0.09375l2.875 0q0.65625 0 0.921875 -2.984375l3.546875 1.1875q-0.640625 5.109375 -3.71875 5.109375l-4.375 0q-2.78125 0 -2.78125 -3.03125l0 -4.71875l-1.4375 0l0 2.75l-3.8125 0l0 -14.4375l3.078125 0q2.703125 0.34375 0.734375 1.75l0 6.625l1.4375 0l0 -9.3125q-2.25 0.375 -6.234375 0.8125l-0.78125 -3.6875q3.84375 -0.3125 7.015625 -0.84375l0 -4.71875l2.65625 0q3.75 0 0.78125 1.78125l0 2.359375zm-22.71875 21.9375q1.546875 -4.1875 1.84375 -8.234375l3.546875 0.84375q1.5625 1.5625 -0.09375 1.796875q-0.21875 3.0625 -1.890625 7.484375l-3.40625 -1.890625zm6.859375 -17.4375l3.53125 -4.859375l2.453125 1.484375q1.671875 1.671875 -0.34375 1.671875l-5.234375 6.578125l2.421875 -0.1875l-1.0 -2.109375l2.734375 -1.265625q1.859375 2.796875 2.9375 6.296875l-2.890625 1.4375l-0.578125 -1.4375l-1.546875 0.21875l0 13.59375l-3.8125 0l0 -13.15625l-3.140625 0.453125q-0.234375 1.6875 -1.8125 0.109375l-0.671875 -3.71875l2.96875 0l1.71875 -2.09375q-1.359375 -1.640625 -4.453125 -3.859375l2.140625 -2.921875l1.234375 0.859375l4.09375 -6.21875l2.484375 1.5q1.671875 1.671875 -0.328125 1.671875l-3.71875 5.15625l0.8125 0.796875zm6.25 9.53125q1.109375 2.859375 1.109375 6.890625l-3.5 0.78125q-0.3125 -4.203125 -1.109375 -7.09375l3.5 -0.578125zm31.921875 -0.484375l-6.5 0l0 -3.3125l2.828125 0.03125q0.015625 0.109375 -1.4375 -1.5625l3.59375 -1.203125q1.234375 1.40625 1.84375 2.734375l3.0 0l1.046875 -2.890625l2.8125 0.828125q1.84375 1.21875 0.078125 1.984375l-0.046875 0.078125l3.21875 0l0 3.3125l-7.0 0l0 1.3125l7.875 0l0 3.3125l-8.09375 0l0.0625 -0.390625q2.859375 0.75 7.328125 3.125l-2.390625 3.5q-4.125 -2.5625 -5.890625 -3.40625q-1.34375 2.5625 -7.90625 4.5625l-1.6875 -3.75q6.703125 -1.578125 6.9375 -3.640625l-6.921875 0l0 -3.3125l7.25 0l0 -1.3125zm15.5625 9.34375q0 2.65625 -2.65625 2.65625l-2.71875 0l-0.390625 -3.6875l2.109375 0q0 0.15625 -0.15625 0.15625l0 -13.59375l-3.71875 0l-5.03125 0l0 -11.9375l12.5625 0l0 26.40625zm-18.4375 -17.78125l0 -0.9375l-5.0625 0l0 0.9375l5.0625 0zm-5.0625 -5.3125l0 1.0625l5.0625 0l0 -1.0625l-5.0625 0zm0 26.0l-3.8125 0l0 -29.3125l12.6875 0l0 11.9375l-8.875 0l0 17.375zm19.6875 -20.6875l0 -0.9375l-4.9375 0l0 0.9375l4.9375 0zm0 -4.25l0 -1.0625l-4.9375 0l0 1.0625l4.9375 0zm29.40625 13.109375q1.109375 -2.125 1.4375 -8.171875l-2.875 0q0.328125 6.046875 1.4375 8.171875zm5.265625 -8.171875q-0.234375 7.28125 -2.84375 11.78125q1.625 2.046875 5.75 4.171875l-2.328125 3.9375q-4.6875 -3.0625 -5.90625 -4.859375q-2.421875 2.734375 -9.125 5.390625l-1.84375 -3.671875q7.0 -2.828125 8.75 -5.109375q-1.984375 -3.875 -1.921875 -6.125q0.15625 0.15625 -1.046875 1.75l-3.140625 -2.40625q4.0 -5.875 4.8125 -14.578125l3.46875 0.828125q2.125 1.421875 -0.0625 1.90625q-0.3125 1.84375 -0.71875 3.296875l8.296875 0l0 3.6875l-2.140625 0zm-11.796875 -6.0625q-0.640625 1.609375 -2.046875 3.375l-3.09375 -1.734375q1.328125 -2.15625 2.453125 -4.890625l2.984375 1.484375q1.5 1.515625 -0.296875 1.765625zm-7.5 16.625q1.015625 0.28125 1.984375 0.734375q0.578125 -0.65625 0.9375 -1.921875l-2.34375 0q-0.328125 0.765625 -0.578125 1.1875zm-2.5 4.40625l-3.15625 -1.78125q1.625 -2.421875 2.34375 -3.8125l-4.3125 0l0 -3.3125l5.734375 0q0.5625 -1.203125 1.125 -2.890625l3.140625 0.828125q1.546875 1.5625 -0.28125 1.8125l-0.125 0.25l6.71875 0l0 3.3125l-2.015625 0q-0.53125 2.125 -1.390625 3.328125q0.421875 0.1875 2.265625 1.28125l-1.78125 3.15625q-1.921875 -1.21875 -2.59375 -1.515625q-3.078125 3.09375 -9.3125 3.9375l-1.375 -3.53125q5.53125 -0.5625 7.21875 -2.015625q-0.421875 -0.1875 -1.28125 -0.5l-0.921875 1.453125zm1.625 -25.03125l2.703125 0q2.703125 0.34375 0.734375 1.75l0 4.375l6.375 0l0 3.3125l-4.484375 0q0.375 0.453125 3.765625 2.21875l-2.109375 3.265625q-2.765625 -1.640625 -3.546875 -2.578125l0 1.84375l-3.4375 0l0 -1.15625q-0.90625 1.125 -5.0 3.46875l-2.484375 -3.0625q4.484375 -2.3125 5.953125 -4.0l-4.96875 0l0 -3.3125l6.5 0l0 -6.125zm-3.109375 7.390625q-1.15625 -2.484375 -3.03125 -4.359375l3.140625 -1.953125q1.953125 1.953125 2.984375 4.1875l-3.09375 2.125z" fill-rule="nonzero"/><path fill="#000000" fill-opacity="0.0" d="m104.20998 344.27036l133.22835 0" fill-rule="evenodd"/><path stroke="#000000" stroke-width="4.0" stroke-linejoin="round" stroke-linecap="butt" d="m104.20998 344.27036l119.51999 0" fill-rule="evenodd"/><path fill="#000000" stroke="#000000" stroke-width="4.0" stroke-linecap="butt" d="m223.72998 344.27036l-4.498337 4.4983215l12.35907 -4.4983215l-12.35907 -4.498352z" fill-rule="evenodd"/><path fill="#000000" fill-opacity="0.0" d="m436.2546 344.27036l133.2283 0" fill-rule="evenodd"/><path stroke="#000000" stroke-width="4.0" stroke-linejoin="round" stroke-linecap="butt" d="m436.2546 344.27036l119.51999 0" fill-rule="evenodd"/><path fill="#000000" stroke="#000000" stroke-width="4.0" stroke-linecap="butt" d="m555.7746 344.27036l-4.498352 4.4983215l12.35907 -4.4983215l-12.35907 -4.498352z" fill-rule="evenodd"/><path fill="#000000" fill-opacity="0.0" d="m74.74278 234.24672l133.22835 0l0 89.82677l-133.22835 0z" fill-rule="evenodd"/><path fill="#000000" d="m127.23196 263.2167q-0.75 9.375 -2.5 11.625q-0.875 1.125 -2.875 1.125l-5.0 0l-0.375 -2.375l4.625 0q1.375 0 1.875 -0.875q1.0 -1.625 1.5 -7.125l-8.375 0l-0.25 1.25l-2.625 -0.375q1.375 -6.0 1.75 -10.125l9.375 0l0 -3.9999847l-11.5 0l0 -2.375l14.0 0l0 9.374985l-2.5 0l0 -0.625l-7.0 0q-0.125 0.75 -0.75 4.5l10.625 0zm9.374992 12.5l-2.5 0l0 -26.124985l2.375 0q1.0 0.125 0.125 0.75l0 25.374985zm28.0 -8.625q1.75 -3.375 2.125 -10.25l-4.25 0q0.375 6.875 2.125 10.25zm4.625 -10.25q-0.25 7.75 -3.0 12.5q2.0 2.5 5.625 4.375l-1.625 2.75q-4.0 -2.625 -5.625 -5.0q-2.875 3.25 -8.875 5.625l-1.25 -2.5q6.5 -2.625 8.625 -5.375q-2.125 -4.125 -2.375 -8.25q-0.75 1.875 -1.5 2.875l-2.125 -1.625q3.75 -5.5 4.5 -13.624985l2.625 0.625q0.75 0.5 -0.375 0.75q-0.375 2.25 -1.0 4.5l8.5 0l0 2.3749847l-2.125 0zm-11.625 -5.9999847q-0.75 1.875 -1.75 3.125l-2.0 -1.125q1.0 -1.625 1.875 -3.75l2.25 1.125q0.5 0.5 -0.375 0.625zm-8.0 17.624985q1.75 0.5 3.125 1.125q1.0 -1.125 1.625 -3.375l-3.625 0q-0.5 1.125 -1.125 2.25zm-1.75 3.125l-2.0 -1.125q1.25 -1.875 2.5 -4.25l-4.75 0l0 -2.0l5.5 0q0.75 -1.625 1.125 -2.75l2.375 0.625q0.5 0.5 -0.375 0.625l-0.75 1.5l7.125 0l0 2.0l-1.875 0q-0.625 2.5 -1.875 4.25q1.125 0.5 2.375 1.25l-1.125 2.0q-1.375 -0.875 -2.5 -1.375q-3.25 3.25 -8.75 4.0l-0.875 -2.25q4.875 -0.5 7.5 -2.75q-1.375 -0.625 -2.75 -1.125l-0.875 1.375zm2.5 -23.499985l2.0 0q1.0 0.125 0.125 0.75l0 5.375l6.375 0l0 1.9999847l-5.25 0q1.375 1.625 4.25 3.125l-1.375 2.125q-2.125 -1.25 -4.0 -3.5l0 3.0l-2.125 0l0 -2.375q-2.0 2.5 -5.5 4.5l-1.625 -2.0q3.875 -2.0 6.375 -4.875l-5.75 0l0 -1.9999847l6.5 0l0 -6.125zm-3.5 5.75q-0.875 -1.875 -2.25 -3.25l2.0 -1.25q1.5 1.5 2.25 3.125l-2.0 1.375z" fill-rule="nonzero"/><path fill="#000000" d="m102.04446 314.4667q-6.25 -5.875 -6.25 -13.625q0 -7.75 6.25 -13.625l1.375 1.375q-5.75 5.375 -5.75 12.25q0 6.875 5.75 12.25l-1.375 1.375zm6.5 1.75l-2.5 0l0 -18.625l2.5 0l0 1.625q1.5 -1.875 3.875 -1.875q2.625 0 4.25 1.625q2.0 2.0 2.0 5.625q0 3.75 -2.0 5.75q-1.625 1.625 -4.25 1.625q-2.625 0 -3.875 -2.0l0 6.25zm3.875 -16.625q-1.5 0 -2.625 1.125q-1.25 1.25 -1.25 3.0l0 1.75q0 1.75 1.375 3.125q1.125 1.125 2.5 1.125q1.25 0 2.125 -0.875q1.375 -1.375 1.375 -4.25q0 -2.75 -1.25 -4.0q-1.0 -1.0 -2.25 -1.0zm13.5 -0.25q2.0 -2.0 5.3749924 -2.0l0 2.75q-0.5 -0.125 -1.375 -0.125q-1.875 0 -3.4999924 1.625q-1.375 1.375 -1.875 2.875l0 7.125l-2.5 0l0 -14.0l2.5 0l0 3.5q0.625 -1.0 1.375 -1.75zm6.8749924 5.25q0 -3.25 2.125 -5.375q1.875 -1.875 4.625 -1.875q2.75 0 4.625 1.875q2.125 2.125 2.125 5.375q0 3.25 -2.125 5.375q-1.875 1.875 -4.625 1.875q-2.75 0 -4.625 -1.875q-2.125 -2.125 -2.125 -5.375zm6.75 -5.0q-1.5 0 -2.5 1.0q-1.5 1.5 -1.5 4.0q0 2.5 1.375 3.875q1.125 1.125 2.625 1.125q1.5 0 2.625 -1.125q1.375 -1.375 1.375 -3.875q0 -2.5 -1.5 -4.0q-1.0 -1.0 -2.5 -1.0zm12.25 16.625l-2.5 0l0 -18.625l2.5 0l0 1.625q1.5 -1.875 3.875 -1.875q2.625 0 4.25 1.625q2.0 2.0 2.0 5.625q0 3.75 -2.0 5.75q-1.625 1.625 -4.25 1.625q-2.625 0 -3.875 -2.0l0 6.25zm3.875 -16.625q-1.5 0 -2.625 1.125q-1.25 1.25 -1.25 3.0l0 1.75q0 1.75 1.375 3.125q1.125 1.125 2.5 1.125q1.25 0 2.125 -0.875q1.375 -1.375 1.375 -4.25q0 -2.75 -1.25 -4.0q-1.0 -1.0 -2.25 -1.0zm9.75 2.0q0 -1.625 1.125 -2.75q1.5 -1.5 4.25 -1.5q3.0 0 4.375 1.375q1.25 1.25 1.25 2.75l-2.5 0q-0.125 -0.875 -0.5 -1.25q-0.75 -0.75 -2.75 -0.75q-1.25 0 -2.0 0.75q-0.625 0.625 -0.625 1.375q0 0.5 0.375 0.875q0.5 0.5 3.125 1.125q1.625 0.375 2.75 0.75q1.0 0.375 1.5 0.875q1.0 1.0 1.0 2.375q0 1.5 -1.25 2.75q-1.5 1.5 -4.625 1.5q-3.125 0 -4.625 -1.5q-1.25 -1.25 -1.25 -3.125l2.5 0q0.125 1.125 0.625 1.625q0.875 0.875 2.625 0.875q2.125 0 2.875 -0.75q0.5 -0.5 0.5 -1.25q0 -0.5 -0.625 -1.125q-0.5 -0.5 -1.625 -0.75q-2.25 -0.5 -3.375 -0.875q-1.375 -0.375 -2.0 -1.0q-1.125 -1.125 -1.125 -2.375zm19.5 -0.75q0 -6.875 -5.75 -12.25l1.375 -1.375q6.25 5.875 6.25 13.625q0 7.75 -6.25 13.625l-1.375 -1.375q5.75 -5.375 5.75 -12.25z" fill-rule="nonzero"/><path fill="#000000" fill-opacity="0.0" d="m436.2546 234.24672l215.62204 0l0 89.82677l-215.62204 0z" fill-rule="evenodd"/><path fill="#000000" d="m529.3781 276.4667q-8.375 -2.0 -11.25 -8.125q-1.5 6.375 -10.25 8.5l-0.75 -2.375q7.875 -1.75 8.875 -7.125l-8.25 0q-0.375 5.375 -3.75 8.875l-1.75 -2.0q3.0 -2.875 3.0 -7.875l0 -12.249985l22.125 0l0 7.9999847l-2.5 0l0 -0.75l-17.125 0l0 3.625l8.5 0l0 -2.875l2.375 0q1.0 0.125 0.125 0.75l0 2.125l10.625 0l0 2.375l-9.375 0q1.75 4.625 10.375 6.5l-1.0 2.625zm-0.5 -26.874985l0 2.375l-25.125 0l0 -2.375l25.125 0zm-4.0 6.8749847l-17.125 0l0 2.5l17.125 0l0 -2.5zm24.5 5.875q0 -8.499985 -0.5 -13.124985l2.5 0q1.375 0.125 0.25 1.0q0.375 4.0 0.375 12.249985q0 9.375 -8.875 14.125l-2.125 -2.125q8.375 -4.0 8.375 -12.125zm-8.5 4.125q-1.125 0.875 -2.5 0.875q-0.875 0 -1.625 -0.75q-0.875 -0.875 -0.875 -7.5q0 -4.9999847 0.5 -9.124985l2.75 0q1.0 0.375 0 0.875q-0.625 3.0 -0.625 8.249985q0 5.375 0.5 5.375q0.375 0 1.0 -0.5q0.875 -0.75 2.875 -3.375l1.875 1.875q-2.125 2.625 -3.875 4.0zm24.0 -17.249985q-0.5 3.25 -1.75 7.1249847q1.125 0.125 0.375 0.875l0 19.375l-2.5 0l0 -15.5q-0.875 1.375 -1.625 2.25l-2.0 -1.5q4.25 -5.125 5.0 -13.874985l2.875 0.625q0.5 0.5 -0.375 0.625zm12.25 4.625l0 2.3749847l6.125 0l0 14.75l-11.625 0l0 -14.75l3.0 0l0 -2.3749847l-9.0 0l0 -2.375l9.0 0l0 -3.5l2.375 0q1.0 0.125 0.125 0.75l0 2.75l8.125 0l0 2.375l-8.125 0zm-3.375 4.3749847l0 2.25l7.375 0l0 -2.25l-7.375 0zm0 4.25l0 2.125l7.375 0l0 -2.125l-7.375 0zm0 4.125l0 2.375l7.375 0l0 -2.375l-7.375 0zm-7.25 10.0l0 -20.0l2.375 0q1.0 0.125 0.125 0.75l0 15.75l17.25 0l0 2.375l-17.25 0l0 1.125l-2.5 0z" fill-rule="nonzero"/><path fill="#000000" d="m470.4406 314.4667q-6.25 -5.875 -6.25 -13.625q0 -7.75 6.25 -13.625l1.375 1.375q-5.75 5.375 -5.75 12.25q0 6.875 5.75 12.25l-1.375 1.375zm5.0 -24.375l10.5 0q2.5 0 4.125 1.625q1.625 1.625 1.625 4.5q0 2.875 -1.625 4.5q-0.875 0.875 -2.5 1.125l4.875 9.625l-3.125 0l-4.5 -9.25l-6.5 0l0 9.25l-2.875 0l0 -21.375zm2.875 2.375l0 7.375l7.375 0q1.25 0 2.125 -0.875q0.875 -0.875 0.875 -2.75q0 -1.75 -1.0 -2.75q-1.0 -1.0 -2.375 -1.0l-7.0 0zm16.0 12.125q0 -3.375 2.125 -5.5q1.75 -1.75 4.5 -1.75q2.625 0 4.5 1.875q1.75 1.75 1.75 5.375l-10.125 0q0 2.625 1.25 3.875q1.125 1.125 2.875 1.125q1.75 0 2.5 -0.75q0.875 -0.875 0.875 -2.0l2.75 0q-0.5 2.25 -1.625 3.375q-1.625 1.625 -4.5 1.625q-3.0 0 -4.875 -1.875q-2.0 -2.0 -2.0 -5.375zm6.5 -5.125q-1.5 0 -2.5 1.0q-0.875 0.875 -1.125 2.125l7.125 0q0 -1.25 -1.0 -2.25q-0.875 -0.875 -2.5 -0.875zm9.75 2.25q0.375 -1.75 1.625 -3.0q1.375 -1.375 4.0 -1.375q3.125 0 4.5 1.375q1.25 1.25 1.25 2.875l0 7.875q0 1.375 1.0 2.125l-3.0 0q-0.5 -0.5 -0.5 -1.625q-1.875 1.875 -4.75 1.875q-2.375 0 -3.625 -1.25q-1.125 -1.125 -1.125 -2.625q0 -1.75 1.125 -2.875q1.25 -1.25 3.5 -1.625q1.5 -0.25 2.625 -0.625q1.625 -0.375 2.25 -0.75q0 -1.0 -0.75 -1.75q-0.75 -0.75 -2.125 -0.75q-1.75 0 -2.5 0.75q-0.5 0.5 -0.75 1.375l-2.75 0zm8.875 2.75q-0.75 0.25 -1.375 0.375q-2.125 0.5 -3.25 0.75q-1.0 0.25 -1.5 0.75q-0.625 0.625 -0.625 1.375q0 0.875 0.625 1.5q0.375 0.375 1.625 0.375q2.125 0 3.5 -1.375q0.875 -0.875 1.0 -1.25l0 -2.5zm6.125 0.25q0 -3.375 2.0 -5.375q1.875 -1.875 4.625 -1.875q3.0 0 4.5 1.5q1.375 1.375 1.625 3.375l-2.75 0q-0.125 -1.0 -1.0 -1.875q-0.75 -0.75 -2.25 -0.75q-1.5 0 -2.5 1.0q-1.5 1.5 -1.5 4.125q0 2.5 1.375 3.875q1.0 1.0 2.5 1.0q1.75 0 2.75 -1.0q1.0 -1.0 1.0 -2.625l2.75 0q-0.125 2.625 -1.75 4.25q-1.625 1.625 -4.75 1.625q-2.625 0 -4.375 -1.75q-2.25 -2.25 -2.25 -5.5zm17.5 -12.0l2.5 0l0 4.875l4.25 0l0 2.0l-4.25 0l0 8.125q0 0.75 0.625 1.375q0.5 0.5 1.625 0.5q1.75 0 3.125 -0.875l0 2.375q-1.375 0.75 -3.0 0.75q-2.5 0 -3.625 -1.125q-1.25 -1.25 -1.25 -2.75l0 -8.375l-3.0 0l0 -2.0l3.0 0l0 -4.875zm26.5 18.125q-4.25 3.125 -14.625 4.0l-0.5 -2.375q8.625 -0.5 12.5 -2.5q-2.875 -0.75 -5.625 -1.25l-0.75 0.875l-2.25 -1.25l3.375 -3.75l-8.625 0l0 -2.0l10.25 0l2.0 -2.75l-6.625 0l0 0.875l-2.125 0l0 -8.375l6.5 0l0 -2.75l-9.25 0l0 -2.0l26.875 0l0 2.0l-9.25 0l0 2.75l6.5 0l0 8.25l-2.125 0l0 -0.75l-9.375 0l1.25 0.625q0.625 0.375 -0.375 0.625l-1.25 1.5l15.5 0l0 2.0l-6.375 0q-1.5 2.5 -3.625 4.5q4.0 1.125 8.625 3.25l-1.625 2.25q-3.75 -2.0 -9.0 -3.75zm-4.75 -6.25l-2.125 2.375q2.875 0.375 6.375 1.25q2.0 -1.5 3.125 -3.625l-7.375 0zm0.375 -15.0l0 2.75l4.125 0l0 -2.75l-4.125 0zm-6.5 8.25l4.375 0l0 -3.5l-4.375 0l0 3.5zm6.5 -3.5l0 3.5l4.125 0l0 -3.5l-4.125 0zm6.25 0l0 3.5l4.375 0l0 -3.5l-4.375 0zm26.375 8.875q2.375 -1.75 4.375 -4.0l2.25 1.375q0.5 0.625 -0.5 0.5q-1.875 1.625 -4.75 3.625l7.875 -0.375l-1.875 -1.625l1.75 -1.375q3.25 2.25 5.625 5.125l-2.0 1.625l-1.875 -2.0l-8.375 0.625l0 7.875l-2.5 0l0 -7.75l-10.375 0.375q-0.125 0.875 -0.625 0.375l-0.75 -2.75l9.875 0q-2.375 -2.25 -4.875 -3.375l1.375 -1.625l2.0 1.0q1.125 -0.875 2.25 -2.25l-11.75 0l0 -2.0l12.875 0l0 -1.875l-8.875 0l0 -2.0l8.875 0l0 -2.0l-10.5 0l0 -2.0l10.5 0l0 -2.625l2.375 0q1.0 0.125 0.125 0.75l0 1.875l10.75 0l0 2.0l-10.75 0l0 2.0l9.0 0l0 2.0l-9.0 0l0 1.875l13.0 0l0 2.0l-13.875 0q-1.625 1.875 -3.25 3.375l1.625 1.25zm7.75 4.5q3.125 2.75 6.75 3.625l-1.0 2.375q-4.5 -1.125 -7.375 -4.375l1.625 -1.625zm-10.5 2.25q0.25 0.625 -0.75 0.5q-3.5 2.75 -7.375 3.625l-1.125 -2.25q4.375 -1.125 7.375 -3.75l1.875 1.875zm26.875 -9.125q0 -6.875 -5.75 -12.25l1.375 -1.375q6.25 5.875 6.25 13.625q0 7.75 -6.25 13.625l-1.375 -1.375q5.75 -5.375 5.75 -12.25z" fill-rule="nonzero"/><path fill="#cfe2f3" d="m237.43832 551.72705l0 0c0 -30.597473 44.567047 -55.40158 99.543304 -55.40158l0 0c54.976257 0 99.543304 24.804108 99.543304 55.40158l0 0c0 30.597412 -44.567047 55.40155 -99.543304 55.40155l0 0c-54.976257 0 -99.543304 -24.804138 -99.543304 -55.40155z" fill-rule="evenodd"/><path stroke="#000000" stroke-width="1.0" stroke-linejoin="round" stroke-linecap="butt" d="m237.43832 551.72705l0 0c0 -30.597473 44.567047 -55.40158 99.543304 -55.40158l0 0c54.976257 0 99.543304 24.804108 99.543304 55.40158l0 0c0 30.597412 -44.567047 55.40155 -99.543304 55.40155l0 0c-54.976257 0 -99.543304 -24.804138 -99.543304 -55.40155z" fill-rule="evenodd"/><path fill="#000000" d="m333.85663 546.572q-7.0 -4.375 -8.875 -12.375q-0.625 8.625 -7.75 12.75l-1.375 -2.625q7.125 -3.875 7.125 -14.625l-6.5 0l0 -2.375l6.625 0l0 -8.5l2.375 0q1.0 0.125 0.125 0.75l0 7.75l8.875 0l0 2.375l-8.25 0q1.25 9.375 9.0 13.75l-1.375 3.125zm-27.125 -10.0q4.0 -1.875 6.125 -3.375l0 -14.25l2.375 0q1.0 0.125 0.125 0.75l0 27.25l-2.5 0l0 -10.875l-4.5 3.0q-0.125 0.875 -0.625 0.375l-1.0 -2.875zm2.75 -5.25q-0.75 -3.0 -2.375 -6.0l2.5 -1.0q1.625 2.625 2.5 6.125l-2.625 0.875zm19.625 -10.875q2.5 1.375 3.5 3.375l-2.0 2.0q-1.25 -2.0 -3.375 -3.5l1.875 -1.875zm18.75 0.875l1.5 -1.125q2.75 1.875 4.5 3.875l-1.75 1.5l-1.125 -1.125l-10.75 0.875q-0.125 0.875 -0.625 0.375l-0.625 -2.5l2.75 0l2.5 -4.75l2.375 0.625q0.5 0.5 -0.375 0.625l-2.25 3.375l5.5 -0.25l-1.625 -1.5zm3.75 5.25l0 10.125q0 1.875 -1.375 1.875l-2.625 0l-0.5 -2.0l1.875 0q0.5 0 0.5 -0.5l0 -1.625l-6.125 0l0 4.125l-2.125 0l0 -12.0l10.375 0zm11.0 12.75q2.25 1.625 4.375 4.75l-2.375 1.625q-1.625 -2.875 -4.0 -5.0l2.0 -1.375zm-5.75 -7.375q3.75 -1.0 7.125 -2.25l1.375 1.875q0.125 0.875 -0.75 0.375q-3.75 1.125 -7.75 1.875l0 1.625q0 0.875 0.875 0.875l5.375 0q1.125 0 1.25 -2.375l2.25 0.75q-0.375 3.625 -2.5 3.625l-7.125 0q-2.25 0 -2.25 -2.25l0 -7.0l2.0 0q1.0 0.125 0.125 0.75l0 2.125zm-2.125 -13.25l2.0 0q1.0 0.125 0.125 0.75l0 2.5q3.25 -0.75 6.25 -1.875l1.375 1.875q0.125 0.875 -0.75 0.375q-3.25 1.0 -6.875 1.625l0 1.375q0 0.875 0.875 0.875l5.0 0q0.75 0 0.875 -0.625l0.25 -1.625l2.25 0.75l-0.5 1.625q-0.625 1.875 -2.0 1.875l-6.625 0q-2.25 0 -2.25 -2.25l0 -7.25zm-5.25 9.375l-6.125 0l0 1.75l6.125 0l0 -1.75zm0 3.25l-6.125 0l0 1.625l6.125 0l0 -1.625zm3.375 7.125q1.75 1.625 2.625 3.125l-2.0 1.5q-1.0 -1.875 -2.5 -3.25l1.875 -1.375zm-4.125 1.0q1.0 0.125 0.125 0.75l0 3.25q0 1.0 0.875 1.0l7.125 0q1.75 0 1.875 -2.5l2.5 0.75q-0.875 4.125 -3.375 4.125l-9.25 0q-2.25 0 -2.25 -2.125l0 -5.25l2.375 0zm-9.375 5.25q1.75 -2.0 3.0 -4.75l2.125 1.125q1.0 0.625 -0.25 0.875q-1.125 2.375 -2.875 4.375l-2.0 -1.625z" fill-rule="nonzero"/><path fill="#000000" d="m300.35663 584.947q-6.25 -5.875 -6.25 -13.625q0 -7.75 6.25 -13.625l1.375 1.375q-5.75 5.375 -5.75 12.25q0 6.875 5.75 12.25l-1.375 1.375zm4.25 -12.875q0 -1.625 1.125 -2.75q1.5 -1.5 4.25 -1.5q3.0 0 4.375 1.375q1.25 1.25 1.25 2.75l-2.5 0q-0.125 -0.875 -0.5 -1.25q-0.75 -0.75 -2.75 -0.75q-1.25 0 -2.0 0.75q-0.625 0.625 -0.625 1.375q0 0.5 0.375 0.875q0.5 0.5 3.125 1.125q1.625 0.375 2.75 0.75q1.0 0.375 1.5 0.875q1.0 1.0 1.0 2.375q0 1.5 -1.25 2.75q-1.5 1.5 -4.625 1.5q-3.125 0 -4.625 -1.5q-1.25 -1.25 -1.25 -3.125l2.5 0q0.125 1.125 0.625 1.625q0.875 0.875 2.625 0.875q2.125 0 2.875 -0.75q0.5 -0.5 0.5 -1.25q0 -0.5 -0.625 -1.125q-0.5 -0.5 -1.625 -0.75q-2.25 -0.5 -3.375 -0.875q-1.375 -0.375 -2.0 -1.0q-1.125 -1.125 -1.125 -2.375zm15.875 -8.875l2.5 0l0 4.875l4.25 0l0 2.0l-4.25 0l0 8.125q0 0.75 0.625 1.375q0.5 0.5 1.625 0.5q1.75 0 3.125 -0.875l0 2.375q-1.375 0.75 -3.0 0.75q-2.5 0 -3.625 -1.125q-1.25 -1.25 -1.25 -2.75l0 -8.375l-3.0 0l0 -2.0l3.0 0l0 -4.875zm10.0 9.0q0.375 -1.75 1.625 -3.0q1.375 -1.375 4.0 -1.375q3.125 0 4.5 1.375q1.25 1.25 1.25 2.875l0 7.875q0 1.375 1.0 2.125l-3.0 0q-0.5 -0.5 -0.5 -1.625q-1.875 1.875 -4.75 1.875q-2.375 0 -3.625 -1.25q-1.125 -1.125 -1.125 -2.625q0 -1.75 1.125 -2.875q1.25 -1.25 3.5 -1.625q1.5 -0.25 2.625 -0.625q1.625 -0.375 2.25 -0.75q0 -1.0 -0.75 -1.75q-0.75 -0.75 -2.125 -0.75q-1.75 0 -2.5 0.75q-0.5 0.5 -0.75 1.375l-2.75 0zm8.875 2.75q-0.75 0.25 -1.375 0.375q-2.125 0.5 -3.25 0.75q-1.0 0.25 -1.5 0.75q-0.625 0.625 -0.625 1.375q0 0.875 0.625 1.5q0.375 0.375 1.625 0.375q2.125 0 3.5 -1.375q0.875 -0.875 1.0 -1.25l0 -2.5zm7.625 -11.75l2.5 0l0 4.875l4.25 0l0 2.0l-4.25 0l0 8.125q0 0.75 0.625 1.375q0.5 0.5 1.625 0.5q1.75 0 3.125 -0.875l0 2.375q-1.375 0.75 -3.0 0.75q-2.5 0 -3.625 -1.125q-1.25 -1.25 -1.25 -2.75l0 -8.375l-3.0 0l0 -2.0l3.0 0l0 -4.875zm9.75 11.875q0 -3.375 2.125 -5.5q1.75 -1.75 4.5 -1.75q2.625 0 4.5 1.875q1.75 1.75 1.75 5.375l-10.125 0q0 2.625 1.25 3.875q1.125 1.125 2.875 1.125q1.75 0 2.5 -0.75q0.875 -0.875 0.875 -2.0l2.75 0q-0.5 2.25 -1.625 3.375q-1.625 1.625 -4.5 1.625q-3.0 0 -4.875 -1.875q-2.0 -2.0 -2.0 -5.375zm6.5 -5.125q-1.5 0 -2.5 1.0q-0.875 0.875 -1.125 2.125l7.125 0q0 -1.25 -1.0 -2.25q-0.875 -0.875 -2.5 -0.875zm14.625 1.375q0 -6.875 -5.75 -12.25l1.375 -1.375q6.25 5.875 6.25 13.625q0 7.75 -6.25 13.625l-1.375 -1.375q5.75 -5.375 5.75 -12.25z" fill-rule="nonzero"/><path fill="#000000" fill-opacity="0.0" d="m407.3694 512.5522l1.9842529 -129.19684" fill-rule="evenodd"/><path stroke="#000000" stroke-width="4.0" stroke-linejoin="round" stroke-linecap="butt" d="m407.3694 512.5522l1.7737427 -115.49008" fill-rule="evenodd"/><path fill="#000000" stroke="#000000" stroke-width="4.0" stroke-linecap="butt" d="m409.14313 397.06207l4.428711 4.5668945l-4.308014 -12.426697l-4.6875916 12.288544z" fill-rule="evenodd"/><path fill="#000000" fill-opacity="0.0" d="m268.6726 379.60733l-2.0787354 132.94485" fill-rule="evenodd"/><path stroke="#000000" stroke-width="4.0" stroke-linejoin="round" stroke-linecap="butt" d="m268.6726 379.60733l-1.8644104 119.23822" fill-rule="evenodd"/><path fill="#000000" stroke="#000000" stroke-width="4.0" stroke-linecap="butt" d="m266.8082 498.84555l-4.4274597 -4.568115l4.3045654 12.427887l4.6910095 -12.287231z" fill-rule="evenodd"/><path fill="#000000" fill-opacity="0.0" d="m121.71129 424.9601l133.22835 0l0 58.582672l-133.22835 0z" fill-rule="evenodd"/><path fill="#000000" d="m173.32545 460.4301q2.25 -1.5 3.5 -3.125l-6.25 0q0.875 1.75 2.75 3.125zm-2.25 -5.125l7.0 0l0.375 -0.625l2.125 1.5q0.625 0.5 -0.25 0.625q-1.875 2.625 -5.0 5.0q3.5 2.0 11.0 2.625l-0.875 2.75q-7.625 -0.625 -12.25 -3.75q-6.875 3.75 -13.125 4.375l-1.0 -2.625q6.75 -0.625 12.125 -3.5q-1.0 -1.0 -2.375 -3.0q-3.875 3.5 -7.25 4.375l-1.25 -2.125q6.375 -2.125 9.5 -7.75l2.0 0.75q0.625 0.375 -0.25 0.5l-0.5 0.875zm5.5 -3.75q0 2.125 -1.875 2.125l-1.75 0l-0.625 -2.375l1.375 0q0.375 0 0.375 -0.375l0 -6.125l-3.125 0l0 2.625q0 7.125 -8.625 9.25l-1.125 -2.375q7.25 -1.625 7.25 -6.875l0 -2.625l-9.5 0l0 -2.375l12.0 0l0 -3.75l2.75 0q1.25 0.25 0.125 1.0l0 2.75l12.0 0l0 2.375l-9.25 0l0 6.75zm-17.25 -1.25q3.125 -1.625 5.125 -4.25l2.25 1.75q0.375 0.5 -0.5 0.5q-1.875 2.625 -5.375 4.375l-1.5 -2.375zm20.125 -4.125q3.75 2.0 6.0 4.375l-2.125 2.5q-2.875 -2.875 -5.625 -4.625l1.75 -2.25zm38.5 21.5q-9.875 -0.875 -15.5 -4.0q-3.125 2.625 -11.125 4.125l-0.875 -2.625q7.375 -1.25 9.75 -3.125q-1.625 -1.375 -3.25 -3.5l2.25 -0.875q1.0 1.25 2.75 2.625q1.0 -1.625 1.125 -3.625l-6.5 0l0 1.0l-2.5 0l0 -12.75l9.125 0l0 -2.625l-12.625 0l0 -2.375l27.0 0l0 2.375l-11.875 0l0 2.625l9.25 0l0 13.25l-2.5 0l0 -1.5l-6.875 0q-0.125 2.5 -1.5 4.875q4.25 2.5 14.25 3.375l-0.375 2.75zm-21.375 -20.75l0 2.875l6.625 0l0 -2.875l-6.625 0zm9.125 0l0 2.875l6.75 0l0 -2.875l-6.75 0zm0 7.75l6.75 0l0 -2.875l-6.75 0l0 2.875zm-2.5 0l0 -2.875l-6.625 0l0 2.875l6.625 0z" fill-rule="nonzero"/><path fill="#000000" fill-opacity="0.0" d="m417.6273 424.9601l133.22836 0l0 58.582672l-133.22836 0z" fill-rule="evenodd"/><path fill="#000000" d="m471.1165 448.6801q-1.125 2.5 -2.375 4.375l0 9.5q1.625 -0.5 5.625 -1.875l0.625 2.5q-8.75 3.0 -11.125 3.375q-0.375 0.625 -0.625 0.25l-0.875 -3.0q2.0 -0.375 3.875 -0.625l0 -7.5q-1.5 2.0 -5.0 4.0l-0.875 -2.875q5.625 -2.375 9.125 -10.0l-8.25 0l0 -2.375l8.5 0l0 -5.5l2.375 0q1.0 0.125 0.125 0.75l0 4.75l9.5 0l0 2.375l-8.625 0q0.5 3.75 1.625 7.0l4.5 -4.5l1.875 1.875q0.75 0.875 -0.375 0.75l-4.875 4.25q2.125 4.125 7.25 7.375l-1.875 2.875q-8.75 -6.875 -10.125 -17.75zm-11.625 18.625l-2.5 0l0 -15.875q-0.75 1.625 -2.375 3.375l-1.625 -2.375q4.5 -5.125 5.75 -13.375l2.5 0.625q0.875 0.125 0 0.75q-1.0 4.625 -2.125 6.75q1.125 0 0.375 1.0l0 19.125zm31.5 -11.5q-2.75 2.75 -3.875 3.375l-1.375 -2.625q3.0 -1.875 5.25 -4.875l0 -2.25l1.5 0.375q1.625 -2.5 2.5 -5.125l-8.5 0l0 -2.375l9.125 0q0.375 -1.125 0.875 -3.5l2.75 0.75q0.5 0.5 -0.375 0.625l-0.5 2.125l15.1249695 0l0 2.375l-15.8749695 0q-1.375 4.25 -4.125 8.125l0 14.5l-2.5 0l0 -11.5zm6.875 -8.125l11.375 0l0.375 -0.375l2.0 1.625q0.7499695 0.75 -0.5 1.0l-4.75 3.75l0 1.875l7.8749695 0l0 2.375l-7.8749695 0l0 7.125q0 2.0 -2.0 2.0l-2.5 0l-0.375 -2.375l1.875 0q0.5 0 0.5 -0.5l0 -6.25l-8.625 0l0 -2.375l8.625 0l0 -3.625l1.25 0.125l2.125 -2.0l-9.375 0l0 -2.375z" fill-rule="nonzero"/></g></svg>