<svg version="1.1" viewBox="0.0 0.0 1424.010498687664 464.31758530183725" fill="none" stroke="none" stroke-linecap="square" stroke-miterlimit="10" xmlns:xlink="http://www.w3.org/1999/xlink" xmlns="http://www.w3.org/2000/svg"><clipPath id="p.0"><path d="m0 0l1424.0105 0l0 464.3176l-1424.0105 0l0 -464.3176z" clip-rule="nonzero"/></clipPath><g clip-path="url(#p.0)"><path fill="#000000" fill-opacity="0.0" d="m0 0l1424.0105 0l0 464.3176l-1424.0105 0z" fill-rule="evenodd"/><path fill="#d9d2e9" d="m221.52756 114.25984l945.2283 0l0 73.354324l-945.2283 0z" fill-rule="evenodd"/><path stroke="#000000" stroke-width="1.0" stroke-linejoin="round" stroke-linecap="butt" d="m221.52756 114.25984l945.2283 0l0 73.354324l-945.2283 0z" fill-rule="evenodd"/><path fill="#000000" d="m627.2042 156.84451l10.25 0l0 -10.9375l-10.25 0l0 -3.6875l14.0625 0l0 20.0625l-3.8125 0l0 -1.75l-10.25 0l0 -3.6875zm16.59375 2.390625q6.34375 -1.21875 9.078125 -4.171875q2.53125 -2.765625 4.890625 -10.296875l3.5 2.765625q-2.84375 8.078125 -5.828125 10.953125q-4.015625 3.75 -8.828125 4.703125q-0.90625 2.734375 -1.875 -0.5l-0.9375 -3.453125zm5.21875 -10.1875q-3.15625 -4.375 -4.828125 -6.046875l2.109375 -4.0625q2.3125 2.125 5.234375 6.15625l-2.515625 3.953125zm24.0 -5.828125l7.0 0l0 3.6875l-7.0 0l0 17.5l-3.8125 0l0 -17.5l-6.75 0l0 -3.6875l6.75 0l0 -7.203125l3.125 0.328125q3.03125 0.609375 0.6875 1.921875l0 4.953125zm-4.5 6.8125q2.546875 1.09375 0.265625 1.75q-0.921875 3.796875 -3.234375 9.3125l-3.78125 -2.34375q2.34375 -4.984375 3.796875 -10.1875l2.953125 1.46875zm7.328125 -1.453125q3.609375 5.625 5.171875 9.609375l-3.421875 3.0625q-1.953125 -5.09375 -4.546875 -9.875l2.796875 -2.796875zm11.984375 -12.921875q1.0625 1.078125 1.0625 2.46875q0 1.390625 -1.0625 2.46875q-1.078125 1.0625 -2.46875 1.0625q-1.390625 0 -2.46875 -1.0625q-1.0625 -1.078125 -1.0625 -2.46875q0 -1.390625 1.0625 -2.46875q1.078125 -1.0625 2.46875 -1.0625q1.390625 0 2.46875 1.0625zm-1.5625 3.375q0.3125 -0.296875 0.3125 -0.90625q0 -0.609375 -0.3125 -0.90625q-0.296875 -0.3125 -0.90625 -0.3125q-0.609375 0 -0.90625 0.3125q-0.3125 0.296875 -0.3125 0.90625q0 0.609375 0.3125 0.90625q0.296875 0.3125 0.90625 0.3125q0.609375 0 0.90625 -0.3125zm3.5625 13.25l0 -3.6875l19.0625 0l0 3.6875l-19.0625 0zm33.734375 -3.234375q2.984375 2.203125 6.09375 5.46875l-2.15625 4.140625q-3.109375 -3.5625 -6.125 -6.15625l2.1875 -3.453125zm-13.671875 5.96875q7.734375 -4.125 10.765625 -9.59375l-7.8125 0.921875l-0.921875 -4.078125l5.65625 -0.375l0 -5.75l3.140625 0.328125q2.96875 0.671875 0.671875 1.8125l0 3.40625l1.96875 -0.09375l0.671875 -0.21875l1.921875 1.90625q1.984375 2.0 -0.328125 2.0q-1.21875 2.203125 -3.984375 5.703125l0 13.796875l-3.8125 0l0 -9.765625q-1.171875 1.25 -5.28125 3.734375l-2.65625 -3.734375zm21.03125 4.21875q6.34375 -1.21875 9.078125 -4.171875q2.53125 -2.765625 4.890625 -10.296875l3.5 2.765625q-2.84375 8.078125 -5.828125 10.953125q-4.015625 3.75 -8.828125 4.703125q-0.90625 2.734375 -1.875 -0.5l-0.9375 -3.453125zm5.21875 -10.1875q-3.15625 -4.375 -4.828125 -6.046875l2.109375 -4.0625q2.3125 2.125 5.234375 6.15625l-2.515625 3.953125zm18.625 -2.34375q3.6875 1.734375 7.625 4.6875l-1.609375 4.328125q-4.15625 -3.421875 -6.015625 -4.390625l0 12.578125l-3.8125 0l0 -26.765625l3.125 0.328125q3.03125 0.609375 0.6875 1.921875l0 7.3125z" fill-rule="nonzero"/><path fill="#000000" fill-opacity="0.0" d="m82.543304 150.93701l133.22835 0" fill-rule="evenodd"/><path stroke="#000000" stroke-width="4.0" stroke-linejoin="round" stroke-linecap="butt" d="m82.543304 150.93701l119.51999 0" fill-rule="evenodd"/><path fill="#000000" stroke="#000000" stroke-width="4.0" stroke-linecap="butt" d="m202.06331 150.93701l-4.498337 4.498337l12.35907 -4.498337l-12.35907 -4.498337z" fill-rule="evenodd"/><path fill="#000000" fill-opacity="0.0" d="m1174.5879 150.93701l133.2284 0" fill-rule="evenodd"/><path stroke="#000000" stroke-width="4.0" stroke-linejoin="round" stroke-linecap="butt" d="m1174.5879 150.93701l119.52002 0" fill-rule="evenodd"/><path fill="#000000" stroke="#000000" stroke-width="4.0" stroke-linecap="butt" d="m1294.1079 150.93701l-4.498291 4.498337l12.359009 -4.498337l-12.359009 -4.498337z" fill-rule="evenodd"/><path fill="#000000" fill-opacity="0.0" d="m53.076115 40.913387l133.22835 0l0 89.82677l-133.22835 0z" fill-rule="evenodd"/><path fill="#000000" d="m105.56529 69.883385q-0.75 9.375 -2.5 11.625q-0.875 1.125 -2.875 1.125l-5.0 0l-0.375 -2.375l4.625 0q1.375 0 1.875 -0.875q1.0 -1.625 1.5 -7.125l-8.375 0l-0.25 1.25l-2.625 -0.375q1.375 -6.0 1.75 -10.124996l9.375 0l0 -4.0l-11.5 0l0 -2.375l14.0 0l0 9.374996l-2.5 0l0 -0.625l-7.0 0q-0.125 0.75 -0.75 4.5l10.625 0zm9.375 12.5l-2.5 0l0 -26.124996l2.375 0q1.0 0.125 0.125 0.75l0 25.374996zm28.0 -8.625q1.75 -3.375 2.125 -10.249996l-4.25 0q0.375 6.874996 2.125 10.249996zm4.625 -10.249996q-0.25 7.749996 -3.0 12.499996q2.0 2.5 5.625 4.375l-1.625 2.75q-4.0 -2.625 -5.625 -5.0q-2.875 3.25 -8.875 5.625l-1.25 -2.5q6.5 -2.625 8.625 -5.375q-2.125 -4.125 -2.375 -8.25q-0.75 1.875 -1.5 2.875l-2.125 -1.625q3.75 -5.499996 4.5 -13.624996l2.625 0.625q0.75 0.5 -0.375 0.75q-0.375 2.25 -1.0 4.5l8.5 0l0 2.375l-2.125 0zm-11.625 -6.0q-0.75 1.875 -1.75 3.125l-2.0 -1.125q1.0 -1.625 1.875 -3.75l2.25 1.125q0.5 0.5 -0.375 0.625zm-8.0 17.624996q1.75 0.5 3.125 1.125q1.0 -1.125 1.625 -3.375l-3.625 0q-0.5 1.125 -1.125 2.25zm-1.75 3.125l-2.0 -1.125q1.25 -1.875 2.5 -4.25l-4.75 0l0 -2.0l5.5 0q0.75 -1.625 1.125 -2.75l2.375 0.625q0.5 0.5 -0.375 0.625l-0.75 1.5l7.125 0l0 2.0l-1.875 0q-0.625 2.5 -1.875 4.25q1.125 0.5 2.375 1.25l-1.125 2.0q-1.375 -0.875 -2.5 -1.375q-3.25 3.25 -8.75 4.0l-0.875 -2.25q4.875 -0.5 7.5 -2.75q-1.375 -0.625 -2.75 -1.125l-0.875 1.375zm2.5 -23.499996l2.0 0q1.0 0.125 0.125 0.75l0 5.375l6.375 0l0 2.0l-5.25 0q1.375 1.6249962 4.25 3.1249962l-1.375 2.125q-2.125 -1.25 -4.0 -3.5l0 3.0l-2.125 0l0 -2.375q-2.0 2.5 -5.5 4.5l-1.625 -2.0q3.875 -2.0 6.375 -4.874996l-5.75 0l0 -2.0l6.5 0l0 -6.125zm-3.5 5.75q-0.875 -1.875 -2.25 -3.25l2.0 -1.25q1.5 1.5 2.25 3.125l-2.0 1.375z" fill-rule="nonzero"/><path fill="#000000" d="m73.33092 121.133385q-6.25 -5.875 -6.25 -13.625q0 -7.75 6.25 -13.625l1.375 1.375q-5.75 5.375 -5.75 12.25q0 6.875 5.75 12.25l-1.375 1.375z" fill-rule="nonzero"/><path fill="#000000" d="m91.61217 110.508385q0 2.09375 -0.59375 3.65625q-0.578125 1.5625 -1.609375 2.59375q-1.03125 1.03125 -2.4375 1.546875q-1.40625 0.515625 -3.046875 0.515625q-0.75 0 -1.5 -0.078125q-0.734375 -0.078125 -1.5 -0.265625l0 6.5625l-2.71875 0l0 -22.09375l2.421875 0l0.171875 2.625q1.171875 -1.609375 2.5 -2.25q1.328125 -0.65625 2.875 -0.65625q1.34375 0 2.359375 0.5625q1.015625 0.5625 1.703125 1.59375q0.6875 1.015625 1.03125 2.46875q0.34375 1.4375 0.34375 3.21875zm-2.78125 0.125q0 -1.234375 -0.1875 -2.265625q-0.171875 -1.03125 -0.5625 -1.765625q-0.390625 -0.734375 -1.0 -1.140625q-0.609375 -0.421875 -1.453125 -0.421875q-0.515625 0 -1.046875 0.171875q-0.53125 0.15625 -1.109375 0.546875q-0.5625 0.375 -1.203125 1.015625q-0.625 0.625 -1.34375 1.5625l0 7.609375q0.75 0.3125 1.578125 0.5q0.828125 0.171875 1.625 0.171875q2.203125 0 3.453125 -1.484375q1.25 -1.5 1.25 -4.5zm7.609375 -7.6875l2.484375 0l0.078125 2.890625q1.390625 -1.671875 2.734375 -2.421875q1.359375 -0.75 2.734375 -0.75q2.4375 0 3.6875 1.578125q1.265625 1.578125 1.171875 4.6875l-2.75 0q0.046875 -2.0625 -0.609375 -2.984375q-0.640625 -0.9375 -1.890625 -0.9375q-0.546875 0 -1.109375 0.203125q-0.546875 0.1875 -1.140625 0.625q-0.578125 0.421875 -1.234375 1.09375q-0.65625 0.671875 -1.40625 1.625l0 10.078125l-2.75 0l0 -15.6875zm30.609375 7.71875q0 1.828125 -0.515625 3.359375q-0.515625 1.515625 -1.484375 2.609375q-0.96875 1.078125 -2.359375 1.6875q-1.390625 0.59375 -3.15625 0.59375q-1.6875 0 -3.03125 -0.515625q-1.328125 -0.53125 -2.265625 -1.546875q-0.921875 -1.015625 -1.421875 -2.515625q-0.484375 -1.5 -0.484375 -3.453125q0 -1.828125 0.515625 -3.328125q0.515625 -1.515625 1.484375 -2.59375q0.96875 -1.09375 2.359375 -1.6875q1.390625 -0.609375 3.15625 -0.609375q1.6875 0 3.015625 0.53125q1.34375 0.515625 2.265625 1.53125q0.9375 1.0 1.421875 2.5q0.5 1.5 0.5 3.4375zm-2.78125 0.125q0 -1.453125 -0.328125 -2.53125q-0.3125 -1.09375 -0.90625 -1.8125q-0.59375 -0.734375 -1.453125 -1.09375q-0.84375 -0.375 -1.890625 -0.375q-1.21875 0 -2.09375 0.484375q-0.859375 0.46875 -1.421875 1.265625q-0.546875 0.796875 -0.8125 1.859375q-0.25 1.046875 -0.25 2.203125q0 1.453125 0.3125 2.546875q0.328125 1.09375 0.921875 1.828125q0.59375 0.71875 1.4375 1.09375q0.84375 0.359375 1.90625 0.359375q1.21875 0 2.078125 -0.46875q0.875 -0.484375 1.421875 -1.28125q0.5625 -0.796875 0.8125 -1.84375q0.265625 -1.0625 0.265625 -2.234375zm20.125 -0.28125q0 2.09375 -0.59375 3.65625q-0.578125 1.5625 -1.609375 2.59375q-1.03125 1.03125 -2.4375 1.546875q-1.40625 0.515625 -3.046875 0.515625q-0.75 0 -1.5 -0.078125q-0.734375 -0.078125 -1.5 -0.265625l0 6.5625l-2.71875 0l0 -22.09375l2.421875 0l0.171875 2.625q1.171875 -1.609375 2.5 -2.25q1.328125 -0.65625 2.875 -0.65625q1.34375 0 2.359375 0.5625q1.015625 0.5625 1.703125 1.59375q0.6875 1.015625 1.03125 2.46875q0.34375 1.4375 0.34375 3.21875zm-2.78125 0.125q0 -1.234375 -0.1875 -2.265625q-0.171875 -1.03125 -0.5625 -1.765625q-0.390625 -0.734375 -1.0 -1.140625q-0.609375 -0.421875 -1.453125 -0.421875q-0.515625 0 -1.046875 0.171875q-0.53125 0.15625 -1.109375 0.546875q-0.5625 0.375 -1.203125 1.015625q-0.625 0.625 -1.34375 1.5625l0 7.609375q0.75 0.3125 1.578125 0.5q0.828125 0.171875 1.625 0.171875q2.203125 0 3.453125 -1.484375q1.25 -1.5 1.25 -4.5zm19.390625 3.71875q0 0.828125 -0.28125 1.484375q-0.28125 0.65625 -0.765625 1.171875q-0.484375 0.5 -1.125 0.859375q-0.640625 0.359375 -1.375 0.59375q-0.71875 0.234375 -1.484375 0.34375q-0.765625 0.109375 -1.5 0.109375q-1.59375 0 -2.9375 -0.140625q-1.328125 -0.140625 -2.609375 -0.453125l0 -2.5q1.375 0.390625 2.734375 0.59375q1.359375 0.203125 2.703125 0.203125q1.953125 0 2.890625 -0.53125q0.9375 -0.53125 0.9375 -1.515625q0 -0.421875 -0.15625 -0.75q-0.140625 -0.34375 -0.53125 -0.640625q-0.390625 -0.3125 -1.21875 -0.640625q-0.8125 -0.328125 -2.234375 -0.75q-1.0625 -0.3125 -1.96875 -0.703125q-0.890625 -0.40625 -1.546875 -0.953125q-0.65625 -0.546875 -1.03125 -1.28125q-0.375 -0.734375 -0.375 -1.734375q0 -0.65625 0.296875 -1.4375q0.3125 -0.78125 1.046875 -1.453125q0.734375 -0.671875 1.984375 -1.109375q1.25 -0.453125 3.125 -0.453125q0.921875 0 2.046875 0.109375q1.125 0.09375 2.34375 0.34375l0 2.421875q-1.28125 -0.3125 -2.4375 -0.453125q-1.140625 -0.15625 -1.984375 -0.15625q-1.015625 0 -1.71875 0.15625q-0.6875 0.15625 -1.125 0.4375q-0.421875 0.265625 -0.609375 0.640625q-0.1875 0.359375 -0.1875 0.78125q0 0.421875 0.15625 0.765625q0.171875 0.34375 0.609375 0.671875q0.453125 0.3125 1.25 0.640625q0.796875 0.3125 2.078125 0.6875q1.390625 0.40625 2.34375 0.859375q0.953125 0.4375 1.546875 0.984375q0.59375 0.546875 0.84375 1.234375q0.265625 0.6875 0.265625 1.5625z" fill-rule="nonzero"/><path fill="#000000" d="m170.29967 107.508385q0 -6.875 -5.75 -12.25l1.375 -1.375q6.25 5.875 6.25 13.625q0 7.75 -6.25 13.625l-1.375 -1.375q5.75 -5.375 5.75 -12.25z" fill-rule="nonzero"/><path fill="#000000" fill-opacity="0.0" d="m1174.5879 40.913387l215.62207 0l0 89.82677l-215.62207 0z" fill-rule="evenodd"/><path fill="#000000" d="m1267.7114 83.133385q-8.375 -2.0 -11.25 -8.125q-1.5 6.375 -10.25 8.5l-0.75 -2.375q7.875 -1.75 8.875 -7.125l-8.25 0q-0.375 5.375 -3.75 8.875l-1.75 -2.0q3.0 -2.875 3.0 -7.875l0 -12.249996l22.125 0l0 7.999996l-2.5 0l0 -0.75l-17.125 0l0 3.625l8.5 0l0 -2.875l2.375 0q1.0 0.125 0.125 0.75l0 2.125l10.625 0l0 2.375l-9.375 0q1.75 4.625 10.375 6.5l-1.0 2.625zm-0.5 -26.874996l0 2.375l-25.125 0l0 -2.375l25.125 0zm-4.0 6.875l-17.125 0l0 2.4999962l17.125 0l0 -2.4999962zm24.5 5.874996q0 -8.499996 -0.5 -13.124996l2.5 0q1.375 0.125 0.25 1.0q0.375 4.0 0.375 12.249996q0 9.375 -8.875 14.125l-2.125 -2.125q8.375 -4.0 8.375 -12.125zm-8.5 4.125q-1.125 0.875 -2.5 0.875q-0.875 0 -1.625 -0.75q-0.875 -0.875 -0.875 -7.5q0 -4.999996 0.5 -9.124996l2.75 0q1.0 0.375 0 0.875q-0.625 3.0 -0.625 8.249996q0 5.375 0.5 5.375q0.375 0 1.0 -0.5q0.875 -0.75 2.875 -3.375l1.875 1.875q-2.125 2.625 -3.875 4.0zm24.0 -17.249996q-0.5 3.25 -1.75 7.125q1.125 0.125 0.375 0.875l0 19.374996l-2.5 0l0 -15.5q-0.875 1.375 -1.625 2.25l-2.0 -1.5q4.25 -5.124996 5.0 -13.874996l2.875 0.625q0.5 0.5 -0.375 0.625zm12.25 4.625l0 2.375l6.125 0l0 14.749996l-11.625 0l0 -14.749996l3.0 0l0 -2.375l-9.0 0l0 -2.375l9.0 0l0 -3.5l2.375 0q1.0 0.125 0.125 0.75l0 2.75l8.125 0l0 2.375l-8.125 0zm-3.375 4.374996l0 2.25l7.375 0l0 -2.25l-7.375 0zm0 4.25l0 2.125l7.375 0l0 -2.125l-7.375 0zm0 4.125l0 2.375l7.375 0l0 -2.375l-7.375 0zm-7.25 10.0l0 -19.999996l2.375 0q1.0 0.125 0.125 0.7499962l0 15.75l17.25 0l0 2.375l-17.25 0l0 1.125l-2.5 0z" fill-rule="nonzero"/><path fill="#000000" d="m1208.7739 121.133385q-6.25 -5.875 -6.25 -13.625q0 -7.75 6.25 -13.625l1.375 1.375q-5.75 5.375 -5.75 12.25q0 6.875 5.75 12.25l-1.375 1.375zm5.0 -24.375l10.5 0q2.5 0 4.125 1.625q1.625 1.625 1.625 4.5q0 2.875 -1.625 4.5q-0.875 0.875 -2.5 1.125l4.875 9.625l-3.125 0l-4.5 -9.25l-6.5 0l0 9.25l-2.875 0l0 -21.375zm2.875 2.375l0 7.375l7.375 0q1.25 0 2.125 -0.875q0.875 -0.875 0.875 -2.75q0 -1.75 -1.0 -2.75q-1.0 -1.0 -2.375 -1.0l-7.0 0zm16.0 12.125q0 -3.375 2.125 -5.5q1.75 -1.75 4.5 -1.75q2.625 0 4.5 1.875q1.75 1.75 1.75 5.375l-10.125 0q0 2.625 1.25 3.875q1.125 1.125 2.875 1.125q1.75 0 2.5 -0.75q0.875 -0.875 0.875 -2.0l2.75 0q-0.5 2.25 -1.625 3.375q-1.625 1.625 -4.5 1.625q-3.0 0 -4.875 -1.875q-2.0 -2.0 -2.0 -5.375zm6.5 -5.125q-1.5 0 -2.5 1.0q-0.875 0.875 -1.125 2.125l7.125 0q0 -1.25 -1.0 -2.25q-0.875 -0.875 -2.5 -0.875zm9.75 2.25q0.375 -1.75 1.625 -3.0q1.375 -1.375 4.0 -1.375q3.125 0 4.5 1.375q1.25 1.25 1.25 2.875l0 7.875q0 1.375 1.0 2.125l-3.0 0q-0.5 -0.5 -0.5 -1.625q-1.875 1.875 -4.75 1.875q-2.375 0 -3.625 -1.25q-1.125 -1.125 -1.125 -2.625q0 -1.75 1.125 -2.875q1.25 -1.25 3.5 -1.625q1.5 -0.25 2.625 -0.625q1.625 -0.375 2.25 -0.75q0 -1.0 -0.75 -1.75q-0.75 -0.75 -2.125 -0.75q-1.75 0 -2.5 0.75q-0.5 0.5 -0.75 1.375l-2.75 0zm8.875 2.75q-0.75 0.25 -1.375 0.375q-2.125 0.5 -3.25 0.75q-1.0 0.25 -1.5 0.75q-0.625 0.625 -0.625 1.375q0 0.875 0.625 1.5q0.375 0.375 1.625 0.375q2.125 0 3.5 -1.375q0.875 -0.875 1.0 -1.25l0 -2.5zm6.125 0.25q0 -3.375 2.0 -5.375q1.875 -1.875 4.625 -1.875q3.0 0 4.5 1.5q1.375 1.375 1.625 3.375l-2.75 0q-0.125 -1.0 -1.0 -1.875q-0.75 -0.75 -2.25 -0.75q-1.5 0 -2.5 1.0q-1.5 1.5 -1.5 4.125q0 2.5 1.375 3.875q1.0 1.0 2.5 1.0q1.75 0 2.75 -1.0q1.0 -1.0 1.0 -2.625l2.75 0q-0.125 2.625 -1.75 4.25q-1.625 1.625 -4.75 1.625q-2.625 0 -4.375 -1.75q-2.25 -2.25 -2.25 -5.5zm17.5 -12.0l2.5 0l0 4.875l4.25 0l0 2.0l-4.25 0l0 8.125q0 0.75 0.625 1.375q0.5 0.5 1.625 0.5q1.75 0 3.125 -0.875l0 2.375q-1.375 0.75 -3.0 0.75q-2.5 0 -3.625 -1.125q-1.25 -1.25 -1.25 -2.75l0 -8.375l-3.0 0l0 -2.0l3.0 0l0 -4.875zm26.5 18.125q-4.25 3.125 -14.625 4.0l-0.5 -2.375q8.625 -0.5 12.5 -2.5q-2.875 -0.75 -5.625 -1.25l-0.75 0.875l-2.25 -1.25l3.375 -3.75l-8.625 0l0 -2.0l10.25 0l2.0 -2.75l-6.625 0l0 0.875l-2.125 0l0 -8.375l6.5 0l0 -2.75l-9.25 0l0 -2.0l26.875 0l0 2.0l-9.25 0l0 2.75l6.5 0l0 8.25l-2.125 0l0 -0.75l-9.375 0l1.25 0.625q0.625 0.375 -0.375 0.625l-1.25 1.5l15.5 0l0 2.0l-6.375 0q-1.5 2.5 -3.625 4.5q4.0 1.125 8.625 3.25l-1.625 2.25q-3.75 -2.0 -9.0 -3.75zm-4.75 -6.25l-2.125 2.375q2.875 0.375 6.375 1.25q2.0 -1.5 3.125 -3.625l-7.375 0zm0.375 -15.0l0 2.75l4.125 0l0 -2.75l-4.125 0zm-6.5 8.25l4.375 0l0 -3.5l-4.375 0l0 3.5zm6.5 -3.5l0 3.5l4.125 0l0 -3.5l-4.125 0zm6.25 0l0 3.5l4.375 0l0 -3.5l-4.375 0zm26.375 8.875q2.375 -1.75 4.375 -4.0l2.25 1.375q0.5 0.625 -0.5 0.5q-1.875 1.625 -4.75 3.625l7.875 -0.375l-1.875 -1.625l1.75 -1.375q3.25 2.25 5.625 5.125l-2.0 1.625l-1.875 -2.0l-8.375 0.625l0 7.875l-2.5 0l0 -7.75l-10.375 0.375q-0.125 0.875 -0.625 0.375l-0.75 -2.75l9.875 0q-2.375 -2.25 -4.875 -3.375l1.375 -1.625l2.0 1.0q1.125 -0.875 2.25 -2.25l-11.75 0l0 -2.0l12.875 0l0 -1.875l-8.875 0l0 -2.0l8.875 0l0 -2.0l-10.5 0l0 -2.0l10.5 0l0 -2.625l2.375 0q1.0 0.125 0.125 0.75l0 1.875l10.75 0l0 2.0l-10.75 0l0 2.0l9.0 0l0 2.0l-9.0 0l0 1.875l13.0 0l0 2.0l-13.875 0q-1.625 1.875 -3.25 3.375l1.625 1.25zm7.75 4.5q3.125 2.75 6.75 3.625l-1.0 2.375q-4.5 -1.125 -7.375 -4.375l1.625 -1.625zm-10.5 2.25q0.25 0.625 -0.75 0.5q-3.5 2.75 -7.375 3.625l-1.125 -2.25q4.375 -1.125 7.375 -3.75l1.875 1.875zm26.875 -9.125q0 -6.875 -5.75 -12.25l1.375 -1.375q6.25 5.875 6.25 13.625q0 7.75 -6.25 13.625l-1.375 -1.375q5.75 -5.375 5.75 -12.25z" fill-rule="nonzero"/><path fill="#cfe2f3" d="m252.58267 348.8058l0 0c0 -24.804993 48.268646 -44.91339 107.811035 -44.91339l0 0c59.54239 0 107.811005 20.108398 107.811005 44.91339l0 0c0 24.804962 -48.268616 44.91336 -107.811005 44.91336l0 0c-59.54239 0 -107.811035 -20.108398 -107.811035 -44.91336z" fill-rule="evenodd"/><path stroke="#000000" stroke-width="1.0" stroke-linejoin="round" stroke-linecap="butt" d="m252.58267 348.8058l0 0c0 -24.804993 48.268646 -44.91339 107.811035 -44.91339l0 0c59.54239 0 107.811005 20.108398 107.811005 44.91339l0 0c0 24.804962 -48.268616 44.91336 -107.811005 44.91336l0 0c-59.54239 0 -107.811035 -20.108398 -107.811035 -44.91336z" fill-rule="evenodd"/><path fill="#000000" d="m304.1754 356.90826q-0.796875 0.3125 -1.640625 0.453125q-0.828125 0.15625 -1.71875 0.15625q-2.796875 0 -4.296875 -1.515625q-1.5 -1.515625 -1.5 -4.421875q0 -1.390625 0.421875 -2.53125q0.4375 -1.140625 1.21875 -1.9375q0.796875 -0.8125 1.875 -1.25q1.09375 -0.453125 2.40625 -0.453125q0.921875 0 1.71875 0.140625q0.796875 0.125 1.515625 0.421875l0 1.9375q-0.765625 -0.390625 -1.5625 -0.578125q-0.78125 -0.1875 -1.625 -0.1875q-0.78125 0 -1.484375 0.3125q-0.6875 0.296875 -1.21875 0.859375q-0.53125 0.5625 -0.84375 1.375q-0.296875 0.796875 -0.296875 1.8125q0 2.140625 1.03125 3.203125q1.046875 1.0625 2.890625 1.0625q0.828125 0 1.609375 -0.1875q0.78125 -0.1875 1.5 -0.5625l0 1.890625zm14.3046875 -5.546875q0 1.375 -0.390625 2.515625q-0.390625 1.140625 -1.125 1.96875q-0.71875 0.8125 -1.765625 1.265625q-1.03125 0.453125 -2.359375 0.453125q-1.265625 0 -2.265625 -0.390625q-1.0 -0.40625 -1.703125 -1.15625q-0.703125 -0.765625 -1.078125 -1.890625q-0.359375 -1.125 -0.359375 -2.59375q0 -1.375 0.390625 -2.5q0.390625 -1.140625 1.109375 -1.953125q0.734375 -0.8125 1.765625 -1.265625q1.046875 -0.453125 2.375 -0.453125q1.265625 0 2.265625 0.40625q1.0 0.390625 1.6875 1.140625q0.703125 0.75 1.078125 1.875q0.375 1.125 0.375 2.578125zm-2.09375 0.09375q0 -1.078125 -0.25 -1.890625q-0.234375 -0.828125 -0.6875 -1.359375q-0.4375 -0.546875 -1.078125 -0.828125q-0.625 -0.28125 -1.421875 -0.28125q-0.90625 0 -1.5625 0.359375q-0.640625 0.359375 -1.0625 0.96875q-0.421875 0.59375 -0.609375 1.390625q-0.1875 0.78125 -0.1875 1.640625q0 1.09375 0.234375 1.921875q0.234375 0.8125 0.671875 1.359375q0.453125 0.546875 1.078125 0.828125q0.640625 0.265625 1.4375 0.265625q0.921875 0 1.5625 -0.359375q0.65625 -0.359375 1.0625 -0.953125q0.421875 -0.59375 0.609375 -1.375q0.203125 -0.796875 0.203125 -1.6875zm14.4921875 5.890625l-1.828125 0l-0.0625 -1.90625q-0.53125 0.609375 -1.015625 1.015625q-0.46875 0.40625 -0.9375 0.65625q-0.46875 0.25 -0.9375 0.34375q-0.46875 0.109375 -1.0 0.109375q-1.8125 0 -2.75 -1.0625q-0.921875 -1.078125 -0.921875 -3.234375l0 -7.6875l2.046875 0l0 7.515625q0 2.71875 2.03125 2.71875q0.375 0 0.734375 -0.109375q0.359375 -0.125 0.75 -0.390625q0.390625 -0.28125 0.84375 -0.75q0.453125 -0.46875 1.015625 -1.1875l0 -7.796875l2.03125 0l0 11.765625zm3.7421875 -11.765625l1.8125 0l0.09375 1.890625q0.515625 -0.609375 0.984375 -1.0q0.484375 -0.40625 0.9375 -0.65625q0.46875 -0.25 0.953125 -0.34375q0.484375 -0.109375 1.0 -0.109375q1.8125 0 2.734375 1.078125q0.9375 1.078125 0.9375 3.234375l0 7.671875l-2.03125 0l0 -7.515625q0 -1.375 -0.515625 -2.03125q-0.515625 -0.671875 -1.53125 -0.671875q-0.375 0 -0.734375 0.109375q-0.359375 0.109375 -0.75 0.390625q-0.390625 0.265625 -0.84375 0.734375q-0.4375 0.46875 -1.0 1.171875l0 7.8125l-2.046875 0l0 -11.765625zm22.679688 11.59375q-0.6875 0.1875 -1.4375 0.265625q-0.734375 0.078125 -1.5 0.078125q-2.203125 0 -3.296875 -1.0q-1.09375 -1.015625 -1.09375 -3.09375l0 -6.140625l-3.296875 0l0 -1.703125l3.296875 0l0 -3.234375l2.046875 -0.53125l0 3.765625l5.28125 0l0 1.703125l-5.28125 0l0 5.984375q0 1.265625 0.671875 1.890625q0.671875 0.625 1.984375 0.625q0.5625 0 1.21875 -0.078125q0.671875 -0.09375 1.40625 -0.28125l0 1.75z" fill-rule="nonzero"/><path fill="#000000" d="m367.1051 345.15826l10.6875 0l0 1.5l-10.6875 0l0 -1.5zm0 5.71875l10.6875 0l0 1.5l-10.6875 0l0 -1.5z" fill-rule="nonzero"/><path fill="#000000" d="m397.93323 349.6895q0 1.765625 -0.359375 3.21875q-0.34375 1.4375 -1.0625 2.484375q-0.71875 1.03125 -1.78125 1.609375q-1.0625 0.5625 -2.484375 0.5625q-1.234375 0 -2.25 -0.46875q-1.0 -0.46875 -1.71875 -1.421875q-0.703125 -0.96875 -1.09375 -2.453125q-0.390625 -1.484375 -0.390625 -3.53125q0 -1.75 0.359375 -3.203125q0.359375 -1.453125 1.0625 -2.484375q0.71875 -1.046875 1.78125 -1.609375q1.0625 -0.578125 2.484375 -0.578125q1.234375 0 2.234375 0.46875q1.015625 0.453125 1.71875 1.421875q0.71875 0.96875 1.109375 2.46875q0.390625 1.484375 0.390625 3.515625zm-2.0625 0.078125q0 -0.40625 -0.03125 -0.796875q-0.03125 -0.390625 -0.0625 -0.765625l-6.484375 4.8125q0.171875 0.609375 0.4375 1.125q0.28125 0.515625 0.65625 0.890625q0.375 0.359375 0.859375 0.578125q0.5 0.203125 1.109375 0.203125q0.796875 0 1.453125 -0.390625q0.65625 -0.390625 1.109375 -1.140625q0.453125 -0.765625 0.703125 -1.890625q0.25 -1.140625 0.25 -2.625zm-7.015625 -0.140625q0 0.359375 0 0.71875q0.015625 0.359375 0.046875 0.703125l6.484375 -4.796875q-0.171875 -0.59375 -0.453125 -1.078125q-0.265625 -0.5 -0.640625 -0.859375q-0.375 -0.359375 -0.859375 -0.546875q-0.46875 -0.203125 -1.078125 -0.203125q-0.796875 0 -1.453125 0.390625q-0.640625 0.375 -1.09375 1.15625q-0.453125 0.765625 -0.703125 1.890625q-0.25 1.125 -0.25 2.625z" fill-rule="nonzero"/><path fill="#000000" fill-opacity="0.0" d="m428.51968 315.89764l0 -128.28348" fill-rule="evenodd"/><path stroke="#000000" stroke-width="4.0" stroke-linejoin="round" stroke-linecap="butt" d="m428.51968 315.89764l0 -114.57512" fill-rule="evenodd"/><path fill="#000000" stroke="#000000" stroke-width="4.0" stroke-linecap="butt" d="m428.51968 201.32253l4.4983215 4.4983215l-4.4983215 -12.35907l-4.4983215 12.35907z" fill-rule="evenodd"/><path fill="#000000" fill-opacity="0.0" d="m292.24817 190.1792l-0.56695557 124.06299" fill-rule="evenodd"/><path stroke="#000000" stroke-width="4.0" stroke-linejoin="round" stroke-linecap="butt" d="m292.24817 190.1792l-0.504303 110.35477" fill-rule="evenodd"/><path fill="#000000" stroke="#000000" stroke-width="4.0" stroke-linecap="butt" d="m291.74387 300.534l-4.477722 -4.51886l4.441803 12.379517l4.554779 -12.338409z" fill-rule="evenodd"/><path fill="#ffffff" d="m191.01312 225.61417l185.48032 0l0 49.795288l-185.48032 0z" fill-rule="evenodd"/><path fill="#000000" d="m222.91212 256.65167q0 0.6875 -0.234375 1.234375q-0.234375 0.546875 -0.640625 0.96875q-0.40625 0.421875 -0.9375 0.71875q-0.53125 0.296875 -1.140625 0.5q-0.609375 0.1875 -1.25 0.28125q-0.640625 0.09375 -1.25 0.09375q-1.328125 0 -2.4375 -0.125q-1.109375 -0.109375 -2.171875 -0.375l0 -2.078125q1.140625 0.328125 2.265625 0.5q1.140625 0.171875 2.25 0.171875q1.640625 0 2.421875 -0.4375q0.78125 -0.453125 0.78125 -1.28125q0 -0.34375 -0.125 -0.625q-0.125 -0.28125 -0.453125 -0.53125q-0.328125 -0.25 -1.015625 -0.515625q-0.671875 -0.28125 -1.859375 -0.640625q-0.890625 -0.265625 -1.640625 -0.59375q-0.75 -0.328125 -1.296875 -0.78125q-0.546875 -0.453125 -0.859375 -1.0625q-0.3125 -0.625 -0.3125 -1.453125q0 -0.546875 0.25 -1.1875q0.265625 -0.65625 0.875 -1.21875q0.609375 -0.5625 1.65625 -0.921875q1.046875 -0.375 2.59375 -0.375q0.78125 0 1.71875 0.078125q0.9375 0.078125 1.953125 0.296875l0 2.015625q-1.078125 -0.265625 -2.03125 -0.390625q-0.953125 -0.125 -1.65625 -0.125q-0.84375 0 -1.421875 0.140625q-0.578125 0.125 -0.9375 0.359375q-0.359375 0.21875 -0.515625 0.53125q-0.15625 0.296875 -0.15625 0.65625q0 0.34375 0.125 0.640625q0.140625 0.28125 0.515625 0.546875q0.375 0.265625 1.03125 0.53125q0.671875 0.265625 1.734375 0.578125q1.15625 0.34375 1.953125 0.71875q0.796875 0.359375 1.28125 0.828125q0.5 0.453125 0.71875 1.03125q0.21875 0.5625 0.21875 1.296875zm15.343231 -3.65625q0 0.484375 -0.015625 0.8125q-0.015625 0.3125 -0.046875 0.59375l-9.171875 0q0 2.015625 1.109375 3.09375q1.125 1.0625 3.234375 1.0625q0.578125 0 1.140625 -0.046875q0.578125 -0.046875 1.109375 -0.125q0.546875 -0.078125 1.03125 -0.171875q0.484375 -0.09375 0.90625 -0.21875l0 1.875q-0.921875 0.25 -2.09375 0.40625q-1.171875 0.171875 -2.421875 0.171875q-1.671875 0 -2.890625 -0.453125q-1.203125 -0.453125 -1.984375 -1.3125q-0.765625 -0.875 -1.140625 -2.125q-0.375 -1.265625 -0.375 -2.859375q0 -1.375 0.390625 -2.59375q0.40625 -1.234375 1.171875 -2.15625q0.765625 -0.9375 1.859375 -1.484375q1.109375 -0.546875 2.515625 -0.546875q1.375 0 2.421875 0.4375q1.0625 0.421875 1.78125 1.203125q0.71875 0.78125 1.09375 1.921875q0.375 1.125 0.375 2.515625zm-2.359375 -0.328125q0.03125 -0.875 -0.171875 -1.59375q-0.203125 -0.71875 -0.640625 -1.234375q-0.4375 -0.53125 -1.09375 -0.828125q-0.640625 -0.296875 -1.5 -0.296875q-0.75 0 -1.359375 0.296875q-0.609375 0.28125 -1.0625 0.8125q-0.4375 0.515625 -0.71875 1.25q-0.265625 0.71875 -0.328125 1.59375l6.875 0zm16.499481 7.359375q-0.765625 0.203125 -1.59375 0.28125q-0.8125 0.09375 -1.65625 0.09375q-2.46875 0 -3.671875 -1.109375q-1.203125 -1.125 -1.203125 -3.421875l0 -6.828125l-3.671875 0l0 -1.890625l3.671875 0l0 -3.59375l2.25 -0.59375l0 4.1875l5.875 0l0 1.890625l-5.875 0l0 6.640625q0 1.40625 0.75 2.109375q0.75 0.6875 2.21875 0.6875q0.625 0 1.359375 -0.09375q0.75 -0.09375 1.546875 -0.3125l0 1.953125zm14.999496 -0.453125q-2.046875 0.84375 -4.28125 0.84375q-3.609375 0 -5.546875 -2.140625q-1.9218903 -2.15625 -1.9218903 -6.375q0 -2.046875 0.53126526 -3.703125q0.53125 -1.65625 1.515625 -2.796875q1.0 -1.15625 2.390625 -1.78125q1.40625 -0.625 3.15625 -0.625q1.1875 0 2.203125 0.203125q1.015625 0.203125 1.953125 0.609375l0 2.28125q-0.921875 -0.5 -1.921875 -0.765625q-0.984375 -0.265625 -2.15625 -0.265625q-1.203125 0 -2.171875 0.453125q-0.96875 0.4375 -1.640625 1.296875q-0.671875 0.84375 -1.046875 2.078125q-0.359375 1.234375 -0.359375 2.796875q0 3.3125 1.34375 5.0q1.34375 1.671875 3.921875 1.671875q1.09375 0 2.09375 -0.25q1.015625 -0.265625 1.9375 -0.71875l0 2.1875zm15.155731 -6.0q0 1.53125 -0.4375 2.796875q-0.421875 1.265625 -1.234375 2.171875q-0.796875 0.90625 -1.953125 1.40625q-1.15625 0.5 -2.625 0.5q-1.40625 0 -2.53125 -0.4375q-1.109375 -0.4375 -1.890625 -1.28125q-0.765625 -0.84375 -1.171875 -2.09375q-0.40625 -1.25 -0.40625 -2.875q0 -1.53125 0.421875 -2.78125q0.4375 -1.25 1.234375 -2.15625q0.8125 -0.90625 1.96875 -1.40625q1.15625 -0.5 2.625 -0.5q1.40625 0 2.515625 0.4375q1.125 0.421875 1.890625 1.265625q0.78125 0.84375 1.1875 2.09375q0.40625 1.25 0.40625 2.859375zm-2.3125 0.109375q0 -1.21875 -0.265625 -2.109375q-0.265625 -0.90625 -0.765625 -1.515625q-0.484375 -0.609375 -1.203125 -0.90625q-0.703125 -0.3125 -1.578125 -0.3125q-1.015625 0 -1.734375 0.40625q-0.71875 0.390625 -1.1875 1.0625q-0.46875 0.65625 -0.6875 1.53125q-0.203125 0.875 -0.203125 1.84375q0 1.203125 0.265625 2.125q0.265625 0.90625 0.75 1.515625q0.5 0.59375 1.203125 0.90625q0.703125 0.3125 1.59375 0.3125q1.015625 0 1.734375 -0.390625q0.71875 -0.40625 1.1875 -1.0625q0.46875 -0.671875 0.671875 -1.546875q0.21875 -0.890625 0.21875 -1.859375zm16.108856 6.53125l-2.03125 0l-0.078125 -2.109375q-0.59375 0.671875 -1.125 1.125q-0.515625 0.453125 -1.046875 0.734375q-0.515625 0.265625 -1.046875 0.375q-0.53125 0.109375 -1.109375 0.109375q-2.015625 0 -3.046875 -1.1875q-1.03125 -1.1875 -1.03125 -3.578125l0 -8.53125l2.265625 0l0 8.34375q0 3.015625 2.265625 3.015625q0.421875 0 0.8125 -0.125q0.40625 -0.125 0.828125 -0.421875q0.4375 -0.3125 0.9375 -0.828125q0.515625 -0.53125 1.140625 -1.328125l0 -8.65625l2.265625 0l0 13.0625zm4.140106 -13.0625l2.015625 0l0.09375 2.109375q0.578125 -0.6875 1.109375 -1.125q0.53125 -0.453125 1.046875 -0.71875q0.515625 -0.28125 1.046875 -0.390625q0.53125 -0.109375 1.109375 -0.109375q2.015625 0 3.046875 1.1875q1.046875 1.1875 1.046875 3.578125l0 8.53125l-2.265625 0l0 -8.34375q0 -1.53125 -0.578125 -2.265625q-0.578125 -0.734375 -1.703125 -0.734375q-0.421875 0 -0.828125 0.125q-0.390625 0.109375 -0.828125 0.421875q-0.421875 0.3125 -0.921875 0.828125q-0.5 0.515625 -1.125 1.296875l0 8.671875l-2.265625 0l0 -13.0625zm25.186981 12.875q-0.765625 0.203125 -1.59375 0.28125q-0.8125 0.09375 -1.65625 0.09375q-2.46875 0 -3.671875 -1.109375q-1.203125 -1.125 -1.203125 -3.421875l0 -6.828125l-3.671875 0l0 -1.890625l3.671875 0l0 -3.59375l2.25 -0.59375l0 4.1875l5.875 0l0 1.890625l-5.875 0l0 6.640625q0 1.40625 0.75 2.109375q0.75 0.6875 2.21875 0.6875q0.625 0 1.359375 -0.09375q0.75 -0.09375 1.546875 -0.3125l0 1.953125zm11.952606 5.65625q-6.0 -5.5625 -6.0 -12.28125q0 -1.578125 0.3125 -3.140625q0.328125 -1.578125 1.03125 -3.15625q0.71875 -1.578125 1.875 -3.140625q1.171875 -1.578125 2.828125 -3.125l1.3125 1.328125q-5.046875 4.984375 -5.046875 11.0625q0 3.015625 1.265625 5.796875q1.28125 2.78125 3.78125 5.265625l-1.359375 1.390625zm9.499481 -24.84375q6.0 5.546875 6.0 12.359375q0 1.40625 -0.296875 2.921875q-0.28125 1.5 -0.96875 3.09375q-0.6875 1.578125 -1.859375 3.203125q-1.15625 1.625 -2.921875 3.265625l-1.3125 -1.34375q2.53125 -2.515625 3.78125 -5.25q1.25 -2.734375 1.25 -5.71875q0 -6.203125 -5.03125 -11.140625l1.359375 -1.390625z" fill-rule="nonzero"/><path fill="#ffffff" d="m383.46457 225.61154l112.53543 0l0 49.795288l-112.53543 0z" fill-rule="evenodd"/><path fill="#000000" d="m415.32733 259.72717q-0.890625 0.34375 -1.828125 0.5q-0.921875 0.171875 -1.90625 0.171875q-3.09375 0 -4.765625 -1.671875q-1.671875 -1.6875 -1.671875 -4.921875q0 -1.546875 0.46875 -2.8125q0.484375 -1.265625 1.359375 -2.15625q0.875 -0.90625 2.078125 -1.390625q1.21875 -0.484375 2.671875 -0.484375q1.015625 0 1.890625 0.140625q0.890625 0.140625 1.703125 0.46875l0 2.15625q-0.84375 -0.4375 -1.734375 -0.640625q-0.875 -0.203125 -1.8125 -0.203125q-0.859375 0 -1.640625 0.34375q-0.765625 0.328125 -1.359375 0.953125q-0.578125 0.625 -0.921875 1.53125q-0.34375 0.890625 -0.34375 2.015625q0 2.375 1.15625 3.5625q1.15625 1.171875 3.1875 1.171875q0.9375 0 1.796875 -0.203125q0.859375 -0.21875 1.671875 -0.640625l0 2.109375zm15.874481 -6.15625q0 1.53125 -0.4375 2.796875q-0.421875 1.265625 -1.234375 2.171875q-0.796875 0.90625 -1.953125 1.40625q-1.15625 0.5 -2.625 0.5q-1.40625 0 -2.53125 -0.4375q-1.109375 -0.4375 -1.890625 -1.28125q-0.765625 -0.84375 -1.171875 -2.09375q-0.40625 -1.25 -0.40625 -2.875q0 -1.53125 0.421875 -2.78125q0.4375 -1.25 1.234375 -2.15625q0.8125 -0.90625 1.96875 -1.40625q1.15625 -0.5 2.625 -0.5q1.40625 0 2.515625 0.4375q1.125 0.421875 1.890625 1.265625q0.78125 0.84375 1.1875 2.09375q0.40625 1.25 0.40625 2.859375zm-2.3125 0.109375q0 -1.21875 -0.265625 -2.109375q-0.265625 -0.90625 -0.765625 -1.515625q-0.484375 -0.609375 -1.203125 -0.90625q-0.703125 -0.3125 -1.578125 -0.3125q-1.015625 0 -1.734375 0.40625q-0.71875 0.390625 -1.1875 1.0625q-0.46875 0.65625 -0.6875 1.53125q-0.203125 0.875 -0.203125 1.84375q0 1.203125 0.265625 2.125q0.265625 0.90625 0.75 1.515625q0.5 0.59375 1.203125 0.90625q0.703125 0.3125 1.59375 0.3125q1.015625 0 1.734375 -0.390625q0.71875 -0.40625 1.1875 -1.0625q0.46875 -0.671875 0.671875 -1.546875q0.21875 -0.890625 0.21875 -1.859375zm16.108856 6.53125l-2.03125 0l-0.078125 -2.109375q-0.59375 0.671875 -1.125 1.125q-0.515625 0.453125 -1.046875 0.734375q-0.515625 0.265625 -1.046875 0.375q-0.53125 0.109375 -1.109375 0.109375q-2.015625 0 -3.046875 -1.1875q-1.03125 -1.1875 -1.03125 -3.578125l0 -8.53125l2.265625 0l0 8.34375q0 3.015625 2.265625 3.015625q0.421875 0 0.8125 -0.125q0.40625 -0.125 0.828125 -0.421875q0.4375 -0.3125 0.9375 -0.828125q0.515625 -0.53125 1.140625 -1.328125l0 -8.65625l2.265625 0l0 13.0625zm4.140106 -13.0625l2.015625 0l0.09375 2.109375q0.578125 -0.6875 1.109375 -1.125q0.53125 -0.453125 1.046875 -0.71875q0.515625 -0.28125 1.046875 -0.390625q0.53125 -0.109375 1.109375 -0.109375q2.015625 0 3.046875 1.1875q1.046875 1.1875 1.046875 3.578125l0 8.53125l-2.265625 0l0 -8.34375q0 -1.53125 -0.578125 -2.265625q-0.578125 -0.734375 -1.703125 -0.734375q-0.421875 0 -0.828125 0.125q-0.390625 0.109375 -0.828125 0.421875q-0.421875 0.3125 -0.921875 0.828125q-0.5 0.515625 -1.125 1.296875l0 8.671875l-2.265625 0l0 -13.0625zm25.186981 12.875q-0.765625 0.203125 -1.59375 0.28125q-0.8125 0.09375 -1.65625 0.09375q-2.46875 0 -3.671875 -1.109375q-1.203125 -1.125 -1.203125 -3.421875l0 -6.828125l-3.671875 0l0 -1.890625l3.671875 0l0 -3.59375l2.25 -0.59375l0 4.1875l5.875 0l0 1.890625l-5.875 0l0 6.640625q0 1.40625 0.75 2.109375q0.75 0.6875 2.21875 0.6875q0.625 0 1.359375 -0.09375q0.75 -0.09375 1.546875 -0.3125l0 1.953125z" fill-rule="nonzero"/><path fill="#cfe2f3" d="m561.7743 353.56168l0 0c0 -27.43158 48.268616 -49.66928 107.811035 -49.66928l0 0c59.54236 0 107.810974 22.237701 107.810974 49.66928l0 0c0 27.43161 -48.268616 49.66928 -107.810974 49.66928l0 0c-59.54242 0 -107.811035 -22.23767 -107.811035 -49.66928z" fill-rule="evenodd"/><path stroke="#000000" stroke-width="1.0" stroke-linejoin="round" stroke-linecap="butt" d="m561.7743 353.56168l0 0c0 -27.43158 48.268616 -49.66928 107.811035 -49.66928l0 0c59.54236 0 107.810974 22.237701 107.810974 49.66928l0 0c0 27.43161 -48.268616 49.66928 -107.810974 49.66928l0 0c-59.54242 0 -107.811035 -22.23767 -107.811035 -49.66928z" fill-rule="evenodd"/><path fill="#000000" d="m634.41736 347.16418q-0.796875 0.3125 -1.640625 0.453125q-0.828125 0.15625 -1.71875 0.15625q-2.796875 0 -4.296875 -1.515625q-1.5 -1.515625 -1.5 -4.421875q0 -1.390625 0.421875 -2.53125q0.4375 -1.140625 1.21875 -1.9375q0.796875 -0.8125 1.875 -1.25q1.09375 -0.453125 2.40625 -0.453125q0.921875 0 1.71875 0.140625q0.796875 0.125 1.515625 0.421875l0 1.9375q-0.765625 -0.390625 -1.5625 -0.578125q-0.78125 -0.1875 -1.625 -0.1875q-0.78125 0 -1.484375 0.3125q-0.6875 0.296875 -1.21875 0.859375q-0.53125 0.5625 -0.84375 1.375q-0.296875 0.796875 -0.296875 1.8125q0 2.140625 1.03125 3.203125q1.046875 1.0625 2.890625 1.0625q0.828125 0 1.609375 -0.1875q0.78125 -0.1875 1.5 -0.5625l0 1.890625zm14.3046875 -5.546875q0 1.375 -0.390625 2.515625q-0.390625 1.140625 -1.125 1.96875q-0.71875 0.8125 -1.765625 1.265625q-1.03125 0.453125 -2.359375 0.453125q-1.265625 0 -2.265625 -0.390625q-1.0 -0.40625 -1.703125 -1.15625q-0.703125 -0.765625 -1.078125 -1.890625q-0.359375 -1.125 -0.359375 -2.59375q0 -1.375 0.390625 -2.5q0.390625 -1.140625 1.109375 -1.953125q0.734375 -0.8125 1.765625 -1.265625q1.046875 -0.453125 2.375 -0.453125q1.265625 0 2.265625 0.40625q1.0 0.390625 1.6875 1.140625q0.703125 0.75 1.078125 1.875q0.375 1.125 0.375 2.578125zm-2.09375 0.09375q0 -1.078125 -0.25 -1.890625q-0.234375 -0.828125 -0.6875 -1.359375q-0.4375 -0.546875 -1.078125 -0.828125q-0.625 -0.28125 -1.421875 -0.28125q-0.90625 0 -1.5625 0.359375q-0.640625 0.359375 -1.0625 0.96875q-0.421875 0.59375 -0.609375 1.390625q-0.1875 0.78125 -0.1875 1.640625q0 1.09375 0.234375 1.921875q0.234375 0.8125 0.671875 1.359375q0.453125 0.546875 1.078125 0.828125q0.640625 0.265625 1.4375 0.265625q0.921875 0 1.5625 -0.359375q0.65625 -0.359375 1.0625 -0.953125q0.421875 -0.59375 0.609375 -1.375q0.203125 -0.796875 0.203125 -1.6875zm13.4296875 5.890625l0 -8.453125q0 -0.546875 -0.046875 -0.890625q-0.03125 -0.359375 -0.125 -0.5625q-0.078125 -0.203125 -0.21875 -0.28125q-0.140625 -0.09375 -0.328125 -0.09375q-0.234375 0 -0.4375 0.140625q-0.203125 0.140625 -0.4375 0.46875q-0.21875 0.3125 -0.5 0.828125q-0.265625 0.515625 -0.640625 1.28125l0 7.5625l-1.875 0l0 -8.234375q0 -0.640625 -0.046875 -1.03125q-0.03125 -0.40625 -0.125 -0.625q-0.078125 -0.21875 -0.21875 -0.296875q-0.140625 -0.09375 -0.34375 -0.09375q-0.203125 0 -0.390625 0.125q-0.1875 0.109375 -0.421875 0.421875q-0.234375 0.296875 -0.515625 0.828125q-0.28125 0.53125 -0.65625 1.34375l0 7.5625l-1.875 0l0 -11.765625l1.546875 0l0.09375 2.234375q0.3125 -0.671875 0.59375 -1.140625q0.296875 -0.46875 0.59375 -0.75q0.3125 -0.28125 0.65625 -0.421875q0.34375 -0.140625 0.765625 -0.140625q0.953125 0 1.4375 0.625q0.5 0.625 0.5 1.921875q0.28125 -0.609375 0.546875 -1.078125q0.265625 -0.484375 0.578125 -0.796875q0.3125 -0.328125 0.6875 -0.5q0.375 -0.171875 0.859375 -0.171875q2.21875 0 2.21875 3.421875l0 8.5625l-1.875 0zm13.1953125 0l0 -8.453125q0 -0.546875 -0.046875 -0.890625q-0.03125 -0.359375 -0.125 -0.5625q-0.078125 -0.203125 -0.21875 -0.28125q-0.140625 -0.09375 -0.328125 -0.09375q-0.234375 0 -0.4375 0.140625q-0.203125 0.140625 -0.4375 0.46875q-0.21875 0.3125 -0.5 0.828125q-0.265625 0.515625 -0.640625 1.28125l0 7.5625l-1.875 0l0 -8.234375q0 -0.640625 -0.046875 -1.03125q-0.03125 -0.40625 -0.125 -0.625q-0.078125 -0.21875 -0.21875 -0.296875q-0.140625 -0.09375 -0.34375 -0.09375q-0.203125 0 -0.390625 0.125q-0.1875 0.109375 -0.421875 0.421875q-0.234375 0.296875 -0.515625 0.828125q-0.28125 0.53125 -0.65625 1.34375l0 7.5625l-1.875 0l0 -11.765625l1.546875 0l0.09375 2.234375q0.3125 -0.671875 0.59375 -1.140625q0.296875 -0.46875 0.59375 -0.75q0.3125 -0.28125 0.65625 -0.421875q0.34375 -0.140625 0.765625 -0.140625q0.953125 0 1.4375 0.625q0.5 0.625 0.5 1.921875q0.28125 -0.609375 0.546875 -1.078125q0.265625 -0.484375 0.578125 -0.796875q0.3125 -0.328125 0.6875 -0.5q0.375 -0.171875 0.859375 -0.171875q2.21875 0 2.21875 3.421875l0 8.5625l-1.875 0zm14.7421875 -6.5q0 0.421875 -0.015625 0.71875q0 0.296875 -0.03125 0.546875l-8.265625 0q0 1.8125 1.0 2.78125q1.015625 0.96875 2.921875 0.96875q0.515625 0 1.03125 -0.046875q0.515625 -0.046875 0.984375 -0.109375q0.484375 -0.078125 0.921875 -0.15625q0.453125 -0.09375 0.828125 -0.203125l0 1.6875q-0.84375 0.234375 -1.890625 0.375q-1.046875 0.15625 -2.171875 0.15625q-1.515625 0 -2.609375 -0.40625q-1.078125 -0.421875 -1.78125 -1.203125q-0.6875 -0.78125 -1.03125 -1.90625q-0.328125 -1.140625 -0.328125 -2.5625q0 -1.25 0.359375 -2.34375q0.359375 -1.109375 1.03125 -1.953125q0.6875 -0.84375 1.6875 -1.328125q1.0 -0.5 2.265625 -0.5q1.234375 0 2.171875 0.390625q0.953125 0.390625 1.59375 1.109375q0.65625 0.703125 0.984375 1.71875q0.34375 1.0 0.34375 2.265625zm-2.125 -0.296875q0.046875 -0.78125 -0.140625 -1.4375q-0.1875 -0.65625 -0.59375 -1.125q-0.390625 -0.46875 -0.984375 -0.71875q-0.578125 -0.265625 -1.34375 -0.265625q-0.671875 0 -1.21875 0.265625q-0.546875 0.25 -0.953125 0.71875q-0.390625 0.46875 -0.640625 1.125q-0.25 0.65625 -0.3125 1.4375l6.1875 0zm5.3828125 -4.96875l1.8125 0l0.09375 1.890625q0.515625 -0.609375 0.984375 -1.0q0.484375 -0.40625 0.9375 -0.65625q0.46875 -0.25 0.953125 -0.34375q0.484375 -0.109375 1.0 -0.109375q1.8125 0 2.734375 1.078125q0.9375 1.078125 0.9375 3.234375l0 7.671875l-2.03125 0l0 -7.515625q0 -1.375 -0.515625 -2.03125q-0.515625 -0.671875 -1.53125 -0.671875q-0.375 0 -0.734375 0.109375q-0.359375 0.109375 -0.75 0.390625q-0.390625 0.265625 -0.84375 0.734375q-0.4375 0.46875 -1.0 1.171875l0 7.8125l-2.046875 0l0 -11.765625zm22.679688 11.59375q-0.6875 0.1875 -1.4375 0.265625q-0.734375 0.078125 -1.5 0.078125q-2.203125 0 -3.296875 -1.0q-1.09375 -1.015625 -1.09375 -3.09375l0 -6.140625l-3.296875 0l0 -1.703125l3.296875 0l0 -3.234375l2.046875 -0.53125l0 3.765625l5.28125 0l0 1.703125l-5.28125 0l0 5.984375q0 1.265625 0.671875 1.890625q0.671875 0.625 1.984375 0.625q0.5625 0 1.21875 -0.078125q0.671875 -0.09375 1.40625 -0.28125l0 1.75z" fill-rule="nonzero"/><path fill="#000000" d="m647.39 364.41418l10.6875 0l0 1.5l-10.6875 0l0 -1.5zm0 5.71875l10.6875 0l0 1.5l-10.6875 0l0 -1.5z" fill-rule="nonzero"/><path fill="#000000" d="m676.46814 361.50793q-0.59375 -0.015625 -1.15625 0.109375q-0.5625 0.109375 -1.0 0.359375q-0.421875 0.25 -0.6875 0.625q-0.25 0.375 -0.25 0.875q0 0.484375 0.171875 0.796875q0.171875 0.296875 0.375 0.5625q0.21875 0.25 0.375 0.546875q0.171875 0.296875 0.171875 0.78125q0 0.234375 -0.09375 0.515625q-0.09375 0.265625 -0.28125 0.484375q-0.1875 0.21875 -0.5 0.359375q-0.296875 0.140625 -0.703125 0.140625q-0.421875 0 -0.796875 -0.15625q-0.375 -0.171875 -0.671875 -0.515625q-0.28125 -0.359375 -0.453125 -0.890625q-0.15625 -0.53125 -0.15625 -1.234375q0 -0.96875 0.34375 -1.875q0.359375 -0.90625 1.0625 -1.578125q0.703125 -0.6875 1.765625 -1.09375q1.0625 -0.421875 2.484375 -0.421875l0 1.609375zm5.5703125 4.5625q0.59375 0.015625 1.15625 -0.109375q0.5625 -0.125 0.984375 -0.375q0.4375 -0.25 0.6875 -0.625q0.265625 -0.375 0.265625 -0.859375q0 -0.5 -0.171875 -0.796875q-0.171875 -0.3125 -0.390625 -0.5625q-0.203125 -0.265625 -0.375 -0.546875q-0.171875 -0.296875 -0.171875 -0.78125q0 -0.265625 0.09375 -0.515625q0.09375 -0.265625 0.28125 -0.484375q0.203125 -0.234375 0.5 -0.375q0.296875 -0.140625 0.703125 -0.140625q0.421875 0 0.796875 0.171875q0.375 0.171875 0.65625 0.515625q0.296875 0.34375 0.46875 0.875q0.171875 0.53125 0.171875 1.234375q0 0.984375 -0.359375 1.875q-0.359375 0.890625 -1.078125 1.59375q-0.703125 0.6875 -1.765625 1.09375q-1.046875 0.40625 -2.453125 0.40625l0 -1.59375z" fill-rule="nonzero"/><path fill="#000000" fill-opacity="0.0" d="m737.7113 315.89764l0 -128.28348" fill-rule="evenodd"/><path stroke="#000000" stroke-width="4.0" stroke-linejoin="round" stroke-linecap="butt" d="m737.7113 315.89764l0 -114.57512" fill-rule="evenodd"/><path fill="#000000" stroke="#000000" stroke-width="4.0" stroke-linecap="butt" d="m737.7113 201.32253l4.498291 4.4983215l-4.498291 -12.35907l-4.498352 12.35907z" fill-rule="evenodd"/><path fill="#000000" fill-opacity="0.0" d="m601.43976 190.1792l-0.56695557 124.06299" fill-rule="evenodd"/><path stroke="#000000" stroke-width="4.0" stroke-linejoin="round" stroke-linecap="butt" d="m601.43976 190.1792l-0.5043335 110.35477" fill-rule="evenodd"/><path fill="#000000" stroke="#000000" stroke-width="4.0" stroke-linecap="butt" d="m600.9355 300.534l-4.477722 -4.51886l4.4417725 12.379517l4.5547485 -12.338409z" fill-rule="evenodd"/><path fill="#ffffff" d="m500.2047 225.61417l200.78741 0l0 49.795288l-200.78741 0z" fill-rule="evenodd"/><path fill="#000000" d="m525.10156 256.65167q0 0.6875 -0.234375 1.234375q-0.234375 0.546875 -0.640625 0.96875q-0.40625 0.421875 -0.9375 0.71875q-0.53125 0.296875 -1.140625 0.5q-0.609375 0.1875 -1.25 0.28125q-0.640625 0.09375 -1.25 0.09375q-1.328125 0 -2.4375 -0.125q-1.109375 -0.109375 -2.171875 -0.375l0 -2.078125q1.140625 0.328125 2.265625 0.5q1.140625 0.171875 2.25 0.171875q1.640625 0 2.421875 -0.4375q0.78125 -0.453125 0.78125 -1.28125q0 -0.34375 -0.125 -0.625q-0.125 -0.28125 -0.453125 -0.53125q-0.328125 -0.25 -1.015625 -0.515625q-0.671875 -0.28125 -1.859375 -0.640625q-0.890625 -0.265625 -1.640625 -0.59375q-0.75 -0.328125 -1.296875 -0.78125q-0.546875 -0.453125 -0.859375 -1.0625q-0.3125 -0.625 -0.3125 -1.453125q0 -0.546875 0.25 -1.1875q0.265625 -0.65625 0.875 -1.21875q0.609375 -0.5625 1.65625 -0.921875q1.046875 -0.375 2.59375 -0.375q0.78125 0 1.71875 0.078125q0.9375 0.078125 1.953125 0.296875l0 2.015625q-1.078125 -0.265625 -2.03125 -0.390625q-0.953125 -0.125 -1.65625 -0.125q-0.84375 0 -1.421875 0.140625q-0.578125 0.125 -0.9375 0.359375q-0.359375 0.21875 -0.515625 0.53125q-0.15625 0.296875 -0.15625 0.65625q0 0.34375 0.125 0.640625q0.140625 0.28125 0.515625 0.546875q0.375 0.265625 1.03125 0.53125q0.671875 0.265625 1.734375 0.578125q1.15625 0.34375 1.953125 0.71875q0.796875 0.359375 1.28125 0.828125q0.5 0.453125 0.71875 1.03125q0.21875 0.5625 0.21875 1.296875zm15.343201 -3.65625q0 0.484375 -0.015625 0.8125q-0.015625 0.3125 -0.046875 0.59375l-9.171875 0q0 2.015625 1.109375 3.09375q1.125 1.0625 3.234375 1.0625q0.578125 0 1.140625 -0.046875q0.578125 -0.046875 1.109375 -0.125q0.546875 -0.078125 1.03125 -0.171875q0.484375 -0.09375 0.90625 -0.21875l0 1.875q-0.921875 0.25 -2.09375 0.40625q-1.171875 0.171875 -2.421875 0.171875q-1.671875 0 -2.890625 -0.453125q-1.203125 -0.453125 -1.984375 -1.3125q-0.765625 -0.875 -1.140625 -2.125q-0.375 -1.265625 -0.375 -2.859375q0 -1.375 0.390625 -2.59375q0.40625 -1.234375 1.171875 -2.15625q0.765625 -0.9375 1.859375 -1.484375q1.109375 -0.546875 2.515625 -0.546875q1.375 0 2.421875 0.4375q1.0625 0.421875 1.78125 1.203125q0.71875 0.78125 1.09375 1.921875q0.375 1.125 0.375 2.515625zm-2.359375 -0.328125q0.03125 -0.875 -0.171875 -1.59375q-0.203125 -0.71875 -0.640625 -1.234375q-0.4375 -0.53125 -1.09375 -0.828125q-0.640625 -0.296875 -1.5 -0.296875q-0.75 0 -1.359375 0.296875q-0.609375 0.28125 -1.0625 0.8125q-0.4375 0.515625 -0.71875 1.25q-0.265625 0.71875 -0.328125 1.59375l6.875 0zm16.499512 7.359375q-0.765625 0.203125 -1.59375 0.28125q-0.8125 0.09375 -1.65625 0.09375q-2.46875 0 -3.671875 -1.109375q-1.203125 -1.125 -1.203125 -3.421875l0 -6.828125l-3.671875 0l0 -1.890625l3.671875 0l0 -3.59375l2.25 -0.59375l0 4.1875l5.875 0l0 1.890625l-5.875 0l0 6.640625q0 1.40625 0.75 2.109375q0.75 0.6875 2.21875 0.6875q0.625 0 1.359375 -0.09375q0.75 -0.09375 1.546875 -0.3125l0 1.953125zm14.999451 -0.453125q-2.046875 0.84375 -4.28125 0.84375q-3.609375 0 -5.546875 -2.140625q-1.921875 -2.15625 -1.921875 -6.375q0 -2.046875 0.53125 -3.703125q0.53125 -1.65625 1.515625 -2.796875q1.0 -1.15625 2.390625 -1.78125q1.40625 -0.625 3.15625 -0.625q1.1875 0 2.203125 0.203125q1.015625 0.203125 1.953125 0.609375l0 2.28125q-0.921875 -0.5 -1.921875 -0.765625q-0.984375 -0.265625 -2.15625 -0.265625q-1.203125 0 -2.171875 0.453125q-0.96875 0.4375 -1.640625 1.296875q-0.671875 0.84375 -1.046875 2.078125q-0.359375 1.234375 -0.359375 2.796875q0 3.3125 1.34375 5.0q1.34375 1.671875 3.921875 1.671875q1.09375 0 2.09375 -0.25q1.015625 -0.265625 1.9375 -0.71875l0 2.1875zm15.155762 -6.0q0 1.53125 -0.4375 2.796875q-0.421875 1.265625 -1.234375 2.171875q-0.796875 0.90625 -1.953125 1.40625q-1.15625 0.5 -2.625 0.5q-1.40625 0 -2.53125 -0.4375q-1.109375 -0.4375 -1.890625 -1.28125q-0.765625 -0.84375 -1.171875 -2.09375q-0.40625 -1.25 -0.40625 -2.875q0 -1.53125 0.421875 -2.78125q0.4375 -1.25 1.234375 -2.15625q0.8125 -0.90625 1.96875 -1.40625q1.15625 -0.5 2.625 -0.5q1.40625 0 2.515625 0.4375q1.125 0.421875 1.890625 1.265625q0.78125 0.84375 1.1875 2.09375q0.40625 1.25 0.40625 2.859375zm-2.3125 0.109375q0 -1.21875 -0.265625 -2.109375q-0.265625 -0.90625 -0.765625 -1.515625q-0.484375 -0.609375 -1.203125 -0.90625q-0.703125 -0.3125 -1.578125 -0.3125q-1.015625 0 -1.734375 0.40625q-0.71875 0.390625 -1.1875 1.0625q-0.46875 0.65625 -0.6875 1.53125q-0.203125 0.875 -0.203125 1.84375q0 1.203125 0.265625 2.125q0.265625 0.90625 0.75 1.515625q0.5 0.59375 1.203125 0.90625q0.703125 0.3125 1.59375 0.3125q1.015625 0 1.734375 -0.390625q0.71875 -0.40625 1.1875 -1.0625q0.46875 -0.671875 0.671875 -1.546875q0.21875 -0.890625 0.21875 -1.859375zm14.921326 6.53125l0 -9.390625q0 -0.609375 -0.046875 -1.0q-0.046875 -0.390625 -0.15625 -0.609375q-0.09375 -0.234375 -0.25 -0.328125q-0.140625 -0.09375 -0.359375 -0.09375q-0.265625 0 -0.484375 0.15625q-0.21875 0.15625 -0.46875 0.515625q-0.25 0.34375 -0.5625 0.9375q-0.3125 0.578125 -0.71875 1.421875l0 8.390625l-2.078125 0l0 -9.140625q0 -0.71875 -0.046875 -1.15625q-0.03125 -0.4375 -0.140625 -0.6875q-0.09375 -0.25 -0.25 -0.34375q-0.15625 -0.09375 -0.375 -0.09375q-0.234375 0 -0.453125 0.140625q-0.203125 0.125 -0.453125 0.46875q-0.25 0.328125 -0.5625 0.921875q-0.3125 0.578125 -0.75 1.5l0 8.390625l-2.078125 0l0 -13.0625l1.734375 0l0.09375 2.484375q0.34375 -0.75 0.65625 -1.265625q0.328125 -0.515625 0.65625 -0.828125q0.34375 -0.328125 0.71875 -0.46875q0.390625 -0.15625 0.859375 -0.15625q1.0625 0 1.609375 0.6875q0.546875 0.6875 0.546875 2.125q0.3125 -0.671875 0.609375 -1.1875q0.296875 -0.53125 0.640625 -0.890625q0.34375 -0.359375 0.765625 -0.546875q0.421875 -0.1875 0.96875 -0.1875q2.453125 0 2.453125 3.78125l0 9.515625l-2.078125 0zm14.655762 0l0 -9.390625q0 -0.609375 -0.046875 -1.0q-0.046875 -0.390625 -0.15625 -0.609375q-0.09375 -0.234375 -0.25 -0.328125q-0.140625 -0.09375 -0.359375 -0.09375q-0.265625 0 -0.484375 0.15625q-0.21875 0.15625 -0.46875 0.515625q-0.25 0.34375 -0.5625 0.9375q-0.3125 0.578125 -0.71875 1.421875l0 8.390625l-2.078125 0l0 -9.140625q0 -0.71875 -0.046875 -1.15625q-0.03125 -0.4375 -0.140625 -0.6875q-0.09375 -0.25 -0.25 -0.34375q-0.15625 -0.09375 -0.375 -0.09375q-0.234375 0 -0.453125 0.140625q-0.203125 0.125 -0.453125 0.46875q-0.25 0.328125 -0.5625 0.921875q-0.3125 0.578125 -0.75 1.5l0 8.390625l-2.078125 0l0 -13.0625l1.734375 0l0.09375 2.484375q0.34375 -0.75 0.65625 -1.265625q0.328125 -0.515625 0.65625 -0.828125q0.34375 -0.328125 0.71875 -0.46875q0.390625 -0.15625 0.859375 -0.15625q1.0625 0 1.609375 0.6875q0.546875 0.6875 0.546875 2.125q0.3125 -0.671875 0.609375 -1.1875q0.296875 -0.53125 0.640625 -0.890625q0.34375 -0.359375 0.765625 -0.546875q0.421875 -0.1875 0.96875 -0.1875q2.453125 0 2.453125 3.78125l0 9.515625l-2.078125 0zm16.37445 -7.21875q0 0.484375 -0.015625 0.8125q-0.015625 0.3125 -0.046875 0.59375l-9.171875 0q0 2.015625 1.109375 3.09375q1.125 1.0625 3.234375 1.0625q0.578125 0 1.140625 -0.046875q0.578125 -0.046875 1.109375 -0.125q0.546875 -0.078125 1.03125 -0.171875q0.484375 -0.09375 0.90625 -0.21875l0 1.875q-0.921875 0.25 -2.09375 0.40625q-1.171875 0.171875 -2.421875 0.171875q-1.671875 0 -2.890625 -0.453125q-1.203125 -0.453125 -1.984375 -1.3125q-0.765625 -0.875 -1.140625 -2.125q-0.375 -1.265625 -0.375 -2.859375q0 -1.375 0.390625 -2.59375q0.40625 -1.234375 1.171875 -2.15625q0.765625 -0.9375 1.859375 -1.484375q1.109375 -0.546875 2.515625 -0.546875q1.375 0 2.421875 0.4375q1.0625 0.421875 1.78125 1.203125q0.71875 0.78125 1.09375 1.921875q0.375 1.125 0.375 2.515625zm-2.359375 -0.328125q0.03125 -0.875 -0.171875 -1.59375q-0.203125 -0.71875 -0.640625 -1.234375q-0.4375 -0.53125 -1.09375 -0.828125q-0.640625 -0.296875 -1.5 -0.296875q-0.75 0 -1.359375 0.296875q-0.609375 0.28125 -1.0625 0.8125q-0.4375 0.515625 -0.71875 1.25q-0.265625 0.71875 -0.328125 1.59375l6.875 0zm5.9682617 -5.515625l2.015625 0l0.09375 2.109375q0.578125 -0.6875 1.109375 -1.125q0.53125 -0.453125 1.046875 -0.71875q0.515625 -0.28125 1.046875 -0.390625q0.53125 -0.109375 1.109375 -0.109375q2.015625 0 3.046875 1.1875q1.046875 1.1875 1.046875 3.578125l0 8.53125l-2.265625 0l0 -8.34375q0 -1.53125 -0.578125 -2.265625q-0.578125 -0.734375 -1.703125 -0.734375q-0.421875 0 -0.828125 0.125q-0.390625 0.109375 -0.828125 0.421875q-0.421875 0.3125 -0.921875 0.828125q-0.5 0.515625 -1.125 1.296875l0 8.671875l-2.265625 0l0 -13.0625zm25.18695 12.875q-0.765625 0.203125 -1.59375 0.28125q-0.8125 0.09375 -1.65625 0.09375q-2.46875 0 -3.671875 -1.109375q-1.203125 -1.125 -1.203125 -3.421875l0 -6.828125l-3.671875 0l0 -1.890625l3.671875 0l0 -3.59375l2.25 -0.59375l0 4.1875l5.875 0l0 1.890625l-5.875 0l0 6.640625q0 1.40625 0.75 2.109375q0.75 0.6875 2.21875 0.6875q0.625 0 1.359375 -0.09375q0.75 -0.09375 1.546875 -0.3125l0 1.953125zm11.952637 5.65625q-6.0 -5.5625 -6.0 -12.28125q0 -1.578125 0.3125 -3.140625q0.328125 -1.578125 1.03125 -3.15625q0.71875 -1.578125 1.875 -3.140625q1.171875 -1.578125 2.828125 -3.125l1.3125 1.328125q-5.046875 4.984375 -5.046875 11.0625q0 3.015625 1.265625 5.796875q1.28125 2.78125 3.78125 5.265625l-1.359375 1.390625zm9.499451 -24.84375q6.0 5.546875 6.0 12.359375q0 1.40625 -0.296875 2.921875q-0.28125 1.5 -0.96875 3.09375q-0.6875 1.578125 -1.859375 3.203125q-1.15625 1.625 -2.921875 3.265625l-1.3125 -1.34375q2.53125 -2.515625 3.78125 -5.25q1.25 -2.734375 1.25 -5.71875q0 -6.203125 -5.03125 -11.140625l1.359375 -1.390625z" fill-rule="nonzero"/><path fill="#ffffff" d="m692.6562 225.61154l133.22833 0l0 49.795288l-133.22833 0z" fill-rule="evenodd"/><path fill="#000000" d="m720.20966 259.72717q-0.890625 0.34375 -1.828125 0.5q-0.921875 0.171875 -1.90625 0.171875q-3.09375 0 -4.765625 -1.671875q-1.671875 -1.6875 -1.671875 -4.921875q0 -1.546875 0.46875 -2.8125q0.484375 -1.265625 1.359375 -2.15625q0.875 -0.90625 2.078125 -1.390625q1.21875 -0.484375 2.671875 -0.484375q1.015625 0 1.890625 0.140625q0.890625 0.140625 1.703125 0.46875l0 2.15625q-0.84375 -0.4375 -1.734375 -0.640625q-0.875 -0.203125 -1.8125 -0.203125q-0.859375 0 -1.640625 0.34375q-0.765625 0.328125 -1.359375 0.953125q-0.578125 0.625 -0.921875 1.53125q-0.34375 0.890625 -0.34375 2.015625q0 2.375 1.15625 3.5625q1.15625 1.171875 3.1875 1.171875q0.9375 0 1.796875 -0.203125q0.859375 -0.21875 1.671875 -0.640625l0 2.109375zm15.874512 -6.15625q0 1.53125 -0.4375 2.796875q-0.421875 1.265625 -1.234375 2.171875q-0.796875 0.90625 -1.953125 1.40625q-1.15625 0.5 -2.625 0.5q-1.40625 0 -2.53125 -0.4375q-1.109375 -0.4375 -1.890625 -1.28125q-0.765625 -0.84375 -1.171875 -2.09375q-0.40625 -1.25 -0.40625 -2.875q0 -1.53125 0.421875 -2.78125q0.4375 -1.25 1.234375 -2.15625q0.8125 -0.90625 1.96875 -1.40625q1.15625 -0.5 2.625 -0.5q1.40625 0 2.515625 0.4375q1.125 0.421875 1.890625 1.265625q0.78125 0.84375 1.1875 2.09375q0.40625 1.25 0.40625 2.859375zm-2.3125 0.109375q0 -1.21875 -0.265625 -2.109375q-0.265625 -0.90625 -0.765625 -1.515625q-0.484375 -0.609375 -1.203125 -0.90625q-0.703125 -0.3125 -1.578125 -0.3125q-1.015625 0 -1.734375 0.40625q-0.71875 0.390625 -1.1875 1.0625q-0.46875 0.65625 -0.6875 1.53125q-0.203125 0.875 -0.203125 1.84375q0 1.203125 0.265625 2.125q0.265625 0.90625 0.75 1.515625q0.5 0.59375 1.203125 0.90625q0.703125 0.3125 1.59375 0.3125q1.015625 0 1.734375 -0.390625q0.71875 -0.40625 1.1875 -1.0625q0.46875 -0.671875 0.671875 -1.546875q0.21875 -0.890625 0.21875 -1.859375zm14.921326 6.53125l0 -9.390625q0 -0.609375 -0.046875 -1.0q-0.046875 -0.390625 -0.15625 -0.609375q-0.09375 -0.234375 -0.25 -0.328125q-0.140625 -0.09375 -0.359375 -0.09375q-0.265625 0 -0.484375 0.15625q-0.21875 0.15625 -0.46875 0.515625q-0.25 0.34375 -0.5625 0.9375q-0.3125 0.578125 -0.71875 1.421875l0 8.390625l-2.078125 0l0 -9.140625q0 -0.71875 -0.046875 -1.15625q-0.03125 -0.4375 -0.140625 -0.6875q-0.09375 -0.25 -0.25 -0.34375q-0.15625 -0.09375 -0.375 -0.09375q-0.234375 0 -0.453125 0.140625q-0.203125 0.125 -0.453125 0.46875q-0.25 0.328125 -0.5625 0.921875q-0.3125 0.578125 -0.75 1.5l0 8.390625l-2.078125 0l0 -13.0625l1.734375 0l0.09375 2.484375q0.34375 -0.75 0.65625 -1.265625q0.328125 -0.515625 0.65625 -0.828125q0.34375 -0.328125 0.71875 -0.46875q0.390625 -0.15625 0.859375 -0.15625q1.0625 0 1.609375 0.6875q0.546875 0.6875 0.546875 2.125q0.3125 -0.671875 0.609375 -1.1875q0.296875 -0.53125 0.640625 -0.890625q0.34375 -0.359375 0.765625 -0.546875q0.421875 -0.1875 0.96875 -0.1875q2.453125 0 2.453125 3.78125l0 9.515625l-2.078125 0zm14.655762 0l0 -9.390625q0 -0.609375 -0.046875 -1.0q-0.046875 -0.390625 -0.15625 -0.609375q-0.09375 -0.234375 -0.25 -0.328125q-0.140625 -0.09375 -0.359375 -0.09375q-0.265625 0 -0.484375 0.15625q-0.21875 0.15625 -0.46875 0.515625q-0.25 0.34375 -0.5625 0.9375q-0.3125 0.578125 -0.71875 1.421875l0 8.390625l-2.078125 0l0 -9.140625q0 -0.71875 -0.046875 -1.15625q-0.03125 -0.4375 -0.140625 -0.6875q-0.09375 -0.25 -0.25 -0.34375q-0.15625 -0.09375 -0.375 -0.09375q-0.234375 0 -0.453125 0.140625q-0.203125 0.125 -0.453125 0.46875q-0.25 0.328125 -0.5625 0.921875q-0.3125 0.578125 -0.75 1.5l0 8.390625l-2.078125 0l0 -13.0625l1.734375 0l0.09375 2.484375q0.34375 -0.75 0.65625 -1.265625q0.328125 -0.515625 0.65625 -0.828125q0.34375 -0.328125 0.71875 -0.46875q0.390625 -0.15625 0.859375 -0.15625q1.0625 0 1.609375 0.6875q0.546875 0.6875 0.546875 2.125q0.3125 -0.671875 0.609375 -1.1875q0.296875 -0.53125 0.640625 -0.890625q0.34375 -0.359375 0.765625 -0.546875q0.421875 -0.1875 0.96875 -0.1875q2.453125 0 2.453125 3.78125l0 9.515625l-2.078125 0zm16.37445 -7.21875q0 0.484375 -0.015625 0.8125q-0.015625 0.3125 -0.046875 0.59375l-9.171875 0q0 2.015625 1.109375 3.09375q1.125 1.0625 3.234375 1.0625q0.578125 0 1.140625 -0.046875q0.578125 -0.046875 1.109375 -0.125q0.546875 -0.078125 1.03125 -0.171875q0.484375 -0.09375 0.90625 -0.21875l0 1.875q-0.921875 0.25 -2.09375 0.40625q-1.171875 0.171875 -2.421875 0.171875q-1.671875 0 -2.890625 -0.453125q-1.203125 -0.453125 -1.984375 -1.3125q-0.765625 -0.875 -1.140625 -2.125q-0.375 -1.265625 -0.375 -2.859375q0 -1.375 0.390625 -2.59375q0.40625 -1.234375 1.171875 -2.15625q0.765625 -0.9375 1.859375 -1.484375q1.109375 -0.546875 2.515625 -0.546875q1.375 0 2.421875 0.4375q1.0625 0.421875 1.78125 1.203125q0.71875 0.78125 1.09375 1.921875q0.375 1.125 0.375 2.515625zm-2.359375 -0.328125q0.03125 -0.875 -0.171875 -1.59375q-0.203125 -0.71875 -0.640625 -1.234375q-0.4375 -0.53125 -1.09375 -0.828125q-0.640625 -0.296875 -1.5 -0.296875q-0.75 0 -1.359375 0.296875q-0.609375 0.28125 -1.0625 0.8125q-0.4375 0.515625 -0.71875 1.25q-0.265625 0.71875 -0.328125 1.59375l6.875 0zm5.9682617 -5.515625l2.015625 0l0.09375 2.109375q0.578125 -0.6875 1.109375 -1.125q0.53125 -0.453125 1.046875 -0.71875q0.515625 -0.28125 1.046875 -0.390625q0.53125 -0.109375 1.109375 -0.109375q2.015625 0 3.046875 1.1875q1.046875 1.1875 1.046875 3.578125l0 8.53125l-2.265625 0l0 -8.34375q0 -1.53125 -0.578125 -2.265625q-0.578125 -0.734375 -1.703125 -0.734375q-0.421875 0 -0.828125 0.125q-0.390625 0.109375 -0.828125 0.421875q-0.421875 0.3125 -0.921875 0.828125q-0.5 0.515625 -1.125 1.296875l0 8.671875l-2.265625 0l0 -13.0625zm25.18695 12.875q-0.765625 0.203125 -1.59375 0.28125q-0.8125 0.09375 -1.65625 0.09375q-2.46875 0 -3.671875 -1.109375q-1.203125 -1.125 -1.203125 -3.421875l0 -6.828125l-3.671875 0l0 -1.890625l3.671875 0l0 -3.59375l2.25 -0.59375l0 4.1875l5.875 0l0 1.890625l-5.875 0l0 6.640625q0 1.40625 0.75 2.109375q0.75 0.6875 2.21875 0.6875q0.625 0 1.359375 -0.09375q0.75 -0.09375 1.546875 -0.3125l0 1.953125z" fill-rule="nonzero"/><path fill="#cfe2f3" d="m848.2861 358.32285l0 0c0 -24.804993 71.68384 -44.91339 160.11023 -44.91339l0 0c88.42645 0 160.11029 20.108398 160.11029 44.91339l0 0c0 24.804962 -71.68384 44.91336 -160.11029 44.91336l0 0c-88.42639 0 -160.11023 -20.108398 -160.11023 -44.91336z" fill-rule="evenodd"/><path stroke="#000000" stroke-width="1.0" stroke-linejoin="round" stroke-linecap="butt" d="m848.2861 358.32285l0 0c0 -24.804993 71.68384 -44.91339 160.11023 -44.91339l0 0c88.42645 0 160.11029 20.108398 160.11029 44.91339l0 0c0 24.804962 -71.68384 44.91336 -160.11029 44.91336l0 0c-88.42639 0 -160.11023 -20.108398 -160.11023 -44.91336z" fill-rule="evenodd"/><path fill="#000000" d="m983.2869 346.7222q0 -1.5 0.40625 -2.65625q0.40625 -1.171875 1.15625 -1.96875q0.765625 -0.8125 1.828125 -1.21875q1.0625 -0.421875 2.359375 -0.421875q0.5625 0 1.109375 0.078125q0.546875 0.0625 1.078125 0.21875l0 -4.953125l2.046875 0l0 16.5625l-1.828125 0l-0.078125 -2.234375q-0.84375 1.25 -1.84375 1.859375q-1.0 0.59375 -2.15625 0.59375q-1.015625 0 -1.78125 -0.421875q-0.765625 -0.4375 -1.28125 -1.203125q-0.5 -0.765625 -0.765625 -1.84375q-0.25 -1.078125 -0.25 -2.390625zm2.078125 -0.125q0 2.125 0.625 3.1875q0.640625 1.046875 1.78125 1.046875q0.78125 0 1.640625 -0.6875q0.859375 -0.703125 1.8125 -2.0625l0 -5.453125q-0.515625 -0.234375 -1.125 -0.359375q-0.609375 -0.125 -1.203125 -0.125q-1.65625 0 -2.59375 1.078125q-0.9375 1.078125 -0.9375 3.375zm19.273438 5.765625l-0.046875 -1.578125q-0.96875 0.9375 -1.953125 1.375q-0.984375 0.421875 -2.078125 0.421875q-1.015625 0 -1.734375 -0.265625q-0.703125 -0.265625 -1.171875 -0.703125q-0.453125 -0.453125 -0.671875 -1.0625q-0.21875 -0.609375 -0.21875 -1.328125q0 -1.765625 1.3125 -2.765625q1.328125 -1.015625 3.90625 -1.015625l2.4375 0l0 -1.03125q0 -1.03125 -0.671875 -1.65625q-0.671875 -0.640625 -2.046875 -0.640625q-0.984375 0 -1.953125 0.234375q-0.96875 0.21875 -2.0 0.625l0 -1.84375q0.390625 -0.140625 0.859375 -0.265625q0.46875 -0.140625 1.0 -0.234375q0.53125 -0.109375 1.09375 -0.171875q0.578125 -0.078125 1.171875 -0.078125q1.0625 0 1.921875 0.234375q0.859375 0.234375 1.4375 0.71875q0.59375 0.484375 0.90625 1.21875q0.328125 0.71875 0.328125 1.703125l0 8.109375l-1.828125 0zm-0.21875 -5.359375l-2.59375 0q-0.765625 0 -1.3125 0.15625q-0.546875 0.15625 -0.90625 0.4375q-0.34375 0.28125 -0.515625 0.671875q-0.171875 0.390625 -0.171875 0.875q0 0.34375 0.09375 0.65625q0.109375 0.3125 0.34375 0.5625q0.234375 0.234375 0.609375 0.375q0.375 0.140625 0.921875 0.140625q0.703125 0 1.609375 -0.421875q0.90625 -0.4375 1.921875 -1.359375l0 -2.09375zm15.3359375 5.1875q-0.6875 0.1875 -1.4375 0.265625q-0.734375 0.078125 -1.5 0.078125q-2.203125 0 -3.296875 -1.0q-1.09375 -1.015625 -1.09375 -3.09375l0 -6.140625l-3.296875 0l0 -1.703125l3.296875 0l0 -3.234375l2.046875 -0.53125l0 3.765625l5.28125 0l0 1.703125l-5.28125 0l0 5.984375q0 1.265625 0.671875 1.890625q0.671875 0.625 1.984375 0.625q0.5625 0 1.21875 -0.078125q0.671875 -0.09375 1.40625 -0.28125l0 1.75zm13.648499 -6.328125q0 0.421875 -0.015625 0.71875q0 0.296875 -0.03125 0.546875l-8.265625 0q0 1.8125 1.0 2.78125q1.015625 0.96875 2.921875 0.96875q0.515625 0 1.03125 -0.046875q0.515625 -0.046875 0.984375 -0.109375q0.484375 -0.078125 0.921875 -0.15625q0.453125 -0.09375 0.828125 -0.203125l0 1.6875q-0.84375 0.234375 -1.890625 0.375q-1.046875 0.15625 -2.171875 0.15625q-1.515625 0 -2.609375 -0.40625q-1.078125 -0.421875 -1.78125 -1.203125q-0.68756104 -0.78125 -1.031311 -1.90625q-0.328125 -1.140625 -0.328125 -2.5625q0 -1.25 0.359375 -2.34375q0.359375 -1.109375 1.031311 -1.953125q0.6875 -0.84375 1.6875 -1.328125q1.0 -0.5 2.265625 -0.5q1.234375 0 2.171875 0.390625q0.953125 0.390625 1.59375 1.109375q0.65625 0.703125 0.984375 1.71875q0.34375 1.0 0.34375 2.265625zm-2.125 -0.296875q0.046875 -0.78125 -0.140625 -1.4375q-0.1875 -0.65625 -0.59375 -1.125q-0.390625 -0.46875 -0.984375 -0.71875q-0.578125 -0.265625 -1.34375 -0.265625q-0.671875 0 -1.21875 0.265625q-0.546875 0.25 -0.953125 0.71875q-0.390625 0.46875 -0.640625 1.125q-0.25 0.65625 -0.3125 1.4375l6.1875 0z" fill-rule="nonzero"/><path fill="#000000" d="m913.6268 369.17532l10.6875 0l0 1.5l-10.6875 0l0 -1.5zm0 5.71875l10.6875 0l0 1.5l-10.6875 0l0 -1.5z" fill-rule="nonzero"/><path fill="#000000" d="m943.9705 381.36282l-9.625 0l0 -1.90625l3.9375 0l0 -11.171875l-3.671875 1.984375l-0.75 -1.734375l4.875 -2.5625l1.8125 0l0 13.484375l3.421875 0l0 1.90625zm12.9296875 -4.90625q0 1.140625 -0.5 2.078125q-0.484375 0.9375 -1.34375 1.609375q-0.859375 0.671875 -2.03125 1.0625q-1.171875 0.375 -2.53125 0.375q-0.34375 0 -0.734375 -0.03125q-0.390625 -0.015625 -0.78125 -0.046875q-0.375 -0.015625 -0.75 -0.0625q-0.375 -0.03125 -0.65625 -0.078125l0 -1.859375q0.625 0.15625 1.4375 0.234375q0.8125 0.0625 1.65625 0.0625q0.9375 0 1.6875 -0.21875q0.75 -0.21875 1.265625 -0.640625q0.53125 -0.421875 0.8125 -1.0q0.28125 -0.59375 0.28125 -1.34375q0 -1.421875 -1.03125 -2.0625q-1.015625 -0.65625 -2.9375 -0.65625l-2.90625 0l0 -7.828125l8.25 0l0 1.78125l-6.328125 0l0 4.296875l1.328125 0q1.109375 0 2.140625 0.203125q1.046875 0.1875 1.859375 0.6875q0.828125 0.5 1.3125 1.34375q0.5 0.828125 0.5 2.09375zm13.5859375 1.0625q0 0.96875 -0.40625 1.734375q-0.390625 0.75 -1.109375 1.265625q-0.703125 0.515625 -1.6875 0.796875q-0.96875 0.265625 -2.109375 0.265625q-1.25 0 -2.203125 -0.28125q-0.953125 -0.296875 -1.609375 -0.796875q-0.640625 -0.5 -0.96875 -1.1875q-0.328125 -0.703125 -0.328125 -1.53125q0 -1.40625 0.78125 -2.421875q0.796875 -1.015625 2.4375 -1.859375q-1.5 -0.75 -2.203125 -1.6875q-0.6875 -0.9375 -0.6875 -2.140625q0 -0.734375 0.296875 -1.421875q0.3125 -0.703125 0.921875 -1.234375q0.625 -0.546875 1.546875 -0.859375q0.9375 -0.328125 2.1875 -0.328125q1.1875 0 2.078125 0.25q0.890625 0.25 1.5 0.71875q0.609375 0.46875 0.90625 1.140625q0.3125 0.671875 0.3125 1.484375q0 1.34375 -0.75 2.28125q-0.734375 0.9375 -2.109375 1.640625q0.6875 0.34375 1.265625 0.75q0.59375 0.40625 1.015625 0.921875q0.4375 0.5 0.671875 1.125q0.25 0.609375 0.25 1.375zm-2.421875 -7.921875q0 -1.046875 -0.734375 -1.546875q-0.734375 -0.515625 -2.0625 -0.515625q-1.3125 0 -2.046875 0.5q-0.71875 0.5 -0.71875 1.515625q0 0.453125 0.171875 0.84375q0.171875 0.390625 0.53125 0.734375q0.375 0.328125 0.921875 0.65625q0.5625 0.328125 1.328125 0.671875q1.3125 -0.625 1.953125 -1.296875q0.65625 -0.671875 0.65625 -1.5625zm0.203125 8.078125q0 -0.4375 -0.140625 -0.84375q-0.140625 -0.421875 -0.5 -0.8125q-0.359375 -0.40625 -0.96875 -0.796875q-0.609375 -0.40625 -1.546875 -0.828125q-0.796875 0.390625 -1.34375 0.78125q-0.546875 0.375 -0.890625 0.765625q-0.328125 0.390625 -0.46875 0.8125q-0.140625 0.421875 -0.140625 0.890625q0 0.53125 0.234375 0.9375q0.234375 0.40625 0.625 0.6875q0.40625 0.28125 0.953125 0.421875q0.546875 0.140625 1.1875 0.140625q0.625 0 1.171875 -0.125q0.5625 -0.140625 0.953125 -0.40625q0.40625 -0.265625 0.640625 -0.65625q0.234375 -0.40625 0.234375 -0.96875zm15.3359375 -9.734375l-6.421875 13.421875l-2.328125 0l6.65625 -13.421875l-8.265625 0l0 -1.890625l10.359375 0l0 1.890625zm14.0390625 10.03125l-2.609375 0l0 3.390625l-2.09375 0l0 -3.390625l-7.375 0l0 -1.796875l6.53125 -10.125l2.9375 0l0 10.125l2.609375 0l0 1.796875zm-4.703125 -9.953125l-5.328125 8.15625l5.328125 0l0 -8.15625zm16.742188 8.4375q0 1.140625 -0.5 2.078125q-0.484375 0.9375 -1.34375 1.609375q-0.859375 0.671875 -2.03125 1.0625q-1.171875 0.375 -2.53125 0.375q-0.34375 0 -0.734375 -0.03125q-0.390625 -0.015625 -0.78125 -0.046875q-0.375 -0.015625 -0.75 -0.0625q-0.375 -0.03125 -0.65625 -0.078125l0 -1.859375q0.625 0.15625 1.4375 0.234375q0.8125 0.0625 1.65625 0.0625q0.9375 0 1.6875 -0.21875q0.75 -0.21875 1.265625 -0.640625q0.53125 -0.421875 0.8125 -1.0q0.28125 -0.59375 0.28125 -1.34375q0 -1.421875 -1.03125 -2.0625q-1.015625 -0.65625 -2.9375 -0.65625l-2.90625 0l0 -7.828125l8.25 0l0 1.78125l-6.328125 0l0 4.296875l1.328125 0q1.109375 0 2.140625 0.203125q1.046875 0.1875 1.859375 0.6875q0.828125 0.5 1.3125 1.34375q0.5 0.828125 0.5 2.09375zm13.5078125 -3.609375q0 2.234375 -0.546875 3.84375q-0.53125 1.609375 -1.59375 2.65625q-1.046875 1.03125 -2.609375 1.53125q-1.5625 0.484375 -3.59375 0.484375l-1.28125 0l0 -1.78125l1.421875 0q1.515625 0 2.609375 -0.296875q1.109375 -0.3125 1.828125 -0.90625q0.734375 -0.59375 1.125 -1.4375q0.390625 -0.859375 0.484375 -1.9375l0.046875 -0.484375q-0.734375 0.4375 -1.703125 0.703125q-0.953125 0.25 -2.078125 0.25q-1.171875 0 -2.046875 -0.328125q-0.875 -0.34375 -1.453125 -0.953125q-0.578125 -0.609375 -0.875 -1.4375q-0.296875 -0.84375 -0.296875 -1.828125q0 -1.078125 0.390625 -2.0q0.390625 -0.921875 1.078125 -1.609375q0.703125 -0.6875 1.671875 -1.078125q0.96875 -0.40625 2.140625 -0.40625q1.140625 0 2.109375 0.375q0.96875 0.375 1.671875 1.21875q0.703125 0.828125 1.09375 2.171875q0.40625 1.328125 0.40625 3.25zm-5.375 -5.34375q-0.65625 0 -1.21875 0.21875q-0.546875 0.21875 -0.953125 0.640625q-0.40625 0.40625 -0.640625 1.015625q-0.234375 0.609375 -0.234375 1.40625q0 0.703125 0.171875 1.265625q0.171875 0.5625 0.53125 0.96875q0.359375 0.390625 0.921875 0.609375q0.5625 0.203125 1.328125 0.203125q0.4375 0 0.890625 -0.078125q0.46875 -0.09375 0.90625 -0.234375q0.453125 -0.140625 0.84375 -0.328125q0.40625 -0.1875 0.71875 -0.390625q0 -1.515625 -0.234375 -2.53125q-0.21875 -1.015625 -0.640625 -1.625q-0.421875 -0.625 -1.03125 -0.875q-0.59375 -0.265625 -1.359375 -0.265625zm18.570374 5.34375q0 2.234375 -0.546875 3.84375q-0.53125 1.609375 -1.59375 2.65625q-1.046875 1.03125 -2.609375 1.53125q-1.5625 0.484375 -3.59375 0.484375l-1.28125 0l0 -1.78125l1.421875 0q1.515625 0 2.609375 -0.296875q1.109375 -0.3125 1.828125 -0.90625q0.734375 -0.59375 1.125 -1.4375q0.390625 -0.859375 0.484375 -1.9375l0.046875 -0.484375q-0.734375 0.4375 -1.703125 0.703125q-0.953125 0.25 -2.078125 0.25q-1.171875 0 -2.046875 -0.328125q-0.875 -0.34375 -1.453125 -0.953125q-0.578125 -0.609375 -0.875 -1.4375q-0.296875 -0.84375 -0.296875 -1.828125q0 -1.078125 0.390625 -2.0q0.390625 -0.921875 1.078125 -1.609375q0.703125 -0.6875 1.671875 -1.078125q0.96875 -0.40625 2.140625 -0.40625q1.140625 0 2.109375 0.375q0.96875 0.375 1.671875 1.21875q0.703125 0.828125 1.09375 2.171875q0.40625 1.328125 0.40625 3.25zm-5.375 -5.34375q-0.65625 0 -1.21875 0.21875q-0.546875 0.21875 -0.953125 0.640625q-0.40625 0.40625 -0.640625 1.015625q-0.234375 0.609375 -0.234375 1.40625q0 0.703125 0.171875 1.265625q0.171875 0.5625 0.53125 0.96875q0.359375 0.390625 0.921875 0.609375q0.5625 0.203125 1.328125 0.203125q0.4375 0 0.890625 -0.078125q0.46875 -0.09375 0.90625 -0.234375q0.453125 -0.140625 0.84375 -0.328125q0.40625 -0.1875 0.71875 -0.390625q0 -1.515625 -0.234375 -2.53125q-0.21875 -1.015625 -0.640625 -1.625q-0.421875 -0.625 -1.03125 -0.875q-0.59375 -0.265625 -1.359375 -0.265625zm18.570312 5.34375q0 2.234375 -0.546875 3.84375q-0.53125 1.609375 -1.59375 2.65625q-1.046875 1.03125 -2.609375 1.53125q-1.5625 0.484375 -3.59375 0.484375l-1.28125 0l0 -1.78125l1.421875 0q1.515625 0 2.609375 -0.296875q1.109375 -0.3125 1.828125 -0.90625q0.734375 -0.59375 1.125 -1.4375q0.390625 -0.859375 0.484375 -1.9375l0.046875 -0.484375q-0.734375 0.4375 -1.703125 0.703125q-0.953125 0.25 -2.078125 0.25q-1.171875 0 -2.046875 -0.328125q-0.875 -0.34375 -1.453125 -0.953125q-0.578125 -0.609375 -0.875 -1.4375q-0.296875 -0.84375 -0.296875 -1.828125q0 -1.078125 0.390625 -2.0q0.390625 -0.921875 1.078125 -1.609375q0.703125 -0.6875 1.671875 -1.078125q0.96875 -0.40625 2.140625 -0.40625q1.140625 0 2.109375 0.375q0.96875 0.375 1.671875 1.21875q0.703125 0.828125 1.09375 2.171875q0.40625 1.328125 0.40625 3.25zm-5.375 -5.34375q-0.65625 0 -1.21875 0.21875q-0.546875 0.21875 -0.953125 0.640625q-0.40625 0.40625 -0.640625 1.015625q-0.234375 0.609375 -0.234375 1.40625q0 0.703125 0.171875 1.265625q0.171875 0.5625 0.53125 0.96875q0.359375 0.390625 0.921875 0.609375q0.5625 0.203125 1.328125 0.203125q0.4375 0 0.890625 -0.078125q0.46875 -0.09375 0.90625 -0.234375q0.453125 -0.140625 0.84375 -0.328125q0.40625 -0.1875 0.71875 -0.390625q0 -1.515625 -0.234375 -2.53125q-0.21875 -1.015625 -0.640625 -1.625q-0.421875 -0.625 -1.03125 -0.875q-0.59375 -0.265625 -1.359375 -0.265625zm18.523438 13.859375l-9.625 0l0 -1.90625l3.9375 0l0 -11.171875l-3.671875 1.984375l-0.75 -1.734375l4.875 -2.5625l1.8125 0l0 13.484375l3.421875 0l0 1.90625zm13.3203125 -3.84375q0 0.96875 -0.40625 1.734375q-0.390625 0.75 -1.109375 1.265625q-0.703125 0.515625 -1.6875 0.796875q-0.96875 0.265625 -2.109375 0.265625q-1.25 0 -2.203125 -0.28125q-0.953125 -0.296875 -1.609375 -0.796875q-0.640625 -0.5 -0.96875 -1.1875q-0.328125 -0.703125 -0.328125 -1.53125q0 -1.40625 0.78125 -2.421875q0.796875 -1.015625 2.4375 -1.859375q-1.5 -0.75 -2.203125 -1.6875q-0.6875 -0.9375 -0.6875 -2.140625q0 -0.734375 0.296875 -1.421875q0.3125 -0.703125 0.921875 -1.234375q0.625 -0.546875 1.546875 -0.859375q0.9375 -0.328125 2.1875 -0.328125q1.1875 0 2.078125 0.25q0.890625 0.25 1.5 0.71875q0.609375 0.46875 0.90625 1.140625q0.3125 0.671875 0.3125 1.484375q0 1.34375 -0.75 2.28125q-0.734375 0.9375 -2.109375 1.640625q0.6875 0.34375 1.265625 0.75q0.59375 0.40625 1.015625 0.921875q0.4375 0.5 0.671875 1.125q0.25 0.609375 0.25 1.375zm-2.421875 -7.921875q0 -1.046875 -0.734375 -1.546875q-0.734375 -0.515625 -2.0625 -0.515625q-1.3125 0 -2.046875 0.5q-0.71875 0.5 -0.71875 1.515625q0 0.453125 0.171875 0.84375q0.171875 0.390625 0.53125 0.734375q0.375 0.328125 0.921875 0.65625q0.5625 0.328125 1.328125 0.671875q1.3125 -0.625 1.953125 -1.296875q0.65625 -0.671875 0.65625 -1.5625zm0.203125 8.078125q0 -0.4375 -0.140625 -0.84375q-0.140625 -0.421875 -0.5 -0.8125q-0.359375 -0.40625 -0.96875 -0.796875q-0.609375 -0.40625 -1.546875 -0.828125q-0.796875 0.390625 -1.34375 0.78125q-0.546875 0.375 -0.890625 0.765625q-0.328125 0.390625 -0.46875 0.8125q-0.140625 0.421875 -0.140625 0.890625q0 0.53125 0.234375 0.9375q0.234375 0.40625 0.625 0.6875q0.40625 0.28125 0.953125 0.421875q0.546875 0.140625 1.1875 0.140625q0.625 0 1.171875 -0.125q0.5625 -0.140625 0.953125 -0.40625q0.40625 -0.265625 0.640625 -0.65625q0.234375 -0.40625 0.234375 -0.96875zm15.3359375 -4.828125q0 2.234375 -0.546875 3.84375q-0.53125 1.609375 -1.59375 2.65625q-1.046875 1.03125 -2.609375 1.53125q-1.5625 0.484375 -3.59375 0.484375l-1.28125 0l0 -1.78125l1.421875 0q1.515625 0 2.609375 -0.296875q1.109375 -0.3125 1.828125 -0.90625q0.734375 -0.59375 1.125 -1.4375q0.390625 -0.859375 0.484375 -1.9375l0.046875 -0.484375q-0.734375 0.4375 -1.703125 0.703125q-0.953125 0.25 -2.078125 0.25q-1.171875 0 -2.046875 -0.328125q-0.875 -0.34375 -1.453125 -0.953125q-0.578125 -0.609375 -0.875 -1.4375q-0.296875 -0.84375 -0.296875 -1.828125q0 -1.078125 0.390625 -2.0q0.390625 -0.921875 1.078125 -1.609375q0.703125 -0.6875 1.671875 -1.078125q0.96875 -0.40625 2.140625 -0.40625q1.140625 0 2.109375 0.375q0.96875 0.375 1.671875 1.21875q0.703125 0.828125 1.09375 2.171875q0.40625 1.328125 0.40625 3.25zm-5.375 -5.34375q-0.65625 0 -1.21875 0.21875q-0.546875 0.21875 -0.953125 0.640625q-0.40625 0.40625 -0.640625 1.015625q-0.234375 0.609375 -0.234375 1.40625q0 0.703125 0.171875 1.265625q0.171875 0.5625 0.53125 0.96875q0.359375 0.390625 0.921875 0.609375q0.5625 0.203125 1.328125 0.203125q0.4375 0 0.890625 -0.078125q0.46875 -0.09375 0.90625 -0.234375q0.453125 -0.140625 0.84375 -0.328125q0.40625 -0.1875 0.71875 -0.390625q0 -1.515625 -0.234375 -2.53125q-0.21875 -1.015625 -0.640625 -1.625q-0.421875 -0.625 -1.03125 -0.875q-0.59375 -0.265625 -1.359375 -0.265625zm18.648438 10.015625q0 0.96875 -0.40625 1.734375q-0.390625 0.75 -1.109375 1.265625q-0.703125 0.515625 -1.6875 0.796875q-0.96875 0.265625 -2.109375 0.265625q-1.25 0 -2.203125 -0.28125q-0.953125 -0.296875 -1.609375 -0.796875q-0.640625 -0.5 -0.96875 -1.1875q-0.328125 -0.703125 -0.328125 -1.53125q0 -1.40625 0.78125 -2.421875q0.796875 -1.015625 2.4375 -1.859375q-1.5 -0.75 -2.203125 -1.6875q-0.6875 -0.9375 -0.6875 -2.140625q0 -0.734375 0.296875 -1.421875q0.3125 -0.703125 0.921875 -1.234375q0.625 -0.546875 1.546875 -0.859375q0.9375 -0.328125 2.1875 -0.328125q1.1875 0 2.078125 0.25q0.890625 0.25 1.5 0.71875q0.609375 0.46875 0.90625 1.140625q0.3125 0.671875 0.3125 1.484375q0 1.34375 -0.75 2.28125q-0.734375 0.9375 -2.109375 1.640625q0.6875 0.34375 1.265625 0.75q0.59375 0.40625 1.015625 0.921875q0.4375 0.5 0.671875 1.125q0.25 0.609375 0.25 1.375zm-2.421875 -7.921875q0 -1.046875 -0.734375 -1.546875q-0.734375 -0.515625 -2.0625 -0.515625q-1.3125 0 -2.046875 0.5q-0.71875 0.5 -0.71875 1.515625q0 0.453125 0.171875 0.84375q0.171875 0.390625 0.53125 0.734375q0.375 0.328125 0.921875 0.65625q0.5625 0.328125 1.328125 0.671875q1.3125 -0.625 1.953125 -1.296875q0.65625 -0.671875 0.65625 -1.5625zm0.203125 8.078125q0 -0.4375 -0.140625 -0.84375q-0.140625 -0.421875 -0.5 -0.8125q-0.359375 -0.40625 -0.96875 -0.796875q-0.609375 -0.40625 -1.546875 -0.828125q-0.796875 0.390625 -1.34375 0.78125q-0.546875 0.375 -0.890625 0.765625q-0.328125 0.390625 -0.46875 0.8125q-0.140625 0.421875 -0.140625 0.890625q0 0.53125 0.234375 0.9375q0.234375 0.40625 0.625 0.6875q0.40625 0.28125 0.953125 0.421875q0.546875 0.140625 1.1875 0.140625q0.625 0 1.171875 -0.125q0.5625 -0.140625 0.953125 -0.40625q0.40625 -0.265625 0.640625 -0.65625q0.234375 -0.40625 0.234375 -0.96875z" fill-rule="nonzero"/><path fill="#000000" fill-opacity="0.0" d="m1080.3334 315.89764l0 -128.28348" fill-rule="evenodd"/><path stroke="#000000" stroke-width="4.0" stroke-linejoin="round" stroke-linecap="butt" d="m1080.3334 315.89764l0 -114.57512" fill-rule="evenodd"/><path fill="#000000" stroke="#000000" stroke-width="4.0" stroke-linecap="butt" d="m1080.3334 201.32253l4.498291 4.4983215l-4.498291 -12.35907l-4.498413 12.35907z" fill-rule="evenodd"/><path fill="#000000" fill-opacity="0.0" d="m944.0618 190.1792l-0.56695557 124.06299" fill-rule="evenodd"/><path stroke="#000000" stroke-width="4.0" stroke-linejoin="round" stroke-linecap="butt" d="m944.0618 190.1792l-0.50427246 110.35477" fill-rule="evenodd"/><path fill="#000000" stroke="#000000" stroke-width="4.0" stroke-linecap="butt" d="m943.55756 300.534l-4.477722 -4.51886l4.4417725 12.379517l4.5548096 -12.338409z" fill-rule="evenodd"/><path fill="#ffffff" d="m842.8268 225.61417l200.78735 0l0 49.795288l-200.78735 0z" fill-rule="evenodd"/><path fill="#000000" d="m889.70715 256.65167q0 0.6875 -0.234375 1.234375q-0.234375 0.546875 -0.640625 0.96875q-0.40625 0.421875 -0.9375 0.71875q-0.53125 0.296875 -1.140625 0.5q-0.609375 0.1875 -1.25 0.28125q-0.640625 0.09375 -1.25 0.09375q-1.328125 0 -2.4375 -0.125q-1.109375 -0.109375 -2.171875 -0.375l0 -2.078125q1.140625 0.328125 2.265625 0.5q1.140625 0.171875 2.25 0.171875q1.640625 0 2.421875 -0.4375q0.78125 -0.453125 0.78125 -1.28125q0 -0.34375 -0.125 -0.625q-0.125 -0.28125 -0.453125 -0.53125q-0.328125 -0.25 -1.015625 -0.515625q-0.671875 -0.28125 -1.859375 -0.640625q-0.890625 -0.265625 -1.640625 -0.59375q-0.75 -0.328125 -1.296875 -0.78125q-0.546875 -0.453125 -0.859375 -1.0625q-0.3125 -0.625 -0.3125 -1.453125q0 -0.546875 0.25 -1.1875q0.265625 -0.65625 0.875 -1.21875q0.609375 -0.5625 1.65625 -0.921875q1.046875 -0.375 2.59375 -0.375q0.78125 0 1.71875 0.078125q0.9375 0.078125 1.953125 0.296875l0 2.015625q-1.078125 -0.265625 -2.03125 -0.390625q-0.953125 -0.125 -1.65625 -0.125q-0.84375 0 -1.421875 0.140625q-0.578125 0.125 -0.9375 0.359375q-0.359375 0.21875 -0.515625 0.53125q-0.15625 0.296875 -0.15625 0.65625q0 0.34375 0.125 0.640625q0.140625 0.28125 0.515625 0.546875q0.375 0.265625 1.03125 0.53125q0.671875 0.265625 1.734375 0.578125q1.15625 0.34375 1.953125 0.71875q0.796875 0.359375 1.28125 0.828125q0.5 0.453125 0.71875 1.03125q0.21875 0.5625 0.21875 1.296875zm15.343262 -3.65625q0 0.484375 -0.015625 0.8125q-0.015625 0.3125 -0.046875 0.59375l-9.171875 0q0 2.015625 1.109375 3.09375q1.125 1.0625 3.234375 1.0625q0.578125 0 1.140625 -0.046875q0.578125 -0.046875 1.109375 -0.125q0.546875 -0.078125 1.03125 -0.171875q0.484375 -0.09375 0.90625 -0.21875l0 1.875q-0.921875 0.25 -2.09375 0.40625q-1.171875 0.171875 -2.421875 0.171875q-1.671875 0 -2.890625 -0.453125q-1.203125 -0.453125 -1.984375 -1.3125q-0.765625 -0.875 -1.140625 -2.125q-0.375 -1.265625 -0.375 -2.859375q0 -1.375 0.390625 -2.59375q0.40625 -1.234375 1.171875 -2.15625q0.765625 -0.9375 1.859375 -1.484375q1.109375 -0.546875 2.515625 -0.546875q1.375 0 2.421875 0.4375q1.0625 0.421875 1.78125 1.203125q0.71875 0.78125 1.09375 1.921875q0.375 1.125 0.375 2.515625zm-2.359375 -0.328125q0.03125 -0.875 -0.171875 -1.59375q-0.203125 -0.71875 -0.640625 -1.234375q-0.4375 -0.53125 -1.09375 -0.828125q-0.640625 -0.296875 -1.5 -0.296875q-0.75 0 -1.359375 0.296875q-0.609375 0.28125 -1.0625 0.8125q-0.4375 0.515625 -0.71875 1.25q-0.265625 0.71875 -0.328125 1.59375l6.875 0zm16.49945 7.359375q-0.765625 0.203125 -1.59375 0.28125q-0.8125 0.09375 -1.65625 0.09375q-2.46875 0 -3.671875 -1.109375q-1.203125 -1.125 -1.203125 -3.421875l0 -6.828125l-3.671875 0l0 -1.890625l3.671875 0l0 -3.59375l2.25 -0.59375l0 4.1875l5.875 0l0 1.890625l-5.875 0l0 6.640625q0 1.40625 0.75 2.109375q0.75 0.6875 2.21875 0.6875q0.625 0 1.359375 -0.09375q0.75 -0.09375 1.546875 -0.3125l0 1.953125zm15.749512 -8.5q0 1.21875 -0.1875 2.34375q-0.1875 1.109375 -0.609375 2.078125q-0.40625 0.953125 -1.078125 1.75q-0.65625 0.78125 -1.625 1.34375q-0.96875 0.5625 -2.25 0.875q-1.265625 0.296875 -2.890625 0.296875l-3.640625 0l0 -17.015625l4.390625 0q3.96875 0 5.921875 2.0625q1.96875 2.046875 1.96875 6.265625zm-2.4375 0.15625q0 -1.796875 -0.34375 -3.046875q-0.328125 -1.25 -1.015625 -2.015625q-0.6875 -0.78125 -1.734375 -1.125q-1.046875 -0.34375 -2.4375 -0.34375l-2.0 0l0 13.0625l1.734375 0q5.796875 0 5.796875 -6.53125zm13.874451 8.53125l-0.0625 -1.75q-1.0625 1.046875 -2.171875 1.515625q-1.09375 0.46875 -2.296875 0.46875q-1.125 0 -1.921875 -0.28125q-0.796875 -0.296875 -1.3125 -0.796875q-0.5 -0.5 -0.75 -1.171875q-0.234375 -0.671875 -0.234375 -1.46875q0 -1.96875 1.453125 -3.078125q1.46875 -1.109375 4.328125 -1.109375l2.71875 0l0 -1.15625q0 -1.15625 -0.75 -1.84375q-0.734375 -0.703125 -2.265625 -0.703125q-1.09375 0 -2.171875 0.25q-1.078125 0.25 -2.21875 0.703125l0 -2.046875q0.421875 -0.15625 0.953125 -0.296875q0.53125 -0.15625 1.109375 -0.265625q0.59375 -0.125 1.21875 -0.1875q0.640625 -0.078125 1.296875 -0.078125q1.1875 0 2.125 0.265625q0.953125 0.25 1.609375 0.78125q0.671875 0.53125 1.015625 1.34375q0.359375 0.8125 0.359375 1.90625l0 9.0l-2.03125 0zm-0.25 -5.953125l-2.875 0q-0.84375 0 -1.46875 0.171875q-0.609375 0.171875 -1.0 0.484375q-0.390625 0.3125 -0.578125 0.75q-0.1875 0.4375 -0.1875 0.984375q0 0.375 0.109375 0.71875q0.125 0.34375 0.375 0.609375q0.265625 0.265625 0.6875 0.421875q0.421875 0.15625 1.015625 0.15625q0.78125 0 1.78125 -0.46875q1.015625 -0.484375 2.140625 -1.5l0 -2.328125zm17.030762 5.765625q-0.765625 0.203125 -1.59375 0.28125q-0.8125 0.09375 -1.65625 0.09375q-2.46875 0 -3.671875 -1.109375q-1.203125 -1.125 -1.203125 -3.421875l0 -6.828125l-3.671875 0l0 -1.890625l3.671875 0l0 -3.59375l2.25 -0.59375l0 4.1875l5.875 0l0 1.890625l-5.875 0l0 6.640625q0 1.40625 0.75 2.109375q0.75 0.6875 2.21875 0.6875q0.625 0 1.359375 -0.09375q0.75 -0.09375 1.546875 -0.3125l0 1.953125zm15.171326 -7.03125q0 0.484375 -0.015625 0.8125q-0.015625 0.3125 -0.046875 0.59375l-9.171875 0q0 2.015625 1.109375 3.09375q1.125 1.0625 3.234375 1.0625q0.578125 0 1.140625 -0.046875q0.578125 -0.046875 1.109375 -0.125q0.546875 -0.078125 1.03125 -0.171875q0.484375 -0.09375 0.90625 -0.21875l0 1.875q-0.921875 0.25 -2.09375 0.40625q-1.171875 0.171875 -2.421875 0.171875q-1.671875 0 -2.890625 -0.453125q-1.203125 -0.453125 -1.984375 -1.3125q-0.765625 -0.875 -1.140625 -2.125q-0.375 -1.265625 -0.375 -2.859375q0 -1.375 0.390625 -2.59375q0.40625 -1.234375 1.171875 -2.15625q0.765625 -0.9375 1.859375 -1.484375q1.109375 -0.546875 2.515625 -0.546875q1.375 0 2.421875 0.4375q1.0625 0.421875 1.78125 1.203125q0.71875 0.78125 1.09375 1.921875q0.375 1.125 0.375 2.515625zm-2.359375 -0.328125q0.03125 -0.875 -0.171875 -1.59375q-0.203125 -0.71875 -0.640625 -1.234375q-0.4375 -0.53125 -1.09375 -0.828125q-0.640625 -0.296875 -1.5 -0.296875q-0.75 0 -1.359375 0.296875q-0.609375 0.28125 -1.0625 0.8125q-0.4375 0.515625 -0.71875 1.25q-0.265625 0.71875 -0.328125 1.59375l6.875 0zm13.796387 13.015625q-6.0 -5.5625 -6.0 -12.28125q0 -1.578125 0.3125 -3.140625q0.328125 -1.578125 1.03125 -3.15625q0.71875 -1.578125 1.875 -3.140625q1.171875 -1.578125 2.828125 -3.125l1.3125 1.328125q-5.046875 4.984375 -5.046875 11.0625q0 3.015625 1.265625 5.796875q1.28125 2.78125 3.78125 5.265625l-1.359375 1.390625zm9.499451 -24.84375q6.0 5.546875 6.0 12.359375q0 1.40625 -0.296875 2.921875q-0.28125 1.5 -0.96875 3.09375q-0.6875 1.578125 -1.859375 3.203125q-1.15625 1.625 -2.921875 3.265625l-1.3125 -1.34375q2.53125 -2.515625 3.78125 -5.25q1.25 -2.734375 1.25 -5.71875q0 -6.203125 -5.03125 -11.140625l1.359375 -1.390625z" fill-rule="nonzero"/><path fill="#ffffff" d="m1035.2782 225.61154l133.2284 0l0 49.795288l-133.2284 0z" fill-rule="evenodd"/><path fill="#000000" d="m1074.0028 253.94592q0 -1.65625 0.453125 -2.953125q0.453125 -1.296875 1.296875 -2.1875q0.84375 -0.890625 2.015625 -1.34375q1.171875 -0.46875 2.625 -0.46875q0.625 0 1.21875 0.078125q0.609375 0.078125 1.203125 0.234375l0 -5.484375l2.28125 0l0 18.390625l-2.03125 0l-0.078125 -2.46875q-0.953125 1.375 -2.0625 2.046875q-1.109375 0.65625 -2.390625 0.65625q-1.125 0 -1.984375 -0.46875q-0.84375 -0.46875 -1.421875 -1.3125q-0.5625 -0.859375 -0.84375 -2.046875q-0.28125 -1.203125 -0.28125 -2.671875zm2.3125 -0.140625q0 2.375 0.6875 3.546875q0.703125 1.15625 1.984375 1.15625q0.859375 0 1.8125 -0.765625q0.953125 -0.765625 2.015625 -2.28125l0 -6.0625q-0.5625 -0.265625 -1.25 -0.390625q-0.671875 -0.140625 -1.328125 -0.140625q-1.84375 0 -2.890625 1.203125q-1.03125 1.1875 -1.03125 3.734375zm21.405762 6.40625l-0.0625 -1.75q-1.0625 1.046875 -2.171875 1.515625q-1.09375 0.46875 -2.296875 0.46875q-1.125 0 -1.921875 -0.28125q-0.796875 -0.296875 -1.3125 -0.796875q-0.5 -0.5 -0.75 -1.171875q-0.234375 -0.671875 -0.234375 -1.46875q0 -1.96875 1.453125 -3.078125q1.46875 -1.109375 4.328125 -1.109375l2.71875 0l0 -1.15625q0 -1.15625 -0.75 -1.84375q-0.734375 -0.703125 -2.265625 -0.703125q-1.09375 0 -2.171875 0.25q-1.078125 0.25 -2.21875 0.703125l0 -2.046875q0.421875 -0.15625 0.953125 -0.296875q0.53125 -0.15625 1.109375 -0.265625q0.59375 -0.125 1.21875 -0.1875q0.640625 -0.078125 1.296875 -0.078125q1.1875 0 2.125 0.265625q0.953125 0.25 1.609375 0.78125q0.671875 0.53125 1.015625 1.34375q0.359375 0.8125 0.359375 1.90625l0 9.0l-2.03125 0zm-0.25 -5.953125l-2.875 0q-0.84375 0 -1.46875 0.171875q-0.609375 0.171875 -1.0 0.484375q-0.390625 0.3125 -0.578125 0.75q-0.1875 0.4375 -0.1875 0.984375q0 0.375 0.109375 0.71875q0.125 0.34375 0.375 0.609375q0.265625 0.265625 0.6875 0.421875q0.421875 0.15625 1.015625 0.15625q0.78125 0 1.78125 -0.46875q1.015625 -0.484375 2.140625 -1.5l0 -2.328125zm17.03064 5.765625q-0.765625 0.203125 -1.59375 0.28125q-0.8125 0.09375 -1.65625 0.09375q-2.46875 0 -3.671875 -1.109375q-1.203125 -1.125 -1.203125 -3.421875l0 -6.828125l-3.671875 0l0 -1.890625l3.671875 0l0 -3.59375l2.25 -0.59375l0 4.1875l5.875 0l0 1.890625l-5.875 0l0 6.640625q0 1.40625 0.75 2.109375q0.75 0.6875 2.21875 0.6875q0.625 0 1.359375 -0.09375q0.75 -0.09375 1.546875 -0.3125l0 1.953125zm15.171387 -7.03125q0 0.484375 -0.015625 0.8125q-0.015625 0.3125 -0.046875 0.59375l-9.171875 0q0 2.015625 1.109375 3.09375q1.125 1.0625 3.234375 1.0625q0.578125 0 1.140625 -0.046875q0.578125 -0.046875 1.109375 -0.125q0.546875 -0.078125 1.03125 -0.171875q0.484375 -0.09375 0.90625 -0.21875l0 1.875q-0.921875 0.25 -2.09375 0.40625q-1.171875 0.171875 -2.421875 0.171875q-1.671875 0 -2.890625 -0.453125q-1.203125 -0.453125 -1.984375 -1.3125q-0.765625 -0.875 -1.140625 -2.125q-0.375 -1.265625 -0.375 -2.859375q0 -1.375 0.390625 -2.59375q0.40625 -1.234375 1.171875 -2.15625q0.765625 -0.9375 1.859375 -1.484375q1.109375 -0.546875 2.515625 -0.546875q1.375 0 2.421875 0.4375q1.0625 0.421875 1.78125 1.203125q0.71875 0.78125 1.09375 1.921875q0.375 1.125 0.375 2.515625zm-2.359375 -0.328125q0.03125 -0.875 -0.171875 -1.59375q-0.203125 -0.71875 -0.640625 -1.234375q-0.4375 -0.53125 -1.09375 -0.828125q-0.640625 -0.296875 -1.5 -0.296875q-0.75 0 -1.359375 0.296875q-0.609375 0.28125 -1.0625 0.8125q-0.4375 0.515625 -0.71875 1.25q-0.265625 0.71875 -0.328125 1.59375l6.875 0z" fill-rule="nonzero"/></g></svg>