<svg version="1.1" viewBox="0.0 0.0 730.0341207349081 375.68503937007875" fill="none" stroke="none" stroke-linecap="square" stroke-miterlimit="10" xmlns:xlink="http://www.w3.org/1999/xlink" xmlns="http://www.w3.org/2000/svg"><clipPath id="p.0"><path d="m0 0l730.0341 0l0 375.68503l-730.0341 0l0 -375.68503z" clip-rule="nonzero"/></clipPath><g clip-path="url(#p.0)"><path fill="#000000" fill-opacity="0.0" d="m0 0l730.0341 0l0 375.68503l-730.0341 0z" fill-rule="evenodd"/><path fill="#d9d2e9" d="m233.28491 93.76857l143.46182 0l0 52.85913l-143.46182 0z" fill-rule="evenodd"/><path stroke="#000000" stroke-width="1.0" stroke-linejoin="round" stroke-linecap="butt" d="m233.28491 93.76857l143.46182 0l0 52.85913l-143.46182 0z" fill-rule="evenodd"/><path fill="#000000" d="m254.8127 124.36314l7.6874847 0l0 -8.1875l-7.6874847 0l0 -2.78125l10.562485 0l0 15.062508l-2.875 0l0 -1.3125076l-7.6874847 0l0 -2.78125zm12.437485 1.796875q4.78125 -0.90625 6.8125 -3.140625q1.90625 -2.0625 3.671875 -7.71875l2.640625 2.078125q-2.125 6.078125 -4.375 8.21875q-3.015625 2.8281326 -6.625 3.5468826q-0.6875 2.0625 -1.421875 -0.390625l-0.703125 -2.5937576zm3.9375 -7.625q-2.375 -3.28125 -3.640625 -4.546875l1.59375 -3.0625q1.734375 1.609375 3.9375 4.640625l-1.890625 2.96875zm18.0 -4.390625l5.25 0l0 2.78125l-5.25 0l0 13.125008l-2.875 0l0 -13.125008l-5.0625 0l0 -2.78125l5.0625 0l0 -5.40625l2.359375 0.25q2.296875 0.46875 0.515625 1.453125l0 3.703125zm-3.390625 5.109375q1.9375 0.828125 0.21875 1.328125q-0.703125 2.84375 -2.4375 6.984375l-2.84375 -1.765625q1.765625 -3.734375 2.859375 -7.65625l2.203125 1.109375zm5.5 -1.09375q2.71875 4.21875 3.890625 7.21875l-2.578125 2.3125q-1.46875 -3.84375 -3.421875 -7.421875l2.109375 -2.109375zm9.0 -9.6875q0.796875 0.8125 0.796875 1.859375q0 1.046875 -0.796875 1.859375q-0.8125 0.796875 -1.859375 0.796875q-1.046875 0 -1.859375 -0.796875q-0.796875 -0.8125 -0.796875 -1.859375q0 -1.046875 0.796875 -1.859375q0.8125 -0.796875 1.859375 -0.796875q1.046875 0 1.859375 0.796875zm-1.1875 2.53125q0.234375 -0.21875 0.234375 -0.671875q0 -0.453125 -0.234375 -0.671875q-0.21875 -0.234375 -0.671875 -0.234375q-0.453125 0 -0.671875 0.234375q-0.234375 0.21875 -0.234375 0.671875q0 0.453125 0.234375 0.671875q0.21875 0.234375 0.671875 0.234375q0.453125 0 0.671875 -0.234375zm2.671875 9.953125l0 -2.78125l14.3125 0l0 2.78125l-14.3125 0zm25.296875 -2.4375q2.25 1.65625 4.59375 4.09375l-1.625 3.125q-2.34375 -2.671875 -4.609375 -4.625l1.640625 -2.59375zm-10.25 4.484375q5.8125 -3.109375 8.078125 -7.1875l-5.859375 0.6875l-0.6875 -3.0625l4.234375 -0.296875l0 -4.3125l2.359375 0.25q2.25 0.5 0.515625 1.375l0 2.546875l1.46875 -0.078125l0.515625 -0.171875l1.4375 1.4375q1.5 1.515625 -0.25 1.515625q-0.90625 1.65625 -2.984375 4.265625l0 10.359383l-2.875 0l0 -7.3125076q-0.875 0.921875 -3.953125 2.796875l-2.0 -2.8125zm15.765625 3.15625q4.78125 -0.90625 6.8125 -3.140625q1.90625 -2.0625 3.671875 -7.71875l2.640625 2.078125q-2.125 6.078125 -4.375 8.21875q-3.015625 2.8281326 -6.625 3.5468826q-0.6875 2.0625 -1.421875 -0.390625l-0.703125 -2.5937576zm3.9375 -7.625q-2.375 -3.28125 -3.640625 -4.546875l1.59375 -3.0625q1.734375 1.609375 3.9375 4.640625l-1.890625 2.96875zm13.96875 -1.765625q2.765625 1.28125 5.71875 3.515625l-1.21875 3.25q-3.125 -2.5625 -4.5 -3.28125l0 9.421883l-2.875 0l0 -20.093758l2.359375 0.25q2.296875 0.46875 0.515625 1.453125l0 5.484375z" fill-rule="nonzero"/><path fill="#000000" fill-opacity="0.0" d="m137.28056 120.198135l96.00435 0" fill-rule="evenodd"/><path stroke="#000000" stroke-width="4.0" stroke-linejoin="round" stroke-linecap="butt" d="m137.28056 120.198135l82.29599 0" fill-rule="evenodd"/><path fill="#000000" stroke="#000000" stroke-width="4.0" stroke-linecap="butt" d="m219.57655 120.198135l-4.498337 4.498329l12.35907 -4.498329l-12.35907 -4.498337z" fill-rule="evenodd"/><path fill="#000000" fill-opacity="0.0" d="m376.5519 120.198135l96.004364 0" fill-rule="evenodd"/><path stroke="#000000" stroke-width="4.0" stroke-linejoin="round" stroke-linecap="butt" d="m376.5519 120.198135l82.29602 0" fill-rule="evenodd"/><path fill="#000000" stroke="#000000" stroke-width="4.0" stroke-linecap="butt" d="m458.84793 120.198135l-4.498352 4.498329l12.35907 -4.498329l-12.35907 -4.498337z" fill-rule="evenodd"/><path fill="#000000" fill-opacity="0.0" d="m92.76092 40.91601l119.290504 0l0 64.72917l-119.290504 0z" fill-rule="evenodd"/><path fill="#000000" d="m143.14055 63.33351q-0.5 6.15625 -1.640625 7.640625q-0.578125 0.734375 -1.890625 0.734375l-3.28125 0l-0.25 -1.5625l3.046875 0q0.890625 0 1.21875 -0.578125q0.65625 -1.0625 0.984375 -4.671875l-5.484375 0l-0.171875 0.828125l-1.71875 -0.25q0.90625 -3.9375 1.140625 -6.640625l6.15625 0l0 -2.625l-7.546875 0l0 -1.5625l9.1875 0l0 6.15625l-1.640625 0l0 -0.421875l-4.59375 0q-0.078125 0.5 -0.484375 2.953125l6.96875 0zm6.15625 8.21875l-1.640625 0l0 -17.15625l1.546875 0q0.65625 0.078125 0.09375 0.5l0 16.65625zm18.374985 -5.671875q1.140625 -2.21875 1.390625 -6.71875l-2.796875 0q0.25 4.5 1.40625 6.71875zm3.03125 -6.71875q-0.171875 5.078125 -1.96875 8.203125q1.3125 1.640625 3.6875 2.859375l-1.0625 1.8125q-2.625 -1.71875 -3.6875 -3.28125q-1.890625 2.140625 -5.828125 3.6875l-0.828125 -1.640625q4.265625 -1.71875 5.671875 -3.53125q-1.40625 -2.703125 -1.5625 -5.40625q-0.5 1.234375 -0.984375 1.890625l-1.390625 -1.078125q2.453125 -3.609375 2.953125 -8.9375l1.71875 0.40625q0.484375 0.328125 -0.25 0.5q-0.25 1.46875 -0.65625 2.953125l5.578125 0l0 1.5625l-1.390625 0zm-7.625 -3.9375q-0.5 1.21875 -1.15625 2.046875l-1.3125 -0.734375q0.65625 -1.078125 1.234375 -2.46875l1.46875 0.734375q0.328125 0.328125 -0.234375 0.421875zm-5.25 11.5625q1.140625 0.328125 2.046875 0.734375q0.65625 -0.734375 1.0625 -2.21875l-2.375 0q-0.328125 0.75 -0.734375 1.484375zm-1.1562347 2.046875l-1.3125 -0.734375q0.828125 -1.234375 1.6406097 -2.796875l-3.1093597 0l0 -1.3125l3.6093597 0q0.484375 -1.0625 0.734375 -1.796875l1.5625 0.40625q0.328125 0.328125 -0.25 0.40625l-0.5 0.984375l4.6875 0l0 1.3125l-1.234375 0q-0.40625 1.640625 -1.234375 2.796875q0.734375 0.328125 1.5625 0.8125l-0.734375 1.3125q-0.90625 -0.5625 -1.640625 -0.890625q-2.140625 2.125 -5.7499847 2.625l-0.578125 -1.484375q3.2031097 -0.328125 4.9218597 -1.796875q-0.890625 -0.421875 -1.796875 -0.75l-0.57810974 0.90625zm1.6406097 -15.421875l1.3125 0q0.65625 0.078125 0.078125 0.5l0 3.515625l4.1875 0l0 1.3125l-3.4375 0q0.890625 1.078125 2.78125 2.0625l-0.90625 1.390625q-1.390625 -0.828125 -2.625 -2.296875l0 1.96875l-1.390625 0l0 -1.5625q-1.3125 1.640625 -3.6093597 2.953125l-1.0625 -1.3125q2.546875 -1.3125 4.1874847 -3.203125l-3.7812347 0l0 -1.3125l4.2656097 0l0 -4.015625zm-2.2968597 3.78125q-0.578125 -1.234375 -1.46875 -2.140625l1.3125 -0.8125q0.98435974 0.984375 1.4687347 2.046875l-1.3124847 0.90625z" fill-rule="nonzero"/><path fill="#000000" d="m121.53572 98.03664q-4.109375 -3.859375 -4.109375 -8.9375q0 -5.09375 4.109375 -8.953125l0.90625 0.90625q-3.78125 3.53125 -3.78125 8.046875q0 4.5 3.78125 8.03125l-0.90625 0.90625z" fill-rule="nonzero"/><path fill="#000000" d="m133.69978 90.97414q0 1.40625 -0.390625 2.453125q-0.390625 1.03125 -1.078125 1.71875q-0.6875 0.6875 -1.625 1.03125q-0.9375 0.34375 -2.03125 0.34375q-0.5 0 -1.0 -0.0625q-0.5 -0.046875 -1.0 -0.171875l0 4.375l-1.8125 0l0 -14.71875l1.609375 0l0.109375 1.75q0.78125 -1.078125 1.671875 -1.5q0.890625 -0.4375 1.921875 -0.4375q0.890625 0 1.5625 0.375q0.6875 0.375 1.140625 1.0625q0.453125 0.671875 0.6875 1.640625q0.234375 0.953125 0.234375 2.140625zm-1.859375 0.09375q0 -0.828125 -0.125 -1.515625q-0.109375 -0.6875 -0.375 -1.171875q-0.265625 -0.5 -0.671875 -0.765625q-0.40625 -0.28125 -0.96875 -0.28125q-0.34375 0 -0.703125 0.109375q-0.34375 0.109375 -0.734375 0.375q-0.375 0.25 -0.796875 0.671875q-0.421875 0.421875 -0.890625 1.046875l0 5.0625q0.5 0.21875 1.046875 0.34375q0.546875 0.109375 1.078125 0.109375q1.46875 0 2.296875 -0.984375q0.84375 -1.0 0.84375 -3.0zm5.070053 -5.125l1.65625 0l0.046875 1.921875q0.9375 -1.109375 1.828125 -1.609375q0.90625 -0.5 1.828125 -0.5q1.625 0 2.453125 1.046875q0.84375 1.046875 0.78125 3.125l-1.828125 0q0.03125 -1.375 -0.40625 -1.984375q-0.4375 -0.625 -1.265625 -0.625q-0.359375 0 -0.734375 0.125q-0.375 0.125 -0.765625 0.421875q-0.390625 0.28125 -0.828125 0.734375q-0.4375 0.4375 -0.9375 1.078125l0 6.71875l-1.828125 0l0 -10.453125zm20.398178 5.140625q0 1.21875 -0.34375 2.234375q-0.34375 1.015625 -0.984375 1.75q-0.640625 0.71875 -1.578125 1.125q-0.921875 0.390625 -2.09375 0.390625q-1.125 0 -2.015625 -0.34375q-0.890625 -0.359375 -1.515625 -1.03125q-0.625 -0.671875 -0.953125 -1.671875q-0.328125 -1.0 -0.328125 -2.3125q0 -1.21875 0.34375 -2.21875q0.34375 -1.0 0.984375 -1.71875q0.65625 -0.734375 1.578125 -1.125q0.9375 -0.40625 2.109375 -0.40625q1.125 0 2.015625 0.34375q0.890625 0.34375 1.5 1.015625q0.625 0.671875 0.953125 1.671875q0.328125 1.0 0.328125 2.296875zm-1.84375 0.078125q0 -0.96875 -0.21875 -1.6875q-0.21875 -0.71875 -0.609375 -1.203125q-0.390625 -0.484375 -0.96875 -0.734375q-0.5625 -0.25 -1.265625 -0.25q-0.8125 0 -1.390625 0.328125q-0.578125 0.3125 -0.953125 0.84375q-0.359375 0.53125 -0.53125 1.234375q-0.171875 0.703125 -0.171875 1.46875q0 0.96875 0.203125 1.703125q0.21875 0.734375 0.609375 1.21875q0.40625 0.484375 0.96875 0.734375q0.5625 0.234375 1.265625 0.234375q0.8125 0 1.390625 -0.3125q0.578125 -0.328125 0.953125 -0.859375q0.375 -0.53125 0.546875 -1.234375q0.171875 -0.703125 0.171875 -1.484375zm13.413803 -0.1875q0 1.40625 -0.390625 2.453125q-0.390625 1.03125 -1.078125 1.71875q-0.6875 0.6875 -1.625 1.03125q-0.9375 0.34375 -2.03125 0.34375q-0.5 0 -1.0 -0.0625q-0.5 -0.046875 -1.0 -0.171875l0 4.375l-1.8125 0l0 -14.71875l1.609375 0l0.109375 1.75q0.78125 -1.078125 1.671875 -1.5q0.890625 -0.4375 1.921875 -0.4375q0.890625 0 1.5625 0.375q0.6875 0.375 1.140625 1.0625q0.453125 0.671875 0.6875 1.640625q0.234375 0.953125 0.234375 2.140625zm-1.859375 0.09375q0 -0.828125 -0.125 -1.515625q-0.109375 -0.6875 -0.375 -1.171875q-0.265625 -0.5 -0.671875 -0.765625q-0.40625 -0.28125 -0.96875 -0.28125q-0.34375 0 -0.703125 0.109375q-0.34375 0.109375 -0.734375 0.375q-0.375 0.25 -0.796875 0.671875q-0.421875 0.421875 -0.890625 1.046875l0 5.0625q0.5 0.21875 1.046875 0.34375q0.546875 0.109375 1.078125 0.109375q1.46875 0 2.296875 -0.984375q0.84375 -1.0 0.84375 -3.0zm12.929428 2.46875q0 0.5625 -0.1875 1.0q-0.1875 0.4375 -0.515625 0.78125q-0.328125 0.328125 -0.75 0.578125q-0.421875 0.234375 -0.90625 0.390625q-0.484375 0.15625 -1.0 0.21875q-0.515625 0.078125 -1.0 0.078125q-1.0625 0 -1.953125 -0.09375q-0.890625 -0.09375 -1.75 -0.296875l0 -1.671875q0.921875 0.265625 1.828125 0.40625q0.90625 0.125 1.796875 0.125q1.3125 0 1.9375 -0.34375q0.625 -0.359375 0.625 -1.015625q0 -0.28125 -0.109375 -0.5q-0.09375 -0.234375 -0.359375 -0.4375q-0.25 -0.203125 -0.796875 -0.421875q-0.546875 -0.21875 -1.5 -0.5q-0.703125 -0.203125 -1.3125 -0.46875q-0.59375 -0.265625 -1.03125 -0.625q-0.4375 -0.375 -0.6875 -0.859375q-0.25 -0.5 -0.25 -1.15625q0 -0.4375 0.203125 -0.953125q0.203125 -0.53125 0.6875 -0.96875q0.5 -0.453125 1.328125 -0.75q0.828125 -0.296875 2.078125 -0.296875q0.625 0 1.375 0.0625q0.75 0.0625 1.5625 0.234375l0 1.609375q-0.859375 -0.203125 -1.625 -0.296875q-0.765625 -0.109375 -1.328125 -0.109375q-0.671875 0 -1.140625 0.109375q-0.46875 0.109375 -0.75 0.296875q-0.28125 0.171875 -0.40625 0.421875q-0.125 0.234375 -0.125 0.515625q0 0.28125 0.109375 0.515625q0.109375 0.234375 0.40625 0.453125q0.296875 0.203125 0.828125 0.421875q0.53125 0.203125 1.375 0.453125q0.9375 0.28125 1.5625 0.578125q0.640625 0.296875 1.03125 0.65625q0.40625 0.359375 0.578125 0.828125q0.171875 0.453125 0.171875 1.03125z" fill-rule="nonzero"/><path fill="#000000" d="m186.06567 89.09914q0 -4.515625 -3.765625 -8.046875l0.90625 -0.90625q4.09375 3.859375 4.09375 8.953125q0 5.078125 -4.09375 8.9375l-0.90625 -0.90625q3.765625 -3.53125 3.765625 -8.03125z" fill-rule="nonzero"/><path fill="#000000" fill-opacity="0.0" d="m376.5519 40.915115l155.37723 0l0 64.72917l-155.37723 0z" fill-rule="evenodd"/><path fill="#000000" d="m444.60968 72.035736q-5.5 -1.3125 -7.390625 -5.328125q-0.984375 4.1875 -6.71875 5.578125l-0.5 -1.5625q5.171875 -1.15625 5.828125 -4.671875l-5.421875 0q-0.234375 3.515625 -2.453125 5.828125l-1.15625 -1.3125q1.96875 -1.890625 1.96875 -5.171875l0 -8.046871l14.53125 0l0 5.25l-1.640625 0l0 -0.484375l-11.25 0l0 2.3749962l5.578125 0l0 -1.8906212l1.5625 0q0.65625 0.078125 0.078125 0.5l0 1.3906212l6.984375 0l0 1.5625l-6.15625 0q1.140625 3.03125 6.8125 4.265625l-0.65625 1.71875zm-0.328125 -17.640621l0 1.5625l-16.5 0l0 -1.5625l16.5 0zm-2.625 4.515625l-11.25 0l0 1.640625l11.25 0l0 -1.640625zm16.078125 3.859375q0 -5.578125 -0.328125 -8.625l1.640625 0q0.890625 0.09375 0.15625 0.65625q0.25 2.625 0.25 8.046875q0 6.156246 -5.828125 9.265621l-1.390625 -1.390625q5.5 -2.625 5.5 -7.953121zm-5.578125 2.7031212q-0.75 0.578125 -1.640625 0.578125q-0.578125 0 -1.078125 -0.5q-0.5625 -0.578125 -0.5625 -4.921871q0 -3.28125 0.328125 -5.984375l1.796875 0q0.65625 0.25 0 0.578125q-0.40625 1.96875 -0.40625 5.40625q0 3.5312462 0.328125 3.5312462q0.25 0 0.65625 -0.3281212q0.578125 -0.5 1.890625 -2.21875l1.21875 1.234375q-1.390625 1.7187462 -2.53125 2.6249962zm15.746094 -11.328121q-0.328125 2.140625 -1.15625 4.6875q0.75 0.078125 0.25 0.5625l0 12.718746l-1.640625 0l0 -10.171871q-0.578125 0.90625 -1.0625 1.484375l-1.3125 -0.984375q2.78125 -3.375 3.28125 -9.109375l1.890625 0.40625q0.328125 0.328125 -0.25 0.40625zm8.03125 3.046875l0 1.546875l4.03125 0l0 9.687496l-7.640625 0l0 -9.687496l1.96875 0l0 -1.546875l-5.90625 0l0 -1.5625l5.90625 0l0 -2.296875l1.5625 0q0.65625 0.078125 0.078125 0.484375l0 1.8125l5.34375 0l0 1.5625l-5.34375 0zm-2.203125 2.859375l0 1.484375l4.828125 0l0 -1.484375l-4.828125 0zm0 2.796875l0 1.3906212l4.828125 0l0 -1.3906212l-4.828125 0zm0 2.7031212l0 1.5625l4.828125 0l0 -1.5625l-4.828125 0zm-4.765625 6.5625l0 -13.124996l1.5625 0q0.65625 0.078125 0.078125 0.5l0 10.328121l11.328125 0l0 1.5625l-11.328125 0l0 0.734375l-1.640625 0z" fill-rule="nonzero"/><path fill="#000000" d="m405.92804 98.035736q-4.109375 -3.859375 -4.109375 -8.9375q0 -5.09375 4.109375 -8.953125l0.90625 0.90625q-3.78125 3.53125 -3.78125 8.046875q0 4.5 3.78125 8.03125l-0.90625 0.90625zm3.2734375 -16.0l6.890625 0q1.640625 0 2.71875 1.0625q1.0625 1.078125 1.0625 2.953125q0 1.890625 -1.0625 2.953125q-0.578125 0.578125 -1.640625 0.75l3.1875 6.3125l-2.046875 0l-2.953125 -6.078125l-4.265625 0l0 6.078125l-1.890625 0l0 -14.03125zm1.890625 1.5625l0 4.84375l4.84375 0q0.8125 0 1.390625 -0.578125q0.578125 -0.578125 0.578125 -1.8125q0 -1.140625 -0.65625 -1.796875q-0.65625 -0.65625 -1.5625 -0.65625l-4.59375 0zm10.5 7.953125q0 -2.21875 1.390625 -3.609375q1.15625 -1.140625 2.953125 -1.140625q1.734375 0 2.953125 1.21875q1.15625 1.15625 1.15625 3.53125l-6.640625 0q0 1.71875 0.8125 2.546875q0.734375 0.734375 1.890625 0.734375q1.140625 0 1.640625 -0.484375q0.578125 -0.578125 0.578125 -1.3125l1.796875 0q-0.328125 1.46875 -1.0625 2.203125q-1.0625 1.078125 -2.953125 1.078125q-1.96875 0 -3.203125 -1.234375q-1.3125 -1.3125 -1.3125 -3.53125zm4.265625 -3.359375q-0.984375 0 -1.640625 0.65625q-0.578125 0.578125 -0.734375 1.390625l4.671875 0q0 -0.8125 -0.65625 -1.46875q-0.578125 -0.578125 -1.640625 -0.578125zm6.40625 1.46875q0.234375 -1.140625 1.0625 -1.96875q0.90625 -0.890625 2.625 -0.890625q2.046875 0 2.953125 0.890625q0.8125 0.828125 0.8125 1.890625l0 5.171875q0 0.90625 0.65625 1.390625l-1.96875 0q-0.328125 -0.328125 -0.328125 -1.0625q-1.21875 1.234375 -3.109375 1.234375q-1.5625 0 -2.375 -0.828125q-0.75 -0.734375 -0.75 -1.71875q0 -1.15625 0.75 -1.890625q0.8125 -0.8125 2.296875 -1.0625q0.984375 -0.171875 1.71875 -0.40625q1.0625 -0.25 1.46875 -0.5q0 -0.65625 -0.484375 -1.140625q-0.5 -0.5 -1.390625 -0.5q-1.15625 0 -1.640625 0.5q-0.328125 0.328125 -0.5 0.890625l-1.796875 0zm5.8125 1.8125q-0.484375 0.15625 -0.890625 0.25q-1.40625 0.328125 -2.140625 0.484375q-0.65625 0.171875 -0.984375 0.5q-0.40625 0.40625 -0.40625 0.890625q0 0.578125 0.40625 0.984375q0.25 0.25 1.0625 0.25q1.40625 0 2.296875 -0.90625q0.578125 -0.5625 0.65625 -0.8125l0 -1.640625zm4.0234375 0.15625q0 -2.203125 1.3125 -3.515625q1.234375 -1.234375 3.03125 -1.234375q1.96875 0 2.953125 0.984375q0.90625 0.90625 1.078125 2.21875l-1.8125 0q-0.078125 -0.65625 -0.65625 -1.234375q-0.484375 -0.5 -1.46875 -0.5q-0.984375 0 -1.640625 0.65625q-0.984375 0.984375 -0.984375 2.71875q0 1.640625 0.890625 2.53125q0.65625 0.65625 1.640625 0.65625q1.15625 0 1.8125 -0.65625q0.65625 -0.65625 0.65625 -1.71875l1.796875 0q-0.078125 1.71875 -1.140625 2.796875q-1.0625 1.0625 -3.125 1.0625q-1.71875 0 -2.859375 -1.15625q-1.484375 -1.46875 -1.484375 -3.609375zm11.484375 -7.875l1.640625 0l0 3.203125l2.796875 0l0 1.3125l-2.796875 0l0 5.328125q0 0.5 0.40625 0.90625q0.328125 0.328125 1.078125 0.328125q1.140625 0 2.046875 -0.578125l0 1.5625q-0.90625 0.5 -1.96875 0.5q-1.640625 0 -2.375 -0.75q-0.828125 -0.8125 -0.828125 -1.796875l0 -5.5l-1.96875 0l0 -1.3125l1.96875 0l0 -3.203125zm17.398438 11.90625q-2.796875 2.046875 -9.609375 2.625l-0.328125 -1.5625q5.671875 -0.328125 8.203125 -1.640625q-1.875 -0.5 -3.6875 -0.828125l-0.484375 0.578125l-1.484375 -0.8125l2.21875 -2.46875l-5.65625 0l0 -1.3125l6.71875 0l1.3125 -1.796875l-4.34375 0l0 0.5625l-1.390625 0l0 -5.484375l4.265625 0l0 -1.8125l-6.078125 0l0 -1.3125l17.640625 0l0 1.3125l-6.078125 0l0 1.8125l4.265625 0l0 5.40625l-1.390625 0l0 -0.484375l-6.15625 0l0.828125 0.40625q0.40625 0.25 -0.25 0.40625l-0.8125 0.984375l10.171875 0l0 1.3125l-4.1875 0q-0.984375 1.640625 -2.375 2.953125q2.625 0.734375 5.65625 2.140625l-1.0625 1.46875q-2.46875 -1.3125 -5.90625 -2.453125zm-3.125 -4.109375l-1.390625 1.5625q1.890625 0.25 4.1875 0.8125q1.3125 -0.984375 2.046875 -2.375l-4.84375 0zm0.25 -9.84375l0 1.8125l2.703125 0l0 -1.8125l-2.703125 0zm-4.265625 5.421875l2.875 0l0 -2.296875l-2.875 0l0 2.296875zm4.265625 -2.296875l0 2.296875l2.703125 0l0 -2.296875l-2.703125 0zm4.09375 0l0 2.296875l2.875 0l0 -2.296875l-2.875 0zm17.3125 5.8125q1.5625 -1.140625 2.875 -2.625l1.46875 0.90625q0.328125 0.40625 -0.328125 0.328125q-1.21875 1.0625 -3.109375 2.375l5.171875 -0.234375l-1.234375 -1.078125l1.140625 -0.890625q2.140625 1.46875 3.703125 3.359375l-1.3125 1.0625l-1.234375 -1.3125l-5.5 0.40625l0 5.171875l-1.640625 0l0 -5.078125l-6.8125 0.234375q-0.078125 0.578125 -0.40625 0.25l-0.484375 -1.796875l6.46875 0q-1.546875 -1.484375 -3.1875 -2.21875l0.890625 -1.0625l1.3125 0.65625q0.75 -0.578125 1.484375 -1.484375l-7.71875 0l0 -1.3125l8.453125 0l0 -1.234375l-5.828125 0l0 -1.3125l5.828125 0l0 -1.3125l-6.890625 0l0 -1.3125l6.890625 0l0 -1.71875l1.5625 0q0.65625 0.078125 0.078125 0.5l0 1.21875l7.0625 0l0 1.3125l-7.0625 0l0 1.3125l5.90625 0l0 1.3125l-5.90625 0l0 1.234375l8.53125 0l0 1.3125l-9.109375 0q-1.0625 1.234375 -2.125 2.21875l1.0625 0.8125zm5.09375 2.953125q2.046875 1.8125 4.421875 2.390625l-0.65625 1.5625q-2.953125 -0.75 -4.84375 -2.875l1.078125 -1.078125zm-6.890625 1.484375q0.15625 0.40625 -0.5 0.328125q-2.296875 1.8125 -4.84375 2.375l-0.734375 -1.46875q2.875 -0.75 4.84375 -2.46875l1.234375 1.234375zm17.625 -5.984375q0 -4.515625 -3.765625 -8.046875l0.90625 -0.90625q4.09375 3.859375 4.09375 8.953125q0 5.078125 -4.09375 8.9375l-0.90625 -0.90625q3.765625 -3.53125 3.765625 -8.03125z" fill-rule="nonzero"/><path fill="#cfe2f3" d="m196.69812 289.94763l0 0c0 -33.235718 52.732452 -60.178604 117.78122 -60.178604l0 0c65.04877 0 117.78122 26.942886 117.78122 60.178604l0 0c0 33.23575 -52.732452 60.17862 -117.78122 60.17862l0 0c-65.04877 0 -117.78122 -26.942871 -117.78122 -60.17862z" fill-rule="evenodd"/><path stroke="#000000" stroke-width="1.0" stroke-linejoin="round" stroke-linecap="butt" d="m196.69812 289.94763l0 0c0 -33.235718 52.732452 -60.178604 117.78122 -60.178604l0 0c65.04877 0 117.78122 26.942886 117.78122 60.178604l0 0c0 33.23575 -52.732452 60.17862 -117.78122 60.17862l0 0c-65.04877 0 -117.78122 -26.942871 -117.78122 -60.17862z" fill-rule="evenodd"/><path fill="#000000" d="m312.43246 272.81827q-4.59375 -2.875 -5.828125 -8.125q-0.40625 5.671875 -5.078125 8.375l-0.90625 -1.71875q4.671875 -2.546875 4.671875 -9.609375l-4.265625 0l0 -1.546875l4.34375 0l0 -5.578125l1.5625 0q0.65625 0.078125 0.078125 0.484375l0 5.09375l5.828125 0l0 1.546875l-5.40625 0q0.8125 6.15625 5.90625 9.03125l-0.90625 2.046875zm-17.796875 -6.5625q2.625 -1.234375 4.015625 -2.21875l0 -9.34375l1.5625 0q0.65625 0.078125 0.078125 0.484375l0 17.890625l-1.640625 0l0 -7.140625l-2.953125 1.96875q-0.078125 0.578125 -0.40625 0.25l-0.65625 -1.890625zm1.796875 -3.4375q-0.484375 -1.96875 -1.5625 -3.9375l1.640625 -0.65625q1.078125 1.71875 1.640625 4.015625l-1.71875 0.578125zm12.875 -7.140625q1.640625 0.90625 2.296875 2.21875l-1.3125 1.3125q-0.8125 -1.3125 -2.203125 -2.296875l1.21875 -1.234375zm12.3125 0.578125l0.984375 -0.75q1.796875 1.234375 2.953125 2.546875l-1.15625 0.984375l-0.734375 -0.734375l-7.046875 0.578125q-0.09375 0.5625 -0.421875 0.234375l-0.40625 -1.640625l1.8125 0l1.640625 -3.109375l1.546875 0.40625q0.328125 0.328125 -0.234375 0.40625l-1.484375 2.21875l3.609375 -0.15625l-1.0625 -0.984375zm2.453125 3.4375l0 6.640625q0 1.234375 -0.890625 1.234375l-1.734375 0l-0.328125 -1.3125l1.234375 0q0.328125 0 0.328125 -0.328125l0 -1.0625l-4.015625 0l0 2.703125l-1.390625 0l0 -7.875l6.796875 0zm7.21875 8.375q1.484375 1.0625 2.875 3.109375l-1.5625 1.078125q-1.0625 -1.890625 -2.625 -3.296875l1.3125 -0.890625zm-3.765625 -4.84375q2.453125 -0.65625 4.671875 -1.484375l0.90625 1.234375q0.078125 0.578125 -0.5 0.25q-2.453125 0.734375 -5.078125 1.234375l0 1.0625q0 0.578125 0.578125 0.578125l3.515625 0q0.75 0 0.828125 -1.5625l1.46875 0.484375q-0.234375 2.390625 -1.640625 2.390625l-4.671875 0q-1.46875 0 -1.46875 -1.484375l0 -4.59375l1.3125 0q0.65625 0.078125 0.078125 0.5l0 1.390625zm-1.390625 -8.703125l1.3125 0q0.65625 0.09375 0.078125 0.5l0 1.640625q2.125 -0.5 4.09375 -1.234375l0.90625 1.234375q0.078125 0.578125 -0.484375 0.25q-2.140625 0.65625 -4.515625 1.0625l0 0.90625q0 0.5625 0.578125 0.5625l3.28125 0q0.484375 0 0.5625 -0.40625l0.171875 -1.0625l1.46875 0.484375l-0.328125 1.078125q-0.40625 1.21875 -1.3125 1.21875l-4.34375 0q-1.46875 0 -1.46875 -1.46875l0 -4.765625zm-3.453125 6.15625l-4.015625 0l0 1.15625l4.015625 0l0 -1.15625zm0 2.140625l-4.015625 0l0 1.0625l4.015625 0l0 -1.0625zm2.21875 4.671875q1.140625 1.0625 1.71875 2.046875l-1.3125 0.984375q-0.65625 -1.234375 -1.640625 -2.125l1.234375 -0.90625zm-2.703125 0.65625q0.65625 0.078125 0.078125 0.484375l0 2.140625q0 0.65625 0.578125 0.65625l4.671875 0q1.140625 0 1.234375 -1.640625l1.640625 0.484375q-0.578125 2.71875 -2.21875 2.71875l-6.078125 0q-1.46875 0 -1.46875 -1.390625l0 -3.453125l1.5625 0zm-6.15625 3.453125q1.140625 -1.328125 1.96875 -3.125l1.390625 0.734375q0.65625 0.40625 -0.15625 0.578125q-0.75 1.5625 -1.890625 2.875l-1.3125 -1.0625z" fill-rule="nonzero"/><path fill="#000000" d="m286.66748 294.56827q0 0.5625 -0.1875 1.0q-0.1875 0.4375 -0.515625 0.78125q-0.328125 0.328125 -0.75 0.578125q-0.421875 0.234375 -0.90625 0.390625q-0.484375 0.15625 -1.0 0.21875q-0.515625 0.078125 -1.0 0.078125q-1.0625 0 -1.953125 -0.09375q-0.890625 -0.09375 -1.75 -0.296875l0 -1.671875q0.921875 0.265625 1.828125 0.40625q0.90625 0.125 1.796875 0.125q1.3125 0 1.9375 -0.34375q0.625 -0.359375 0.625 -1.015625q0 -0.28125 -0.109375 -0.5q-0.09375 -0.234375 -0.359375 -0.4375q-0.25 -0.203125 -0.796875 -0.421875q-0.546875 -0.21875 -1.5 -0.5q-0.703125 -0.203125 -1.3125 -0.46875q-0.59375 -0.265625 -1.03125 -0.625q-0.4375 -0.375 -0.6875 -0.859375q-0.25 -0.5 -0.25 -1.15625q0 -0.4375 0.203125 -0.953125q0.203125 -0.53125 0.6875 -0.96875q0.5 -0.453125 1.328125 -0.75q0.828125 -0.296875 2.078125 -0.296875q0.625 0 1.375 0.0625q0.75 0.0625 1.5625 0.234375l0 1.609375q-0.859375 -0.203125 -1.625 -0.296875q-0.765625 -0.109375 -1.328125 -0.109375q-0.671875 0 -1.140625 0.109375q-0.46875 0.109375 -0.75 0.296875q-0.28125 0.171875 -0.40625 0.421875q-0.125 0.234375 -0.125 0.515625q0 0.28125 0.109375 0.515625q0.109375 0.234375 0.40625 0.453125q0.296875 0.203125 0.828125 0.421875q0.53125 0.203125 1.375 0.453125q0.9375 0.28125 1.5625 0.578125q0.640625 0.296875 1.03125 0.65625q0.40625 0.359375 0.578125 0.828125q0.171875 0.453125 0.171875 1.03125zm11.866943 2.71875q-0.609375 0.15625 -1.265625 0.21875q-0.65625 0.0625 -1.34375 0.0625q-1.96875 0 -2.9375 -0.890625q-0.96875 -0.890625 -0.96875 -2.734375l0 -5.453125l-2.921875 0l0 -1.515625l2.921875 0l0 -2.875l1.8125 -0.46875l0 3.34375l4.703125 0l0 1.515625l-4.703125 0l0 5.3125q0 1.125 0.59375 1.6875q0.609375 0.546875 1.78125 0.546875q0.5 0 1.09375 -0.078125q0.59375 -0.078125 1.234375 -0.234375l0 1.5625zm10.023163 0.140625l-0.046875 -1.40625q-0.859375 0.84375 -1.734375 1.21875q-0.875 0.375 -1.84375 0.375q-0.90625 0 -1.546875 -0.21875q-0.625 -0.234375 -1.046875 -0.640625q-0.40625 -0.40625 -0.59375 -0.9375q-0.1875 -0.546875 -0.1875 -1.1875q0 -1.5625 1.171875 -2.453125q1.171875 -0.890625 3.453125 -0.890625l2.171875 0l0 -0.921875q0 -0.921875 -0.59375 -1.484375q-0.59375 -0.5625 -1.8125 -0.5625q-0.890625 0 -1.75 0.203125q-0.859375 0.203125 -1.765625 0.5625l0 -1.640625q0.34375 -0.125 0.765625 -0.234375q0.421875 -0.125 0.890625 -0.21875q0.46875 -0.09375 0.96875 -0.140625q0.515625 -0.0625 1.03125 -0.0625q0.953125 0 1.703125 0.203125q0.765625 0.203125 1.296875 0.640625q0.53125 0.421875 0.8125 1.078125q0.28125 0.640625 0.28125 1.515625l0 7.203125l-1.625 0zm-0.203125 -4.765625l-2.296875 0q-0.6875 0 -1.171875 0.140625q-0.484375 0.140625 -0.796875 0.390625q-0.3125 0.25 -0.46875 0.59375q-0.15625 0.34375 -0.15625 0.78125q0 0.3125 0.09375 0.59375q0.09375 0.265625 0.296875 0.484375q0.21875 0.203125 0.546875 0.328125q0.34375 0.125 0.8125 0.125q0.625 0 1.4375 -0.375q0.8125 -0.375 1.703125 -1.203125l0 -1.859375zm13.632568 4.625q-0.609375 0.15625 -1.265625 0.21875q-0.65625 0.0625 -1.34375 0.0625q-1.96875 0 -2.9375 -0.890625q-0.96875 -0.890625 -0.96875 -2.734375l0 -5.453125l-2.921875 0l0 -1.515625l2.921875 0l0 -2.875l1.8125 -0.46875l0 3.34375l4.703125 0l0 1.515625l-4.703125 0l0 5.3125q0 1.125 0.59375 1.6875q0.609375 0.546875 1.78125 0.546875q0.5 0 1.09375 -0.078125q0.59375 -0.078125 1.234375 -0.234375l0 1.5625zm12.132538 -5.640625q0 0.390625 -0.015625 0.65625q0 0.25 -0.03125 0.484375l-7.34375 0q0 1.59375 0.890625 2.453125q0.90625 0.859375 2.59375 0.859375q0.453125 0 0.90625 -0.03125q0.46875 -0.03125 0.890625 -0.09375q0.4375 -0.0625 0.828125 -0.140625q0.390625 -0.078125 0.71875 -0.171875l0 1.484375q-0.734375 0.203125 -1.671875 0.328125q-0.9375 0.140625 -1.9375 0.140625q-1.34375 0 -2.3125 -0.359375q-0.96875 -0.375 -1.59375 -1.0625q-0.609375 -0.6875 -0.90625 -1.6875q-0.296875 -1.015625 -0.296875 -2.28125q0 -1.109375 0.3125 -2.09375q0.328125 -0.984375 0.9375 -1.71875q0.609375 -0.75 1.484375 -1.1875q0.890625 -0.4375 2.015625 -0.4375q1.09375 0 1.9375 0.34375q0.84375 0.34375 1.421875 0.96875q0.578125 0.625 0.875 1.53125q0.296875 0.90625 0.296875 2.015625zm-1.890625 -0.265625q0.03125 -0.6875 -0.140625 -1.265625q-0.15625 -0.578125 -0.515625 -1.0q-0.34375 -0.421875 -0.859375 -0.65625q-0.515625 -0.234375 -1.203125 -0.234375q-0.59375 0 -1.09375 0.234375q-0.484375 0.234375 -0.84375 0.65625q-0.34375 0.40625 -0.5625 1.0q-0.21875 0.578125 -0.28125 1.265625l5.5 0z" fill-rule="nonzero"/><path fill="#000000" d="m342.32245 286.75577l9.34375 0l0 1.3125l-9.34375 0l0 -1.3125zm0 5.015625l9.34375 0l0 1.3125l-9.34375 0l0 -1.3125z" fill-rule="nonzero"/><path fill="#000000" d="m249.3559 314.47452l-3.09375 0l0 -1.5l4.921875 0l0 8.9375l3.109375 0l0 1.515625l-8.375 0l0 -1.515625l3.4375 0l0 -7.4375zm0.625 -5.890625q0.3125 0 0.5625 0.109375q0.265625 0.109375 0.453125 0.3125q0.203125 0.203125 0.3125 0.453125q0.109375 0.25 0.109375 0.5625q0 0.28125 -0.109375 0.546875q-0.109375 0.265625 -0.3125 0.46875q-0.1875 0.1875 -0.453125 0.296875q-0.25 0.109375 -0.5625 0.109375q-0.296875 0 -0.5625 -0.109375q-0.25 -0.109375 -0.453125 -0.296875q-0.1875 -0.203125 -0.296875 -0.46875q-0.109375 -0.265625 -0.109375 -0.546875q0 -0.3125 0.109375 -0.5625q0.109375 -0.25 0.296875 -0.453125q0.203125 -0.203125 0.453125 -0.3125q0.265625 -0.109375 0.5625 -0.109375zm7.538788 4.390625l1.609375 0l0.078125 1.6875q0.453125 -0.546875 0.875 -0.90625q0.4375 -0.359375 0.84375 -0.578125q0.40625 -0.21875 0.828125 -0.296875q0.4375 -0.09375 0.890625 -0.09375q1.625 0 2.453125 0.953125q0.828125 0.953125 0.828125 2.859375l0 6.828125l-1.8125 0l0 -6.671875q0 -1.234375 -0.46875 -1.8125q-0.453125 -0.59375 -1.359375 -0.59375q-0.328125 0 -0.65625 0.09375q-0.3125 0.09375 -0.65625 0.34375q-0.34375 0.25 -0.75 0.671875q-0.390625 0.40625 -0.890625 1.03125l0 6.9375l-1.8125 0l0 -10.453125zm15.288818 1.5l-3.09375 0l0 -1.5l4.921875 0l0 8.9375l3.109375 0l0 1.515625l-8.375 0l0 -1.515625l3.4375 0l0 -7.4375zm0.625 -5.890625q0.3125 0 0.5625 0.109375q0.265625 0.109375 0.453125 0.3125q0.203125 0.203125 0.3125 0.453125q0.109375 0.25 0.109375 0.5625q0 0.28125 -0.109375 0.546875q-0.109375 0.265625 -0.3125 0.46875q-0.1875 0.1875 -0.453125 0.296875q-0.25 0.109375 -0.5625 0.109375q-0.296875 0 -0.5625 -0.109375q-0.25 -0.109375 -0.453125 -0.296875q-0.1875 -0.203125 -0.296875 -0.46875q-0.109375 -0.265625 -0.109375 -0.546875q0 -0.3125 0.109375 -0.5625q0.109375 -0.25 0.296875 -0.453125q0.203125 -0.203125 0.453125 -0.3125q0.265625 -0.109375 0.5625 -0.109375zm15.960663 14.703125q-0.609375 0.15625 -1.265625 0.21875q-0.65625 0.0625 -1.34375 0.0625q-1.96875 0 -2.9375 -0.890625q-0.96875 -0.890625 -0.96875 -2.734375l0 -5.453125l-2.921875 0l0 -1.515625l2.921875 0l0 -2.875l1.8125 -0.46875l0 3.34375l4.703125 0l0 1.515625l-4.703125 0l0 5.3125q0 1.125 0.59375 1.6875q0.609375 0.546875 1.78125 0.546875q0.5 0 1.09375 -0.078125q0.59375 -0.078125 1.234375 -0.234375l0 1.5625zm6.8669434 -8.8125l-3.09375 0l0 -1.5l4.921875 0l0 8.9375l3.109375 0l0 1.515625l-8.375 0l0 -1.515625l3.4375 0l0 -7.4375zm0.625 -5.890625q0.3125 0 0.5625 0.109375q0.265625 0.109375 0.453125 0.3125q0.203125 0.203125 0.3125 0.453125q0.109375 0.25 0.109375 0.5625q0 0.28125 -0.109375 0.546875q-0.109375 0.265625 -0.3125 0.46875q-0.1875 0.1875 -0.453125 0.296875q-0.25 0.109375 -0.5625 0.109375q-0.296875 0 -0.5625 -0.109375q-0.25 -0.109375 -0.453125 -0.296875q-0.1875 -0.203125 -0.296875 -0.46875q-0.109375 -0.265625 -0.109375 -0.546875q0 -0.3125 0.109375 -0.5625q0.109375 -0.25 0.296875 -0.453125q0.203125 -0.203125 0.453125 -0.3125q0.265625 -0.109375 0.5625 -0.109375zm14.257538 14.84375l-0.046875 -1.40625q-0.859375 0.84375 -1.734375 1.21875q-0.875 0.375 -1.84375 0.375q-0.90625 0 -1.546875 -0.21875q-0.625 -0.234375 -1.046875 -0.640625q-0.40625 -0.40625 -0.59375 -0.9375q-0.1875 -0.546875 -0.1875 -1.1875q0 -1.5625 1.171875 -2.453125q1.171875 -0.890625 3.453125 -0.890625l2.171875 0l0 -0.921875q0 -0.921875 -0.59375 -1.484375q-0.59375 -0.5625 -1.8125 -0.5625q-0.890625 0 -1.75 0.203125q-0.859375 0.203125 -1.765625 0.5625l0 -1.640625q0.34375 -0.125 0.765625 -0.234375q0.421875 -0.125 0.890625 -0.21875q0.46875 -0.09375 0.96875 -0.140625q0.515625 -0.0625 1.03125 -0.0625q0.953125 0 1.703125 0.203125q0.765625 0.203125 1.296875 0.640625q0.53125 0.421875 0.8125 1.078125q0.28125 0.640625 0.28125 1.515625l0 7.203125l-1.625 0zm-0.203125 -4.765625l-2.296875 0q-0.6875 0 -1.171875 0.140625q-0.484375 0.140625 -0.796875 0.390625q-0.3125 0.25 -0.46875 0.59375q-0.15625 0.34375 -0.15625 0.78125q0 0.3125 0.09375 0.59375q0.09375 0.265625 0.296875 0.484375q0.21875 0.203125 0.546875 0.328125q0.34375 0.125 0.8125 0.125q0.625 0 1.4375 -0.375q0.8125 -0.375 1.703125 -1.203125l0 -1.859375zm8.773193 -8.453125l-3.09375 0l0 -1.5l4.921875 0l0 13.203125l3.109375 0l0 1.515625l-8.375 0l0 -1.515625l3.4375 0l0 -11.703125zm16.882538 9.53125q0 0.96875 -0.40625 1.703125q-0.390625 0.71875 -1.109375 1.203125q-0.703125 0.484375 -1.703125 0.734375q-0.984375 0.234375 -2.1875 0.234375q-0.53125 0 -1.078125 -0.046875q-0.53125 -0.03125 -1.03125 -0.09375q-0.484375 -0.0625 -0.921875 -0.140625q-0.4375 -0.09375 -0.796875 -0.1875l0 -1.796875q0.78125 0.296875 1.75 0.46875q0.984375 0.15625 2.21875 0.15625q0.890625 0 1.515625 -0.140625q0.640625 -0.140625 1.03125 -0.40625q0.40625 -0.28125 0.59375 -0.671875q0.1875 -0.40625 0.1875 -0.90625q0 -0.5625 -0.3125 -0.953125q-0.3125 -0.390625 -0.8125 -0.6875q-0.5 -0.3125 -1.140625 -0.5625q-0.640625 -0.265625 -1.3125 -0.53125q-0.65625 -0.265625 -1.296875 -0.578125q-0.640625 -0.328125 -1.140625 -0.75q-0.5 -0.4375 -0.8125 -1.015625q-0.296875 -0.59375 -0.296875 -1.390625q0 -0.703125 0.28125 -1.375q0.296875 -0.671875 0.90625 -1.203125q0.625 -0.53125 1.578125 -0.84375q0.96875 -0.328125 2.296875 -0.328125q0.34375 0 0.75 0.03125q0.40625 0.03125 0.8125 0.09375q0.40625 0.046875 0.8125 0.125q0.40625 0.078125 0.75 0.15625l0 1.671875q-0.8125 -0.234375 -1.609375 -0.34375q-0.796875 -0.125 -1.546875 -0.125q-1.59375 0 -2.34375 0.53125q-0.75 0.53125 -0.75 1.421875q0 0.546875 0.296875 0.953125q0.3125 0.390625 0.8125 0.703125q0.5 0.3125 1.140625 0.5625q0.640625 0.25 1.296875 0.53125q0.671875 0.265625 1.3125 0.59375q0.640625 0.3125 1.140625 0.765625q0.5 0.4375 0.8125 1.03125q0.3125 0.59375 0.3125 1.40625zm11.429443 3.546875q-0.609375 0.15625 -1.265625 0.21875q-0.65625 0.0625 -1.34375 0.0625q-1.96875 0 -2.9375 -0.890625q-0.96875 -0.890625 -0.96875 -2.734375l0 -5.453125l-2.921875 0l0 -1.515625l2.921875 0l0 -2.875l1.8125 -0.46875l0 3.34375l4.703125 0l0 1.515625l-4.703125 0l0 5.3125q0 1.125 0.59375 1.6875q0.609375 0.546875 1.78125 0.546875q0.5 0 1.09375 -0.078125q0.59375 -0.078125 1.234375 -0.234375l0 1.5625zm10.023163 0.140625l-0.046875 -1.40625q-0.859375 0.84375 -1.734375 1.21875q-0.875 0.375 -1.84375 0.375q-0.90625 0 -1.546875 -0.21875q-0.625 -0.234375 -1.046875 -0.640625q-0.40625 -0.40625 -0.59375 -0.9375q-0.1875 -0.546875 -0.1875 -1.1875q0 -1.5625 1.171875 -2.453125q1.171875 -0.890625 3.453125 -0.890625l2.171875 0l0 -0.921875q0 -0.921875 -0.59375 -1.484375q-0.59375 -0.5625 -1.8125 -0.5625q-0.890625 0 -1.75 0.203125q-0.859375 0.203125 -1.765625 0.5625l0 -1.640625q0.34375 -0.125 0.765625 -0.234375q0.421875 -0.125 0.890625 -0.21875q0.46875 -0.09375 0.96875 -0.140625q0.515625 -0.0625 1.03125 -0.0625q0.953125 0 1.703125 0.203125q0.765625 0.203125 1.296875 0.640625q0.53125 0.421875 0.8125 1.078125q0.28125 0.640625 0.28125 1.515625l0 7.203125l-1.625 0zm-0.203125 -4.765625l-2.296875 0q-0.6875 0 -1.171875 0.140625q-0.484375 0.140625 -0.796875 0.390625q-0.3125 0.25 -0.46875 0.59375q-0.15625 0.34375 -0.15625 0.78125q0 0.3125 0.09375 0.59375q0.09375 0.265625 0.296875 0.484375q0.21875 0.203125 0.546875 0.328125q0.34375 0.125 0.8125 0.125q0.625 0 1.4375 -0.375q0.8125 -0.375 1.703125 -1.203125l0 -1.859375zm13.632568 4.625q-0.609375 0.15625 -1.265625 0.21875q-0.65625 0.0625 -1.34375 0.0625q-1.96875 0 -2.9375 -0.890625q-0.96875 -0.890625 -0.96875 -2.734375l0 -5.453125l-2.921875 0l0 -1.515625l2.921875 0l0 -2.875l1.8125 -0.46875l0 3.34375l4.703125 0l0 1.515625l-4.703125 0l0 5.3125q0 1.125 0.59375 1.6875q0.609375 0.546875 1.78125 0.546875q0.5 0 1.09375 -0.078125q0.59375 -0.078125 1.234375 -0.234375l0 1.5625zm12.132538 -5.640625q0 0.390625 -0.015625 0.65625q0 0.25 -0.03125 0.484375l-7.34375 0q0 1.59375 0.890625 2.453125q0.90625 0.859375 2.59375 0.859375q0.453125 0 0.90625 -0.03125q0.46875 -0.03125 0.890625 -0.09375q0.4375 -0.0625 0.828125 -0.140625q0.390625 -0.078125 0.71875 -0.171875l0 1.484375q-0.734375 0.203125 -1.671875 0.328125q-0.9375 0.140625 -1.9375 0.140625q-1.34375 0 -2.3125 -0.359375q-0.96875 -0.375 -1.59375 -1.0625q-0.609375 -0.6875 -0.90625 -1.6875q-0.296875 -1.015625 -0.296875 -2.28125q0 -1.109375 0.3125 -2.09375q0.328125 -0.984375 0.9375 -1.71875q0.609375 -0.75 1.484375 -1.1875q0.890625 -0.4375 2.015625 -0.4375q1.09375 0 1.9375 0.34375q0.84375 0.34375 1.421875 0.96875q0.578125 0.625 0.875 1.53125q0.296875 0.90625 0.296875 2.015625zm-1.890625 -0.265625q0.03125 -0.6875 -0.140625 -1.265625q-0.15625 -0.578125 -0.515625 -1.0q-0.34375 -0.421875 -0.859375 -0.65625q-0.515625 -0.234375 -1.203125 -0.234375q-0.59375 0 -1.09375 0.234375q-0.484375 0.234375 -0.84375 0.65625q-0.34375 0.40625 -0.5625 1.0q-0.21875 0.578125 -0.28125 1.265625l5.5 0z" fill-rule="nonzero"/><path fill="#000000" fill-opacity="0.0" d="m355.35568 237.22093l0 -92.44107" fill-rule="evenodd"/><path stroke="#000000" stroke-width="4.0" stroke-linejoin="round" stroke-linecap="butt" d="m355.35568 237.22092l0 -78.73271" fill-rule="evenodd"/><path fill="#000000" stroke="#000000" stroke-width="4.0" stroke-linecap="butt" d="m355.35568 158.4882l4.4983215 4.498337l-4.4983215 -12.35907l-4.4983215 12.35907z" fill-rule="evenodd"/><path fill="#000000" fill-opacity="0.0" d="m257.15842 146.62822l-0.40853882 89.399796" fill-rule="evenodd"/><path stroke="#000000" stroke-width="4.0" stroke-linejoin="round" stroke-linecap="butt" d="m257.15842 146.62822l-0.34588623 75.691574" fill-rule="evenodd"/><path fill="#000000" stroke="#000000" stroke-width="4.0" stroke-linecap="butt" d="m256.81253 222.31981l-4.477722 -4.5188446l4.441803 12.379501l4.554779 -12.338394z" fill-rule="evenodd"/><path fill="#ffffff" d="m10.225713 168.34908l312.66098 0l0 39.69542l-312.66098 0z" fill-rule="evenodd"/><path fill="#000000" d="m49.70566 194.96971q0 0.5625 -0.1875 1.0q-0.1875 0.4375 -0.515625 0.78125q-0.328125 0.328125 -0.75 0.578125q-0.421875 0.234375 -0.90625 0.390625q-0.484375 0.15625 -1.0 0.21875q-0.515625 0.078125 -1.0 0.078125q-1.0625 0 -1.953125 -0.09375q-0.890625 -0.09375 -1.75 -0.296875l0 -1.671875q0.921875 0.265625 1.828125 0.40625q0.90625 0.125 1.796875 0.125q1.3125 0 1.9375 -0.34375q0.625 -0.359375 0.625 -1.015625q0 -0.28125 -0.109375 -0.5q-0.09375 -0.234375 -0.359375 -0.4375q-0.25 -0.203125 -0.796875 -0.421875q-0.546875 -0.21875 -1.5 -0.5q-0.703125 -0.203125 -1.3125 -0.46875q-0.59375 -0.265625 -1.03125 -0.625q-0.4375 -0.375 -0.6875 -0.859375q-0.25 -0.5 -0.25 -1.15625q0 -0.4375 0.203125 -0.953125q0.203125 -0.53125 0.6875 -0.96875q0.5 -0.453125 1.328125 -0.75q0.828125 -0.296875 2.078125 -0.296875q0.625 0 1.375 0.0625q0.75 0.0625 1.5625 0.234375l0 1.609375q-0.859375 -0.203125 -1.625 -0.296875q-0.765625 -0.109375 -1.328125 -0.109375q-0.671875 0 -1.140625 0.109375q-0.46875 0.109375 -0.75 0.296875q-0.28125 0.171875 -0.40625 0.421875q-0.125 0.234375 -0.125 0.515625q0 0.28125 0.109375 0.515625q0.109375 0.234375 0.40625 0.453125q0.296875 0.203125 0.828125 0.421875q0.53125 0.203125 1.375 0.453125q0.9375 0.28125 1.5625 0.578125q0.640625 0.296875 1.03125 0.65625q0.40625 0.359375 0.578125 0.828125q0.171875 0.453125 0.171875 1.03125zm12.273178 -2.921875q0 0.390625 -0.015625 0.65625q0 0.25 -0.03125 0.484375l-7.34375 0q0 1.59375 0.890625 2.453125q0.90625 0.859375 2.59375 0.859375q0.453125 0 0.90625 -0.03125q0.46875 -0.03125 0.890625 -0.09375q0.4375 -0.0625 0.828125 -0.140625q0.390625 -0.078125 0.71875 -0.171875l0 1.484375q-0.734375 0.203125 -1.671875 0.328125q-0.9375 0.140625 -1.9375 0.140625q-1.34375 0 -2.3125 -0.359375q-0.96875 -0.375 -1.59375 -1.0625q-0.609375 -0.6875 -0.90625 -1.6875q-0.296875 -1.015625 -0.296875 -2.28125q0 -1.109375 0.3125 -2.09375q0.328125 -0.984375 0.9375 -1.71875q0.609375 -0.75 1.484375 -1.1875q0.890625 -0.4375 2.015625 -0.4375q1.09375 0 1.9375 0.34375q0.84375 0.34375 1.421875 0.96875q0.578125 0.625 0.875 1.53125q0.296875 0.90625 0.296875 2.015625zm-1.890625 -0.265625q0.03125 -0.6875 -0.140625 -1.265625q-0.15625 -0.578125 -0.515625 -1.0q-0.34375 -0.421875 -0.859375 -0.65625q-0.515625 -0.234375 -1.203125 -0.234375q-0.59375 0 -1.09375 0.234375q-0.484375 0.234375 -0.84375 0.65625q-0.34375 0.40625 -0.5625 1.0q-0.21875 0.578125 -0.28125 1.265625l5.5 0zm13.210682 5.90625q-0.609375 0.15625 -1.265625 0.21875q-0.65625 0.0625 -1.34375 0.0625q-1.96875 0 -2.9375 -0.890625q-0.96875 -0.890625 -0.96875 -2.734375l0 -5.453125l-2.9218788 0l0 -1.515625l2.9218788 0l0 -2.875l1.8125 -0.46875l0 3.34375l4.703125 0l0 1.515625l-4.703125 0l0 5.3125q0 1.125 0.59375 1.6875q0.609375 0.546875 1.78125 0.546875q0.5 0 1.09375 -0.078125q0.59375 -0.078125 1.234375 -0.234375l0 1.5625zm12.023178 -3.546875q0 0.96875 -0.40625 1.703125q-0.390625 0.71875 -1.109375 1.203125q-0.703125 0.484375 -1.703125 0.734375q-0.984375 0.234375 -2.1875 0.234375q-0.53125 0 -1.078125 -0.046875q-0.53125 -0.03125 -1.03125 -0.09375q-0.484375 -0.0625 -0.921875 -0.140625q-0.4375 -0.09375 -0.796875 -0.1875l0 -1.796875q0.78125 0.296875 1.75 0.46875q0.984375 0.15625 2.21875 0.15625q0.890625 0 1.515625 -0.140625q0.640625 -0.140625 1.03125 -0.40625q0.40625 -0.28125 0.59375 -0.671875q0.1875 -0.40625 0.1875 -0.90625q0 -0.5625 -0.3125 -0.953125q-0.3125 -0.390625 -0.8125 -0.6875q-0.5 -0.3125 -1.140625 -0.5625q-0.640625 -0.265625 -1.3125 -0.53125q-0.65625 -0.265625 -1.296875 -0.578125q-0.640625 -0.328125 -1.140625 -0.75q-0.5 -0.4375 -0.8125 -1.015625q-0.296875 -0.59375 -0.296875 -1.390625q0 -0.703125 0.28125 -1.375q0.296875 -0.671875 0.90625 -1.203125q0.625 -0.53125 1.578125 -0.84375q0.96875 -0.328125 2.296875 -0.328125q0.34375 0 0.75 0.03125q0.40625 0.03125 0.8125 0.09375q0.40625 0.046875 0.8125 0.125q0.40625 0.078125 0.75 0.15625l0 1.671875q-0.8125 -0.234375 -1.609375 -0.34375q-0.796875 -0.125 -1.546875 -0.125q-1.59375 0 -2.34375 0.53125q-0.75 0.53125 -0.75 1.421875q0 0.546875 0.296875 0.953125q0.3125 0.390625 0.8125 0.703125q0.5 0.3125 1.140625 0.5625q0.640625 0.25 1.296875 0.53125q0.671875 0.265625 1.3125 0.59375q0.640625 0.3125 1.140625 0.765625q0.5 0.4375 0.8125 1.03125q0.3125 0.59375 0.3125 1.40625zm11.429428 3.546875q-0.609375 0.15625 -1.265625 0.21875q-0.65625 0.0625 -1.34375 0.0625q-1.96875 0 -2.9375 -0.890625q-0.96875 -0.890625 -0.96875 -2.734375l0 -5.453125l-2.921875 0l0 -1.515625l2.921875 0l0 -2.875l1.8125 -0.46875l0 3.34375l4.703125 0l0 1.515625l-4.703125 0l0 5.3125q0 1.125 0.59375 1.6875q0.609375 0.546875 1.78125 0.546875q0.5 0 1.09375 -0.078125q0.59375 -0.078125 1.234375 -0.234375l0 1.5625zm10.023178 0.140625l-0.046875 -1.40625q-0.859375 0.84375 -1.734375 1.21875q-0.875 0.375 -1.84375 0.375q-0.90625 0 -1.546875 -0.21875q-0.625 -0.234375 -1.046875 -0.640625q-0.40625 -0.40625 -0.59375 -0.9375q-0.1875 -0.546875 -0.1875 -1.1875q0 -1.5625 1.171875 -2.453125q1.171875 -0.890625 3.453125 -0.890625l2.171875 0l0 -0.921875q0 -0.921875 -0.59375 -1.484375q-0.59375 -0.5625 -1.8125 -0.5625q-0.890625 0 -1.75 0.203125q-0.859375 0.203125 -1.765625 0.5625l0 -1.640625q0.34375 -0.125 0.765625 -0.234375q0.421875 -0.125 0.890625 -0.21875q0.46875 -0.09375 0.96875 -0.140625q0.515625 -0.0625 1.03125 -0.0625q0.953125 0 1.703125 0.203125q0.765625 0.203125 1.296875 0.640625q0.53125 0.421875 0.8125 1.078125q0.28125 0.640625 0.28125 1.515625l0 7.203125l-1.625 0zm-0.203125 -4.765625l-2.296875 0q-0.6875 0 -1.171875 0.140625q-0.484375 0.140625 -0.796875 0.390625q-0.3125 0.25 -0.46875 0.59375q-0.15625 0.34375 -0.15625 0.78125q0 0.3125 0.09375 0.59375q0.09375 0.265625 0.296875 0.484375q0.21875 0.203125 0.546875 0.328125q0.34375 0.125 0.8125 0.125q0.625 0 1.4375 -0.375q0.8125 -0.375 1.703125 -1.203125l0 -1.859375zm13.632553 4.625q-0.609375 0.15625 -1.265625 0.21875q-0.65625 0.0625 -1.34375 0.0625q-1.96875 0 -2.9375 -0.890625q-0.96875 -0.890625 -0.96875 -2.734375l0 -5.453125l-2.921875 0l0 -1.515625l2.921875 0l0 -2.875l1.8125 -0.46875l0 3.34375l4.703125 0l0 1.515625l-4.703125 0l0 5.3125q0 1.125 0.59375 1.6875q0.609375 0.546875 1.78125 0.546875q0.5 0 1.09375 -0.078125q0.59375 -0.078125 1.234375 -0.234375l0 1.5625zm12.132545 -5.640625q0 0.390625 -0.015625 0.65625q0 0.25 -0.03125 0.484375l-7.3437424 0q0 1.59375 0.890625 2.453125q0.90625 0.859375 2.5937424 0.859375q0.453125 0 0.90625 -0.03125q0.46875 -0.03125 0.890625 -0.09375q0.4375 -0.0625 0.828125 -0.140625q0.390625 -0.078125 0.71875 -0.171875l0 1.484375q-0.734375 0.203125 -1.671875 0.328125q-0.9375 0.140625 -1.9375 0.140625q-1.3437424 0 -2.3124924 -0.359375q-0.96875 -0.375 -1.59375 -1.0625q-0.609375 -0.6875 -0.90625 -1.6875q-0.296875 -1.015625 -0.296875 -2.28125q0 -1.109375 0.3125 -2.09375q0.328125 -0.984375 0.9375 -1.71875q0.609375 -0.75 1.484375 -1.1875q0.890625 -0.4375 2.015625 -0.4375q1.0937424 0 1.9374924 0.34375q0.84375 0.34375 1.421875 0.96875q0.578125 0.625 0.875 1.53125q0.296875 0.90625 0.296875 2.015625zm-1.890625 -0.265625q0.03125 -0.6875 -0.140625 -1.265625q-0.15625 -0.578125 -0.515625 -1.0q-0.34375 -0.421875 -0.859375 -0.65625q-0.515625 -0.234375 -1.2031174 -0.234375q-0.59375 0 -1.09375 0.234375q-0.484375 0.234375 -0.84375 0.65625q-0.34375 0.40625 -0.5625 1.0q-0.21875 0.578125 -0.28125 1.265625l5.4999924 0z" fill-rule="nonzero"/><path fill="#000000" d="m138.40671 199.46971q-4.109375 -3.859375 -4.109375 -8.9375q0 -5.09375 4.109375 -8.953125l0.90625 0.90625q-3.78125 3.53125 -3.78125 8.046875q0 4.5 3.78125 8.03125l-0.90625 0.90625zm12.7109375 -4.4375q1.484375 -0.984375 2.296875 -2.046875l-4.09375 0q0.5625 1.15625 1.796875 2.046875zm-1.46875 -3.359375l4.59375 0l0.234375 -0.40625l1.40625 0.984375q0.40625 0.328125 -0.171875 0.40625q-1.234375 1.71875 -3.28125 3.28125q2.296875 1.3125 7.21875 1.71875l-0.578125 1.8125q-5.0 -0.40625 -8.03125 -2.46875q-4.515625 2.46875 -8.609375 2.875l-0.65625 -1.71875q4.421875 -0.40625 7.953125 -2.296875q-0.65625 -0.65625 -1.5625 -1.96875q-2.546875 2.296875 -4.75 2.875l-0.828125 -1.40625q4.1875 -1.390625 6.234375 -5.078125l1.3125 0.484375q0.40625 0.25 -0.15625 0.328125l-0.328125 0.578125zm3.609375 -2.453125q0 1.390625 -1.234375 1.390625l-1.15625 0l-0.40625 -1.5625l0.90625 0q0.25 0 0.25 -0.25l0 -4.015625l-2.0625 0l0 1.71875q0 4.6875 -5.65625 6.078125l-0.734375 -1.5625q4.75 -1.0625 4.75 -4.515625l0 -1.71875l-6.234375 0l0 -1.5625l7.875 0l0 -2.453125l1.8125 0q0.8125 0.15625 0.078125 0.65625l0 1.796875l7.875 0l0 1.5625l-6.0625 0l0 4.4375zm-11.328125 -0.828125q2.046875 -1.0625 3.359375 -2.78125l1.484375 1.140625q0.25 0.328125 -0.328125 0.328125q-1.234375 1.71875 -3.53125 2.875l-0.984375 -1.5625zm13.203125 -2.703125q2.46875 1.3125 3.9375 2.875l-1.390625 1.640625q-1.890625 -1.890625 -3.6875 -3.046875l1.140625 -1.46875zm25.265625 14.109375q-6.46875 -0.578125 -10.171875 -2.625q-2.046875 1.71875 -7.296875 2.703125l-0.578125 -1.71875q4.84375 -0.828125 6.40625 -2.046875q-1.0625 -0.90625 -2.140625 -2.296875l1.484375 -0.578125q0.65625 0.8125 1.796875 1.71875q0.65625 -1.0625 0.75 -2.375l-4.265625 0l0 0.65625l-1.640625 0l0 -8.375l5.984375 0l0 -1.71875l-8.28125 0l0 -1.5625l17.71875 0l0 1.5625l-7.796875 0l0 1.71875l6.0625 0l0 8.703125l-1.640625 0l0 -0.984375l-4.5 0q-0.09375 1.640625 -0.984375 3.203125q2.78125 1.640625 9.34375 2.21875l-0.25 1.796875zm-14.015625 -13.625l0 1.890625l4.34375 0l0 -1.890625l-4.34375 0zm5.984375 0l0 1.890625l4.421875 0l0 -1.890625l-4.421875 0zm0 5.09375l4.421875 0l0 -1.890625l-4.421875 0l0 1.890625zm-1.640625 0l0 -1.890625l-4.34375 0l0 1.890625l4.34375 0zm24.4375 5.65625q-2.53125 1.8125 -6.796875 2.625l-0.578125 -1.71875q3.9375 -0.5 6.15625 -2.046875q-0.90625 -1.078125 -1.5625 -2.390625q-1.15625 1.640625 -3.203125 2.953125l-0.984375 -1.3125q3.203125 -2.046875 4.1875 -4.828125l-3.125 0.15625q-0.078125 0.578125 -0.40625 0.25l-0.578125 -1.890625l3.28125 -0.078125l1.5625 -1.3125q-1.890625 -1.3125 -3.4375 -2.046875l0.890625 -1.40625l0.828125 0.421875q1.390625 -1.734375 2.453125 -3.78125l1.40625 0.828125q0.734375 0.40625 -0.09375 0.5625q-1.0625 1.484375 -2.53125 3.203125q0.8125 0.5 1.546875 0.984375q1.484375 -1.390625 3.046875 -3.609375l1.46875 0.90625q0.328125 0.328125 -0.25 0.40625q-1.546875 2.140625 -4.75 4.84375l4.921875 -0.328125q-0.65625 -0.734375 -1.3125 -1.390625l1.140625 -0.984375q1.890625 1.390625 3.125 3.6875l-1.390625 1.0625l-0.65625 -1.140625l-5.34375 0.484375l-0.65625 1.390625l4.109375 0l0.25 -0.40625l1.390625 0.828125q0.578125 0.234375 -0.328125 0.484375q-1.15625 2.140625 -2.546875 3.453125q2.140625 1.3125 5.328125 1.796875l-0.65625 1.890625q-3.28125 -0.734375 -5.90625 -2.546875zm0 -2.046875q0.90625 -0.90625 1.734375 -2.140625l-3.203125 0q0.484375 1.15625 1.46875 2.140625zm-7.953125 4.671875l-1.640625 0l0 -8.453125q-0.734375 0.75 -1.71875 1.5625l-0.734375 -1.640625q2.703125 -2.125 4.421875 -5.5l1.484375 0.984375q0.328125 0.328125 -0.25 0.421875q-0.578125 0.984375 -1.5625 2.296875l0 10.328125zm1.484375 -16.984375q-1.484375 2.140625 -4.359375 4.109375l-0.890625 -1.640625q2.453125 -1.640625 4.265625 -3.9375l1.46875 1.140625q0.078125 0.421875 -0.484375 0.328125zm25.59375 3.703125q-1.40625 8.203125 -3.375 10.171875q-1.0625 1.0625 -2.203125 1.0625q-1.3125 0 -2.0625 -0.734375q-1.96875 -1.96875 -1.96875 -4.921875q0 -3.609375 2.546875 -6.15625q2.796875 -2.796875 6.8125 -2.796875q3.609375 0 5.65625 2.0625q2.296875 2.296875 2.296875 5.40625q0 3.359375 -2.125 5.5q-1.40625 1.390625 -4.265625 2.703125l-1.734375 -1.71875q2.875 -0.90625 4.515625 -2.546875q1.5625 -1.5625 1.5625 -3.765625q0 -2.625 -1.71875 -4.359375q-1.734375 -1.71875 -5.421875 -1.546875l1.484375 0.734375q0.984375 0.40625 0 0.90625zm-1.890625 -1.5625q-2.140625 0.484375 -3.6875 2.046875q-2.140625 2.140625 -2.140625 5.25q0 1.890625 1.234375 3.125q0.25 0.234375 0.734375 0.234375q0.5 0 1.0625 -0.5625q1.890625 -1.890625 2.796875 -10.09375zm30.515625 14.515625q-4.59375 -2.875 -5.828125 -8.125q-0.40625 5.671875 -5.078125 8.375l-0.90625 -1.71875q4.671875 -2.546875 4.671875 -9.609375l-4.265625 0l0 -1.546875l4.34375 0l0 -5.578125l1.5625 0q0.65625 0.078125 0.078125 0.484375l0 5.09375l5.828125 0l0 1.546875l-5.40625 0q0.8125 6.15625 5.90625 9.03125l-0.90625 2.046875zm-17.796875 -6.5625q2.625 -1.234375 4.015625 -2.21875l0 -9.34375l1.5625 0q0.65625 0.078125 0.078125 0.484375l0 17.890625l-1.640625 0l0 -7.140625l-2.953125 1.96875q-0.078125 0.578125 -0.40625 0.25l-0.65625 -1.890625zm1.796875 -3.4375q-0.484375 -1.96875 -1.5625 -3.9375l1.640625 -0.65625q1.078125 1.71875 1.640625 4.015625l-1.71875 0.578125zm12.875 -7.140625q1.640625 0.90625 2.296875 2.21875l-1.3125 1.3125q-0.8125 -1.3125 -2.203125 -2.296875l1.21875 -1.234375zm12.3125 0.578125l0.984375 -0.75q1.796875 1.234375 2.953125 2.546875l-1.15625 0.984375l-0.734375 -0.734375l-7.046875 0.578125q-0.09375 0.5625 -0.421875 0.234375l-0.40625 -1.640625l1.8125 0l1.640625 -3.109375l1.546875 0.40625q0.328125 0.328125 -0.234375 0.40625l-1.484375 2.21875l3.609375 -0.15625l-1.0625 -0.984375zm2.453125 3.4375l0 6.640625q0 1.234375 -0.890625 1.234375l-1.734375 0l-0.328125 -1.3125l1.234375 0q0.328125 0 0.328125 -0.328125l0 -1.0625l-4.015625 0l0 2.703125l-1.390625 0l0 -7.875l6.796875 0zm7.21875 8.375q1.484375 1.0625 2.875 3.109375l-1.5625 1.078125q-1.0625 -1.890625 -2.625 -3.296875l1.3125 -0.890625zm-3.765625 -4.84375q2.453125 -0.65625 4.671875 -1.484375l0.90625 1.234375q0.078125 0.578125 -0.5 0.25q-2.453125 0.734375 -5.078125 1.234375l0 1.0625q0 0.578125 0.578125 0.578125l3.515625 0q0.75 0 0.828125 -1.5625l1.46875 0.484375q-0.234375 2.390625 -1.640625 2.390625l-4.671875 0q-1.46875 0 -1.46875 -1.484375l0 -4.59375l1.3125 0q0.65625 0.078125 0.078125 0.5l0 1.390625zm-1.390625 -8.703125l1.3125 0q0.65625 0.09375 0.078125 0.5l0 1.640625q2.125 -0.5 4.09375 -1.234375l0.90625 1.234375q0.078125 0.578125 -0.484375 0.25q-2.140625 0.65625 -4.515625 1.0625l0 0.90625q0 0.5625 0.578125 0.5625l3.28125 0q0.484375 0 0.5625 -0.40625l0.171875 -1.0625l1.46875 0.484375l-0.328125 1.078125q-0.40625 1.21875 -1.3125 1.21875l-4.34375 0q-1.46875 0 -1.46875 -1.46875l0 -4.765625zm-3.453125 6.15625l-4.015625 0l0 1.15625l4.015625 0l0 -1.15625zm0 2.140625l-4.015625 0l0 1.0625l4.015625 0l0 -1.0625zm2.21875 4.671875q1.140625 1.0625 1.71875 2.046875l-1.3125 0.984375q-0.65625 -1.234375 -1.640625 -2.125l1.234375 -0.90625zm-2.703125 0.65625q0.65625 0.078125 0.078125 0.484375l0 2.140625q0 0.65625 0.578125 0.65625l4.671875 0q1.140625 0 1.234375 -1.640625l1.640625 0.484375q-0.578125 2.71875 -2.21875 2.71875l-6.078125 0q-1.46875 0 -1.46875 -1.390625l0 -3.453125l1.5625 0zm-6.15625 3.453125q1.140625 -1.328125 1.96875 -3.125l1.390625 0.734375q0.65625 0.40625 -0.15625 0.578125q-0.75 1.5625 -1.890625 2.875l-1.3125 -1.0625zm25.265625 -16.421875q-0.328125 2.140625 -1.15625 4.6875q0.75 0.078125 0.25 0.5625l0 12.71875l-1.640625 0l0 -10.171875q-0.578125 0.90625 -1.0625 1.484375l-1.3125 -0.984375q2.78125 -3.375 3.28125 -9.109375l1.890625 0.40625q0.328125 0.328125 -0.25 0.40625zm8.03125 3.046875l0 1.546875l4.03125 0l0 9.6875l-7.640625 0l0 -9.6875l1.96875 0l0 -1.546875l-5.90625 0l0 -1.5625l5.90625 0l0 -2.296875l1.5625 0q0.65625 0.078125 0.078125 0.484375l0 1.8125l5.34375 0l0 1.5625l-5.34375 0zm-2.203125 2.859375l0 1.484375l4.828125 0l0 -1.484375l-4.828125 0zm0 2.796875l0 1.390625l4.828125 0l0 -1.390625l-4.828125 0zm0 2.703125l0 1.5625l4.828125 0l0 -1.5625l-4.828125 0zm-4.765625 6.5625l0 -13.125l1.5625 0q0.65625 0.078125 0.078125 0.5l0 10.328125l11.328125 0l0 1.5625l-11.328125 0l0 0.734375l-1.640625 0zm18.453125 -9.015625q0 -4.515625 -3.765625 -8.046875l0.90625 -0.90625q4.09375 3.859375 4.09375 8.953125q0 5.078125 -4.09375 8.9375l-0.90625 -0.90625q3.765625 -3.53125 3.765625 -8.03125z" fill-rule="nonzero"/><path fill="#ffffff" d="m322.88898 168.3507l96.00433 0l0 39.695404l-96.00433 0z" fill-rule="evenodd"/><path fill="#000000" d="m351.5285 194.97131q0 0.5625 -0.1875 1.0q-0.1875 0.4375 -0.515625 0.78125q-0.328125 0.328125 -0.75 0.578125q-0.421875 0.234375 -0.90625 0.390625q-0.484375 0.15625 -1.0 0.21875q-0.515625 0.078125 -1.0 0.078125q-1.0625 0 -1.953125 -0.09375q-0.890625 -0.09375 -1.75 -0.296875l0 -1.671875q0.921875 0.265625 1.828125 0.40625q0.90625 0.125 1.796875 0.125q1.3125 0 1.9375 -0.34375q0.625 -0.359375 0.625 -1.015625q0 -0.28125 -0.109375 -0.5q-0.09375 -0.234375 -0.359375 -0.4375q-0.25 -0.203125 -0.796875 -0.421875q-0.546875 -0.21875 -1.5 -0.5q-0.703125 -0.203125 -1.3125 -0.46875q-0.59375 -0.265625 -1.03125 -0.625q-0.4375 -0.375 -0.6875 -0.859375q-0.25 -0.5 -0.25 -1.15625q0 -0.4375 0.203125 -0.953125q0.203125 -0.53125 0.6875 -0.96875q0.5 -0.453125 1.328125 -0.75q0.828125 -0.296875 2.078125 -0.296875q0.625 0 1.375 0.0625q0.75 0.0625 1.5625 0.234375l0 1.609375q-0.859375 -0.203125 -1.625 -0.296875q-0.765625 -0.109375 -1.328125 -0.109375q-0.671875 0 -1.140625 0.109375q-0.46875 0.109375 -0.75 0.296875q-0.28125 0.171875 -0.40625 0.421875q-0.125 0.234375 -0.125 0.515625q0 0.28125 0.109375 0.515625q0.109375 0.234375 0.40625 0.453125q0.296875 0.203125 0.828125 0.421875q0.53125 0.203125 1.375 0.453125q0.9375 0.28125 1.5625 0.578125q0.640625 0.296875 1.03125 0.65625q0.40625 0.359375 0.578125 0.828125q0.171875 0.453125 0.171875 1.03125zm11.866943 2.71875q-0.609375 0.15625 -1.265625 0.21875q-0.65625 0.0625 -1.34375 0.0625q-1.96875 0 -2.9375 -0.890625q-0.96875 -0.890625 -0.96875 -2.734375l0 -5.453125l-2.921875 0l0 -1.515625l2.921875 0l0 -2.875l1.8125 -0.46875l0 3.34375l4.703125 0l0 1.515625l-4.703125 0l0 5.3125q0 1.125 0.59375 1.6875q0.609375 0.546875 1.78125 0.546875q0.5 0 1.09375 -0.078125q0.59375 -0.078125 1.234375 -0.234375l0 1.5625zm10.023163 0.140625l-0.046875 -1.40625q-0.859375 0.84375 -1.734375 1.21875q-0.875 0.375 -1.84375 0.375q-0.90625 0 -1.546875 -0.21875q-0.625 -0.234375 -1.046875 -0.640625q-0.40625 -0.40625 -0.59375 -0.9375q-0.1875 -0.546875 -0.1875 -1.1875q0 -1.5625 1.171875 -2.453125q1.171875 -0.890625 3.453125 -0.890625l2.171875 0l0 -0.921875q0 -0.921875 -0.59375 -1.484375q-0.59375 -0.5625 -1.8125 -0.5625q-0.890625 0 -1.75 0.203125q-0.859375 0.203125 -1.765625 0.5625l0 -1.640625q0.34375 -0.125 0.765625 -0.234375q0.421875 -0.125 0.890625 -0.21875q0.46875 -0.09375 0.96875 -0.140625q0.515625 -0.0625 1.03125 -0.0625q0.953125 0 1.703125 0.203125q0.765625 0.203125 1.296875 0.640625q0.53125 0.421875 0.8125 1.078125q0.28125 0.640625 0.28125 1.515625l0 7.203125l-1.625 0zm-0.203125 -4.765625l-2.296875 0q-0.6875 0 -1.171875 0.140625q-0.484375 0.140625 -0.796875 0.390625q-0.3125 0.25 -0.46875 0.59375q-0.15625 0.34375 -0.15625 0.78125q0 0.3125 0.09375 0.59375q0.09375 0.265625 0.296875 0.484375q0.21875 0.203125 0.546875 0.328125q0.34375 0.125 0.8125 0.125q0.625 0 1.4375 -0.375q0.8125 -0.375 1.703125 -1.203125l0 -1.859375zm13.632568 4.625q-0.609375 0.15625 -1.265625 0.21875q-0.65625 0.0625 -1.34375 0.0625q-1.96875 0 -2.9375 -0.890625q-0.96875 -0.890625 -0.96875 -2.734375l0 -5.453125l-2.921875 0l0 -1.515625l2.921875 0l0 -2.875l1.8125 -0.46875l0 3.34375l4.703125 0l0 1.515625l-4.703125 0l0 5.3125q0 1.125 0.59375 1.6875q0.609375 0.546875 1.78125 0.546875q0.5 0 1.09375 -0.078125q0.59375 -0.078125 1.234375 -0.234375l0 1.5625zm12.132538 -5.640625q0 0.390625 -0.015625 0.65625q0 0.25 -0.03125 0.484375l-7.34375 0q0 1.59375 0.890625 2.453125q0.90625 0.859375 2.59375 0.859375q0.453125 0 0.90625 -0.03125q0.46875 -0.03125 0.890625 -0.09375q0.4375 -0.0625 0.828125 -0.140625q0.390625 -0.078125 0.71875 -0.171875l0 1.484375q-0.734375 0.203125 -1.671875 0.328125q-0.9375 0.140625 -1.9375 0.140625q-1.34375 0 -2.3125 -0.359375q-0.96875 -0.375 -1.59375 -1.0625q-0.609375 -0.6875 -0.90625 -1.6875q-0.296875 -1.015625 -0.296875 -2.28125q0 -1.109375 0.3125 -2.09375q0.328125 -0.984375 0.9375 -1.71875q0.609375 -0.75 1.484375 -1.1875q0.890625 -0.4375 2.015625 -0.4375q1.09375 0 1.9375 0.34375q0.84375 0.34375 1.421875 0.96875q0.578125 0.625 0.875 1.53125q0.296875 0.90625 0.296875 2.015625zm-1.890625 -0.265625q0.03125 -0.6875 -0.140625 -1.265625q-0.15625 -0.578125 -0.515625 -1.0q-0.34375 -0.421875 -0.859375 -0.65625q-0.515625 -0.234375 -1.203125 -0.234375q-0.59375 0 -1.09375 0.234375q-0.484375 0.234375 -0.84375 0.65625q-0.34375 0.40625 -0.5625 1.0q-0.21875 0.578125 -0.28125 1.265625l5.5 0z" fill-rule="nonzero"/><path fill="#fff2cc" d="m462.41492 134.75198l37.03241 0l0 0l55.548584 0l129.61346 0l0 17.990417l0 0l0 26.985611l0 62.966446l-129.61346 0l-55.548584 0l0 0l-37.03241 0l0 -62.966446l-60.97461 -37.752518l60.97461 10.766907z" fill-rule="evenodd"/><path stroke="#000000" stroke-width="1.0" stroke-linejoin="round" stroke-linecap="butt" d="m462.41492 134.75198l37.03241 0l0 0l55.548584 0l129.61346 0l0 17.990417l0 0l0 26.985611l0 62.966446l-129.61346 0l-55.548584 0l0 0l-37.03241 0l0 -62.966446l-60.97461 -37.752518l60.97461 10.766907z" fill-rule="evenodd"/><path fill="#000000" d="m480.11804 159.17198q0 0.484375 -0.171875 0.875q-0.15625 0.375 -0.4375 0.671875q-0.28125 0.296875 -0.65625 0.515625q-0.375 0.203125 -0.796875 0.34375q-0.421875 0.125 -0.875 0.1875q-0.453125 0.0625 -0.875 0.0625q-0.921875 0 -1.703125 -0.078125q-0.78125 -0.078125 -1.53125 -0.265625l0 -1.453125q0.796875 0.234375 1.59375 0.359375q0.796875 0.109375 1.578125 0.109375q1.140625 0 1.6875 -0.3125q0.546875 -0.3125 0.546875 -0.890625q0 -0.234375 -0.09375 -0.421875q-0.078125 -0.203125 -0.3125 -0.375q-0.21875 -0.1875 -0.703125 -0.375q-0.484375 -0.203125 -1.3125 -0.4375q-0.609375 -0.1875 -1.140625 -0.421875q-0.515625 -0.234375 -0.90625 -0.546875q-0.375 -0.328125 -0.59375 -0.75q-0.21875 -0.421875 -0.21875 -1.015625q0 -0.375 0.171875 -0.828125q0.171875 -0.453125 0.59375 -0.84375q0.4375 -0.40625 1.171875 -0.65625q0.734375 -0.265625 1.8125 -0.265625q0.546875 0 1.203125 0.0625q0.65625 0.0625 1.359375 0.203125l0 1.40625q-0.75 -0.171875 -1.421875 -0.25q-0.65625 -0.09375 -1.15625 -0.09375q-0.59375 0 -1.0 0.09375q-0.390625 0.078125 -0.65625 0.25q-0.25 0.15625 -0.359375 0.375q-0.109375 0.203125 -0.109375 0.453125q0 0.25 0.09375 0.453125q0.109375 0.1875 0.359375 0.375q0.265625 0.1875 0.71875 0.375q0.46875 0.1875 1.21875 0.40625q0.8125 0.234375 1.359375 0.5q0.5625 0.25 0.90625 0.578125q0.359375 0.3125 0.5 0.71875q0.15625 0.40625 0.15625 0.90625zm10.382294 2.375q-0.53125 0.140625 -1.109375 0.1875q-0.578125 0.0625 -1.171875 0.0625q-1.71875 0 -2.5625 -0.78125q-0.84375 -0.78125 -0.84375 -2.390625l0 -4.765625l-2.5625 0l0 -1.328125l2.5625 0l0 -2.515625l1.578125 -0.40625l0 2.921875l4.109375 0l0 1.328125l-4.109375 0l0 4.640625q0 0.984375 0.515625 1.46875q0.53125 0.484375 1.546875 0.484375q0.4375 0 0.953125 -0.0625q0.53125 -0.0625 1.09375 -0.21875l0 1.375zm8.757294 0.125l-0.03125 -1.234375q-0.75 0.75 -1.515625 1.078125q-0.765625 0.3125 -1.625 0.3125q-0.78125 0 -1.34375 -0.1875q-0.546875 -0.203125 -0.90625 -0.546875q-0.359375 -0.359375 -0.53125 -0.828125q-0.15625 -0.484375 -0.15625 -1.03125q0 -1.375 1.015625 -2.15625q1.03125 -0.78125 3.03125 -0.78125l1.890625 0l0 -0.796875q0 -0.8125 -0.515625 -1.296875q-0.515625 -0.5 -1.578125 -0.5q-0.78125 0 -1.53125 0.1875q-0.75 0.171875 -1.546875 0.484375l0 -1.4375q0.296875 -0.109375 0.65625 -0.203125q0.375 -0.109375 0.78125 -0.1875q0.40625 -0.078125 0.859375 -0.125q0.453125 -0.0625 0.90625 -0.0625q0.828125 0 1.484375 0.1875q0.671875 0.171875 1.125 0.546875q0.46875 0.375 0.703125 0.953125q0.25 0.5625 0.25 1.328125l0 6.296875l-1.421875 0zm-0.171875 -4.15625l-2.015625 0q-0.578125 0 -1.015625 0.125q-0.421875 0.109375 -0.703125 0.328125q-0.265625 0.21875 -0.40625 0.53125q-0.125 0.296875 -0.125 0.671875q0 0.265625 0.078125 0.515625q0.078125 0.234375 0.265625 0.421875q0.1875 0.1875 0.46875 0.296875q0.296875 0.109375 0.71875 0.109375q0.546875 0 1.25 -0.328125q0.703125 -0.34375 1.484375 -1.0625l0 -1.609375zm11.929169 4.03125q-0.53125 0.140625 -1.109375 0.1875q-0.578125 0.0625 -1.171875 0.0625q-1.71875 0 -2.5625 -0.78125q-0.84375 -0.78125 -0.84375 -2.390625l0 -4.765625l-2.5625 0l0 -1.328125l2.5625 0l0 -2.515625l1.578125 -0.40625l0 2.921875l4.109375 0l0 1.328125l-4.109375 0l0 4.640625q0 0.984375 0.515625 1.46875q0.53125 0.484375 1.546875 0.484375q0.4375 0 0.953125 -0.0625q0.53125 -0.0625 1.09375 -0.21875l0 1.375zm10.616669 -4.9375q0 0.34375 -0.015625 0.578125q0 0.21875 -0.03125 0.421875l-6.421875 0q0 1.40625 0.78125 2.15625q0.796875 0.75 2.265625 0.75q0.40625 0 0.796875 -0.03125q0.40625 -0.03125 0.78125 -0.078125q0.375 -0.0625 0.71875 -0.125q0.34375 -0.078125 0.625 -0.15625l0 1.296875q-0.640625 0.1875 -1.46875 0.296875q-0.8125 0.109375 -1.6875 0.109375q-1.171875 0 -2.015625 -0.3125q-0.84375 -0.3125 -1.390625 -0.921875q-0.546875 -0.609375 -0.8125 -1.484375q-0.25 -0.875 -0.25 -2.0q0 -0.953125 0.28125 -1.8125q0.28125 -0.859375 0.8125 -1.515625q0.53125 -0.65625 1.296875 -1.03125q0.78125 -0.390625 1.765625 -0.390625q0.953125 0 1.6875 0.3125q0.75 0.296875 1.25 0.84375q0.5 0.546875 0.765625 1.34375q0.265625 0.78125 0.265625 1.75zm-1.65625 -0.21875q0.03125 -0.609375 -0.125 -1.109375q-0.140625 -0.515625 -0.453125 -0.875q-0.296875 -0.375 -0.75 -0.578125q-0.453125 -0.203125 -1.0625 -0.203125q-0.515625 0 -0.953125 0.203125q-0.421875 0.203125 -0.734375 0.5625q-0.296875 0.359375 -0.5 0.875q-0.1875 0.515625 -0.234375 1.125l4.8125 0z" fill-rule="nonzero"/><path fill="#000000" d="m536.3576 149.79698q3.046875 3.109375 4.15625 7.5l-1.625 0.65625q-1.34375 -4.8125 -3.859375 -7.1875l1.328125 -0.96875zm-2.21875 5.9375q0 4.296875 -1.265625 5.5625q-0.75 0.75 -1.703125 0.75q-1.421875 0 -2.828125 -1.640625l0.96875 -1.328125q1.1875 1.1875 1.78125 1.1875q0.375 0 0.671875 -0.296875q0.8125 -0.828125 0.8125 -4.53125q0 -2.078125 -0.453125 -2.53125q-0.21875 -0.21875 -0.890625 -0.21875q-0.65625 0 -1.84375 0.15625q-1.5625 5.484375 -3.71875 9.421875l-1.703125 -0.59375q2.15625 -3.34375 3.78125 -8.6875q-1.625 0.21875 -3.1875 0.375l-0.15625 -1.640625q1.34375 0 3.71875 -0.21875q0.671875 -2.296875 1.109375 -4.671875l1.5625 0.515625q0.890625 0.375 -0.078125 0.671875q-0.4375 1.5625 -0.890625 3.34375q0.890625 -0.15625 1.859375 -0.15625q1.03125 0 1.5625 0.515625q0.890625 0.890625 0.890625 4.015625zm4.15625 -9.796875q1.328125 0.734375 2.96875 2.078125l-0.890625 0.890625q-1.640625 -1.265625 -2.96875 -2.078125l0.890625 -0.890625zm0.515625 4.75q-1.703125 -1.40625 -2.890625 -2.15625l0.890625 -0.890625q1.328125 0.75 2.96875 2.078125l-0.96875 0.96875zm12.984375 8.453125q1.34375 -0.890625 2.078125 -1.84375l-3.703125 0q0.515625 1.03125 1.625 1.84375zm-1.328125 -3.03125l4.15625 0l0.21875 -0.375l1.265625 0.890625q0.359375 0.296875 -0.15625 0.375q-1.109375 1.546875 -2.96875 2.96875q2.078125 1.1875 6.53125 1.546875l-0.515625 1.640625q-4.53125 -0.375 -7.28125 -2.234375q-4.078125 2.234375 -7.78125 2.609375l-0.59375 -1.5625q4.0 -0.375 7.1875 -2.078125q-0.59375 -0.59375 -1.40625 -1.78125q-2.296875 2.078125 -4.296875 2.59375l-0.75 -1.265625q3.78125 -1.25 5.640625 -4.59375l1.1875 0.4375q0.375 0.234375 -0.140625 0.296875l-0.296875 0.53125zm3.265625 -2.234375q0 1.265625 -1.125 1.265625l-1.03125 0l-0.375 -1.40625l0.8125 0q0.234375 0 0.234375 -0.234375l0 -3.625l-1.859375 0l0 1.546875q0 4.234375 -5.125 5.5l-0.671875 -1.40625q4.3125 -0.96875 4.3125 -4.09375l0 -1.546875l-5.640625 0l0 -1.421875l7.125 0l0 -2.21875l1.625 0q0.75 0.140625 0.078125 0.59375l0 1.625l7.125 0l0 1.421875l-5.484375 0l0 4.0zm-10.25 -0.734375q1.859375 -0.96875 3.046875 -2.53125l1.328125 1.046875q0.234375 0.296875 -0.296875 0.296875q-1.109375 1.546875 -3.1875 2.59375l-0.890625 -1.40625zm11.953125 -2.453125q2.21875 1.1875 3.5625 2.59375l-1.265625 1.484375q-1.703125 -1.703125 -3.34375 -2.75l1.046875 -1.328125zm22.859375 12.765625q-5.859375 -0.515625 -9.203125 -2.375q-1.859375 1.5625 -6.609375 2.453125l-0.515625 -1.5625q4.375 -0.75 5.78125 -1.859375q-0.953125 -0.8125 -1.921875 -2.078125l1.328125 -0.515625q0.59375 0.734375 1.640625 1.5625q0.59375 -0.96875 0.671875 -2.15625l-3.859375 0l0 0.59375l-1.484375 0l0 -7.578125l5.40625 0l0 -1.546875l-7.484375 0l0 -1.421875l16.03125 0l0 1.421875l-7.0625 0l0 1.546875l5.5 0l0 7.875l-1.484375 0l0 -0.890625l-4.078125 0q-0.078125 1.484375 -0.890625 2.890625q2.515625 1.484375 8.453125 2.015625l-0.21875 1.625zm-12.6875 -12.328125l0 1.71875l3.921875 0l0 -1.71875l-3.921875 0zm5.40625 0l0 1.71875l4.015625 0l0 -1.71875l-4.015625 0zm0 4.609375l4.015625 0l0 -1.703125l-4.015625 0l0 1.703125zm-1.484375 0l0 -1.703125l-3.921875 0l0 1.703125l3.921875 0zm17.671875 -3.9375q-3.046875 0.21875 -6.015625 0.21875l-0.4375 -1.484375q3.625 0 5.859375 -0.140625q-0.75 -2.078125 -1.046875 -3.859375l1.640625 0q0.671875 0.140625 0.140625 0.59375q0.296875 1.40625 0.890625 3.109375q2.609375 -0.21875 4.453125 -0.65625l0.375 1.625q-2.15625 0.296875 -4.234375 0.453125q1.484375 2.8125 4.53125 4.890625l-1.109375 1.34375q-2.75 -1.265625 -5.421875 -1.265625q-2.453125 0 -3.40625 0.96875q-0.453125 0.4375 -0.453125 1.25q0 0.75 0.671875 1.421875q1.03125 1.03125 4.890625 1.03125l2.609375 0l-0.375 1.640625l-2.828125 0q-3.859375 0 -5.40625 -1.5625q-1.125 -1.109375 -1.125 -2.53125q0 -1.40625 0.828125 -2.21875q1.328125 -1.34375 4.15625 -1.34375q2.8125 0 3.265625 0.296875q-1.78125 -2.21875 -2.453125 -3.78125zm19.4375 1.40625q0.078125 -1.40625 -0.8125 -1.40625q-1.265625 0 -4.890625 3.640625l0 7.421875l-1.484375 0l0 -6.09375l-3.265625 4.09375l-1.1875 -1.1875l2.96875 -3.5q0.8125 -1.03125 1.484375 -2.140625l0 -1.78125l-3.265625 1.109375l-0.453125 -1.5625l3.71875 -0.96875l0 -4.375l1.328125 0q0.671875 0.15625 0.15625 0.59375l0 3.34375l0.8125 0.4375q0.671875 0.296875 -0.15625 0.671875l-0.65625 1.40625l0 0.53125q3.484375 -3.265625 5.265625 -3.265625q2.21875 0 2.0 2.96875l-0.375 5.703125q-0.0625 1.1875 0.890625 1.1875q0.96875 0 1.421875 -0.515625q0.65625 -0.8125 1.109375 -1.921875l1.265625 1.03125q-0.75 1.40625 -1.421875 2.078125q-0.953125 0.96875 -2.21875 0.96875q-2.75 0 -2.59375 -2.828125l0.359375 -5.640625zm17.078125 8.09375q1.1875 -0.140625 2.0 -0.96875q0.890625 -0.890625 0.890625 -2.375q0 -1.625 -0.96875 -2.59375q-0.953125 -0.96875 -3.03125 -0.96875q-2.453125 0 -3.796875 0.96875q-1.25 0.890625 -3.265625 3.1875l-1.25 -1.109375q5.34375 -5.34375 8.078125 -8.90625q-2.4375 0.296875 -4.890625 0.515625l-0.515625 -1.703125q3.625 0 6.453125 -0.375l0.671875 -0.296875l0.8125 0.828125q0.8125 0.734375 -0.375 0.953125q-2.21875 2.53125 -4.453125 4.984375q1.5625 -0.375 2.59375 -0.375q2.828125 0 4.15625 1.328125q1.34375 1.34375 1.34375 3.421875q0 2.15625 -1.1875 3.34375q-1.78125 1.78125 -4.53125 1.78125q-2.59375 0 -3.78125 -1.1875q-0.96875 -0.96875 -0.96875 -2.3125q0 -0.890625 0.671875 -1.546875q0.734375 -0.75 1.703125 -0.75q1.34375 0 2.234375 0.890625q1.03125 1.046875 1.40625 3.265625zm-1.484375 0.21875q-0.21875 -1.921875 -0.890625 -2.59375q-0.515625 -0.515625 -1.046875 -0.515625q-0.59375 0 -0.890625 0.296875q-0.359375 0.375 -0.359375 0.8125q0 0.671875 0.59375 1.265625q0.734375 0.734375 1.921875 0.734375q0.296875 0 0.671875 0zm12.324219 -14.6875l1.546875 0q0.828125 0.140625 0.15625 0.59375l0.140625 3.5625q0.078125 1.5625 0.53125 2.515625q2.078125 -0.890625 5.5625 -1.84375l0.734375 1.921875q-7.046875 1.265625 -9.421875 3.640625q-0.8125 0.8125 -0.8125 1.703125q0 0.671875 0.515625 1.1875q0.515625 0.515625 2.15625 0.515625l7.125 0l0 1.640625l-7.203125 0q-2.453125 0 -3.40625 -0.96875q-0.96875 -0.96875 -0.96875 -2.21875q0 -1.640625 1.1875 -2.828125q0.890625 -0.890625 2.96875 -2.078125q-0.453125 -1.109375 -0.515625 -2.453125l-0.296875 -4.890625zm21.078125 5.265625l-10.328125 0l0 -1.625l12.03125 0l0 10.609375l-1.703125 0l0 -0.8125l-10.328125 0l0 -1.640625l10.328125 0l0 -6.53125z" fill-rule="nonzero"/><path fill="#000000" d="m486.85242 175.0626q-3.9375 8.15625 -13.203125 8.609375q-0.375 0.96875 -0.75 0.15625l-0.59375 -1.9375q9.65625 -0.21875 12.984375 -7.9375l1.5625 1.109375zm-10.46875 0q-2.0 -1.859375 -3.78125 -3.046875l1.265625 -1.5625q1.5625 0.96875 3.9375 3.203125l-1.421875 1.40625zm26.871094 -3.859375q0.59375 0 0.96875 -0.375q0.375 -0.375 0.375 -0.96875q0 -0.59375 -0.375 -0.953125q-0.375 -0.375 -0.96875 -0.375q-0.59375 0 -0.96875 0.375q-0.359375 0.359375 -0.359375 0.953125q0 0.59375 0.359375 0.96875q0.375 0.375 0.96875 0.375zm0 0.734375q-0.890625 0 -1.484375 -0.59375q-0.59375 -0.59375 -0.59375 -1.484375q0 -0.890625 0.59375 -1.484375q0.59375 -0.59375 1.484375 -0.59375q0.890625 0 1.484375 0.59375q0.59375 0.59375 0.59375 1.484375q0 0.890625 -0.59375 1.484375q-0.59375 0.59375 -1.484375 0.59375zm-2.515625 4.15625q2.671875 2.828125 4.0 5.203125l-1.625 1.109375q-1.5625 -2.75 -3.796875 -5.125l1.421875 -1.1875zm-3.5625 -3.1875l6.828125 0l0 1.640625l-6.828125 0l0 10.3125l-1.71875 0l0 -10.3125l-6.671875 0l0 -1.640625l6.671875 0l0 -4.15625l1.5625 0q0.8125 0.15625 0.15625 0.59375l0 3.5625zm-3.9375 4.078125q0.4375 0.375 -0.296875 0.53125q-1.109375 2.4375 -2.828125 5.109375l-1.625 -0.890625q1.859375 -2.671875 3.109375 -5.640625l1.640625 0.890625zm13.578125 0.59375l0 -1.625l16.546875 0l0 1.625l-16.546875 0zm29.835938 -5.78125l0.453125 -0.15625l0.8125 1.125q0.296875 0.515625 -0.296875 0.515625q-1.5625 1.625 -4.078125 3.640625l0 7.796875l-1.71875 0l0 -6.609375q-2.4375 1.625 -5.484375 2.96875l-1.265625 -1.34375q6.15625 -2.296875 10.09375 -6.3125l-8.390625 0.375l-0.21875 -1.625l5.265625 -0.15625l0 -3.34375l1.484375 0q0.671875 0.15625 0.234375 0.59375l0 2.671875l3.109375 -0.140625zm2.96875 9.28125q-2.515625 -2.15625 -4.53125 -3.265625l1.125 -1.421875q2.671875 1.421875 4.671875 3.203125l-1.265625 1.484375zm17.664062 -6.015625q-3.9375 8.15625 -13.203125 8.609375q-0.375 0.96875 -0.75 0.15625l-0.59375 -1.9375q9.65625 -0.21875 12.984375 -7.9375l1.5625 1.109375zm-10.46875 0q-2.0 -1.859375 -3.78125 -3.046875l1.265625 -1.5625q1.5625 0.96875 3.9375 3.203125l-1.421875 1.40625zm15.511719 -0.296875q3.640625 1.03125 7.359375 2.8125l-0.890625 1.71875q-3.9375 -2.015625 -6.46875 -2.671875l0 7.71875l-1.703125 0l0 -14.84375l1.484375 0q0.890625 0.0625 0.21875 0.59375l0 4.671875zm18.492188 -1.5625q-1.265625 7.421875 -3.046875 9.203125q-0.96875 0.96875 -2.0 0.96875q-1.1875 0 -1.859375 -0.671875q-1.78125 -1.78125 -1.78125 -4.453125q0 -3.265625 2.296875 -5.5625q2.53125 -2.53125 6.15625 -2.53125q3.265625 0 5.125 1.859375q2.078125 2.078125 2.078125 4.90625q0 3.03125 -1.921875 4.96875q-1.265625 1.265625 -3.859375 2.453125l-1.5625 -1.5625q2.59375 -0.8125 4.078125 -2.296875q1.40625 -1.421875 1.40625 -3.421875q0 -2.375 -1.546875 -3.9375q-1.5625 -1.546875 -4.90625 -1.40625l1.34375 0.671875q0.890625 0.375 0 0.8125zm-1.71875 -1.40625q-1.921875 0.4375 -3.328125 1.859375q-1.9375 1.921875 -1.9375 4.75q0 1.703125 1.109375 2.8125q0.234375 0.21875 0.671875 0.21875q0.453125 0 0.96875 -0.515625q1.703125 -1.703125 2.515625 -9.125zm24.125 11.71875q0.296875 0 0.296875 -0.296875l0 -2.4375l-9.046875 0l0 4.375l-1.484375 0l0 -4.375l-2.453125 0l0 -1.421875l2.453125 0l0 -6.671875l5.265625 0l0 -1.9375l-7.28125 0l0 -1.40625l16.03125 0l0 1.40625l-7.265625 0l0 1.9375l5.265625 0l0 6.671875l2.53125 0l0 1.421875l-2.53125 0l0 3.1875q0 0.96875 -1.03125 0.96875l-2.53125 0l-0.296875 -1.421875l2.078125 0zm0.296875 -7.484375l0 -1.9375l-3.78125 0l0 1.9375l3.78125 0zm-5.265625 0l0 -1.9375l-3.78125 0l0 1.9375l3.78125 0zm5.265625 3.328125l0 -1.921875l-3.78125 0l0 1.921875l3.78125 0zm-5.265625 0l0 -1.921875l-3.78125 0l0 1.921875l3.78125 0zm13.734375 -10.984375l1.40625 0q0.59375 0.078125 0.078125 0.453125l0 2.8125l1.78125 0l0 1.421875l-1.78125 0l0 3.859375l1.84375 -0.671875l0.234375 1.328125l-2.078125 0.828125l0 5.640625q0 1.1875 -1.1875 1.1875l-1.421875 0l-0.359375 -1.40625l1.1875 0q0.296875 0 0.296875 -0.3125l0 -4.59375l-1.71875 0.515625q-0.0625 0.59375 -0.359375 0.296875l-0.375 -1.78125l2.453125 -0.59375l0 -4.296875l-2.234375 0l0 -1.421875l2.234375 0l0 -3.265625zm12.234375 16.640625l0 -0.828125l-6.453125 0l0 1.046875l-1.484375 0l0 -9.734375l9.421875 0l0 9.515625l-1.484375 0zm-6.453125 -4.6875l0 2.453125l2.59375 0l0 -2.453125l-2.59375 0zm3.859375 2.453125l2.59375 0l0 -2.453125l-2.59375 0l0 2.453125zm0 -5.859375l0 2.21875l2.59375 0l0 -2.21875l-2.59375 0zm-3.859375 0l0 2.21875l2.59375 0l0 -2.21875l-2.59375 0zm-1.921875 -4.3125l0 -1.40625l2.375 0l0 -2.828125l1.40625 0q0.59375 0.078125 0.078125 0.453125l0 2.375l2.296875 0l0 -2.828125l1.40625 0q0.59375 0.078125 0.078125 0.453125l0 2.375l3.046875 0l0 1.40625l-3.046875 0l0 1.9375l-1.484375 0l0 -1.9375l-2.296875 0l0 1.9375l-1.484375 0l0 -1.9375l-2.375 0zm27.078125 10.09375l0 -10.3125l1.421875 0q0.59375 0.078125 0.0625 0.4375l0 12.1875l-1.484375 0l0 -0.890625l-11.9375 0l0 0.953125l-1.484375 0l0 -12.765625l1.40625 0q0.59375 0.078125 0.078125 0.453125l0 9.9375l11.9375 0zm-6.59375 -2.8125l0 -2.375l-2.3125 0l0 2.375l2.3125 0zm3.5625 -2.375l-2.3125 0l0 2.375l2.3125 0l0 -2.375zm0 -1.1875l0 -2.15625l-2.3125 0l0 2.15625l2.3125 0zm5.40625 -5.578125l-7.71875 0l0 2.234375l3.5625 0l0 8.09375l-8.375 0l0 -8.09375l3.5625 0l0 -2.234375l-7.578125 0l0 -1.40625l16.546875 0l0 1.40625zm-8.96875 5.578125l0 -2.15625l-2.3125 0l0 2.15625l2.3125 0zm23.890625 -4.53125q3.046875 3.109375 4.15625 7.5l-1.625 0.65625q-1.34375 -4.8125 -3.859375 -7.1875l1.328125 -0.96875zm-2.21875 5.9375q0 4.296875 -1.265625 5.5625q-0.75 0.75 -1.703125 0.75q-1.421875 0 -2.828125 -1.640625l0.96875 -1.328125q1.1875 1.1875 1.78125 1.1875q0.375 0 0.671875 -0.296875q0.8125 -0.828125 0.8125 -4.53125q0 -2.078125 -0.453125 -2.53125q-0.21875 -0.21875 -0.890625 -0.21875q-0.65625 0 -1.84375 0.15625q-1.5625 5.484375 -3.71875 9.421875l-1.703125 -0.59375q2.15625 -3.34375 3.78125 -8.6875q-1.625 0.21875 -3.1875 0.375l-0.15625 -1.640625q1.34375 0 3.71875 -0.21875q0.671875 -2.296875 1.109375 -4.671875l1.5625 0.515625q0.890625 0.375 -0.078125 0.671875q-0.4375 1.5625 -0.890625 3.34375q0.890625 -0.15625 1.859375 -0.15625q1.03125 0 1.5625 0.515625q0.890625 0.890625 0.890625 4.015625zm4.15625 -9.796875q1.328125 0.734375 2.96875 2.078125l-0.890625 0.890625q-1.640625 -1.265625 -2.96875 -2.078125l0.890625 -0.890625zm0.515625 4.75q-1.703125 -1.40625 -2.890625 -2.15625l0.890625 -0.890625q1.328125 0.75 2.96875 2.078125l-0.96875 0.96875z" fill-rule="nonzero"/><path fill="#000000" d="m481.36804 198.92198q3.1875 2.4375 6.296875 5.640625l-1.484375 1.265625q-3.109375 -3.28125 -6.0 -5.5q-2.90625 3.109375 -6.609375 5.5625l-1.40625 -1.265625q7.859375 -5.109375 10.09375 -10.234375l-8.09375 0.515625l-0.21875 -1.78125l8.609375 -0.375l0.890625 -0.21875l1.1875 1.1875q0.515625 0.515625 -0.296875 0.671875q-1.421875 2.453125 -2.96875 4.53125zm8.082031 0.65625q3.265625 -3.328125 4.15625 -8.453125l1.859375 0.4375q0.59375 0.15625 -0.15625 0.59375q-0.4375 1.640625 -1.109375 3.203125l10.984375 0l0 1.625l-4.296875 0q-0.671875 5.796875 -5.578125 10.03125l-1.703125 -0.96875q5.125 -4.09375 5.421875 -9.0625l-5.640625 0q-0.96875 1.9375 -2.453125 3.421875l-1.484375 -0.828125zm32.804688 -2.140625q-3.78125 6.078125 -11.71875 8.609375q-0.234375 0.890625 -0.75 0.078125l-1.03125 -1.640625q8.078125 -1.78125 12.171875 -8.390625l1.328125 1.34375zm-11.421875 2.0q-2.234375 -1.640625 -3.71875 -2.375l1.109375 -1.5625q1.859375 0.96875 3.796875 2.375l-1.1875 1.5625zm2.21875 -4.375q-2.0 -1.421875 -3.703125 -2.375l0.953125 -1.5625q2.015625 1.109375 3.796875 2.375l-1.046875 1.5625zm6.15625 -5.046875q1.265625 0.953125 2.53125 2.296875l-0.96875 0.96875q-1.328125 -1.484375 -2.515625 -2.375l0.953125 -0.890625zm-1.78125 1.25q1.265625 1.046875 2.53125 2.375l-0.96875 0.890625q-1.265625 -1.328125 -2.59375 -2.4375l1.03125 -0.828125zm20.195312 13.8125l-13.359375 0l0 -1.40625l8.015625 0l0.140625 -5.578125l-6.078125 0l0 -1.40625l7.5625 0l-0.140625 6.984375l3.859375 0l0 1.40625zm2.0 -5.5l0 -1.625l16.546875 0l0 1.625l-16.546875 0zm28.867188 -0.4375q0 5.5625 -5.1875 8.015625l-1.484375 -1.265625q4.890625 -2.21875 4.96875 -6.828125l0 -7.421875l1.5625 0q0.734375 0.15625 0.140625 0.59375l0 6.90625zm-7.640625 1.625l-1.703125 0l0 -8.375l1.625 0q0.75 0.0625 0.078125 0.59375l0 7.78125zm25.753906 -3.703125q-3.9375 8.15625 -13.203125 8.609375q-0.375 0.96875 -0.75 0.15625l-0.59375 -1.9375q9.65625 -0.21875 12.984375 -7.9375l1.5625 1.109375zm-10.46875 0q-2.0 -1.859375 -3.78125 -3.046875l1.265625 -1.5625q1.5625 0.96875 3.9375 3.203125l-1.421875 1.40625zm25.246094 -1.5625q-1.421875 8.09375 -9.28125 11.578125l-1.34375 -1.40625q7.28125 -2.96875 8.765625 -10.25l-5.9375 0q-1.703125 2.828125 -3.5625 4.53125l-1.484375 -0.96875q3.859375 -3.484375 4.96875 -8.15625l1.703125 0.59375q0.453125 0.21875 -0.140625 0.4375q-0.296875 0.96875 -0.8125 1.9375l5.34375 0l0.65625 -0.375l1.34375 1.34375q0.515625 0.515625 -0.21875 0.734375zm0.4375 -1.78125q-1.1875 -1.703125 -2.296875 -2.59375l0.96875 -0.8125q1.25 1.109375 2.375 2.59375l-1.046875 0.8125zm2.15625 -0.890625q-1.1875 -1.484375 -2.15625 -2.375l0.890625 -0.890625q1.109375 1.046875 2.15625 2.375l-0.890625 0.890625zm8.980469 2.96875q-3.046875 0.21875 -6.015625 0.21875l-0.4375 -1.484375q3.625 0 5.859375 -0.140625q-0.75 -2.078125 -1.046875 -3.859375l1.640625 0q0.671875 0.140625 0.140625 0.59375q0.296875 1.40625 0.890625 3.109375q2.609375 -0.21875 4.453125 -0.65625l0.375 1.625q-2.15625 0.296875 -4.234375 0.453125q1.484375 2.8125 4.53125 4.890625l-1.109375 1.34375q-2.75 -1.265625 -5.421875 -1.265625q-2.453125 0 -3.40625 0.96875q-0.453125 0.4375 -0.453125 1.25q0 0.75 0.671875 1.421875q1.03125 1.03125 4.890625 1.03125l2.609375 0l-0.375 1.640625l-2.828125 0q-3.859375 0 -5.40625 -1.5625q-1.125 -1.109375 -1.125 -2.53125q0 -1.40625 0.828125 -2.21875q1.328125 -1.34375 4.15625 -1.34375q2.8125 0 3.265625 0.296875q-1.78125 -2.21875 -2.453125 -3.78125zm19.4375 1.40625q0.078125 -1.40625 -0.8125 -1.40625q-1.265625 0 -4.890625 3.640625l0 7.421875l-1.484375 0l0 -6.09375l-3.265625 4.09375l-1.1875 -1.1875l2.96875 -3.5q0.8125 -1.03125 1.484375 -2.140625l0 -1.78125l-3.265625 1.109375l-0.453125 -1.5625l3.71875 -0.96875l0 -4.375l1.328125 0q0.671875 0.15625 0.15625 0.59375l0 3.34375l0.8125 0.4375q0.671875 0.296875 -0.15625 0.671875l-0.65625 1.40625l0 0.53125q3.484375 -3.265625 5.265625 -3.265625q2.21875 0 2.0 2.96875l-0.375 5.703125q-0.0625 1.1875 0.890625 1.1875q0.96875 0 1.421875 -0.515625q0.65625 -0.8125 1.109375 -1.921875l1.265625 1.03125q-0.75 1.40625 -1.421875 2.078125q-0.953125 0.96875 -2.21875 0.96875q-2.75 0 -2.59375 -2.828125l0.359375 -5.640625zm17.078125 8.09375q1.1875 -0.140625 2.0 -0.96875q0.890625 -0.890625 0.890625 -2.375q0 -1.625 -0.96875 -2.59375q-0.953125 -0.96875 -3.03125 -0.96875q-2.453125 0 -3.796875 0.96875q-1.25 0.890625 -3.265625 3.1875l-1.25 -1.109375q5.34375 -5.34375 8.078125 -8.90625q-2.4375 0.296875 -4.890625 0.515625l-0.515625 -1.703125q3.625 0 6.453125 -0.375l0.671875 -0.296875l0.8125 0.828125q0.8125 0.734375 -0.375 0.953125q-2.21875 2.53125 -4.453125 4.984375q1.5625 -0.375 2.59375 -0.375q2.828125 0 4.15625 1.328125q1.34375 1.34375 1.34375 3.421875q0 2.15625 -1.1875 3.34375q-1.78125 1.78125 -4.53125 1.78125q-2.59375 0 -3.78125 -1.1875q-0.96875 -0.96875 -0.96875 -2.3125q0 -0.890625 0.671875 -1.546875q0.734375 -0.75 1.703125 -0.75q1.34375 0 2.234375 0.890625q1.03125 1.046875 1.40625 3.265625zm-1.484375 0.21875q-0.21875 -1.921875 -0.890625 -2.59375q-0.515625 -0.515625 -1.046875 -0.515625q-0.59375 0 -0.890625 0.296875q-0.359375 0.375 -0.359375 0.8125q0 0.671875 0.59375 1.265625q0.734375 0.734375 1.921875 0.734375q0.296875 0 0.671875 0z" fill-rule="nonzero"/></g></svg>