<svg version="1.1" viewBox="0.0 0.0 698.9422572178478 437.3543307086614" fill="none" stroke="none" stroke-linecap="square" stroke-miterlimit="10" xmlns:xlink="http://www.w3.org/1999/xlink" xmlns="http://www.w3.org/2000/svg"><clipPath id="p.0"><path d="m0 0l698.94226 0l0 437.35434l-698.94226 0l0 -437.35434z" clip-rule="nonzero"/></clipPath><g clip-path="url(#p.0)"><path fill="#000000" fill-opacity="0.0" d="m0 0l698.94226 0l0 437.35434l-698.94226 0z" fill-rule="evenodd"/><path fill="#d9d2e9" d="m226.16536 99.13911l199.08662 0l0 73.35433l-199.08662 0z" fill-rule="evenodd"/><path stroke="#000000" stroke-width="1.0" stroke-linejoin="round" stroke-linecap="butt" d="m226.16536 99.13911l199.08662 0l0 73.35433l-199.08662 0z" fill-rule="evenodd"/><path fill="#000000" d="m289.97427 141.97377q-4.53125 -5.078125 -9.703125 -8.15625l2.53125 -3.265625q5.46875 2.796875 10.328125 8.078125l-3.15625 3.34375zm-25.265625 -19.125l27.5625 0l0 4.0625l-11.046875 0q-0.25 0.84375 -0.953125 2.140625l0 20.734375l-4.1875 0l0 -14.765625q-3.1875 4.015625 -10.359375 7.1875l-2.4375 -4.015625q9.71875 -4.078125 13.265625 -11.28125l-11.84375 0l0 -4.0625zm53.4375 1.765625q2.46875 -0.375 5.578125 -1.125l1.375 2.90625q0.734375 2.53125 -1.734375 1.046875q-2.640625 0.453125 -5.21875 0.875l0 9.90625l1.9375 0l0 -9.5l3.078125 0q2.703125 0.34375 0.734375 1.75l0 11.0625l-5.75 0l0 4.34375q0 0.09375 0.09375 0.09375l2.875 0q0.65625 0 0.921875 -2.984375l3.546875 1.1875q-0.640625 5.109375 -3.71875 5.109375l-4.375 0q-2.78125 0 -2.78125 -3.03125l0 -4.71875l-1.4375 0l0 2.75l-3.8125 0l0 -14.4375l3.078125 0q2.703125 0.34375 0.734375 1.75l0 6.625l1.4375 0l0 -9.3125q-2.25 0.375 -6.234375 0.8125l-0.78125 -3.6875q3.84375 -0.3125 7.015625 -0.84375l0 -4.71875l2.65625 0q3.75 0 0.78125 1.78125l0 2.359375zm-22.71875 21.9375q1.546875 -4.1875 1.84375 -8.234375l3.546875 0.84375q1.5625 1.5625 -0.09375 1.796875q-0.21875 3.0625 -1.890625 7.484375l-3.40625 -1.890625zm6.859375 -17.4375l3.53125 -4.859375l2.453125 1.484375q1.671875 1.671875 -0.34375 1.671875l-5.234375 6.578125l2.421875 -0.1875l-1.0 -2.109375l2.734375 -1.265625q1.859375 2.796875 2.9375 6.296875l-2.890625 1.4375l-0.578125 -1.4375l-1.546875 0.21875l0 13.59375l-3.8125 0l0 -13.15625l-3.140625 0.453125q-0.234375 1.6875 -1.8125 0.109375l-0.671875 -3.71875l2.96875 0l1.71875 -2.09375q-1.359375 -1.640625 -4.453125 -3.859375l2.140625 -2.921875l1.234375 0.859375l4.09375 -6.21875l2.484375 1.5q1.671875 1.671875 -0.328125 1.671875l-3.71875 5.15625l0.8125 0.796875zm6.25 9.53125q1.109375 2.859375 1.109375 6.890625l-3.5 0.78125q-0.3125 -4.203125 -1.109375 -7.09375l3.5 -0.578125zm31.921875 -0.484375l-6.5 0l0 -3.3125l2.828125 0.03125q0.015625 0.109375 -1.4375 -1.5625l3.59375 -1.203125q1.234375 1.40625 1.84375 2.734375l3.0 0l1.046875 -2.890625l2.8125 0.828125q1.84375 1.21875 0.078125 1.984375l-0.046875 0.078125l3.21875 0l0 3.3125l-7.0 0l0 1.3125l7.875 0l0 3.3125l-8.09375 0l0.0625 -0.390625q2.859375 0.75 7.328125 3.125l-2.390625 3.5q-4.125 -2.5625 -5.890625 -3.40625q-1.34375 2.5625 -7.90625 4.5625l-1.6875 -3.75q6.703125 -1.578125 6.9375 -3.640625l-6.921875 0l0 -3.3125l7.25 0l0 -1.3125zm15.5625 9.34375q0 2.65625 -2.65625 2.65625l-2.71875 0l-0.390625 -3.6875l2.109375 0q0 0.15625 -0.15625 0.15625l0 -13.59375l-3.71875 0l-5.03125 0l0 -11.9375l12.5625 0l0 26.40625zm-18.4375 -17.78125l0 -0.9375l-5.0625 0l0 0.9375l5.0625 0zm-5.0625 -5.3125l0 1.0625l5.0625 0l0 -1.0625l-5.0625 0zm0 26.0l-3.8125 0l0 -29.3125l12.6875 0l0 11.9375l-8.875 0l0 17.375zm19.6875 -20.6875l0 -0.9375l-4.9375 0l0 0.9375l4.9375 0zm0 -4.25l0 -1.0625l-4.9375 0l0 1.0625l4.9375 0zm29.40625 13.109375q1.109375 -2.125 1.4375 -8.171875l-2.875 0q0.328125 6.046875 1.4375 8.171875zm5.265625 -8.171875q-0.234375 7.28125 -2.84375 11.78125q1.625 2.046875 5.75 4.171875l-2.328125 3.9375q-4.6875 -3.0625 -5.90625 -4.859375q-2.421875 2.734375 -9.125 5.390625l-1.84375 -3.671875q7.0 -2.828125 8.75 -5.109375q-1.984375 -3.875 -1.921875 -6.125q0.15625 0.15625 -1.046875 1.75l-3.140625 -2.40625q4.0 -5.875 4.8125 -14.578125l3.46875 0.828125q2.125 1.421875 -0.0625 1.90625q-0.3125 1.84375 -0.71875 3.296875l8.296875 0l0 3.6875l-2.140625 0zm-11.796875 -6.0625q-0.640625 1.609375 -2.046875 3.375l-3.09375 -1.734375q1.328125 -2.15625 2.453125 -4.890625l2.984375 1.484375q1.5 1.515625 -0.296875 1.765625zm-7.5 16.625q1.015625 0.28125 1.984375 0.734375q0.578125 -0.65625 0.9375 -1.921875l-2.34375 0q-0.328125 0.765625 -0.578125 1.1875zm-2.5 4.40625l-3.15625 -1.78125q1.625 -2.421875 2.34375 -3.8125l-4.3125 0l0 -3.3125l5.734375 0q0.5625 -1.203125 1.125 -2.890625l3.140625 0.828125q1.546875 1.5625 -0.28125 1.8125l-0.125 0.25l6.71875 0l0 3.3125l-2.015625 0q-0.53125 2.125 -1.390625 3.328125q0.421875 0.1875 2.265625 1.28125l-1.78125 3.15625q-1.921875 -1.21875 -2.59375 -1.515625q-3.078125 3.09375 -9.3125 3.9375l-1.375 -3.53125q5.53125 -0.5625 7.21875 -2.015625q-0.421875 -0.1875 -1.28125 -0.5l-0.921875 1.453125zm1.625 -25.03125l2.703125 0q2.703125 0.34375 0.734375 1.75l0 4.375l6.375 0l0 3.3125l-4.484375 0q0.375 0.453125 3.765625 2.21875l-2.109375 3.265625q-2.765625 -1.640625 -3.546875 -2.578125l0 1.84375l-3.4375 0l0 -1.15625q-0.90625 1.125 -5.0 3.46875l-2.484375 -3.0625q4.484375 -2.3125 5.953125 -4.0l-4.96875 0l0 -3.3125l6.5 0l0 -6.125zm-3.109375 7.390625q-1.15625 -2.484375 -3.03125 -4.359375l3.140625 -1.953125q1.953125 1.953125 2.984375 4.1875l-3.09375 2.125z" fill-rule="nonzero"/><path fill="#000000" fill-opacity="0.0" d="m92.937004 135.81627l133.22836 0" fill-rule="evenodd"/><path stroke="#000000" stroke-width="4.0" stroke-linejoin="round" stroke-linecap="butt" d="m92.937004 135.81627l119.52 0" fill-rule="evenodd"/><path fill="#000000" stroke="#000000" stroke-width="4.0" stroke-linecap="butt" d="m212.457 135.81627l-4.4983215 4.498337l12.35907 -4.498337l-12.35907 -4.498337z" fill-rule="evenodd"/><path fill="#000000" fill-opacity="0.0" d="m424.98163 135.81627l133.22833 0" fill-rule="evenodd"/><path stroke="#000000" stroke-width="4.0" stroke-linejoin="round" stroke-linecap="butt" d="m424.98163 135.81627l119.52002 0" fill-rule="evenodd"/><path fill="#000000" stroke="#000000" stroke-width="4.0" stroke-linecap="butt" d="m544.50165 135.81627l-4.498352 4.498337l12.35907 -4.498337l-12.35907 -4.498337z" fill-rule="evenodd"/><path fill="#000000" fill-opacity="0.0" d="m63.46982 25.79265l133.22835 0l0 89.826775l-133.22835 0z" fill-rule="evenodd"/><path fill="#000000" d="m115.95899 54.762653q-0.75 9.374996 -2.5 11.624996q-0.875 1.125 -2.875 1.125l-5.0 0l-0.375 -2.375l4.625 0q1.375 0 1.875 -0.875q1.0 -1.6249962 1.5 -7.124996l-8.375 0l-0.25 1.25l-2.625 -0.375q1.375 -6.0 1.75 -10.125l9.375 0l0 -4.0l-11.5 0l0 -2.375l14.0 0l0 9.375l-2.5 0l0 -0.625l-7.0 0q-0.125 0.75 -0.75 4.5l10.625 0zm9.375 12.499996l-2.5 0l0 -26.124996l2.375 0q1.0 0.125 0.125 0.75l0 25.374996zm27.999992 -8.624996q1.75 -3.375 2.125 -10.25l-4.25 0q0.375 6.875 2.125 10.25zm4.625 -10.25q-0.25 7.75 -3.0 12.5q2.0 2.5 5.625 4.374996l-1.625 2.75q-4.0 -2.625 -5.625 -4.999996q-2.875 3.2499962 -8.875 5.624996l-1.25 -2.5q6.5 -2.6249962 8.625 -5.374996q-2.125 -4.125 -2.375 -8.25q-0.75 1.875 -1.5 2.875l-2.125 -1.625q3.75 -5.5 4.5 -13.625l2.625 0.625q0.75 0.5 -0.375 0.75q-0.375 2.25 -1.0 4.5l8.5 0l0 2.375l-2.125 0zm-11.625 -6.0q-0.75 1.875 -1.75 3.125l-2.0 -1.125q1.0 -1.625 1.875 -3.75l2.25 1.125q0.5 0.5 -0.375 0.625zm-8.0 17.625q1.75 0.5 3.125 1.125q1.0 -1.125 1.625 -3.375l-3.625 0q-0.5 1.125 -1.125 2.25zm-1.75 3.125l-2.0 -1.125q1.25 -1.875 2.5 -4.25l-4.75 0l0 -2.0l5.5 0q0.75 -1.625 1.125 -2.75l2.375 0.625q0.5 0.5 -0.375 0.625l-0.75 1.5l7.125 0l0 2.0l-1.875 0q-0.625 2.5 -1.875 4.25q1.125 0.5 2.375 1.25l-1.125 1.9999962q-1.375 -0.875 -2.5 -1.3749962q-3.25 3.2499962 -8.75 3.9999962l-0.875 -2.25q4.875 -0.5 7.5 -2.7499962q-1.375 -0.625 -2.75 -1.125l-0.875 1.375zm2.5 -23.5l2.0 0q1.0 0.125 0.125 0.75l0 5.375l6.375 0l0 2.0l-5.25 0q1.375 1.625 4.25 3.125l-1.375 2.125q-2.125 -1.25 -4.0 -3.5l0 3.0l-2.125 0l0 -2.375q-2.0 2.5 -5.5 4.5l-1.625 -2.0q3.875 -2.0 6.375 -4.875l-5.75 0l0 -2.0l6.5 0l0 -6.125zm-3.5 5.75q-0.875 -1.875 -2.25 -3.25l2.0 -1.25q1.5 1.5 2.25 3.125l-2.0 1.375z" fill-rule="nonzero"/><path fill="#000000" d="m90.77149 106.01265q-6.25 -5.875 -6.25 -13.625q0 -7.75 6.25 -13.625l1.375 1.375q-5.75 5.375 -5.75 12.25q0 6.875 5.75 12.25l-1.375 1.375zm6.5 1.75l-2.5 0l0 -18.625l2.5 0l0 1.625q1.5 -1.875 3.875 -1.875q2.625 0 4.25 1.625q2.0 2.0 2.0 5.625q0 3.75 -2.0 5.75q-1.625 1.625 -4.25 1.625q-2.625 0 -3.875 -2.0l0 6.25zm3.875 -16.625q-1.5 0 -2.625 1.125q-1.25 1.25 -1.25 3.0l0 1.75q0 1.75 1.375 3.125q1.125 1.125 2.5 1.125q1.25 0 2.125 -0.875q1.375 -1.375 1.375 -4.25q0 -2.75 -1.25 -4.0q-1.0 -1.0 -2.25 -1.0zm13.5 -0.25q2.0 -2.0 5.375 -2.0l0 2.75q-0.5 -0.125 -1.375 -0.125q-1.875 0 -3.5 1.625q-1.375 1.375 -1.875 2.875l0 7.125l-2.5 0l0 -14.0l2.5 0l0 3.5q0.625 -1.0 1.375 -1.75zm6.875 5.25q0 -3.25 2.125 -5.375q1.875 -1.875 4.6249924 -1.875q2.75 0 4.625 1.875q2.125 2.125 2.125 5.375q0 3.25 -2.125 5.375q-1.875 1.875 -4.625 1.875q-2.7499924 0 -4.6249924 -1.875q-2.125 -2.125 -2.125 -5.375zm6.7499924 -5.0q-1.4999924 0 -2.4999924 1.0q-1.5 1.5 -1.5 4.0q0 2.5 1.375 3.875q1.125 1.125 2.6249924 1.125q1.5 0 2.625 -1.125q1.375 -1.375 1.375 -3.875q0 -2.5 -1.5 -4.0q-1.0 -1.0 -2.5 -1.0zm12.25 16.625l-2.5 0l0 -18.625l2.5 0l0 1.625q1.5 -1.875 3.875 -1.875q2.625 0 4.25 1.625q2.0 2.0 2.0 5.625q0 3.75 -2.0 5.75q-1.625 1.625 -4.25 1.625q-2.625 0 -3.875 -2.0l0 6.25zm3.875 -16.625q-1.5 0 -2.625 1.125q-1.25 1.25 -1.25 3.0l0 1.75q0 1.75 1.375 3.125q1.125 1.125 2.5 1.125q1.25 0 2.125 -0.875q1.375 -1.375 1.375 -4.25q0 -2.75 -1.25 -4.0q-1.0 -1.0 -2.25 -1.0zm9.75 2.0q0 -1.625 1.125 -2.75q1.5 -1.5 4.25 -1.5q3.0 0 4.375 1.375q1.25 1.25 1.25 2.75l-2.5 0q-0.125 -0.875 -0.5 -1.25q-0.75 -0.75 -2.75 -0.75q-1.25 0 -2.0 0.75q-0.625 0.625 -0.625 1.375q0 0.5 0.375 0.875q0.5 0.5 3.125 1.125q1.625 0.375 2.75 0.75q1.0 0.375 1.5 0.875q1.0 1.0 1.0 2.375q0 1.5 -1.25 2.75q-1.5 1.5 -4.625 1.5q-3.125 0 -4.625 -1.5q-1.25 -1.25 -1.25 -3.125l2.5 0q0.125 1.125 0.625 1.625q0.875 0.875 2.625 0.875q2.125 0 2.875 -0.75q0.5 -0.5 0.5 -1.25q0 -0.5 -0.625 -1.125q-0.5 -0.5 -1.625 -0.75q-2.25 -0.5 -3.375 -0.875q-1.375 -0.375 -2.0 -1.0q-1.125 -1.125 -1.125 -2.375zm19.5 -0.75q0 -6.875 -5.75 -12.25l1.375 -1.375q6.25 5.875 6.25 13.625q0 7.75 -6.25 13.625l-1.375 -1.375q5.75 -5.375 5.75 -12.25z" fill-rule="nonzero"/><path fill="#000000" fill-opacity="0.0" d="m424.98163 25.79265l215.62207 0l0 89.826775l-215.62207 0z" fill-rule="evenodd"/><path fill="#000000" d="m518.10516 68.01265q-8.3750305 -2.0 -11.2500305 -8.124996q-1.5 6.374996 -10.25 8.499996l-0.75 -2.375q7.875 -1.75 8.875 -7.124996l-8.25 0q-0.375 5.374996 -3.75 8.874996l-1.75 -2.0q3.0 -2.8749962 3.0 -7.874996l0 -12.25l22.12503 0l0 8.0l-2.5 0l0 -0.75l-17.12503 0l0 3.625l8.5 0l0 -2.875l2.375 0q1.0 0.125 0.125 0.75l0 2.125l10.6250305 0l0 2.375l-9.3750305 0q1.75 4.625 10.3750305 6.499996l-1.0 2.625zm-0.5 -26.874996l0 2.375l-25.12503 0l0 -2.375l25.12503 0zm-4.0 6.875l-17.12503 0l0 2.5l17.12503 0l0 -2.5zm24.5 5.875q0 -8.5 -0.5 -13.125l2.5 0q1.375 0.125 0.25 1.0q0.375 4.0 0.375 12.25q0 9.375 -8.875 14.124996l-2.125 -2.125q8.375 -3.9999962 8.375 -12.124996zm-8.5 4.125q-1.125 0.875 -2.5 0.875q-0.875 0 -1.625 -0.75q-0.875 -0.875 -0.875 -7.5q0 -5.0 0.5 -9.125l2.75 0q1.0 0.375 0 0.875q-0.625 3.0 -0.625 8.25q0 5.375 0.5 5.375q0.375 0 1.0 -0.5q0.875 -0.75 2.875 -3.375l1.875 1.875q-2.125 2.625 -3.875 4.0zm24.0 -17.25q-0.5 3.25 -1.75 7.125q1.125 0.125 0.375 0.875l0 19.374996l-2.5 0l0 -15.499996q-0.875 1.375 -1.625 2.25l-2.0 -1.5q4.25 -5.125 5.0 -13.875l2.875 0.625q0.5 0.5 -0.375 0.625zm12.25 4.625l0 2.375l6.125 0l0 14.75l-11.625 0l0 -14.75l3.0 0l0 -2.375l-9.0 0l0 -2.375l9.0 0l0 -3.5l2.375 0q1.0 0.125 0.125 0.75l0 2.75l8.125 0l0 2.375l-8.125 0zm-3.375 4.375l0 2.25l7.375 0l0 -2.25l-7.375 0zm0 4.25l0 2.125l7.375 0l0 -2.125l-7.375 0zm0 4.125l0 2.375l7.375 0l0 -2.375l-7.375 0zm-7.25 9.999996l0 -19.999996l2.375 0q1.0 0.125 0.125 0.75l0 15.749996l17.25 0l0 2.375l-17.25 0l0 1.125l-2.5 0z" fill-rule="nonzero"/><path fill="#000000" d="m459.16763 106.01265q-6.25 -5.875 -6.25 -13.625q0 -7.75 6.25 -13.625l1.375 1.375q-5.75 5.375 -5.75 12.25q0 6.875 5.75 12.25l-1.375 1.375zm5.0 -24.375l10.5 0q2.5 0 4.125 1.625q1.625 1.625 1.625 4.5q0 2.875 -1.625 4.5q-0.875 0.875 -2.5 1.125l4.875 9.625l-3.125 0l-4.5 -9.25l-6.5 0l0 9.25l-2.875 0l0 -21.375zm2.875 2.375l0 7.375l7.375 0q1.25 0 2.125 -0.875q0.875 -0.875 0.875 -2.75q0 -1.75 -1.0 -2.75q-1.0 -1.0 -2.375 -1.0l-7.0 0zm16.0 12.125q0 -3.375 2.125 -5.5q1.75 -1.75 4.5 -1.75q2.625 0 4.5 1.875q1.75 1.75 1.75 5.375l-10.125 0q0 2.625 1.25 3.875q1.125 1.125 2.875 1.125q1.75 0 2.5 -0.75q0.875 -0.875 0.875 -2.0l2.75 0q-0.5 2.25 -1.625 3.375q-1.625 1.625 -4.5 1.625q-3.0 0 -4.875 -1.875q-2.0 -2.0 -2.0 -5.375zm6.5 -5.125q-1.5 0 -2.5 1.0q-0.875 0.875 -1.125 2.125l7.125 0q0 -1.25 -1.0 -2.25q-0.875 -0.875 -2.5 -0.875zm9.75 2.25q0.375 -1.75 1.625 -3.0q1.375 -1.375 4.0 -1.375q3.125 0 4.5 1.375q1.25 1.25 1.25 2.875l0 7.875q0 1.375 1.0 2.125l-3.0 0q-0.5 -0.5 -0.5 -1.625q-1.875 1.875 -4.75 1.875q-2.375 0 -3.625 -1.25q-1.125 -1.125 -1.125 -2.625q0 -1.75 1.125 -2.875q1.25 -1.25 3.5 -1.625q1.5 -0.25 2.625 -0.625q1.625 -0.375 2.25 -0.75q0 -1.0 -0.75 -1.75q-0.75 -0.75 -2.125 -0.75q-1.75 0 -2.5 0.75q-0.5 0.5 -0.75 1.375l-2.75 0zm8.875 2.75q-0.75 0.25 -1.375 0.375q-2.125 0.5 -3.25 0.75q-1.0 0.25 -1.5 0.75q-0.625 0.625 -0.625 1.375q0 0.875 0.625 1.5q0.375 0.375 1.625 0.375q2.125 0 3.5 -1.375q0.875 -0.875 1.0 -1.25l0 -2.5zm6.1250305 0.25q0 -3.375 2.0 -5.375q1.875 -1.875 4.625 -1.875q3.0 0 4.5 1.5q1.375 1.375 1.625 3.375l-2.75 0q-0.125 -1.0 -1.0 -1.875q-0.75 -0.75 -2.25 -0.75q-1.5 0 -2.5 1.0q-1.5 1.5 -1.5 4.125q0 2.5 1.375 3.875q1.0 1.0 2.5 1.0q1.75 0 2.75 -1.0q1.0 -1.0 1.0 -2.625l2.75 0q-0.125 2.625 -1.75 4.25q-1.625 1.625 -4.75 1.625q-2.625 0 -4.375 -1.75q-2.25 -2.25 -2.25 -5.5zm17.5 -12.0l2.5 0l0 4.875l4.25 0l0 2.0l-4.25 0l0 8.125q0 0.75 0.625 1.375q0.5 0.5 1.625 0.5q1.75 0 3.125 -0.875l0 2.375q-1.375 0.75 -3.0 0.75q-2.5 0 -3.625 -1.125q-1.25 -1.25 -1.25 -2.75l0 -8.375l-3.0 0l0 -2.0l3.0 0l0 -4.875zm26.5 18.125q-4.25 3.125 -14.625 4.0l-0.5 -2.375q8.625 -0.5 12.5 -2.5q-2.875 -0.75 -5.625 -1.25l-0.75 0.875l-2.25 -1.25l3.375 -3.75l-8.625 0l0 -2.0l10.25 0l2.0 -2.75l-6.625 0l0 0.875l-2.125 0l0 -8.375l6.5 0l0 -2.75l-9.25 0l0 -2.0l26.875 0l0 2.0l-9.25 0l0 2.75l6.5 0l0 8.25l-2.125 0l0 -0.75l-9.375 0l1.25 0.625q0.625 0.375 -0.375 0.625l-1.25 1.5l15.5 0l0 2.0l-6.375 0q-1.5 2.5 -3.625 4.5q4.0 1.125 8.625 3.25l-1.625 2.25q-3.75 -2.0 -9.0 -3.75zm-4.75 -6.25l-2.125 2.375q2.875 0.375 6.375 1.25q2.0 -1.5 3.125 -3.625l-7.375 0zm0.375 -15.0l0 2.75l4.125 0l0 -2.75l-4.125 0zm-6.5 8.25l4.375 0l0 -3.5l-4.375 0l0 3.5zm6.5 -3.5l0 3.5l4.125 0l0 -3.5l-4.125 0zm6.25 0l0 3.5l4.375 0l0 -3.5l-4.375 0zm26.375 8.875q2.375 -1.75 4.375 -4.0l2.25 1.375q0.5 0.625 -0.5 0.5q-1.875 1.625 -4.75 3.625l7.875 -0.375l-1.875 -1.625l1.75 -1.375q3.25 2.25 5.625 5.125l-2.0 1.625l-1.875 -2.0l-8.375 0.625l0 7.875l-2.5 0l0 -7.75l-10.375 0.375q-0.125 0.875 -0.625 0.375l-0.75 -2.75l9.875 0q-2.375 -2.25 -4.875 -3.375l1.375 -1.625l2.0 1.0q1.125 -0.875 2.25 -2.25l-11.75 0l0 -2.0l12.875 0l0 -1.875l-8.875 0l0 -2.0l8.875 0l0 -2.0l-10.5 0l0 -2.0l10.5 0l0 -2.625l2.375 0q1.0 0.125 0.125 0.75l0 1.875l10.75 0l0 2.0l-10.75 0l0 2.0l9.0 0l0 2.0l-9.0 0l0 1.875l13.0 0l0 2.0l-13.875 0q-1.625 1.875 -3.25 3.375l1.625 1.25zm7.75 4.5q3.125 2.75 6.75 3.625l-1.0 2.375q-4.5 -1.125 -7.375 -4.375l1.625 -1.625zm-10.5 2.25q0.25 0.625 -0.75 0.5q-3.5 2.75 -7.375 3.625l-1.125 -2.25q4.375 -1.125 7.375 -3.75l1.875 1.875zm26.875 -9.125q0 -6.875 -5.75 -12.25l1.375 -1.375q6.25 5.875 6.25 13.625q0 7.75 -6.25 13.625l-1.375 -1.375q5.75 -5.375 5.75 -12.25z" fill-rule="nonzero"/><path fill="#cfe2f3" d="m177.78477 343.27298l0 0c0 -30.597473 65.599106 -55.40158 146.5197 -55.40158l0 0c80.92056 0 146.51968 24.804108 146.51968 55.40158l0 0c0 30.597443 -65.59912 55.40155 -146.51968 55.40155l0 0c-80.92059 0 -146.5197 -24.804108 -146.5197 -55.40155z" fill-rule="evenodd"/><path stroke="#000000" stroke-width="1.0" stroke-linejoin="round" stroke-linecap="butt" d="m177.78477 343.27298l0 0c0 -30.597473 65.599106 -55.40158 146.5197 -55.40158l0 0c80.92056 0 146.51968 24.804108 146.51968 55.40158l0 0c0 30.597443 -65.59912 55.40155 -146.51968 55.40155l0 0c-80.92059 0 -146.5197 -24.804108 -146.5197 -55.40155z" fill-rule="evenodd"/><path fill="#000000" d="m264.4998 327.8392l-5.953125 0l0 -1.828125l2.859375 0q-0.34375 -0.8125 -1.140625 -1.71875l2.0625 -0.6875q0.796875 0.90625 1.484375 2.40625l3.546875 0l0.921875 -2.53125l1.953125 0.578125q0.6875 0.453125 -0.125 0.796875l-0.5625 1.15625l3.3125 0l0 1.828125l-6.40625 0l0 2.40625l7.21875 0l0 1.828125l-7.34375 0l-0.109375 0.6875q3.09375 0.8125 6.53125 2.640625l-1.484375 2.171875q-3.328125 -2.0625 -5.5 -3.09375q-1.375 2.640625 -6.640625 4.25l-1.03125 -2.296875q5.84375 -1.375 6.1875 -4.359375l-6.421875 0l0 -1.828125l6.640625 0l0 -2.40625zm13.0625 9.171875q0 1.828125 -1.828125 1.828125l-1.953125 0l-0.234375 -2.171875l1.265625 0q0.453125 0 0.453125 -0.46875l0 -13.0625l-4.0 0l-4.015625 0l0 -9.734375l10.3125 0l0 23.609375zm-15.6875 -15.703125l0 -2.0625l-5.84375 0l0 2.0625l5.84375 0zm-5.84375 -6.0625l0 2.171875l5.84375 0l0 -2.171875l-5.84375 0zm0 23.828125l-2.2968903 0l0 -25.671875l10.42189 0l0 9.734375l-8.125 0l0 15.9375zm19.234375 -17.765625l0 -2.0625l-5.71875 0l0 2.0625l5.71875 0zm0 -3.890625l0 -2.171875l-5.71875 0l0 2.171875l5.71875 0zm26.359375 12.71875q1.59375 -3.09375 1.9375 -9.390625l-3.890625 0q0.34375 6.296875 1.953125 9.390625zm4.234375 -9.390625q-0.234375 7.09375 -2.75 11.453125q1.828125 2.28125 5.15625 4.0l-1.484375 2.53125q-3.671875 -2.40625 -5.15625 -4.59375q-2.640625 2.984375 -8.140625 5.15625l-1.140625 -2.28125q5.953125 -2.40625 7.90625 -4.9375q-1.953125 -3.78125 -2.1875 -7.5625q-0.6875 1.71875 -1.375 2.640625l-1.9375 -1.484375q3.4375 -5.046875 4.125 -12.484375l2.40625 0.5625q0.6875 0.46875 -0.34375 0.6875q-0.34375 2.0625 -0.921875 4.125l7.796875 0l0 2.1875l-1.953125 0zm-10.65625 -5.5q-0.6875 1.71875 -1.59375 2.859375l-1.84375 -1.03125q0.921875 -1.484375 1.71875 -3.4375l2.0625 1.03125q0.453125 0.453125 -0.34375 0.578125zm-7.328125 16.140625q1.609375 0.46875 2.859375 1.03125q0.921875 -1.03125 1.5 -3.09375l-3.328125 0q-0.453125 1.03125 -1.03125 2.0625zm-1.609375 2.875l-1.828125 -1.03125q1.140625 -1.71875 2.296875 -3.90625l-4.359375 0l0 -1.828125l5.046875 0q0.6875 -1.484375 1.03125 -2.515625l2.171875 0.5625q0.453125 0.46875 -0.34375 0.578125l-0.6875 1.375l6.53125 0l0 1.828125l-1.71875 0q-0.578125 2.296875 -1.71875 3.90625q1.03125 0.453125 2.171875 1.140625l-1.03125 1.828125q-1.25 -0.796875 -2.28125 -1.25q-2.984375 2.96875 -8.03125 3.65625l-0.796875 -2.0625q4.46875 -0.453125 6.875 -2.515625q-1.265625 -0.578125 -2.515625 -1.03125l-0.8125 1.265625zm2.296875 -21.546875l1.828125 0q0.921875 0.125 0.125 0.6875l0 4.9375l5.828125 0l0 1.828125l-4.796875 0q1.25 1.484375 3.890625 2.859375l-1.265625 1.953125q-1.9375 -1.15625 -3.65625 -3.21875l0 2.75l-1.953125 0l0 -2.171875q-1.828125 2.296875 -5.046875 4.125l-1.484375 -1.828125q3.546875 -1.84375 5.84375 -4.46875l-5.265625 0l0 -1.828125l5.953125 0l0 -5.625zm-3.203125 5.28125q-0.8125 -1.71875 -2.0625 -2.984375l1.828125 -1.140625q1.375 1.375 2.0625 2.859375l-1.828125 1.265625zm40.09375 2.28125q-1.953125 11.453125 -4.703125 14.203125q-1.484375 1.5 -3.09375 1.5q-1.828125 0 -2.859375 -1.03125q-2.75 -2.75 -2.75 -6.875q0 -5.046875 3.546875 -8.59375q3.90625 -3.890625 9.515625 -3.890625q5.03125 0 7.90625 2.859375q3.203125 3.203125 3.203125 7.5625q0 4.6875 -2.984375 7.671875q-1.9375 1.953125 -5.953125 3.78125l-2.40625 -2.40625q4.015625 -1.265625 6.296875 -3.546875q2.1875 -2.1875 2.1875 -5.28125q0 -3.65625 -2.40625 -6.0625q-2.40625 -2.40625 -7.5625 -2.171875l2.0625 1.03125q1.375 0.5625 0 1.25zm-2.640625 -2.171875q-2.96875 0.6875 -5.15625 2.859375q-2.96875 2.984375 -2.96875 7.328125q0 2.640625 1.71875 4.359375q0.34375 0.34375 1.03125 0.34375q0.6875 0 1.484375 -0.796875q2.640625 -2.640625 3.890625 -14.09375zm19.015625 17.875q3.78125 -2.40625 6.65625 -7.5625q-2.296875 -2.0625 -3.78125 -2.984375q-0.8125 1.953125 -2.1875 3.546875l-2.0625 -1.484375q3.78125 -4.703125 4.9375 -12.59375l2.40625 0.6875q0.5625 0.453125 -0.234375 0.796875l-0.453125 2.171875l4.34375 0l0.46875 -0.453125l1.59375 1.375q0.34375 0.34375 -0.21875 0.6875q-1.71875 12.140625 -9.96875 17.875l-1.5 -2.0625zm23.03125 -4.8125q-3.328125 -2.296875 -4.921875 -3.78125l0 11.109375l-2.296875 0l0 -13.40625q-2.171875 -2.75 -3.890625 -5.71875l1.828125 -1.375q1.03125 1.828125 2.0625 3.203125l0 -7.90625l2.171875 0q0.921875 0.109375 0.125 0.6875l0 9.84375q0.796875 1.609375 6.640625 5.046875l-1.71875 2.296875zm-15.46875 -5.046875q1.03125 -2.640625 1.5 -5.375l-4.359375 0l-0.921875 2.515625q1.5 0.90625 3.78125 2.859375zm34.71875 -5.84375q-1.953125 11.453125 -4.703125 14.203125q-1.484375 1.5 -3.09375 1.5q-1.828125 0 -2.859375 -1.03125q-2.75 -2.75 -2.75 -6.875q0 -5.046875 3.546875 -8.59375q3.90625 -3.890625 9.515625 -3.890625q5.03125 0 7.90625 2.859375q3.203125 3.203125 3.203125 7.5625q0 4.6875 -2.984375 7.671875q-1.9375 1.953125 -5.953125 3.78125l-2.40625 -2.40625q4.015625 -1.265625 6.296875 -3.546875q2.1875 -2.1875 2.1875 -5.28125q0 -3.65625 -2.40625 -6.0625q-2.40625 -2.40625 -7.5625 -2.171875l2.0625 1.03125q1.375 0.5625 0 1.25zm-2.640625 -2.171875q-2.96875 0.6875 -5.15625 2.859375q-2.96875 2.984375 -2.96875 7.328125q0 2.640625 1.71875 4.359375q0.34375 0.34375 1.03125 0.34375q0.6875 0 1.484375 -0.796875q2.640625 -2.640625 3.890625 -14.09375z" fill-rule="nonzero"/><path fill="#000000" d="m274.46506 369.60483q12.484375 -2.75 18.796875 -12.953125l2.0625 2.0625q-5.84375 9.390625 -18.109375 13.296875q-0.34375 1.375 -1.140625 0.109375l-1.609375 -2.515625zm-0.796875 -13.859375q2.859375 1.484375 5.84375 3.65625l-1.828125 2.40625q-3.4375 -2.515625 -5.734375 -3.671875l1.71875 -2.390625zm3.203125 -6.765625q3.09375 1.71875 5.84375 3.671875l-1.59375 2.40625q-3.09375 -2.1875 -5.734375 -3.671875l1.484375 -2.40625zm35.396362 12.03125q4.9375 3.78125 9.75 8.703125l-2.296875 1.953125q-4.8125 -5.046875 -9.28125 -8.484375q-4.46875 4.8125 -10.1875 8.59375l-2.1875 -1.953125q12.15625 -7.90625 15.578125 -15.796875l-12.484375 0.796875l-0.34375 -2.75l13.296875 -0.578125l1.375 -0.34375l1.828125 1.84375q0.796875 0.796875 -0.453125 1.03125q-2.1875 3.765625 -4.59375 6.984375zm23.385925 -1.03125l-11.46875 0l0 -2.53125l23.484375 0l0 2.53125l-9.390625 0l0 1.484375q0 7.21875 -5.15625 11.921875l-2.28125 -1.71875q4.8125 -3.78125 4.8125 -10.203125l0 -1.484375zm-7.34375 -6.984375l0 -2.53125l15.234375 0l0 2.53125l-15.234375 0zm22.568298 14.3125l4.8125 -0.109375q4.125 -8.9375 6.3125 -18.21875l2.625 0.921875q1.03125 0.6875 -0.234375 1.03125q-2.171875 8.125 -5.828125 16.03125l11.90625 -0.578125q-2.40625 -3.203125 -3.78125 -4.6875l2.296875 -1.609375q3.890625 4.234375 7.4375 9.96875l-2.515625 1.71875l-1.828125 -2.984375l-19.25 1.5q-0.6875 1.140625 -1.03125 0l-0.921875 -2.984375z" fill-rule="nonzero"/><path fill="#000000" fill-opacity="0.0" d="m390.4777 289.40158l1.6062927 -116.91339" fill-rule="evenodd"/><path stroke="#000000" stroke-width="4.0" stroke-linejoin="round" stroke-linecap="butt" d="m390.4777 289.40158l1.4179688 -103.20633" fill-rule="evenodd"/><path fill="#000000" stroke="#000000" stroke-width="4.0" stroke-linecap="butt" d="m391.89566 186.19524l4.4361267 4.5597076l-4.328125 -12.419693l-4.667694 12.296097z" fill-rule="evenodd"/><path fill="#000000" fill-opacity="0.0" d="m262.77814 171.15326l0.09448242 118.236206" fill-rule="evenodd"/><path stroke="#000000" stroke-width="4.0" stroke-linejoin="round" stroke-linecap="butt" d="m262.77814 171.15326l0.08352661 104.52789" fill-rule="evenodd"/><path fill="#000000" stroke="#000000" stroke-width="4.0" stroke-linecap="butt" d="m262.86166 275.68112l-4.5019226 -4.4947205l4.508209 12.355469l4.4884644 -12.362671z" fill-rule="evenodd"/><path fill="#000000" fill-opacity="0.0" d="m110.438324 216.50604l133.22835 0l0 58.582672l-133.22835 0z" fill-rule="evenodd"/><path fill="#000000" d="m162.05249 251.97604q2.25 -1.5 3.5 -3.125l-6.25 0q0.875 1.75 2.75 3.125zm-2.25 -5.125l7.0 0l0.375 -0.625l2.125 1.5q0.625 0.5 -0.25 0.625q-1.875 2.625 -5.0 5.0q3.5 2.0 11.0 2.625l-0.875 2.75q-7.625 -0.625 -12.25 -3.75q-6.875 3.75 -13.125 4.375l-1.0 -2.625q6.75 -0.625 12.125 -3.5q-1.0 -1.0 -2.375 -3.0q-3.875 3.5 -7.25 4.375l-1.25 -2.125q6.375 -2.125 9.5 -7.75l2.0 0.75q0.625 0.375 -0.25 0.5l-0.5 0.875zm5.5 -3.75q0 2.125 -1.875 2.125l-1.75 0l-0.625 -2.375l1.375 0q0.375 0 0.375 -0.375l0 -6.125l-3.125 0l0 2.625q0 7.125 -8.625 9.25l-1.125 -2.375q7.25 -1.625 7.25 -6.875l0 -2.625l-9.5 0l0 -2.375l12.0 0l0 -3.75l2.75 0q1.25 0.25 0.125 1.0l0 2.75l12.0 0l0 2.375l-9.25 0l0 6.75zm-17.25 -1.25q3.125 -1.625 5.125 -4.25l2.25 1.75q0.375 0.5 -0.5 0.5q-1.875 2.625 -5.375 4.375l-1.5 -2.375zm20.125 -4.125q3.75 2.0 6.0 4.375l-2.125 2.5q-2.875 -2.875 -5.625 -4.625l1.75 -2.25zm38.5 21.5q-9.875 -0.875 -15.5 -4.0q-3.125 2.625 -11.125 4.125l-0.875 -2.625q7.375 -1.25 9.75 -3.125q-1.625 -1.375 -3.25 -3.5l2.25 -0.875q1.0 1.25 2.75 2.625q1.0 -1.625 1.125 -3.625l-6.5 0l0 1.0l-2.5 0l0 -12.75l9.125 0l0 -2.625l-12.625 0l0 -2.375l27.0 0l0 2.375l-11.875 0l0 2.625l9.25 0l0 13.25l-2.5 0l0 -1.5l-6.875 0q-0.125 2.5 -1.5 4.875q4.25 2.5 14.25 3.375l-0.375 2.75zm-21.375 -20.75l0 2.875l6.625 0l0 -2.875l-6.625 0zm9.125 0l0 2.875l6.75 0l0 -2.875l-6.75 0zm0 7.75l6.75 0l0 -2.875l-6.75 0l0 2.875zm-2.5 0l0 -2.875l-6.625 0l0 2.875l6.625 0z" fill-rule="nonzero"/><path fill="#000000" fill-opacity="0.0" d="m397.38583 208.62941l133.22836 0l0 58.582687l-133.22836 0z" fill-rule="evenodd"/><path fill="#000000" d="m450.25 247.22441q-4.25 3.125 -14.625 4.0l-0.5 -2.375q8.625 -0.5 12.5 -2.5q-2.875 -0.75 -5.625 -1.25l-0.75 0.875l-2.25 -1.25l3.375 -3.75l-8.625 0l0 -2.0l10.25 0l2.0 -2.75l-6.625 0l0 0.875l-2.125 0l0 -8.375l6.5 0l0 -2.75l-9.25 0l0 -2.0l26.875 0l0 2.0l-9.25 0l0 2.75l6.5 0l0 8.25l-2.125 0l0 -0.75l-9.375 0l1.25 0.625q0.625 0.375 -0.375 0.625l-1.25 1.5l15.5 0l0 2.0l-6.375 0q-1.5 2.5 -3.625 4.5q4.0 1.125 8.625 3.25l-1.625 2.25q-3.75 -2.0 -9.0 -3.75zm-4.75 -6.25l-2.125 2.375q2.875 0.375 6.375 1.25q2.0 -1.5 3.125 -3.625l-7.375 0zm0.375 -15.0l0 2.75l4.125 0l0 -2.75l-4.125 0zm-6.5 8.25l4.375 0l0 -3.5l-4.375 0l0 3.5zm6.5 -3.5l0 3.5l4.125 0l0 -3.5l-4.125 0zm6.25 0l0 3.5l4.375 0l0 -3.5l-4.375 0zm15.125 -6.25l25.625 0l0 25.875l-2.5 0l0 -0.875l-20.625 0l0 1.25l-2.5 0l0 -26.25zm23.125 2.375l-20.625 0l0 20.25l20.625 0l0 -20.25zm-19.5 16.75q7.125 -3.25 7.25 -9.25l-6.875 0l0 -2.0l7.0 0l0 -4.25l2.375 0q1.0 0.125 0.125 0.75l0 3.5l7.875 0l0 2.0l-7.625 0q1.25 4.75 7.875 9.25l-1.625 2.5q-5.875 -4.625 -7.125 -8.5q-1.0 5.0 -7.75 8.75l-1.5 -2.75z" fill-rule="nonzero"/><path fill="#000000" fill-opacity="0.0" d="m100.80052 343.2861l76.97638 0" fill-rule="evenodd"/><path stroke="#000000" stroke-width="4.0" stroke-linejoin="round" stroke-linecap="butt" d="m100.80052 343.2861l63.268036 0" fill-rule="evenodd"/><path fill="#000000" stroke="#000000" stroke-width="4.0" stroke-linecap="butt" d="m164.06856 343.2861l-4.498337 4.4983215l12.35907 -4.4983215l-12.35907 -4.498352z" fill-rule="evenodd"/><path fill="#000000" fill-opacity="0.0" d="m470.82416 343.27298l89.7323 0" fill-rule="evenodd"/><path stroke="#000000" stroke-width="4.0" stroke-linejoin="round" stroke-linecap="butt" d="m470.82416 343.27298l76.023926 0" fill-rule="evenodd"/><path fill="#000000" stroke="#000000" stroke-width="4.0" stroke-linecap="butt" d="m546.8481 343.27298l-4.498352 4.4983215l12.35907 -4.4983215l-12.35907 -4.498352z" fill-rule="evenodd"/></g></svg>